<svg width="122" height="86" viewBox="0 0 122 86" fill="none" xmlns="http://www.w3.org/2000/svg">
<path d="M11.6462 43.0324C11.8859 42.9523 12.0456 42.7118 12.0456 42.3911L11.8859 41.7498C11.806 41.5093 11.5663 41.349 11.3266 41.4292L5.2549 43.0324C5.01522 43.1126 4.85544 43.3531 4.93533 43.5936L5.09511 44.2349C5.17501 44.4754 5.41468 44.6357 5.65435 44.5555C5.89403 45.4373 6.53316 46.1588 7.33207 46.6398L8.37065 47.2009C8.53043 47.2811 8.53043 47.4414 8.45054 47.5216L7.73152 48.4835C7.17228 49.205 7.0125 50.167 7.17228 51.0488C6.93261 51.1289 6.77283 51.3694 6.85272 51.6099L7.0125 52.2512C7.09239 52.652 7.41196 52.8124 7.65163 52.7322L13.7234 51.1289C13.963 51.0488 14.1228 50.8083 14.0429 50.5678L13.8831 49.9265C13.8032 49.686 13.5636 49.5257 13.3239 49.6058C13.0842 48.724 12.4451 48.0026 11.6462 47.6018L10.5277 47.0406C10.3679 46.9604 10.3679 46.8001 10.4478 46.72L11.1668 45.758C11.6462 44.8762 11.806 43.9944 11.6462 43.0324ZM10.2081 45.0365L9.40924 46.1588C9.32934 46.3191 9.08967 46.3191 9.00978 46.239L7.81141 45.5977C7.33207 45.3572 7.0125 45.0365 6.77283 44.5555C6.69294 44.3952 6.77283 44.2349 6.93261 44.1547C6.93261 44.1547 6.93261 44.1547 7.0125 44.1547L10.3679 43.2729C10.5277 43.2729 10.6875 43.3531 10.6875 43.5134C10.6875 43.5134 10.6875 43.5134 10.6875 43.5936C10.6076 44.1547 10.5277 44.6357 10.2081 45.0365Z" fill="url(#paint0_linear_699:10682)"/>
<path d="M60.6195 86C82.5484 86 100.325 68.1625 100.325 46.1588C100.325 24.1551 82.5484 6.31763 60.6195 6.31763C38.6905 6.31763 20.9136 24.1551 20.9136 46.1588C20.9136 68.1625 38.6905 86 60.6195 86Z" fill="url(#paint1_linear_699:10682)"/>
<path d="M106.045 26.5987C107.283 25.4638 107.369 23.5369 106.238 22.295C105.107 21.0531 103.187 20.9663 101.949 22.1013C100.711 23.2362 100.625 25.163 101.756 26.405C102.887 27.6469 104.807 27.7336 106.045 26.5987Z" fill="#EAEEF9"/>
<path d="M37.6726 9.73698C38.7216 9.39487 39.2956 8.26424 38.9547 7.21165C38.6137 6.15907 37.4869 5.58311 36.4379 5.92523C35.3888 6.26734 34.8149 7.39797 35.1558 8.45056C35.4968 9.50314 36.6236 10.0791 37.6726 9.73698Z" fill="#EAEEF9"/>
<path d="M42.0324 3.19811C42.7458 2.96546 43.1361 2.19663 42.9042 1.48087C42.6724 0.765105 41.9062 0.373461 41.1928 0.606104C40.4795 0.838748 40.0892 1.60758 40.321 2.32335C40.5529 3.03911 41.3191 3.43075 42.0324 3.19811Z" fill="#EAEEF9"/>
<path d="M106.274 12.942C106.796 12.4641 106.832 11.6528 106.356 11.1299C105.879 10.607 105.071 10.5704 104.55 11.0483C104.029 11.5262 103.992 12.3375 104.469 12.8604C104.945 13.3833 105.753 13.4198 106.274 12.942Z" fill="#EAEEF9"/>
<path d="M74.7381 3.38012C75.0964 3.05159 75.1214 2.49383 74.794 2.13432C74.4666 1.77482 73.9107 1.74971 73.5524 2.07824C73.1941 2.40677 73.1691 2.96453 73.4965 3.32403C73.824 3.68354 74.3798 3.70865 74.7381 3.38012Z" fill="#EAEEF9"/>
<path d="M65.6326 4.48918C65.393 4.24869 65.0734 4.00821 64.7538 3.76772V3.68755C64.7538 3.68755 64.8337 3.60739 64.9136 3.60739C65.1533 3.44706 65.393 3.20657 65.4729 2.96608C65.5527 2.4851 65.1533 2.32478 64.9136 2.16445C64.9136 2.16445 64.8337 2.16445 64.8337 2.08429L64.9136 2.00412C65.1533 1.8438 65.393 1.52314 65.393 1.20249C65.393 1.04216 65.2332 0.881836 65.0734 0.881836C64.9136 0.881836 64.7538 1.04216 64.7538 1.20249C64.7538 1.28265 64.5941 1.44298 64.5142 1.52314C64.3544 1.68347 64.1147 1.92396 64.1147 2.24461C64.1946 2.4851 64.3544 2.64543 64.594 2.72559C64.6739 2.72559 64.7538 2.80576 64.7538 2.80576C64.7538 2.88592 64.5941 2.96608 64.5142 3.04625C64.3544 3.12641 64.2745 3.28674 64.1147 3.3669C64.1147 3.3669 64.0348 3.3669 64.0348 3.28674C63.875 3.20657 63.7153 3.12641 63.5555 3.04625C63.4756 3.04625 63.3957 2.96608 63.3158 2.96608C62.7566 2.80576 62.3571 2.88592 62.0375 3.20657C61.9576 3.28673 61.8778 3.3669 61.8778 3.52723L59.6408 9.94029C59.5609 10.1808 59.6408 10.4213 59.8805 10.5014C59.9604 10.5014 60.1201 10.5014 60.2 10.5014L66.3517 8.1767H66.4315C66.5114 8.09653 66.5913 8.09653 66.6712 8.01637C66.9109 7.77588 66.9908 7.45523 66.9908 7.13457C66.9109 6.49327 66.7511 5.93212 66.3517 5.45114C66.1919 5.13049 65.9522 4.80984 65.6326 4.48918ZM66.2718 7.61555C66.0321 7.85604 64.9136 7.61555 63.7153 6.4131C62.5968 5.21065 62.3571 4.08837 62.5968 3.84788C62.7565 3.68755 63.2359 3.76771 63.875 4.08837L63.7153 4.32886C63.6354 4.48918 63.6354 4.64951 63.7951 4.80984C63.875 4.80984 63.875 4.89 63.9549 4.89C64.0348 4.89 64.1946 4.80984 64.1946 4.72967L64.3544 4.48918C64.5941 4.64951 64.8337 4.89 65.0734 5.13049C66.2718 6.17261 66.5114 7.37506 66.2718 7.61555Z" fill="url(#paint2_linear_699:10682)"/>
<path d="M69.9467 5.21054C69.8669 5.2907 69.6272 5.13037 69.4674 5.05021C69.2277 4.88988 68.8283 4.72956 68.5886 4.97005C68.3489 5.21054 68.4288 5.45103 68.4288 5.77168C68.4288 5.85184 68.4288 5.93201 68.4288 6.01217C68.269 5.93201 68.1891 5.85184 68.0294 5.77168C67.7897 5.61135 67.3902 5.37086 67.0707 5.69152C66.9908 5.85184 66.9908 6.01217 67.1506 6.1725C67.2305 6.25266 67.3902 6.25266 67.4701 6.1725C67.55 6.1725 67.6299 6.25266 67.7098 6.33282C67.9495 6.49315 68.1891 6.65348 68.5087 6.65348C68.5886 6.65348 68.5886 6.65348 68.6685 6.65348C69.1478 6.49315 69.0679 5.93201 69.0679 5.69152C69.0679 5.69152 69.0679 5.61135 69.0679 5.53119C69.1478 5.53119 69.1478 5.61135 69.2277 5.61135C69.5473 5.77168 69.9467 5.93201 70.2663 5.77168C70.4261 5.69152 70.506 5.53119 70.4261 5.37086C70.3462 5.21054 70.1065 5.13037 69.9467 5.21054Z" fill="url(#paint3_linear_699:10682)"/>
<path d="M66.3516 4.0884C66.4315 4.0884 66.5114 4.00824 66.5913 4.00824C66.6711 4.00824 66.751 4.00824 66.751 4.00824C67.0706 4.0884 67.3902 4.0884 67.6298 3.92808C67.9494 3.68759 68.0293 3.36693 67.9494 2.96612C67.9494 2.88595 67.9494 2.72563 67.9494 2.72563C68.0293 2.72563 68.1092 2.72563 68.1891 2.72563C68.5086 2.80579 68.9081 2.72563 69.1478 2.48514C69.3076 2.40497 69.3076 2.16448 69.2277 2.00416C69.1478 1.84383 68.9081 1.84383 68.7483 1.92399C68.5885 2.00416 68.3489 2.08432 68.1891 2.00416C67.8695 1.92399 67.6298 2.00416 67.3902 2.24465C67.2304 2.48514 67.2304 2.72563 67.2304 2.96612C67.2304 3.20661 67.2304 3.28677 67.1505 3.28677C67.0706 3.36693 66.9108 3.28677 66.751 3.28677C66.5114 3.20661 66.1918 3.12644 65.9521 3.4471C65.8722 3.60742 65.8722 3.76775 66.032 3.84791C66.1918 4.0884 66.2717 4.0884 66.3516 4.0884Z" fill="url(#paint4_linear_699:10682)"/>
<path d="M66.9907 1.20245C66.9907 1.28261 66.9907 1.28261 67.0706 1.36278H67.1505L67.55 1.20245C67.6299 1.12229 67.7097 1.12229 67.7896 1.20245L68.1891 1.36278C68.269 1.36278 68.269 1.36278 68.3489 1.28261V1.20245L68.1891 0.801633C68.1092 0.72147 68.1092 0.641307 68.1891 0.561144L68.3489 0.160327C68.3489 0.0801639 68.3489 0.0801633 68.269 0H68.1891L67.7896 0.160327C67.7097 0.240491 67.6299 0.240491 67.55 0.160327L67.1505 0C67.0706 0 67.0706 3.04604e-07 66.9907 0.0801636V0.160327L67.1505 0.561144C67.2304 0.641307 67.2304 0.72147 67.1505 0.801633L66.9907 1.20245Z" fill="url(#paint5_linear_699:10682)"/>
<path d="M71.8641 3.84778C71.8641 3.76761 71.8641 3.68745 71.8641 3.60729L72.0239 3.20647C72.0239 3.12631 72.0239 3.12631 71.944 3.04614H71.8641L71.4647 3.20647C71.3848 3.20647 71.3049 3.20647 71.225 3.20647L70.8256 3.04614C70.7457 3.04614 70.7457 3.04614 70.6658 3.12631V3.20647L70.8256 3.60729C70.8256 3.68745 70.8256 3.76761 70.8256 3.84778L70.6658 4.24859C70.6658 4.32876 70.6658 4.32876 70.7457 4.40892H70.8256L71.225 4.24859C71.3049 4.24859 71.3848 4.24859 71.4647 4.24859L71.8641 4.40892C71.944 4.40892 71.944 4.40892 72.0239 4.32876V4.24859L71.8641 3.84778Z" fill="url(#paint6_linear_699:10682)"/>
<path d="M62.1973 2.32472L62.5169 2.16439C62.5968 2.16439 62.6767 2.16439 62.7566 2.16439L63.0761 2.32472H63.156V2.24455L62.9962 1.9239C62.9962 1.84374 62.9962 1.76357 62.9962 1.68341L63.156 1.36276V1.28259H63.0761L62.7566 1.44292C62.6767 1.44292 62.5968 1.44292 62.5169 1.44292L62.1973 1.28259H62.1174V1.36276L62.2772 1.68341C62.2772 1.76357 62.2772 1.84374 62.2772 1.9239L62.1174 2.24455C62.0375 2.32472 62.0375 2.32472 62.1973 2.32472C62.1174 2.32472 62.1174 2.32472 62.1973 2.32472Z" fill="url(#paint7_linear_699:10682)"/>
<path d="M82.8292 78.9456H10.6875L23.8695 18.1017H96.0911L82.8292 78.9456Z" fill="white"/>
<path d="M82.8292 78.9456H10.6875L23.8695 18.1017H96.0911L82.8292 78.9456Z" fill="#D5DAE8"/>
<path d="M41.2059 78.9456H26.2663C23.55 78.9456 21.313 76.6209 21.4728 73.8954L23.8695 18.1017H27.4646L41.2059 78.9456Z" fill="url(#paint8_linear_699:10682)"/>
<path d="M111.91 78.9456H39.7678L27.5445 32.2104L27.4646 31.8898L23.8695 18.1017H96.0911L99.2068 30.046L99.6862 31.8898L99.7661 32.2104L111.91 78.9456Z" fill="white"/>
<path d="M99.6862 31.8898H27.4646L23.8695 18.1017H96.0911L99.2068 30.046L99.6862 31.8898Z" fill="#F3F5FA"/>
<path opacity="0.3" d="M42.8837 27.9618C44.2956 27.9618 45.4402 26.8133 45.4402 25.3965C45.4402 23.9798 44.2956 22.8313 42.8837 22.8313C41.4717 22.8313 40.3271 23.9798 40.3271 25.3965C40.3271 26.8133 41.4717 27.9618 42.8837 27.9618Z" fill="#172D45"/>
<path opacity="0.3" d="M85.0662 27.9618C86.4781 27.9618 87.6227 26.8133 87.6227 25.3965C87.6227 23.9798 86.4781 22.8313 85.0662 22.8313C83.6542 22.8313 82.5096 23.9798 82.5096 25.3965C82.5096 26.8133 83.6542 27.9618 85.0662 27.9618Z" fill="#172D45"/>
<path d="M42.2445 26.4387C41.7651 26.4387 41.3657 26.0379 41.3657 25.5569C41.3657 25.0759 41.7651 24.6751 42.2445 24.6751C44.0021 24.6751 45.8396 22.19 45.8396 18.4223C45.8396 18.3422 45.8396 18.1818 45.8396 18.1017C45.7597 14.4142 43.9222 12.1696 42.2445 12.1696C40.6467 12.1696 38.8891 14.334 38.6494 17.7009H36.8119C37.0516 13.5324 39.3684 10.406 42.1646 10.406C45.1206 10.406 47.4374 13.853 47.5972 18.262C47.5972 18.3422 47.5972 18.4223 47.5972 18.5025C47.6771 22.9115 45.2803 26.4387 42.2445 26.4387Z" fill="#1C3754"/>
<path d="M84.1872 26.4387C83.7079 26.4387 83.3084 26.0379 83.3084 25.5569C83.3084 25.0759 83.7079 24.6751 84.1872 24.6751C85.9448 24.6751 87.7823 22.19 87.7823 18.4223C87.7823 18.3422 87.7823 18.1818 87.7823 18.1017C87.7024 14.4142 85.865 12.1696 84.1872 12.1696C82.5894 12.1696 80.8318 14.334 80.5921 17.7009H78.7546C78.9943 13.5324 81.3112 10.406 84.1073 10.406C87.0633 10.406 89.3802 13.853 89.5399 18.262C89.5399 18.3422 89.5399 18.4223 89.5399 18.5025C89.6198 22.9115 87.2231 26.4387 84.1872 26.4387Z" fill="#1C3754"/>
<path d="M1.5 78.8655H117.742" stroke="#EAEEF9" stroke-width="2" stroke-miterlimit="10" stroke-linecap="round" stroke-linejoin="round"/>
<path d="M85.4655 49.9265C84.9862 49.9265 84.6666 49.5257 84.6666 49.1249C84.6666 48.6439 84.9862 48.3232 85.4655 48.3232H87.9422C88.4215 48.3232 88.7411 48.7241 88.7411 49.1249C88.7411 49.6059 88.3416 49.9265 87.9422 49.9265H85.4655Z" fill="#D5DAE8"/>
<path d="M51.4319 72.5325C51.1123 72.5325 50.7928 72.292 50.633 71.9714L49.3547 67.2417H43.0433C42.564 67.2417 42.2444 66.8409 42.2444 66.4401C42.2444 65.9591 42.6439 65.6385 43.0433 65.6385H48.8754L46.8781 58.5841H40.8064C40.327 58.5841 40.0075 58.1833 40.0075 57.7825C40.0075 57.3015 40.327 56.9808 40.8064 56.9808H46.3988L44.4015 49.9265H38.6493C38.17 49.9265 37.8504 49.5256 37.8504 49.1248C37.8504 48.6438 38.17 48.3232 38.6493 48.3232H44.002L42.0048 41.2688H36.4923C36.0129 41.2688 35.6934 40.868 35.6934 40.4672C35.6934 39.9862 36.0129 39.6655 36.4923 39.6655H41.5254L40.7265 36.7797C40.6466 36.3789 40.8863 35.8979 41.2857 35.8177C41.3656 35.8177 41.4455 35.8177 41.5254 35.8177C41.845 35.8177 42.1645 36.0582 42.3243 36.3789L43.283 39.6655H49.6743C50.1537 39.6655 50.4732 39.9862 50.4732 40.4672C50.4732 40.9482 50.1537 41.2688 49.6743 41.2688H43.7624L45.7596 48.3232H55.8259L52.6303 36.7797C52.5504 36.3789 52.7901 35.8979 53.1895 35.8177C53.2694 35.8177 53.3493 35.8177 53.4292 35.8177C53.7488 35.8177 54.0683 36.0582 54.2281 36.3789L55.1868 39.6655H58.6221C59.1015 39.6655 59.421 39.9862 59.421 40.4672C59.421 40.9482 59.0216 41.2688 58.6221 41.2688H55.6661L57.6634 48.3232H64.4542C64.9335 48.3232 65.2531 48.724 65.2531 49.1248C65.2531 49.6058 64.9335 49.9265 64.4542 49.9265H58.1428L60.14 56.9808H70.2862L65.8922 41.2688H63.7351C63.2558 41.2688 62.9362 40.868 62.9362 40.4672C62.9362 39.9862 63.3357 39.6655 63.7351 39.6655H65.4129L64.6139 36.7797C64.5341 36.5392 64.6139 36.3789 64.6938 36.1384C64.7737 35.978 64.9335 35.8177 65.1732 35.7375C65.2531 35.7375 65.333 35.7375 65.4129 35.7375C65.7324 35.7375 66.052 35.978 66.2118 36.2987L67.1705 39.5854H68.8482C69.3275 39.5854 69.6471 39.906 69.6471 40.387C69.6471 40.868 69.3275 41.1887 68.8482 41.1887H67.6498L69.6471 48.243H79.7933L77.796 41.1887H72.6031C72.1237 41.1887 71.8041 40.7878 71.8041 40.387C71.8041 39.906 72.2036 39.5854 72.6031 39.5854H77.077L76.278 36.6995C76.1982 36.2987 76.4378 35.8177 76.8373 35.7375C76.9172 35.7375 76.9971 35.7375 77.077 35.7375C77.3965 35.7375 77.7161 35.978 77.8759 36.2987L78.8346 39.5854H88.9807L88.1818 36.6995C88.1019 36.2987 88.3416 35.8177 88.7411 35.7375C88.8209 35.7375 88.9008 35.7375 88.9807 35.7375C89.3003 35.7375 89.6199 35.978 89.7796 36.2987L90.7383 39.5854H96.9698C97.4492 39.5854 97.7688 39.906 97.7688 40.387C97.7688 40.868 97.4492 41.1887 96.9698 41.1887H90.978L92.9753 48.243H98.9671C99.4465 48.243 99.766 48.6438 99.766 49.0447C99.766 49.5256 99.4465 49.8463 98.9671 49.8463H93.4546L95.4519 56.9007H101.204C101.683 56.9007 102.003 57.3015 102.003 57.7023C102.003 58.1833 101.683 58.5039 101.204 58.5039H95.9313L97.9285 65.5583H103.361C103.84 65.5583 104.16 65.9591 104.16 66.3599C104.16 66.8409 103.761 67.1616 103.361 67.1616H98.328L99.5264 71.4102C99.6063 71.811 99.3666 72.292 98.9671 72.3722C98.8872 72.3722 98.8073 72.3722 98.7274 72.3722C98.4079 72.3722 98.0883 72.1317 97.9285 71.811L96.6503 67.1616H86.5041L87.7025 71.3301C87.7824 71.5705 87.7025 71.7309 87.6226 71.9714C87.5427 72.1317 87.3829 72.292 87.1432 72.3722C87.0633 72.3722 86.9835 72.3722 86.9036 72.3722C86.584 72.3722 86.2644 72.1317 86.1047 71.811L84.8264 67.2417H74.6802L75.8786 71.4102C75.9585 71.811 75.7188 72.292 75.3194 72.3722C75.2395 72.3722 75.1596 72.3722 75.0797 72.3722C74.7601 72.3722 74.4406 72.1317 74.2808 71.811L73.0025 67.2417H62.8563L64.0547 71.4102C64.1346 71.811 63.8949 72.292 63.4955 72.3722C63.4156 72.3722 63.3357 72.3722 63.2558 72.3722C62.9362 72.3722 62.6167 72.1317 62.4569 71.811L61.1786 67.2417H51.0325L52.2308 71.4904C52.3107 71.7309 52.2308 71.8912 52.1509 72.1317C52.071 72.292 51.9113 72.4523 51.6716 72.5325C51.5917 72.5325 51.5118 72.5325 51.4319 72.5325ZM74.2009 65.6385H96.1709L94.1737 58.5841H84.0275L84.7465 61.1493C84.8264 61.3898 84.7465 61.5501 84.6666 61.7906C84.5867 61.9509 84.4269 62.1113 84.1873 62.1914C84.1074 62.1914 84.0275 62.1914 83.9476 62.1914C83.628 62.1914 83.3085 61.9509 83.1487 61.6303L82.3498 58.6643H79.3139C78.8346 58.6643 78.515 58.2634 78.515 57.8626C78.515 57.3816 78.8346 57.061 79.3139 57.061H81.8704L79.8731 50.0066H69.8069L71.8041 57.061H74.2808C74.7601 57.061 75.0797 57.4618 75.0797 57.8626C75.0797 58.3436 74.7601 58.6643 74.2808 58.6643H72.2036L74.2009 65.6385ZM62.377 65.6385H72.5232L70.5259 58.5841H60.3797L62.377 65.6385ZM50.5531 65.6385H60.6993L58.702 58.5841H55.746C55.2667 58.5841 54.9471 58.1833 54.9471 57.7825C54.9471 57.3015 55.3466 56.9808 55.746 56.9808H58.3025L56.3053 49.9265H46.1591L48.1564 56.9808H50.7928C51.2721 56.9808 51.5917 57.3816 51.5917 57.7825C51.5917 58.2634 51.1922 58.5841 50.7928 58.5841H48.6357L50.5531 65.6385ZM83.628 56.9808H93.7742L89.3802 41.2688H79.1541L83.628 56.9808Z" fill="#D5DAE8"/>
<path d="M57.4238 45.2771C56.3852 46.8803 55.9059 48.8043 56.0657 50.7282C56.1455 52.5719 56.8646 54.4157 57.983 55.9388C59.1015 57.3817 60.6993 58.5842 62.4569 59.0652C64.2146 59.6263 66.1319 59.5461 67.8895 59.0652C69.5673 58.504 71.0852 57.3817 71.8841 55.8586C72.683 54.3355 72.7629 52.4918 71.964 51.0488C71.245 49.5257 69.727 48.4034 68.0493 47.7621C66.3716 47.0407 64.4542 46.72 62.5368 46.6398C61.8178 46.6398 61.3385 45.9985 61.3385 45.3572C61.3385 44.6358 61.9776 44.1548 62.6167 44.1548C64.7738 44.3151 66.9308 44.6358 68.9281 45.5176C70.9254 46.3994 72.9227 47.8423 73.9613 50.0869C74.4406 51.129 74.7602 52.4116 74.6803 53.6141C74.6004 54.8165 74.2808 56.019 73.7216 56.9809C72.6031 59.0652 70.6058 60.5081 68.4488 61.1494C66.2917 61.7907 63.9749 61.7105 61.8977 60.9891C59.8205 60.2676 57.983 58.8247 56.7048 57.0611C55.4265 55.2975 54.7075 53.1331 54.6276 50.9687C54.5477 48.8043 55.2667 46.5597 56.4651 44.7961C56.6249 44.5556 57.0243 44.4754 57.3439 44.6358C57.5037 44.6358 57.5836 45.0366 57.4238 45.2771Z" fill="url(#paint9_linear_699:10682)"/>
<path d="M121.188 71.1779C121.108 71.4184 121.108 71.739 121.028 71.9795C120.789 72.8613 120.549 73.663 120.15 74.3844C118.312 78.4728 114.797 81.5189 110.563 82.7213C110.323 82.8015 110.083 82.8818 109.923 82.8818C107.766 83.443 105.45 83.5229 103.133 83.0419C94.9039 81.3585 89.5513 73.1821 91.3089 64.9253C92.9866 56.6685 101.135 51.2973 109.364 53.0609C112.32 53.7022 114.957 55.1453 117.034 57.2296C120.629 60.8369 122.227 66.1276 121.188 71.1779Z" fill="url(#paint10_linear_699:10682)"/>
<path d="M100.053 71.7759C100.053 70.8941 101.012 71.2949 101.571 69.371C102.21 67.0462 101.251 64.8016 103.728 62.8777C103.888 62.7174 104.127 62.6372 104.367 62.4769C104.447 62.3967 104.527 62.3166 104.527 62.2364C104.447 61.3546 105.086 60.553 105.965 60.4728C106.844 60.3927 107.643 61.034 107.723 61.9158C107.723 61.9959 107.723 62.0761 107.723 62.0761C107.723 62.2364 107.802 62.3166 107.882 62.3968C109.64 63.2785 110.359 64.8016 110.439 66.7256C110.758 71.0544 111.717 70.4131 112.276 71.1345C112.756 71.856 112.037 72.6577 111.078 72.6577C101.491 72.9783 100.053 73.0585 100.053 71.7759Z" fill="white"/>
<path d="M105.566 75.5435C104.767 75.2228 104.367 74.341 104.687 73.6196C104.687 73.5394 104.767 73.4592 104.926 73.4592C105.805 73.4592 106.604 73.4592 107.483 73.4592C107.563 73.4592 107.723 73.5394 107.723 73.6196C107.962 74.1807 107.723 74.9022 107.323 75.303C106.764 75.6236 106.125 75.784 105.566 75.5435Z" fill="white"/>
<defs>
<linearGradient id="paint0_linear_699:10682" x1="4.90149" y1="47.089" x2="14.0612" y2="47.089" gradientUnits="userSpaceOnUse">
<stop stop-color="#83B9FF"/>
<stop offset="1" stop-color="#5AA2FF"/>
</linearGradient>
<linearGradient id="paint1_linear_699:10682" x1="21.8852" y1="47.3587" x2="101.657" y2="47.3587" gradientUnits="userSpaceOnUse">
<stop stop-color="#FFA666"/>
<stop offset="1" stop-color="#F58636"/>
</linearGradient>
<linearGradient id="paint2_linear_699:10682" x1="59.7011" y1="5.83649" x2="67.1145" y2="5.83649" gradientUnits="userSpaceOnUse">
<stop stop-color="#FFA666"/>
<stop offset="1" stop-color="#F58636"/>
</linearGradient>
<linearGradient id="paint3_linear_699:10682" x1="67.0603" y1="5.77764" x2="70.5151" y2="5.77764" gradientUnits="userSpaceOnUse">
<stop stop-color="#FFA666"/>
<stop offset="1" stop-color="#F58636"/>
</linearGradient>
<linearGradient id="paint4_linear_699:10682" x1="65.941" y1="3.01326" x2="69.3368" y2="3.01326" gradientUnits="userSpaceOnUse">
<stop stop-color="#FFA666"/>
<stop offset="1" stop-color="#F58636"/>
</linearGradient>
<linearGradient id="paint5_linear_699:10682" x1="67.0073" y1="0.70191" x2="68.3717" y2="0.70191" gradientUnits="userSpaceOnUse">
<stop stop-color="#FFA666"/>
<stop offset="1" stop-color="#F58636"/>
</linearGradient>
<linearGradient id="paint6_linear_699:10682" x1="70.6824" y1="3.74805" x2="72.0467" y2="3.74805" gradientUnits="userSpaceOnUse">
<stop stop-color="#FFA666"/>
<stop offset="1" stop-color="#F58636"/>
</linearGradient>
<linearGradient id="paint7_linear_699:10682" x1="62.0783" y1="1.81935" x2="63.1743" y2="1.81935" gradientUnits="userSpaceOnUse">
<stop stop-color="#FFA666"/>
<stop offset="1" stop-color="#F58636"/>
</linearGradient>
<linearGradient id="paint8_linear_699:10682" x1="21.4582" y1="48.5145" x2="41.2354" y2="48.5145" gradientUnits="userSpaceOnUse">
<stop stop-color="#D5DAE8"/>
<stop offset="1" stop-color="#9AA3BA"/>
</linearGradient>
<linearGradient id="paint9_linear_699:10682" x1="54.8672" y1="53.132" x2="75.029" y2="53.132" gradientUnits="userSpaceOnUse">
<stop stop-color="#FFA666"/>
<stop offset="1" stop-color="#F58636"/>
</linearGradient>
<linearGradient id="paint10_linear_699:10682" x1="90.931" y1="68.0653" x2="121.492" y2="68.0653" gradientUnits="userSpaceOnUse">
<stop stop-color="#83B9FF"/>
<stop offset="1" stop-color="#5AA2FF"/>
</linearGradient>
</defs>
</svg>
