<svg width="125" height="111" viewBox="0 0 125 111" fill="none" xmlns="http://www.w3.org/2000/svg">
<path d="M108.916 50.6104C108.916 61.8173 105.255 72.1316 99.1861 80.4624C95.8143 84.9253 91.7681 88.8923 87.144 91.9668C79.6297 97.0247 70.6703 100 61.0366 100C34.5438 100 13.157 77.8838 13.157 50.7096C13.157 23.4362 34.6402 1.41919 61.0366 1.41919C70.6703 1.41919 79.6297 4.39447 87.144 9.35326C91.7681 12.4277 95.8143 16.3947 99.1861 20.8577C105.352 29.0893 108.916 39.4035 108.916 50.6104Z" fill="url(#paint0_linear_503:10832)"/>
<path opacity="0.3" d="M99.1858 20.7585V80.3632C95.814 84.8261 91.7679 88.7931 87.1437 91.8676H38.4934V17.3865C38.5897 15.2046 39.4568 13.2211 40.8055 11.8326C42.3469 10.2458 44.37 9.35325 46.6821 9.35325H87.1437C91.7679 12.4277 95.9104 16.2956 99.1858 20.7585Z" fill="#CED7E2"/>
<path d="M90.4193 19.9651H63.0596V9.35327H98.9933C99.0897 9.35327 99.186 9.35327 99.186 9.35327C104.774 9.45245 109.301 14.2129 109.301 20.0643H97.452" fill="#CED7E2"/>
<path d="M99.9568 9.35327C97.8374 9.45245 95.9106 10.4442 94.4656 11.8327C94.3692 11.9318 94.1765 12.1302 94.0802 12.3285C92.8278 13.8162 91.9608 15.7997 91.9608 17.8824V81.3549C91.9608 87.3055 87.3366 92.0659 81.5564 92.0659H31.0757V17.3865C31.172 15.2046 32.0391 13.2211 33.3878 11.8327C34.9292 10.2459 36.9523 9.35327 39.2643 9.35327H89.9377H99.5714C99.7641 9.35327 99.8605 9.35327 99.9568 9.35327Z" fill="white"/>
<path d="M81.8453 23.8329H66.9131C66.3351 23.8329 65.9497 23.337 65.9497 22.8411C65.9497 22.3452 66.4314 21.8494 66.9131 21.8494H81.9417C82.5197 21.8494 82.9051 22.3452 82.9051 22.8411C82.9051 23.337 82.4234 23.8329 81.8453 23.8329Z" fill="#CED7E2"/>
<path d="M59.8804 23.8329H40.324C39.7459 23.8329 39.3606 23.337 39.3606 22.8411C39.3606 22.3452 39.8423 21.8494 40.324 21.8494H59.8804C60.4584 21.8494 60.8438 22.3452 60.8438 22.8411C60.8438 23.337 60.4584 23.8329 59.8804 23.8329Z" fill="#CED7E2"/>
<path d="M72.4044 33.8497H52.9443C52.3663 33.8497 51.981 33.3538 51.981 32.858C51.981 32.2629 52.4626 31.8662 52.9443 31.8662H72.4044C72.9825 31.8662 73.3678 32.3621 73.3678 32.858C73.3678 33.453 72.9825 33.8497 72.4044 33.8497Z" fill="#CED7E2"/>
<path d="M46.6822 33.8497H40.324C39.7459 33.8497 39.3606 33.3538 39.3606 32.858C39.3606 32.2629 39.8423 31.8662 40.324 31.8662H46.6822C47.2602 31.8662 47.6456 32.3621 47.6456 32.858C47.6456 33.453 47.1639 33.8497 46.6822 33.8497Z" fill="#E3EAF2"/>
<path d="M81.8452 43.9657H69.8994C69.3214 43.9657 68.936 43.4698 68.936 42.9739C68.936 42.3789 69.4177 41.9822 69.8994 41.9822H81.8452C82.4232 41.9822 82.8086 42.4781 82.8086 42.9739C82.9049 43.4698 82.4232 43.9657 81.8452 43.9657Z" fill="#E3EAF2"/>
<path d="M64.2156 43.9657H40.324C39.7459 43.9657 39.3606 43.4698 39.3606 42.9739C39.3606 42.3789 39.8423 41.9822 40.324 41.9822H64.2156C64.7936 41.9822 65.179 42.4781 65.179 42.9739C65.179 43.4698 64.7936 43.9657 64.2156 43.9657Z" fill="#CED7E2"/>
<path d="M72.4042 53.9824H59.206C58.628 53.9824 58.2427 53.4865 58.2427 52.9907C58.2427 52.4948 58.7244 51.9989 59.206 51.9989H72.4042C72.9823 51.9989 73.3676 52.4948 73.3676 52.9907C73.3676 53.4865 72.9823 53.9824 72.4042 53.9824Z" fill="#CED7E2"/>
<path d="M53.5222 53.9824H40.324C39.7459 53.9824 39.3606 53.4865 39.3606 52.9907C39.3606 52.4948 39.8423 51.9989 40.324 51.9989H53.5222C54.1002 51.9989 54.4855 52.4948 54.4855 52.9907C54.4855 53.4865 54.1002 53.9824 53.5222 53.9824Z" fill="#E3EAF2"/>
<path d="M81.8454 64.0983H72.6934C72.1153 64.0983 71.73 63.6024 71.73 63.1065C71.73 62.5114 72.2117 62.1147 72.6934 62.1147H81.8454C82.4234 62.1147 82.8088 62.6106 82.8088 63.1065C82.9051 63.6024 82.4234 64.0983 81.8454 64.0983Z" fill="#CED7E2"/>
<path d="M66.7206 64.0983H51.3066C50.7286 64.0983 50.3433 63.6024 50.3433 63.1065C50.3433 62.5114 50.8249 62.1147 51.3066 62.1147H66.7206C67.2986 62.1147 67.684 62.6106 67.684 63.1065C67.7803 63.6024 67.2986 64.0983 66.7206 64.0983Z" fill="#E3EAF2"/>
<path d="M45.6227 64.0983H40.2278C39.6498 64.0983 39.2644 63.6024 39.2644 63.1065C39.2644 62.5114 39.7461 62.1147 40.2278 62.1147H45.6227C46.2007 62.1147 46.586 62.6106 46.586 63.1065C46.586 63.6024 46.2007 64.0983 45.6227 64.0983Z" fill="#CED7E2"/>
<path d="M72.4042 74.1151H63.2522C62.6742 74.1151 62.2888 73.6192 62.2888 73.1234C62.2888 72.6275 62.7705 72.1316 63.2522 72.1316H72.4042C72.9822 72.1316 73.3676 72.6275 73.3676 73.1234C73.3676 73.6192 72.9822 74.1151 72.4042 74.1151Z" fill="#CED7E2"/>
<path d="M57.2793 74.1151H40.324C39.7459 74.1151 39.3606 73.6192 39.3606 73.1234C39.3606 72.6275 39.8423 72.1316 40.324 72.1316H57.2793C57.8573 72.1316 58.2427 72.6275 58.2427 73.1234C58.2427 73.6192 57.761 74.1151 57.2793 74.1151Z" fill="#E3EAF2"/>
<path d="M59.3988 83.5369H72.6934C72.6934 85.8179 73.5604 87.9998 75.1018 89.4874C76.5469 90.9751 78.5699 91.9668 80.882 91.9668H20.864C18.6482 91.9668 16.5288 91.0742 15.0837 89.4874C13.6387 87.9998 12.6753 85.9171 12.6753 83.5369H52.0772C52.1735 83.5369 59.4952 83.636 59.3988 83.5369Z" fill="#CED7E2"/>
<path d="M21.7156 11.8176C22.9806 11.3943 23.6727 9.9955 23.2616 8.69326C22.8504 7.39103 21.4917 6.67848 20.2267 7.10174C18.9617 7.525 18.2696 8.92379 18.6807 10.226C19.0919 11.5283 20.4506 12.2408 21.7156 11.8176Z" fill="#EAEEF9"/>
<path d="M26.973 3.72789C27.8332 3.44007 28.3038 2.48889 28.0243 1.60337C27.7447 0.717852 26.8207 0.233318 25.9606 0.521135C25.1004 0.808953 24.6297 1.76013 24.9093 2.64565C25.1889 3.53117 26.1128 4.01571 26.973 3.72789Z" fill="#EAEEF9"/>
<path d="M4.96805 57.156C5.87255 57.156 6.60579 56.4012 6.60579 55.47C6.60579 54.5389 5.87255 53.784 4.96805 53.784C4.06356 53.784 3.33032 54.5389 3.33032 55.47C3.33032 56.4012 4.06356 57.156 4.96805 57.156Z" fill="url(#paint1_linear_503:10832)"/>
<path d="M118.798 36.2493C120.29 34.8452 120.394 32.4614 119.03 30.9249C117.667 29.3885 115.351 29.2812 113.858 30.6853C112.366 32.0894 112.262 34.4732 113.626 36.0096C114.99 37.5461 117.305 37.6534 118.798 36.2493Z" fill="#EAEEF9"/>
<path d="M118.068 19.7667C118.919 19.7667 119.609 19.0563 119.609 18.1799C119.609 17.3035 118.919 16.5931 118.068 16.5931C117.217 16.5931 116.527 17.3035 116.527 18.1799C116.527 19.0563 117.217 19.7667 118.068 19.7667Z" fill="url(#paint2_linear_503:10832)"/>
<g filter="url(#filter0_d_503:10832)">
<path d="M33.4839 33.6514C33.5803 36.9242 30.9791 39.7011 27.8 39.8003H26.2586L22.0198 39.8994C15.6615 40.0978 10.363 34.8415 10.1703 28.2959C10.074 21.7503 15.0835 16.2956 21.4418 16.0972C27.8 15.8989 33.0986 21.1552 33.2912 27.7008L33.3876 30.1802L33.4839 33.6514Z" fill="url(#paint3_linear_503:10832)"/>
</g>
<path d="M20.1893 33.0563C19.804 33.0563 19.4187 32.9571 19.1296 32.6596L16.3359 29.7835C15.7578 29.1884 15.7578 28.2958 16.3359 27.7008C16.9139 27.1057 17.7809 27.1057 18.3589 27.7008L20.093 29.4859L25.1989 24.2296C25.7769 23.6346 26.6439 23.6346 27.222 24.2296C27.8 24.8247 27.8 25.7173 27.222 26.3123L21.0564 32.6596C20.96 32.8579 20.5747 33.0563 20.1893 33.0563Z" fill="white"/>
<path d="M1.5 93.6527H99.8603" stroke="#DDE7F3" stroke-width="2" stroke-miterlimit="10" stroke-linecap="round" stroke-linejoin="round"/>
<g filter="url(#filter1_d_503:10832)">
<path d="M116.49 77.7169C116.072 79.6023 115.514 81.343 114.817 83.0833C114.677 83.5184 114.538 83.8082 114.259 84.2433C111.889 89.0293 108.125 92.9453 103.524 95.2658C102.966 95.5558 102.408 95.8459 101.99 95.9909C97.5287 97.8763 92.5098 98.6015 87.4906 97.4412C74.2458 94.5406 65.741 81.0523 68.5294 67.2744C71.3178 53.4964 84.2839 44.6501 97.5288 47.5507C102.269 48.566 106.452 51.0312 109.937 54.5119C115.653 60.6032 118.163 69.3051 116.49 77.7169Z" fill="url(#paint4_linear_503:10832)"/>
</g>
<path fill-rule="evenodd" clip-rule="evenodd" d="M104.6 66.1064V67.8656H101V66.1064C101 65.1344 101.804 64.346 102.8 64.346C103.796 64.346 104.6 65.1344 104.6 66.1064ZM102.2 62V62.042C102.392 62.0144 102.596 62 102.8 62C105.116 62 107 63.8384 107 66.1064V68.9816C107 69.6608 106.436 70.2128 105.74 70.2128H101V83.2232C101 84.7568 99.728 86 98.156 86H86C84.344 86 83 84.6872 83 83.0672V74V64.9328C83 63.3128 84.344 62 86 62H102.2ZM85.4 64.9328C85.4 64.6088 85.664 64.346 86 64.346H99.008C98.744 64.88 98.6 65.4764 98.6 66.1064V83.2232C98.6 83.4608 98.408 83.654 98.156 83.654H86C85.664 83.654 85.4 83.3912 85.4 83.0672V74V64.9328ZM92 66.8C92.5775 66.8 93.05 67.2608 93.05 67.8286V68.8571H94.625C95.2025 68.8571 95.675 69.3179 95.675 69.8857C95.675 70.4535 95.2025 70.9143 94.625 70.9143H90.95C90.3725 70.9143 89.9 71.3751 89.9 71.9429C89.9 72.5106 90.3725 72.9714 90.95 72.9714H93.05C94.793 72.9714 96.2 74.3528 96.2 76.0571C96.2 77.7615 94.793 79.1429 93.05 79.1429V80.1714C93.05 80.7392 92.5775 81.2 92 81.2C91.4225 81.2 90.95 80.7392 90.95 80.1714V79.1429H89.375C88.7975 79.1429 88.325 78.6821 88.325 78.1143C88.325 77.5465 88.7975 77.0857 89.375 77.0857H93.05C93.6275 77.0857 94.1 76.6249 94.1 76.0571C94.1 75.4894 93.6275 75.0286 93.05 75.0286H90.95C89.207 75.0286 87.8 73.6472 87.8 71.9429C87.8 70.2385 89.207 68.8571 90.95 68.8571V67.8286C90.95 67.2608 91.4225 66.8 92 66.8Z" fill="white"/>
<defs>
<filter id="filter0_d_503:10832" x="2.16895" y="13.0918" width="39.3175" height="39.8131" filterUnits="userSpaceOnUse" color-interpolation-filters="sRGB">
<feFlood flood-opacity="0" result="BackgroundImageFix"/>
<feColorMatrix in="SourceAlpha" type="matrix" values="0 0 0 0 0 0 0 0 0 0 0 0 0 0 0 0 0 0 127 0" result="hardAlpha"/>
<feOffset dy="5"/>
<feGaussianBlur stdDeviation="4"/>
<feColorMatrix type="matrix" values="0 0 0 0 0.968627 0 0 0 0 0.254902 0 0 0 0 0.564706 0 0 0 0.3 0"/>
<feBlend mode="normal" in2="BackgroundImageFix" result="effect1_dropShadow_503:10832"/>
<feBlend mode="normal" in="SourceGraphic" in2="effect1_dropShadow_503:10832" result="shape"/>
</filter>
<filter id="filter1_d_503:10832" x="60" y="44" width="65" height="67" filterUnits="userSpaceOnUse" color-interpolation-filters="sRGB">
<feFlood flood-opacity="0" result="BackgroundImageFix"/>
<feColorMatrix in="SourceAlpha" type="matrix" values="0 0 0 0 0 0 0 0 0 0 0 0 0 0 0 0 0 0 127 0" result="hardAlpha"/>
<feOffset dy="5"/>
<feGaussianBlur stdDeviation="4"/>
<feColorMatrix type="matrix" values="0 0 0 0 0.1125 0 0 0 0 0.295916 0 0 0 0 1 0 0 0 0.22 0"/>
<feBlend mode="normal" in2="BackgroundImageFix" result="effect1_dropShadow_503:10832"/>
<feBlend mode="normal" in="SourceGraphic" in2="effect1_dropShadow_503:10832" result="shape"/>
</filter>
<linearGradient id="paint0_linear_503:10832" x1="14.3286" y1="52.1941" x2="110.522" y2="52.1941" gradientUnits="userSpaceOnUse">
<stop stop-color="#FFA666"/>
<stop offset="1" stop-color="#F58636"/>
</linearGradient>
<linearGradient id="paint1_linear_503:10832" x1="3.32565" y1="55.4726" x2="6.6049" y2="55.4726" gradientUnits="userSpaceOnUse">
<stop stop-color="#83B9FF"/>
<stop offset="1" stop-color="#5AA2FF"/>
</linearGradient>
<linearGradient id="paint2_linear_503:10832" x1="116.564" y1="18.2277" x2="119.661" y2="18.2277" gradientUnits="userSpaceOnUse">
<stop stop-color="#FFA666"/>
<stop offset="1" stop-color="#F58636"/>
</linearGradient>
<linearGradient id="paint3_linear_503:10832" x1="10.4542" y1="28.3569" x2="33.8774" y2="28.3569" gradientUnits="userSpaceOnUse">
<stop stop-color="#FFA666"/>
<stop offset="1" stop-color="#F58636"/>
</linearGradient>
<linearGradient id="paint4_linear_503:10832" x1="67.9301" y1="72.5393" x2="116.987" y2="72.5393" gradientUnits="userSpaceOnUse">
<stop stop-color="#83B9FF"/>
<stop offset="1" stop-color="#5AA2FF"/>
</linearGradient>
</defs>
</svg>
