<svg width="158" height="120" viewBox="0 0 158 120" fill="none" xmlns="http://www.w3.org/2000/svg">
<g clip-path="url(#clip0_618_2771)">
<path d="M14.4992 119.813L14.4919 119.86C14.4832 119.814 14.4748 119.766 14.4669 119.72C14.4524 119.644 14.4397 119.569 14.4279 119.493C13.9561 116.523 14.2157 113.482 15.1842 110.635C15.3704 110.08 15.5824 109.534 15.8203 108.999C16.7302 106.925 18.02 105.041 19.6231 103.442C20.1437 102.909 20.7376 102.454 21.3869 102.089C21.4822 102.038 21.5781 101.99 21.676 101.946C22.2765 101.655 22.9526 101.557 23.6111 101.666C23.8504 101.711 24.0822 101.789 24.3001 101.897C24.3765 101.934 24.4501 101.975 24.5222 102.019C24.9624 102.307 25.3382 102.684 25.6262 103.124C25.9141 103.565 26.108 104.06 26.1957 104.579C26.3208 105.353 26.2922 106.145 26.1115 106.908C26.096 106.981 26.0794 107.053 26.0615 107.126C25.9334 107.634 25.7725 108.134 25.5798 108.622C23.6503 113.586 19.5039 117.991 14.4992 119.813Z" fill="#F2F2F2"/>
<path d="M24.2872 101.913C22.7817 104.076 21.3595 106.295 20.0207 108.568C18.6835 110.839 17.4337 113.159 16.2714 115.527C15.6212 116.852 14.9994 118.191 14.406 119.543C14.3403 119.693 14.5619 119.823 14.6285 119.671C15.6882 117.258 16.8381 114.887 18.0784 112.559C19.3179 110.232 20.6444 107.956 22.058 105.728C22.849 104.482 23.6662 103.253 24.5097 102.041C24.604 101.906 24.3812 101.778 24.2872 101.913Z" fill="white"/>
<path d="M25.8982 106.921C24.7668 108.391 23.1016 109.356 21.2634 109.607C20.7506 109.677 20.2314 109.687 19.7162 109.638C19.5514 109.622 19.5502 109.879 19.7136 109.894C21.6309 110.056 23.5343 109.454 25.0108 108.22C25.4249 107.874 25.7974 107.481 26.1206 107.049C26.2196 106.917 25.9965 106.79 25.8982 106.921Z" fill="white"/>
<path d="M16.2355 114.896C15.9725 114.522 15.7539 114.118 15.5843 113.693C15.1967 112.723 15.0591 111.672 15.1842 110.635C15.3704 110.08 15.5824 109.534 15.8203 108.999C15.8347 109.02 15.8434 109.044 15.8455 109.07C15.8476 109.095 15.843 109.121 15.8322 109.144C15.6647 109.545 15.5442 109.965 15.4733 110.394C15.2187 111.925 15.5722 113.495 16.4584 114.769C16.4696 114.783 16.4771 114.8 16.4801 114.817C16.4831 114.835 16.4815 114.853 16.4755 114.87C16.4656 114.892 16.45 114.911 16.4303 114.926C16.4106 114.94 16.3874 114.949 16.3632 114.952C16.3389 114.955 16.3143 114.951 16.2919 114.941C16.2695 114.931 16.2501 114.916 16.2355 114.896Z" fill="white"/>
<path d="M21.4252 101.926C21.1156 103.16 21.2078 104.46 21.6885 105.638C21.7055 105.668 21.7334 105.689 21.7662 105.698C21.799 105.707 21.834 105.703 21.8636 105.686C21.8926 105.669 21.9137 105.641 21.9226 105.608C21.9315 105.575 21.9275 105.541 21.9114 105.511C21.4613 104.393 21.3778 103.162 21.6729 101.994C21.6806 101.961 21.6754 101.927 21.6584 101.899C21.6413 101.87 21.6139 101.849 21.5817 101.84C21.5496 101.831 21.5153 101.836 21.4861 101.852C21.4569 101.868 21.4351 101.894 21.4252 101.926Z" fill="white"/>
<path d="M14.4677 113.612L14.4833 113.658C14.4541 113.621 14.4246 113.583 14.3959 113.545C14.348 113.485 14.3017 113.424 14.2558 113.362C12.4584 110.951 11.276 108.138 10.8112 105.167C10.7179 104.588 10.6522 104.007 10.6142 103.422C10.4569 101.164 10.7236 98.8956 11.4007 96.7351C11.6142 96.0215 11.9285 95.3421 12.334 94.7173C12.3949 94.6283 12.4576 94.5414 12.5238 94.4568C12.9203 93.9198 13.4735 93.519 14.1072 93.3096C14.3399 93.2383 14.5814 93.1995 14.8248 93.1944C14.9097 93.1918 14.9938 93.1938 15.0779 93.1988C15.6018 93.2499 16.1094 93.4087 16.5691 93.6651C17.0288 93.9215 17.4306 94.2701 17.7493 94.6889C18.2197 95.3164 18.5619 96.0304 18.7565 96.7901C18.7766 96.8619 18.7956 96.934 18.8134 97.0063C18.9362 97.5162 19.0259 98.0335 19.0818 98.5551C19.6792 103.848 18.0533 109.674 14.4677 113.612Z" fill="#F2F2F2"/>
<path d="M14.8208 93.2144C14.4925 95.8297 14.2636 98.4548 14.1339 101.09C14.0047 103.722 13.9756 106.357 14.0464 108.994C14.0862 110.47 14.1573 111.944 14.2598 113.417C14.2711 113.58 14.5279 113.592 14.5164 113.427C14.3338 110.798 14.2508 108.164 14.2675 105.526C14.2847 102.89 14.4018 100.258 14.6189 97.6285C14.7404 96.1575 14.8932 94.6895 15.0774 93.2247C15.0979 93.0608 14.8413 93.0512 14.8208 93.2144Z" fill="white"/>
<path d="M18.5736 96.9008C18.2547 98.7283 17.2283 100.357 15.7169 101.432C15.2953 101.733 14.8403 101.983 14.361 102.178C14.2078 102.241 14.3262 102.469 14.478 102.407C16.2508 101.659 17.657 100.242 18.3914 98.4639C18.5974 97.965 18.7446 97.4439 18.8301 96.911C18.8566 96.7483 18.5999 96.7392 18.5736 96.9008Z" fill="white"/>
<path d="M13.7216 108.452C13.3146 108.243 12.9334 107.986 12.5856 107.689C11.7921 107.01 11.1819 106.143 10.8112 105.167C10.7179 104.588 10.6522 104.007 10.6142 103.422C10.6368 103.434 10.6558 103.452 10.6695 103.473C10.6831 103.495 10.6909 103.52 10.6921 103.545C10.7303 103.979 10.8186 104.406 10.9552 104.819C11.4409 106.293 12.4832 107.519 13.8598 108.236C13.8762 108.243 13.8905 108.254 13.9013 108.269C13.9122 108.283 13.9192 108.299 13.9217 108.317C13.9232 108.342 13.9184 108.366 13.9077 108.388C13.8969 108.41 13.8806 108.428 13.8604 108.442C13.8401 108.456 13.8167 108.464 13.7923 108.466C13.768 108.467 13.7436 108.463 13.7216 108.452Z" fill="white"/>
<path d="M12.2924 94.5555C12.5914 95.792 13.2771 96.9008 14.2499 97.7206C14.2786 97.7387 14.3134 97.7448 14.3466 97.7375C14.3797 97.7302 14.4087 97.7101 14.4272 97.6816C14.4447 97.6527 14.4504 97.6181 14.4432 97.5851C14.4359 97.5521 14.4162 97.5231 14.3882 97.5043C13.4705 96.7237 12.8244 95.6718 12.5431 94.5003C12.5349 94.468 12.5144 94.4402 12.486 94.4228C12.4577 94.4053 12.4236 94.3996 12.3911 94.4067C12.3586 94.4139 12.3301 94.4334 12.3117 94.4612C12.2933 94.4889 12.2864 94.5227 12.2924 94.5555Z" fill="white"/>
<path d="M14.5788 119.844L14.6164 119.874C14.5719 119.859 14.5266 119.843 14.4821 119.826C14.4094 119.801 14.3375 119.775 14.2656 119.748C11.4526 118.684 8.94136 116.951 6.94955 114.698C6.55931 114.26 6.19076 113.806 5.84389 113.333C4.49492 111.515 3.49818 109.46 2.90512 107.275C2.70072 106.559 2.59958 105.817 2.60477 105.073C2.60819 104.965 2.61417 104.858 2.62445 104.751C2.6693 104.085 2.91955 103.449 3.34074 102.932C3.49843 102.746 3.68101 102.583 3.88329 102.448C3.95345 102.4 4.02536 102.356 4.09895 102.315C4.5679 102.076 5.08114 101.937 5.60655 101.905C6.13196 101.874 6.65822 101.951 7.15237 102.132C7.88667 102.408 8.55955 102.825 9.13262 103.36C9.18823 103.41 9.24301 103.46 9.29696 103.512C9.67509 103.875 10.0293 104.263 10.3572 104.672C13.711 108.81 15.4791 114.595 14.5788 119.844Z" fill="#F2F2F2"/>
<path d="M3.89073 102.467C5.0226 104.847 6.24345 107.183 7.55326 109.473C8.86224 111.76 10.2567 113.996 11.7368 116.18C12.5649 117.402 13.4187 118.606 14.2983 119.791C14.3957 119.923 14.6186 119.795 14.52 119.662C12.95 117.545 11.4617 115.37 10.055 113.138C8.65003 110.908 7.33097 108.627 6.09785 106.295C5.40803 104.99 4.74622 103.671 4.11242 102.337C4.0415 102.188 3.82008 102.318 3.89073 102.467Z" fill="white"/>
<path d="M9.03808 103.552C9.75367 105.264 9.76576 107.188 9.07175 108.909C8.87813 109.389 8.62955 109.845 8.33098 110.267C8.2357 110.403 8.4582 110.531 8.55266 110.397C9.64362 108.812 10.0654 106.861 9.72649 104.967C9.63135 104.436 9.47472 103.917 9.25976 103.422C9.19448 103.271 8.97324 103.402 9.03808 103.552Z" fill="white"/>
<path d="M11.1711 115.898C10.7153 115.941 10.2561 115.93 9.8027 115.867C8.76869 115.722 7.78755 115.32 6.94955 114.698C6.55931 114.26 6.19076 113.806 5.84389 113.333C5.86932 113.331 5.89485 113.336 5.91796 113.347C5.94108 113.358 5.96097 113.374 5.97569 113.395C6.24134 113.74 6.54603 114.052 6.88366 114.327C8.08674 115.307 9.62523 115.779 11.1711 115.642C11.1887 115.639 11.2068 115.64 11.2236 115.647C11.2404 115.653 11.2553 115.663 11.2669 115.677C11.2814 115.696 11.2904 115.719 11.2932 115.744C11.2959 115.768 11.2923 115.792 11.2826 115.815C11.2729 115.837 11.2575 115.857 11.2379 115.871C11.2184 115.886 11.1953 115.895 11.1711 115.898Z" fill="white"/>
<path d="M2.4826 104.959C3.40042 105.84 4.57541 106.404 5.83655 106.571C5.90586 106.581 5.96427 106.506 5.96492 106.443C5.96412 106.409 5.95034 106.377 5.92643 106.353C5.90253 106.329 5.87035 106.315 5.83655 106.315C4.64292 106.151 3.53205 105.613 2.66414 104.777C2.54514 104.662 2.36337 104.844 2.4826 104.959Z" fill="white"/>
<path d="M32.1022 85.9837C32.3529 85.8118 32.5629 85.587 32.7173 85.3252C32.8718 85.0634 32.967 84.7709 32.9962 84.4684C33.0254 84.1658 32.9878 83.8605 32.8863 83.574C32.7847 83.2875 32.6216 83.0268 32.4084 82.8101L33.2149 64.8067L29.1087 65.2676L29.3472 82.8775C29.0071 83.2598 28.8189 83.7537 28.8185 84.2655C28.8181 84.7772 29.0055 85.2714 29.3451 85.6542C29.6846 86.0371 30.1529 86.2821 30.661 86.3428C31.1692 86.4036 31.682 86.2758 32.1022 85.9837Z" fill="#FFB8B8"/>
<path d="M39.593 116.46L41.9301 116.87L44.2399 108.052L41.1778 107.445L39.593 116.46Z" fill="#FFB8B8"/>
<path d="M46.0556 119.833L38.7107 118.542L39.2096 115.704L43.7167 116.496C44.0894 116.562 44.4455 116.7 44.7647 116.903C45.084 117.106 45.36 117.37 45.5772 117.68C45.7944 117.99 45.9485 118.339 46.0305 118.709C46.1126 119.078 46.1211 119.46 46.0556 119.833Z" fill="#2F2E41"/>
<path d="M33.1784 117.629L35.5514 117.629L36.6801 108.477L33.1781 108.477L33.1784 117.629Z" fill="#FFB8B8"/>
<path d="M40.1276 119.832L32.67 119.833L32.6699 116.951L37.2461 116.951C38.0103 116.951 38.7432 117.255 39.2836 117.795C39.824 118.335 40.1275 119.068 40.1276 119.832Z" fill="#2F2E41"/>
<path d="M43.2725 115.123C43.2354 115.123 43.1984 115.121 43.1616 115.117L40.3687 114.887C40.2416 114.872 40.1188 114.831 40.0078 114.767C39.8969 114.703 39.8 114.618 39.7232 114.515C39.6464 114.413 39.5913 114.296 39.5611 114.171C39.5309 114.047 39.5263 113.918 39.5476 113.791L42.1266 99.3369L40.384 90.1484C40.3698 90.0737 40.329 90.0067 40.2693 89.9598C40.2096 89.9128 40.1349 89.889 40.059 89.8928C39.9831 89.8965 39.9111 89.9276 39.8563 89.9803C39.8016 90.033 39.7677 90.1037 39.7609 90.1794L37.5824 114.688C37.5585 114.934 37.44 115.161 37.2518 115.321C37.0637 115.481 36.8207 115.562 36.5741 115.547L33.9428 115.449C33.7123 115.432 33.4956 115.332 33.3339 115.167C33.1721 115.002 33.0764 114.783 33.0648 114.552L32.888 85.178L46.5295 83.473L47.4824 98.1905L47.4786 98.2061L44.1901 114.401C44.14 114.607 44.0224 114.79 43.856 114.921C43.6896 115.052 43.4841 115.123 43.2725 115.123Z" fill="#2F2E41"/>
<path d="M37.3855 53.1402C40.011 53.1402 42.1393 51.0119 42.1393 48.3865C42.1393 45.761 40.011 43.6327 37.3855 43.6327C34.7601 43.6327 32.6318 45.761 32.6318 48.3865C32.6318 51.0119 34.7601 53.1402 37.3855 53.1402Z" fill="#FFB8B8"/>
<path d="M41.8647 87.325C41.1213 87.3294 40.3921 87.1208 39.7634 86.7239C37.4607 85.2847 34.8452 85.8566 33.4911 86.3257C33.3567 86.3728 33.2135 86.3888 33.072 86.3727C32.9305 86.3566 32.7946 86.3087 32.6742 86.2327C32.5553 86.158 32.4547 86.0573 32.3802 85.9383C32.3056 85.8192 32.259 85.6849 32.2437 85.5452L29.7813 63.5532C29.3686 59.8685 31.5882 56.4042 35.0589 55.3158C35.1893 55.2749 35.3219 55.2362 35.4567 55.1995C36.5367 54.9067 37.6678 54.8541 38.7704 55.0454C39.8729 55.2368 40.9201 55.6674 41.8383 56.3071C42.7736 56.9538 43.5558 57.7976 44.1299 58.7791C44.7039 59.7607 45.0559 60.8561 45.161 61.9883L47.2339 84.1278C47.2481 84.2711 47.2287 84.4158 47.1774 84.5503C47.1261 84.6849 47.0443 84.8057 46.9384 84.9033C46.2117 85.5756 44.1026 87.3247 41.8647 87.325Z" fill="url(#paint0_linear_618_2771)"/>
<path d="M34.3665 68.2692L28.811 67.6584C28.6529 67.641 28.5004 67.5898 28.364 67.5081C28.2275 67.4265 28.1102 67.3165 28.0201 67.1854C27.93 67.0544 27.8692 66.9055 27.8418 66.7488C27.8145 66.5922 27.8212 66.4315 27.8615 66.2777L29.2756 60.888C29.3691 60.0798 29.7793 59.3417 30.4162 58.8354C31.0532 58.3292 31.8649 58.0961 32.6733 58.1874C33.4818 58.2787 34.2211 58.6869 34.7291 59.3224C35.2371 59.9579 35.4724 60.769 35.3833 61.5777L35.5932 67.1278C35.5992 67.2867 35.5708 67.445 35.5101 67.592C35.4493 67.7389 35.3576 67.8711 35.2412 67.9794C35.1248 68.0877 34.9864 68.1697 34.8354 68.2197C34.6845 68.2697 34.5245 68.2866 34.3665 68.2692Z" fill="url(#paint1_linear_618_2771)"/>
<path d="M47.2117 85.2127C47.4399 85.0119 47.6213 84.7635 47.743 84.485C47.8648 84.2065 47.9241 83.9047 47.9166 83.6008C47.9091 83.2969 47.8351 82.9984 47.6997 82.7262C47.5644 82.454 47.371 82.2148 47.1332 82.0255L45.7643 64.056L41.7407 64.9617L44.1025 82.4612C43.8109 82.8818 43.6837 83.3947 43.7449 83.9028C43.8062 84.4109 44.0517 84.8788 44.435 85.218C44.8182 85.5572 45.3126 85.7439 45.8243 85.743C46.3361 85.742 46.8298 85.5533 47.2117 85.2127Z" fill="#FFB8B8"/>
<path d="M40.1981 67.1396C40.0816 67.0313 39.9899 66.8992 39.9291 66.7522C39.8684 66.6053 39.8401 66.4469 39.8461 66.288L40.056 60.738C39.967 59.9292 40.2022 59.1182 40.7102 58.4827C41.2182 57.8471 41.9575 57.439 42.766 57.3477C43.5745 57.2564 44.3862 57.4894 45.0231 57.9957C45.66 58.5019 46.0702 59.2401 46.1637 60.0483L47.5778 65.4379C47.6182 65.5917 47.6249 65.7525 47.5975 65.9091C47.5701 66.0658 47.5093 66.2147 47.4192 66.3457C47.3291 66.4767 47.2119 66.5868 47.0754 66.6684C46.9389 66.75 46.7864 66.8013 46.6284 66.8187L41.0729 67.4295C40.9148 67.447 40.7548 67.4301 40.6038 67.3801C40.4528 67.33 40.3145 67.248 40.1981 67.1396Z" fill="url(#paint2_linear_618_2771)"/>
<path d="M37.1028 53.3193C37.0183 53.3192 36.9341 53.3094 36.8518 53.29L36.8277 53.2841C32.6481 52.6447 31.7245 50.2239 31.5217 49.2128C31.3119 48.1661 31.5508 47.1557 32.0908 46.7633C31.7964 45.8338 31.8436 45.0096 32.2315 44.3126C32.9081 43.0971 34.3763 42.686 34.5732 42.6358C35.7457 41.7708 37.1486 42.3482 37.4039 42.4653C39.672 41.6262 40.5389 42.3247 40.6956 42.4806C41.7095 42.6627 42.3275 43.0543 42.5326 43.6449C42.918 44.7541 41.6993 46.1339 41.6473 46.1921L41.6202 46.2223L39.8047 46.3087C39.6325 46.317 39.4638 46.3613 39.3098 46.4389C39.1558 46.5165 39.0198 46.6256 38.9106 46.7591C38.8015 46.8926 38.7216 47.0476 38.6762 47.214C38.6308 47.3804 38.6209 47.5545 38.6471 47.7249C38.6962 47.9449 38.7583 48.1617 38.833 48.3744C39.143 49.3433 39.3753 50.1711 39.0757 50.4858C39.0078 50.5467 38.9242 50.5873 38.8343 50.6029C38.7445 50.6184 38.652 50.6084 38.5676 50.5739C38.2838 50.4981 38.091 50.514 37.995 50.6213C37.8459 50.7876 37.8914 51.2086 38.1231 51.8068C38.1958 51.996 38.2154 52.2014 38.1797 52.4009C38.144 52.6004 38.0545 52.7863 37.9207 52.9385C37.82 53.0573 37.6947 53.1529 37.5535 53.2186C37.4123 53.2844 37.2586 53.3187 37.1028 53.3193Z" fill="#2F2E41"/>
<path d="M93.2438 68.5161H69.8245C68.9521 68.5151 68.1158 68.1682 67.4989 67.5513C66.8821 66.9345 66.5351 66.0982 66.5342 65.2258V30.0326C66.5351 29.1603 66.8821 28.3239 67.4989 27.7071C68.1158 27.0902 68.9521 26.7433 69.8245 26.7423H93.2438C94.1162 26.7433 94.9525 27.0902 95.5694 27.7071C96.1862 28.3239 96.5332 29.1603 96.5342 30.0326V65.2258C96.5332 66.0982 96.1862 66.9345 95.5694 67.5513C94.9525 68.1682 94.1162 68.5151 93.2438 68.5161ZM69.8245 27.1294C69.0548 27.1303 68.3168 27.4364 67.7725 27.9807C67.2283 28.525 66.9221 29.2629 66.9213 30.0326V65.2258C66.9221 65.9955 67.2283 66.7335 67.7725 67.2777C68.3168 67.822 69.0548 68.1282 69.8245 68.129H93.2438C94.0135 68.1282 94.7515 67.822 95.2958 67.2777C95.84 66.7335 96.1462 65.9955 96.1471 65.2258V30.0326C96.1462 29.2629 95.84 28.525 95.2958 27.9807C94.7515 27.4364 94.0135 27.1303 93.2438 27.1294H69.8245Z" fill="#3F3D56"/>
<path d="M89.6632 43.6615H73.4051C72.9689 43.661 72.5508 43.4875 72.2424 43.1791C71.9339 42.8707 71.7604 42.4525 71.76 42.0163V34.2744C71.7604 33.8382 71.9339 33.4201 72.2424 33.1116C72.5508 32.8032 72.9689 32.6297 73.4051 32.6293H89.6632C90.0993 32.6298 90.5175 32.8032 90.8259 33.1117C91.1343 33.4201 91.3078 33.8382 91.3083 34.2744V42.0163C91.3078 42.4525 91.1343 42.8707 90.8259 43.1791C90.5175 43.4875 90.0993 43.661 89.6632 43.6615Z" fill="#177BFC"/>
<path d="M88.5019 50.9196H74.5664C74.1558 50.9196 73.7619 50.7564 73.4716 50.466C73.1812 50.1757 73.018 49.7818 73.018 49.3712C73.018 48.9605 73.1812 48.5667 73.4716 48.2763C73.7619 47.9859 74.1558 47.8228 74.5664 47.8228H88.5019C88.9126 47.8228 89.3064 47.9859 89.5968 48.2763C89.8872 48.5667 90.0503 48.9605 90.0503 49.3712C90.0503 49.7818 89.8872 50.1757 89.5968 50.466C89.3064 50.7564 88.9126 50.9196 88.5019 50.9196Z" fill="#CCCCCC"/>
<path d="M88.5019 56.726H74.5664C74.1558 56.726 73.7619 56.5629 73.4716 56.2725C73.1812 55.9821 73.018 55.5883 73.018 55.1776C73.018 54.767 73.1812 54.3731 73.4716 54.0827C73.7619 53.7924 74.1558 53.6292 74.5664 53.6292H88.5019C88.9126 53.6292 89.3064 53.7924 89.5968 54.0827C89.8872 54.3731 90.0503 54.767 90.0503 55.1776C90.0503 55.5883 89.8872 55.9821 89.5968 56.2725C89.3064 56.5629 88.9126 56.726 88.5019 56.726Z" fill="#CCCCCC"/>
<path d="M88.5019 62.5325H74.5664C74.1558 62.5325 73.7619 62.3693 73.4716 62.0789C73.1812 61.7886 73.018 61.3947 73.018 60.9841C73.018 60.5734 73.1812 60.1796 73.4716 59.8892C73.7619 59.5988 74.1558 59.4357 74.5664 59.4357H88.5019C88.9126 59.4357 89.3064 59.5988 89.5968 59.8892C89.8872 60.1796 90.0503 60.5734 90.0503 60.9841C90.0503 61.3947 89.8872 61.7886 89.5968 62.0789C89.3064 62.3693 88.9126 62.5325 88.5019 62.5325Z" fill="#CCCCCC"/>
<path d="M150.341 88.2581H126.921C126.049 88.2571 125.213 87.9101 124.596 87.2933C123.979 86.6764 123.632 85.8401 123.631 84.9677V49.7745C123.632 48.9022 123.979 48.0659 124.596 47.449C125.213 46.8322 126.049 46.4852 126.921 46.4842H150.341C151.213 46.4852 152.049 46.8322 152.666 47.449C153.283 48.0659 153.63 48.9022 153.631 49.7745V84.9677C153.63 85.8401 153.283 86.6764 152.666 87.2933C152.049 87.9101 151.213 88.2571 150.341 88.2581ZM126.921 46.8713C126.152 46.8722 125.414 47.1783 124.869 47.7226C124.325 48.2669 124.019 49.0048 124.018 49.7745V84.9677C124.019 85.7375 124.325 86.4754 124.869 87.0197C125.414 87.5639 126.152 87.8701 126.921 87.871H150.341C151.11 87.8701 151.848 87.5639 152.393 87.0197C152.937 86.4754 153.243 85.7375 153.244 84.9677V49.7745C153.243 49.0048 152.937 48.2669 152.393 47.7226C151.848 47.1783 151.11 46.8722 150.341 46.8713H126.921Z" fill="#3F3D56"/>
<path d="M145.599 55.1776H131.663C131.253 55.1776 130.859 55.0145 130.568 54.7241C130.278 54.4337 130.115 54.0399 130.115 53.6292C130.115 53.2186 130.278 52.8247 130.568 52.5344C130.859 52.244 131.253 52.0808 131.663 52.0808H145.599C146.009 52.0808 146.403 52.244 146.694 52.5344C146.984 52.8247 147.147 53.2186 147.147 53.6292C147.147 54.0399 146.984 54.4337 146.694 54.7241C146.403 55.0145 146.009 55.1776 145.599 55.1776Z" fill="#CCCCCC"/>
<path d="M145.599 60.9841H131.663C131.253 60.9841 130.859 60.8209 130.568 60.5306C130.278 60.2402 130.115 59.8463 130.115 59.4357C130.115 59.025 130.278 58.6312 130.568 58.3408C130.859 58.0504 131.253 57.8873 131.663 57.8873H145.599C146.009 57.8873 146.403 58.0504 146.694 58.3408C146.984 58.6312 147.147 59.025 147.147 59.4357C147.147 59.8463 146.984 60.2402 146.694 60.5306C146.403 60.8209 146.009 60.9841 145.599 60.9841Z" fill="#CCCCCC"/>
<path d="M146.76 75.7904H130.502C130.066 75.7899 129.648 75.6164 129.339 75.308C129.031 74.9996 128.857 74.5814 128.857 74.1453V66.4034C128.857 65.9672 129.031 65.549 129.339 65.2406C129.648 64.9322 130.066 64.7587 130.502 64.7582H146.76C147.196 64.7587 147.614 64.9322 147.923 65.2406C148.231 65.549 148.405 65.9672 148.405 66.4034V74.1453C148.405 74.5815 148.231 74.9996 147.923 75.308C147.614 75.6164 147.196 75.7899 146.76 75.7904Z" fill="#E6E6E6"/>
<path d="M145.599 82.6615H131.663C131.253 82.6615 130.859 82.4984 130.568 82.208C130.278 81.9176 130.115 81.5238 130.115 81.1131C130.115 80.7024 130.278 80.3086 130.568 80.0182C130.859 79.7278 131.253 79.5647 131.663 79.5647H145.599C146.009 79.5647 146.403 79.7278 146.694 80.0182C146.984 80.3086 147.147 80.7024 147.147 81.1131C147.147 81.5238 146.984 81.9176 146.694 82.208C146.403 82.4984 146.009 82.6615 145.599 82.6615Z" fill="#CCCCCC"/>
<path d="M136.018 32.3226H112.599C111.726 32.3216 110.89 31.9746 110.273 31.3578C109.656 30.7409 109.309 29.9046 109.308 29.0323V7.19389C109.309 6.32155 109.656 5.48521 110.273 4.86837C110.89 4.25153 111.726 3.90455 112.599 3.90357H136.018C136.89 3.90455 137.727 4.25153 138.344 4.86837C138.96 5.48521 139.307 6.32155 139.308 7.19389V29.0323C139.307 29.9046 138.96 30.7409 138.344 31.3578C137.727 31.9746 136.89 32.3216 136.018 32.3226ZM112.599 4.29067C111.829 4.29154 111.091 4.5977 110.547 5.14197C110.002 5.68624 109.696 6.42418 109.695 7.19389V29.0323C109.696 29.802 110.002 30.5399 110.547 31.0842C111.091 31.6285 111.829 31.9346 112.599 31.9355H136.018C136.788 31.9346 137.526 31.6285 138.07 31.0842C138.614 30.5399 138.92 29.802 138.921 29.0323V7.19389C138.92 6.42418 138.614 5.68624 138.07 5.14197C137.526 4.5977 136.788 4.29154 136.018 4.29067H112.599Z" fill="#3F3D56"/>
<path d="M131.276 25.4679H117.341C116.93 25.4679 116.536 25.3048 116.246 25.0144C115.955 24.724 115.792 24.3302 115.792 23.9196C115.792 23.5089 115.955 23.1151 116.246 22.8247C116.536 22.5343 116.93 22.3712 117.341 22.3712H131.276C131.687 22.3712 132.081 22.5343 132.371 22.8247C132.661 23.1151 132.824 23.5089 132.824 23.9196C132.824 24.3302 132.661 24.724 132.371 25.0144C132.081 25.3048 131.687 25.4679 131.276 25.4679Z" fill="#CCCCCC"/>
<path d="M131.276 19.6615H117.341C116.93 19.6615 116.536 19.4984 116.246 19.208C115.955 18.9176 115.792 18.5238 115.792 18.1131C115.792 17.7024 115.955 17.3086 116.246 17.0182C116.536 16.7278 116.93 16.5647 117.341 16.5647H131.276C131.687 16.5647 132.081 16.7278 132.371 17.0182C132.661 17.3086 132.824 17.7024 132.824 18.1131C132.824 18.5238 132.661 18.9176 132.371 19.208C132.081 19.4984 131.687 19.6615 131.276 19.6615Z" fill="#CCCCCC"/>
<path d="M131.276 13.855H117.341C116.93 13.855 116.536 13.6919 116.246 13.4015C115.955 13.1111 115.792 12.7173 115.792 12.3066C115.792 11.896 115.955 11.5022 116.246 11.2118C116.536 10.9214 116.93 10.7583 117.341 10.7583H131.276C131.687 10.7583 132.081 10.9214 132.371 11.2118C132.661 11.5022 132.824 11.896 132.824 12.3066C132.824 12.7173 132.661 13.1111 132.371 13.4015C132.081 13.6919 131.687 13.855 131.276 13.855Z" fill="#CCCCCC"/>
<path d="M94.5987 32.129C97.0572 32.129 99.0503 30.136 99.0503 27.6774C99.0503 25.2189 97.0572 23.2258 94.5987 23.2258C92.1401 23.2258 90.1471 25.2189 90.1471 27.6774C90.1471 30.136 92.1401 32.129 94.5987 32.129Z" fill="#177BFC"/>
<path d="M94.1574 29.3756C94.0573 29.3758 93.9598 29.3434 93.8796 29.2833L93.8747 29.2796L92.8285 28.4786C92.7798 28.4416 92.7389 28.3953 92.7081 28.3424C92.6774 28.2896 92.6573 28.2311 92.6492 28.1705C92.6411 28.1099 92.645 28.0482 92.6607 27.9891C92.6765 27.93 92.7037 27.8746 92.7409 27.826C92.7781 27.7774 92.8246 27.7367 92.8775 27.7061C92.9305 27.6756 92.989 27.6557 93.0497 27.6478C93.1104 27.6399 93.172 27.644 93.231 27.66C93.2901 27.6759 93.3454 27.7034 93.3939 27.7408L94.0715 28.2603L95.6728 26.172C95.7099 26.1235 95.7563 26.0829 95.8091 26.0524C95.8619 26.0218 95.9203 26.002 95.9808 25.994C96.0413 25.986 96.1028 25.99 96.1618 26.0058C96.2207 26.0216 96.276 26.0488 96.3245 26.086L96.3145 26.0995L96.3247 26.0862C96.4224 26.1612 96.4863 26.272 96.5025 26.3942C96.5186 26.5164 96.4856 26.6399 96.4107 26.7378L94.5272 29.1942C94.4836 29.2508 94.4276 29.2966 94.3635 29.3281C94.2994 29.3595 94.2288 29.3758 94.1574 29.3756Z" fill="white"/>
<path d="M152.663 52.0645C155.122 52.0645 157.115 50.0715 157.115 47.6129C157.115 45.1543 155.122 43.1613 152.663 43.1613C150.205 43.1613 148.212 45.1543 148.212 47.6129C148.212 50.0715 150.205 52.0645 152.663 52.0645Z" fill="#3F3D56"/>
<path d="M152.222 49.3111C152.122 49.3113 152.024 49.2789 151.944 49.2188L151.939 49.2151L150.893 48.4141C150.844 48.3771 150.803 48.3308 150.773 48.2779C150.742 48.225 150.722 48.1666 150.714 48.106C150.706 48.0454 150.71 47.9837 150.725 47.9246C150.741 47.8655 150.768 47.8101 150.805 47.7615C150.843 47.7129 150.889 47.6722 150.942 47.6416C150.995 47.611 151.054 47.5912 151.114 47.5833C151.175 47.5754 151.236 47.5795 151.296 47.5955C151.355 47.6114 151.41 47.6389 151.458 47.6762L152.136 48.1958L153.737 46.1075C153.774 46.059 153.821 46.0184 153.874 45.9878C153.926 45.9573 153.985 45.9375 154.045 45.9295C154.106 45.9215 154.167 45.9255 154.226 45.9413C154.285 45.9571 154.341 45.9843 154.389 46.0214L154.379 46.035L154.389 46.0216C154.487 46.0967 154.551 46.2075 154.567 46.3297C154.583 46.4518 154.55 46.5754 154.475 46.6733L152.592 49.1297C152.548 49.1863 152.492 49.2321 152.428 49.2636C152.364 49.295 152.293 49.3113 152.222 49.3111Z" fill="white"/>
<path d="M138.534 8.90323C140.993 8.90323 142.986 6.91017 142.986 4.45161C142.986 1.99306 140.993 0 138.534 0C136.076 0 134.083 1.99306 134.083 4.45161C134.083 6.91017 136.076 8.90323 138.534 8.90323Z" fill="#3F3D56"/>
<path d="M138.093 6.14981C137.993 6.14999 137.895 6.11761 137.815 6.05753L137.81 6.0538L136.764 5.25282C136.715 5.21579 136.674 5.16951 136.644 5.11663C136.613 5.06376 136.593 5.00533 136.585 4.9447C136.577 4.88407 136.58 4.82242 136.596 4.76331C136.612 4.70419 136.639 4.64876 136.676 4.6002C136.714 4.55164 136.76 4.51091 136.813 4.48033C136.866 4.44975 136.925 4.42993 136.985 4.42201C137.046 4.41409 137.107 4.41822 137.167 4.43417C137.226 4.45012 137.281 4.47757 137.329 4.51495L138.007 5.03454L139.608 2.94617C139.645 2.89773 139.692 2.85709 139.745 2.82655C139.797 2.79601 139.856 2.77618 139.916 2.76819C139.977 2.76021 140.038 2.76421 140.097 2.77999C140.156 2.79577 140.212 2.82301 140.26 2.86015L140.25 2.87367L140.26 2.86035C140.358 2.93544 140.422 3.04622 140.438 3.16838C140.454 3.29055 140.421 3.41412 140.346 3.512L138.463 5.96841C138.419 6.02502 138.363 6.07083 138.299 6.10228C138.235 6.13374 138.164 6.15 138.093 6.14981Z" fill="white"/>
<path d="M73.9355 120H0.193548C0.142216 120 0.0929862 119.98 0.0566889 119.943C0.0203915 119.907 0 119.858 0 119.806C0 119.755 0.0203915 119.706 0.0566889 119.67C0.0929862 119.633 0.142216 119.613 0.193548 119.613H73.9355C73.9868 119.613 74.036 119.633 74.0723 119.67C74.1086 119.706 74.129 119.755 74.129 119.806C74.129 119.858 74.1086 119.907 74.0723 119.943C74.036 119.98 73.9868 120 73.9355 120Z" fill="#3F3D56"/>
</g>
<defs>
<linearGradient id="paint0_linear_618_2771" x1="29.9463" y1="71.6166" x2="47.5319" y2="71.6166" gradientUnits="userSpaceOnUse">
<stop stop-color="#FFA666"/>
<stop offset="1" stop-color="#F58636"/>
</linearGradient>
<linearGradient id="paint1_linear_618_2771" x1="27.9204" y1="63.3741" x2="35.7242" y2="63.3741" gradientUnits="userSpaceOnUse">
<stop stop-color="#FFA666"/>
<stop offset="1" stop-color="#F58636"/>
</linearGradient>
<linearGradient id="paint2_linear_618_2771" x1="39.9404" y1="62.5344" x2="47.7443" y2="62.5344" gradientUnits="userSpaceOnUse">
<stop stop-color="#FFA666"/>
<stop offset="1" stop-color="#F58636"/>
</linearGradient>
<clipPath id="clip0_618_2771">
<rect width="157.115" height="120" fill="white"/>
</clipPath>
</defs>
</svg>
