<svg width="95" height="110" viewBox="0 0 95 110" fill="none" xmlns="http://www.w3.org/2000/svg">
<g clip-path="url(#clip0_665_3157)">
<path d="M19.9612 70.5109H3.89651C3.06674 70.51 2.27123 70.18 1.68449 69.5932C1.09776 69.0065 0.767719 68.211 0.766785 67.3812V3.12973C0.767719 2.29996 1.09776 1.50444 1.68449 0.917709C2.27123 0.330974 3.06674 0.000934107 3.89651 0H47.4699L55.445 7.12072V20.0671H55.0768V7.28559L47.3294 0.368203H3.89651C3.16437 0.369032 2.46244 0.660244 1.94473 1.17795C1.42703 1.69566 1.13582 2.39758 1.13499 3.12973V67.3812C1.13582 68.1134 1.42703 68.8153 1.94473 69.333C2.46244 69.8507 3.16437 70.1419 3.89651 70.1427H19.9612V70.5109Z" fill="#CCCCCC"/>
<path d="M55.2609 7.36407H50.2902C49.4604 7.36314 48.6649 7.0331 48.0782 6.44636C47.4914 5.85963 47.1614 5.06411 47.1605 4.23434V0.184102C47.1605 0.135275 47.1799 0.0884478 47.2144 0.053922C47.2489 0.0193962 47.2957 0 47.3446 0C47.3934 0 47.4402 0.0193962 47.4747 0.053922C47.5093 0.0884478 47.5287 0.135275 47.5287 0.184102V4.23434C47.5295 4.96649 47.8207 5.66841 48.3384 6.18612C48.8561 6.70382 49.558 6.99504 50.2902 6.99587H55.2609C55.3098 6.99587 55.3566 7.01526 55.3911 7.04979C55.4256 7.08431 55.445 7.13114 55.445 7.17997C55.445 7.22879 55.4256 7.27562 55.3911 7.31015C55.3566 7.34467 55.3098 7.36407 55.2609 7.36407Z" fill="#CCCCCC"/>
<path d="M49.1009 16.6612H7.12571C6.73509 16.6612 6.36048 16.8164 6.08427 17.0926C5.80806 17.3688 5.65289 17.7434 5.65289 18.134C5.65289 18.5246 5.80806 18.8993 6.08427 19.1755C6.36048 19.4517 6.73509 19.6068 7.12571 19.6068H49.1009C49.4915 19.6068 49.8661 19.4517 50.1423 19.1755C50.4185 18.8993 50.5737 18.5246 50.5737 18.134C50.5737 17.7434 50.4185 17.3688 50.1423 17.0926C49.8661 16.8164 49.4915 16.6612 49.1009 16.6612Z" fill="#E6E6E6"/>
<path d="M27.9292 10.4017H7.12571C6.73509 10.4017 6.36048 10.5569 6.08427 10.8331C5.80806 11.1093 5.65289 11.4839 5.65289 11.8746C5.65289 12.2652 5.80806 12.6398 6.08427 12.916C6.36048 13.1922 6.73509 13.3474 7.12571 13.3474H27.9292C28.3198 13.3474 28.6944 13.1922 28.9706 12.916C29.2468 12.6398 29.402 12.2652 29.402 11.8746C29.402 11.4839 29.2468 11.1093 28.9706 10.8331C28.6944 10.5569 28.3198 10.4017 27.9292 10.4017Z" fill="#E6E6E6"/>
<path d="M7.12571 28.996C6.73509 28.996 6.36048 29.1512 6.08427 29.4274C5.80806 29.7036 5.65289 30.0782 5.65289 30.4688C5.65289 30.8594 5.80806 31.2341 6.08427 31.5103C6.36048 31.7865 6.73509 31.9416 7.12571 31.9416H20.2816V28.996H7.12571Z" fill="#E6E6E6"/>
<path d="M7.12571 22.7366C6.93229 22.7366 6.74078 22.7747 6.56209 22.8487C6.3834 22.9227 6.22103 23.0312 6.08427 23.1679C5.94751 23.3047 5.83902 23.4671 5.765 23.6457C5.69099 23.8244 5.65289 24.016 5.65289 24.2094C5.65289 24.4028 5.69099 24.5943 5.765 24.773C5.83902 24.9517 5.94751 25.114 6.08427 25.2508C6.22103 25.3876 6.3834 25.4961 6.56209 25.5701C6.74078 25.6441 6.93229 25.6822 7.12571 25.6822H20.2816V22.7366H7.12571Z" fill="#E6E6E6"/>
<path d="M20.3737 60.2013H8.58379C7.77843 60.2003 7.00631 59.88 6.43683 59.3105C5.86735 58.7411 5.54702 57.9689 5.54611 57.1636V41.699C5.54702 40.8937 5.86736 40.1216 6.43683 39.5521C7.00631 38.9826 7.77843 38.6623 8.58379 38.6614H20.3737V60.2013Z" fill="url(#paint0_linear_665_3157)"/>
<path d="M39.3839 90.3019H23.3193C22.4895 90.3009 21.694 89.9709 21.1072 89.3842C20.5205 88.7974 20.1905 88.0019 20.1895 87.1721V22.9207C20.1905 22.0909 20.5205 21.2954 21.1072 20.7086C21.694 20.1219 22.4895 19.7919 23.3193 19.7909H66.8926L74.8677 26.9117V39.1216H74.4995V27.0765L66.7521 20.1591H23.3193C22.5871 20.16 21.8852 20.4512 21.3675 20.9689C20.8498 21.4866 20.5586 22.1885 20.5577 22.9207V87.1721C20.5586 87.9043 20.8498 88.6062 21.3675 89.1239C21.8852 89.6416 22.5871 89.9328 23.3193 89.9337H39.3839V90.3019Z" fill="#CCCCCC"/>
<path d="M74.6837 27.155H69.7129C68.8832 27.1541 68.0876 26.824 67.5009 26.2373C66.9142 25.6506 66.5841 24.855 66.5832 24.0253V19.975C66.5832 19.9262 66.6026 19.8794 66.6371 19.8449C66.6716 19.8103 66.7185 19.7909 66.7673 19.7909C66.8161 19.7909 66.863 19.8103 66.8975 19.8449C66.932 19.8794 66.9514 19.9262 66.9514 19.975V24.0253C66.9522 24.7574 67.2434 25.4593 67.7611 25.9771C68.2789 26.4948 68.9808 26.786 69.7129 26.7868H74.6837C74.7325 26.7868 74.7793 26.8062 74.8139 26.8407C74.8484 26.8752 74.8678 26.9221 74.8678 26.9709C74.8678 27.0197 74.8484 27.0666 74.8139 27.1011C74.7793 27.1356 74.7325 27.155 74.6837 27.155Z" fill="#CCCCCC"/>
<path d="M68.5236 36.4521H26.5484C26.1578 36.4521 25.7832 36.6073 25.507 36.8835C25.2308 37.1597 25.0756 37.5343 25.0756 37.9249C25.0756 38.3156 25.2308 38.6902 25.507 38.9664C25.7832 39.2426 26.1578 39.3978 26.5484 39.3978H68.5236C68.9142 39.3978 69.2888 39.2426 69.5651 38.9664C69.8413 38.6902 69.9964 38.3156 69.9964 37.9249C69.9964 37.5343 69.8413 37.1597 69.5651 36.8835C69.2888 36.6073 68.9142 36.4521 68.5236 36.4521Z" fill="#E6E6E6"/>
<path d="M47.3519 30.1927H26.5484C26.1578 30.1927 25.7832 30.3478 25.507 30.6241C25.2308 30.9003 25.0756 31.2749 25.0756 31.6655C25.0756 32.0561 25.2308 32.4307 25.507 32.7069C25.7832 32.9831 26.1578 33.1383 26.5484 33.1383H47.3519C47.7425 33.1383 48.1172 32.9831 48.3934 32.7069C48.6696 32.4307 48.8247 32.0561 48.8247 31.6655C48.8247 31.2749 48.6696 30.9003 48.3934 30.6241C48.1172 30.3478 47.7425 30.1927 47.3519 30.1927Z" fill="#E6E6E6"/>
<path d="M68.5236 36.4521H26.5484C26.1578 36.4521 25.7832 36.6073 25.507 36.8835C25.2308 37.1597 25.0756 37.5343 25.0756 37.9249C25.0756 38.3156 25.2308 38.6902 25.507 38.9664C25.7832 39.2426 26.1578 39.3978 26.5484 39.3978H68.5236C68.9142 39.3978 69.2888 39.2426 69.5651 38.9664C69.8413 38.6902 69.9964 38.3156 69.9964 37.9249C69.9964 37.5343 69.8413 37.1597 69.5651 36.8835C69.2888 36.6073 68.9142 36.4521 68.5236 36.4521Z" fill="#E6E6E6"/>
<path d="M47.3519 30.1927H26.5484C26.1578 30.1927 25.7832 30.3478 25.507 30.6241C25.2308 30.9003 25.0756 31.2749 25.0756 31.6655C25.0756 32.0561 25.2308 32.4307 25.507 32.7069C25.7832 32.9831 26.1578 33.1383 26.5484 33.1383H47.3519C47.7425 33.1383 48.1172 32.9831 48.3934 32.7069C48.6696 32.4307 48.8247 32.0561 48.8247 31.6655C48.8247 31.2749 48.6696 30.9003 48.3934 30.6241C48.1172 30.3478 47.7425 30.1927 47.3519 30.1927Z" fill="#E6E6E6"/>
<path d="M26.5484 48.787C26.1578 48.787 25.7832 48.9421 25.507 49.2183C25.2308 49.4945 25.0756 49.8692 25.0756 50.2598C25.0756 50.6504 25.2308 51.025 25.507 51.3012C25.7832 51.5774 26.1578 51.7326 26.5484 51.7326H39.7043V48.787H26.5484Z" fill="#E6E6E6"/>
<path d="M26.5484 42.5275C26.1578 42.5275 25.7832 42.6827 25.507 42.9589C25.2308 43.2351 25.0756 43.6097 25.0756 44.0003C25.0756 44.3909 25.2308 44.7655 25.507 45.0417C25.7832 45.318 26.1578 45.4731 26.5484 45.4731H39.7043V42.5275H26.5484Z" fill="#E6E6E6"/>
<path d="M26.5484 48.787C26.1578 48.787 25.7832 48.9421 25.507 49.2183C25.2308 49.4945 25.0756 49.8692 25.0756 50.2598C25.0756 50.6504 25.2308 51.025 25.507 51.3012C25.7832 51.5774 26.1578 51.7326 26.5484 51.7326H39.7043V48.787H26.5484Z" fill="#E6E6E6"/>
<path d="M26.5484 42.5275C26.1578 42.5275 25.7832 42.6827 25.507 42.9589C25.2308 43.2351 25.0756 43.6097 25.0756 44.0003C25.0756 44.3909 25.2308 44.7655 25.507 45.0417C25.7832 45.318 26.1578 45.4731 26.5484 45.4731H39.7043V42.5275H26.5484Z" fill="#E6E6E6"/>
<path d="M39.7964 79.9922H28.0065C27.2012 79.9913 26.429 79.671 25.8596 79.1015C25.2901 78.532 24.9698 77.7599 24.9688 76.9545V61.49C24.9698 60.6846 25.2901 59.9125 25.8596 59.343C26.429 58.7735 27.2012 58.4532 28.0065 58.4523H39.7964V79.9922Z" fill="url(#paint1_linear_665_3157)"/>
<path d="M40.8347 39.766C40.3772 40.0453 39.999 40.4374 39.7366 40.9049C39.4742 41.3723 39.3363 41.8994 39.3361 42.4354V42.8957H39.7043V42.4354C39.7051 41.8266 39.9066 41.235 40.2778 40.7524C40.6489 40.2698 41.1688 39.9231 41.757 39.766H40.8347ZM86.0391 39.3057H42.4659C41.6361 39.3067 40.8406 39.6367 40.2539 40.2235C39.6671 40.8102 39.3371 41.6057 39.3361 42.4354V106.687C39.3373 107.517 39.6674 108.312 40.2541 108.899C40.8408 109.485 41.6362 109.815 42.4659 109.817H90.8846C91.7143 109.815 92.5097 109.485 93.0964 108.899C93.683 108.312 94.0132 107.517 94.0143 106.687V46.4268L86.0391 39.3057ZM93.6461 106.687C93.6452 107.419 93.354 108.121 92.8363 108.639C92.3186 109.156 91.6167 109.448 90.8846 109.448H42.4658C41.7337 109.448 41.0318 109.156 40.5141 108.639C39.9964 108.121 39.7052 107.419 39.7043 106.687L39.7043 42.4354C39.7051 41.8266 39.9066 41.235 40.2778 40.7524C40.6489 40.2698 41.1688 39.9231 41.757 39.766C41.9883 39.7044 42.2266 39.6734 42.4658 39.6739H85.8991L93.6461 46.5906V106.687ZM40.8347 39.766C40.3772 40.0453 39.999 40.4374 39.7366 40.9049C39.4742 41.3723 39.3363 41.8994 39.3361 42.4354V42.8957H39.7043V42.4354C39.7051 41.8266 39.9066 41.235 40.2778 40.7524C40.6489 40.2698 41.1688 39.9231 41.757 39.766H40.8347Z" fill="#3F3D56"/>
<path d="M93.8302 46.6698H88.8595C88.0297 46.6688 87.2342 46.3388 86.6474 45.7521C86.0607 45.1653 85.7307 44.3698 85.7297 43.54V39.4898C85.7297 39.441 85.7491 39.3942 85.7837 39.3596C85.8182 39.3251 85.865 39.3057 85.9138 39.3057C85.9627 39.3057 86.0095 39.3251 86.044 39.3596C86.0786 39.3942 86.0979 39.441 86.0979 39.4898V43.54C86.0988 44.2722 86.39 44.9741 86.9077 45.4918C87.4254 46.0095 88.1273 46.3007 88.8595 46.3016H93.8302C93.879 46.3016 93.9259 46.321 93.9604 46.3555C93.9949 46.39 94.0143 46.4368 94.0143 46.4857C94.0143 46.5345 93.9949 46.5813 93.9604 46.6159C93.9259 46.6504 93.879 46.6698 93.8302 46.6698Z" fill="#3F3D56"/>
<path d="M87.6704 58.9125H45.6953C45.3046 58.9125 44.93 58.7574 44.6538 58.4812C44.3776 58.205 44.2224 57.8303 44.2224 57.4397C44.2224 57.0491 44.3776 56.6745 44.6538 56.3983C44.93 56.1221 45.3046 55.9669 45.6953 55.9669H87.6704C88.0611 55.9669 88.4357 56.1221 88.7119 56.3983C88.9881 56.6745 89.1433 57.0491 89.1433 57.4397C89.1433 57.8303 88.9881 58.205 88.7119 58.4812C88.4357 58.7574 88.0611 58.9125 87.6704 58.9125Z" fill="#CCCCCC"/>
<path d="M66.4987 52.6531H45.6953C45.3046 52.6531 44.93 52.4979 44.6538 52.2217C44.3776 51.9455 44.2224 51.5709 44.2224 51.1803C44.2224 50.7897 44.3776 50.4151 44.6538 50.1388C44.93 49.8626 45.3046 49.7075 45.6953 49.7075H66.4987C66.8894 49.7075 67.264 49.8626 67.5402 50.1388C67.8164 50.4151 67.9716 50.7897 67.9716 51.1803C67.9716 51.5709 67.8164 51.9455 67.5402 52.2217C67.264 52.4979 66.8894 52.6531 66.4987 52.6531Z" fill="#CCCCCC"/>
<path d="M87.6704 71.2474H45.6953C45.3046 71.2474 44.93 71.0922 44.6538 70.816C44.3776 70.5398 44.2224 70.1652 44.2224 69.7745C44.2224 69.3839 44.3776 69.0093 44.6538 68.7331C44.93 68.4569 45.3046 68.3017 45.6953 68.3017H87.6704C88.0611 68.3017 88.4357 68.4569 88.7119 68.7331C88.9881 69.0093 89.1433 69.3839 89.1433 69.7745C89.1433 70.1652 88.9881 70.5398 88.7119 70.816C88.4357 71.0922 88.0611 71.2474 87.6704 71.2474Z" fill="#CCCCCC"/>
<path d="M66.4987 64.9879H45.6953C45.3046 64.9879 44.93 64.8327 44.6538 64.5565C44.3776 64.2803 44.2224 63.9057 44.2224 63.5151C44.2224 63.1245 44.3776 62.7499 44.6538 62.4737C44.93 62.1974 45.3046 62.0423 45.6953 62.0423H66.4987C66.8894 62.0423 67.264 62.1974 67.5402 62.4737C67.8164 62.7499 67.9716 63.1245 67.9716 63.5151C67.9716 63.9057 67.8164 64.2803 67.5402 64.5565C67.264 64.8327 66.8894 64.9879 66.4987 64.9879Z" fill="#CCCCCC"/>
<path d="M86.1824 99.507H47.1529C46.3475 99.5061 45.5754 99.1857 45.0059 98.6162C44.4364 98.0468 44.1161 97.2747 44.1152 96.4693V81.0047C44.1161 80.1994 44.4364 79.4273 45.0059 78.8578C45.5754 78.2883 46.3475 77.968 47.1529 77.9671H86.1824C86.9878 77.968 87.7599 78.2883 88.3294 78.8578C88.8988 79.4273 89.2192 80.1994 89.2201 81.0047V96.4693C89.2192 97.2747 88.8989 98.0468 88.3294 98.6162C87.7599 99.1857 86.9878 99.5061 86.1824 99.507Z" fill="url(#paint2_linear_665_3157)"/>
</g>
<defs>
<linearGradient id="paint0_linear_665_3157" x1="5.72753" y1="49.7557" x2="20.6222" y2="49.7557" gradientUnits="userSpaceOnUse">
<stop stop-color="#FFA666"/>
<stop offset="1" stop-color="#F58636"/>
</linearGradient>
<linearGradient id="paint1_linear_665_3157" x1="25.1503" y1="69.5466" x2="40.045" y2="69.5466" gradientUnits="userSpaceOnUse">
<stop stop-color="#FFA666"/>
<stop offset="1" stop-color="#F58636"/>
</linearGradient>
<linearGradient id="paint2_linear_665_3157" x1="44.0508" y1="88.7536" x2="89.2079" y2="88.7536" gradientUnits="userSpaceOnUse">
<stop stop-color="#83B9FF"/>
<stop offset="1" stop-color="#5AA2FF"/>
</linearGradient>
<clipPath id="clip0_665_3157">
<rect width="95" height="110" fill="white"/>
</clipPath>
</defs>
</svg>
