<svg width="121" height="140" viewBox="0 0 121 140" fill="none" xmlns="http://www.w3.org/2000/svg">
<path d="M61.0878 112.802C89.3365 112.802 112.237 89.8193 112.237 61.4691C112.237 33.1189 89.3365 10.1365 61.0878 10.1365C32.8391 10.1365 9.93896 33.1189 9.93896 61.4691C9.93896 89.8193 32.8391 112.802 61.0878 112.802Z" fill="url(#paint0_linear_503:10693)"/>
<path d="M10.7743 31.3927C12.1256 30.9519 12.865 29.4951 12.4258 28.1389C11.9866 26.7827 10.5351 26.0407 9.18375 26.4815C7.83241 26.9223 7.093 28.379 7.53222 29.7352C7.97143 31.0914 9.42296 31.8335 10.7743 31.3927Z" fill="#EAEEF9"/>
<path d="M16.3907 22.9678C17.3096 22.668 17.8124 21.6774 17.5137 20.7552C17.215 19.833 16.228 19.3284 15.3091 19.6281C14.3902 19.9279 13.8874 20.9185 14.1861 21.8407C14.4847 22.7629 15.4718 23.2675 16.3907 22.9678Z" fill="#EAEEF9"/>
<path d="M117.613 48.578C119.207 47.1158 119.319 44.6332 117.862 43.033C116.405 41.4329 113.931 41.3211 112.337 42.7834C110.742 44.2457 110.631 46.7283 112.088 48.3284C113.545 49.9286 116.019 50.0403 117.613 48.578Z" fill="#EAEEF9"/>
<path d="M117.908 30.9823C118.58 30.3666 118.627 29.3213 118.013 28.6476C117.4 27.9738 116.358 27.9268 115.687 28.5425C115.015 29.1582 114.969 30.2034 115.582 30.8772C116.196 31.5509 117.237 31.598 117.908 30.9823Z" fill="#EAEEF9"/>
<g filter="url(#filter0_d_503:10693)">
<path d="M97.9607 35.1315L98.784 102.68C98.784 104.952 96.9315 106.811 94.6674 106.811H29.1104C26.8463 106.811 24.9938 104.952 24.9938 102.68V15.8172C24.9938 13.5449 26.8463 11.6858 29.1104 11.6858H76.6572L97.9607 35.1315Z" fill="white"/>
</g>
<path d="M56.8977 93.3842H54.5306C54.016 93.3842 53.6044 92.971 53.6044 92.4546C53.6044 91.9382 54.016 91.525 54.5306 91.525H56.8977C57.4122 91.525 57.8239 91.9382 57.8239 92.4546C57.8239 92.971 57.4122 93.3842 56.8977 93.3842Z" fill="#E3EAF2"/>
<path d="M50.2081 93.3842H36.3145C35.8 93.3842 35.3883 92.971 35.3883 92.4546C35.3883 91.9382 35.8 91.525 36.3145 91.525H50.2081C50.7227 91.525 51.1343 91.9382 51.1343 92.4546C51.2372 92.971 50.8256 93.3842 50.2081 93.3842Z" fill="#E3EAF2"/>
<path d="M68.424 25.8358H37.0349C36.3145 25.8358 35.697 25.2161 35.697 24.4931C35.697 23.7701 36.3145 23.1504 37.0349 23.1504H68.424C69.1444 23.1504 69.7619 23.7701 69.7619 24.4931C69.7619 25.2161 69.1444 25.8358 68.424 25.8358Z" fill="#CED7E2"/>
<path d="M48.9731 33.3756H37.0349C36.3145 33.3756 35.697 32.7559 35.697 32.0329C35.697 31.3099 36.3145 30.6902 37.0349 30.6902H49.076C49.7964 30.6902 50.4139 31.3099 50.4139 32.0329C50.4139 32.7559 49.6935 33.3756 48.9731 33.3756Z" fill="#CED7E2"/>
<path d="M76.6572 11.7888V30.3801C76.6572 32.9622 78.9214 35.1312 81.4942 35.1312H97.9607" fill="#EAEFF4"/>
<path d="M87.6691 47.5256H71.3056C71.3056 47.5256 71.3056 47.5256 71.2027 47.5256C71.0998 47.5256 71.2027 47.5256 71.0998 47.5256H54.2217C54.2217 47.5256 54.2217 47.5256 54.1188 47.5256C54.0159 47.5256 54.1188 47.5256 54.0159 47.5256H38.1669C36.4174 47.5256 34.9766 48.9716 34.9766 50.8308V79.544C34.9766 81.2998 36.4174 82.8491 38.1669 82.8491H87.5662C89.3158 82.8491 90.7566 81.4031 90.7566 79.544V50.8308C90.8595 49.0749 89.4187 47.5256 87.6691 47.5256ZM55.1479 72.9337V66.5301H70.2765V72.9337H55.1479ZM70.2765 74.8961V80.7834H55.1479V74.8961H70.2765ZM70.2765 58.0607V64.4644H55.1479V58.0607H70.2765ZM55.1479 56.0983V49.488H70.2765V56.0983H55.1479ZM88.9041 64.5676H72.2318V58.164H88.9041V64.5676ZM53.1925 64.5676H36.932V58.164H53.0896V64.5676H53.1925ZM36.932 66.5301H53.0896V72.9337H36.932V66.5301ZM72.2318 66.5301H88.9041V72.9337H72.2318V66.5301ZM88.9041 50.8308V56.0983H72.2318V49.488H87.6691C88.2866 49.488 88.9041 50.1078 88.9041 50.8308ZM38.1669 49.488H53.0896V56.0983H36.932V50.8308C36.932 50.1078 37.5494 49.488 38.1669 49.488ZM36.932 79.544V74.8961H53.0896V80.7834H38.1669C37.5494 80.7834 36.932 80.2669 36.932 79.544ZM87.6691 80.7834H72.2318V74.8961H88.9041V79.544C88.9041 80.2669 88.2866 80.7834 87.6691 80.7834Z" fill="#E3EAF2"/>
<path d="M10.174 81.8163H9.76236C9.55653 81.8163 9.45362 81.6098 9.3507 81.5065C9.3507 81.4032 9.24779 81.2999 9.14487 81.0933C9.04196 80.8868 9.04196 80.6802 9.14487 80.5769L9.3507 80.2671C9.45362 80.0605 9.45362 79.7506 9.3507 79.6474L8.73321 78.9244C8.52738 78.7178 8.32155 78.7178 8.11572 78.9244L7.80697 79.1309C7.70406 79.2342 7.49823 79.2342 7.2924 79.1309C7.18948 79.0276 7.08657 79.0276 6.88074 78.9244C6.67491 78.9244 6.57199 78.7178 6.57199 78.5112L6.46908 78.0981C6.46908 77.8915 6.26325 77.6849 5.9545 77.6849H5.02827C4.82244 77.6849 4.61661 77.8915 4.51369 78.0981V78.5112C4.51369 78.7178 4.30786 78.8211 4.20495 78.9244C4.10203 78.9244 3.99911 79.0276 3.79328 79.1309C3.58745 79.2342 3.38162 79.2342 3.27871 79.1309L2.96996 78.9244C2.76413 78.8211 2.45539 78.8211 2.35247 78.9244L1.63207 79.5441C1.42624 79.7506 1.42624 79.9572 1.63207 80.1638L1.8379 80.5769C1.94081 80.6802 1.94081 80.8868 1.8379 81.0933C1.73498 81.1966 1.73498 81.2999 1.63207 81.5065C1.63207 81.6098 1.52915 81.713 1.32332 81.8163L0.911661 81.9196C0.70583 81.9196 0.5 82.1262 0.5 82.436V83.3656C0.5 83.5722 0.70583 83.7787 0.911661 83.882L1.32332 83.9853C1.52915 83.9853 1.63207 84.1919 1.73498 84.2952C1.73498 84.3985 1.8379 84.605 1.94081 84.7083C2.04373 84.9149 2.04373 85.1215 1.94081 85.2247L1.73498 85.5346C1.63207 85.7412 1.63207 86.051 1.73498 86.1543L2.35247 86.774C2.5583 86.9806 2.76413 86.9806 2.96996 86.774L3.27871 86.5674C3.38162 86.4642 3.58745 86.4642 3.79328 86.5674C3.8962 86.6707 3.99911 86.6707 4.20495 86.774C4.41078 86.8773 4.51369 86.9806 4.51369 87.1872L4.61661 87.3937C4.61661 87.7036 4.82244 87.8069 5.02827 87.8069H5.9545C6.16033 87.8069 6.36616 87.6003 6.46908 87.3937L6.57199 86.9806C6.57199 86.774 6.77782 86.6707 6.88074 86.5674C6.98365 86.5674 7.08657 86.4642 7.2924 86.3609C7.49823 86.2576 7.70406 86.2576 7.80697 86.3609L8.11572 86.774C8.32155 86.8773 8.6303 86.8773 8.73321 86.774L9.3507 86.1543C9.55653 85.9477 9.55653 85.7412 9.3507 85.5346L9.14487 85.2247C9.04196 85.1215 9.04196 84.9149 9.14487 84.7083C9.24779 84.605 9.24779 84.5017 9.3507 84.2952C9.45362 84.0886 9.55653 83.9853 9.76236 83.9853L10.174 83.882C10.3799 83.882 10.5857 83.6755 10.5857 83.3656V82.436C10.5857 82.0229 10.3799 81.8163 10.174 81.8163ZM5.54284 84.5017C4.61661 84.5017 3.79328 83.7787 3.79328 82.7459C3.79328 81.8163 4.51369 80.9901 5.54284 80.9901C6.46908 80.9901 7.2924 81.713 7.2924 82.7459C7.2924 83.7787 6.46908 84.5017 5.54284 84.5017Z" fill="url(#paint1_linear_503:10693)"/>
<path d="M106.557 8.02119L100.588 9.36389C100.279 9.46718 99.9706 9.26061 99.8677 8.95075L98.5298 2.96023C98.4269 2.4438 98.0152 2.23723 97.5006 2.34052H97.3977C93.4869 3.78651 91.5315 8.12447 92.9724 12.0493C94.4132 15.9741 98.7356 17.9365 102.646 16.4905C105.837 15.3544 107.792 12.1526 107.586 8.84747C107.586 8.33104 107.175 8.02119 106.66 8.02119C106.557 7.9179 106.557 7.9179 106.557 8.02119Z" fill="url(#paint2_linear_503:10693)"/>
<path d="M99.7647 0.89459L101.103 6.88511C101.206 7.29825 101.514 7.50482 101.926 7.40154L107.895 6.05883C108.307 5.95555 108.512 5.6457 108.41 5.23256C107.483 2.03072 103.881 -0.448113 100.382 0.0683112C99.9705 0.171596 99.6618 0.48145 99.7647 0.89459Z" fill="url(#paint3_linear_503:10693)"/>
<g filter="url(#filter1_d_503:10693)">
<path d="M106.208 101.967C106.002 103.103 105.694 104.136 105.282 105.169C102.812 111.366 97.2547 115.704 90.874 116.737C88.6099 117.15 86.3458 117.047 83.9787 116.634C73.893 114.568 67.3064 104.549 69.4676 94.4274C71.6288 84.3054 81.5087 77.6951 91.5943 79.8641C95.1964 80.5871 98.4896 82.3429 101.062 85.0283C105.591 89.263 107.546 95.7699 106.208 101.967Z" fill="url(#paint4_linear_503:10693)"/>
</g>
<mask id="mask0_503:10693" style="mask-type:alpha" maskUnits="userSpaceOnUse" x="78" y="88" width="21" height="21">
<path fill-rule="evenodd" clip-rule="evenodd" d="M78 88.202H98.0001V108.202H78V88.202Z" fill="white"/>
</mask>
<g mask="url(#mask0_503:10693)">
<path fill-rule="evenodd" clip-rule="evenodd" d="M88.0002 95.1181C88.0002 94.5621 87.5502 94.1101 86.9902 94.1101C86.4302 94.1101 85.9802 94.5621 85.9802 95.1181V95.4771C84.8302 95.6401 83.9502 96.6201 83.9502 97.8041C83.9502 99.1022 85.0102 100.154 86.3202 100.154H87.6702C87.8502 100.154 88.0102 100.304 88.0102 100.49C88.0102 100.675 87.8502 100.825 87.6702 100.825H85.3002C84.7402 100.825 84.2902 101.276 84.2902 101.832C84.2902 102.389 84.7402 102.84 85.3002 102.84H85.9802V103.175C85.9802 103.732 86.4302 104.183 86.9902 104.183C87.5502 104.183 88.0002 103.732 88.0002 103.175V102.817C89.1503 102.655 90.0303 101.675 90.0303 100.49C90.0303 99.1912 88.9703 98.1391 87.6702 98.1391H86.3202C86.1302 98.1391 85.9802 97.9891 85.9802 97.8041C85.9802 97.6191 86.1302 97.4691 86.3202 97.4691H88.6802C89.2403 97.4691 89.6903 97.0171 89.6903 96.4611C89.6903 95.9041 89.2403 95.4531 88.6802 95.4531H88.0002V95.1181ZM82.8 103.527C83.89 104.56 85.37 105.194 86.99 105.194C90.3501 105.194 93.0701 102.487 93.0701 99.1481C93.0701 95.81 90.3501 93.103 86.99 93.103C83.64 93.103 80.92 95.81 80.92 99.1481C80.92 100.811 81.59 102.317 82.68 103.41C82.71 103.43 82.73 103.452 82.75 103.474C82.77 103.491 82.79 103.509 82.8 103.527ZM98.0002 93.4841V89.21C98.0002 88.942 97.8902 88.686 97.7002 88.497C97.5102 88.308 97.2602 88.202 96.9902 88.202H92.6902C92.1302 88.202 91.6802 88.653 91.6802 89.21C91.6802 89.766 92.1302 90.2171 92.6902 90.2171H94.5402L91.9602 92.7841C90.5902 91.7211 88.8701 91.0881 86.9901 91.0881C82.5201 91.0881 78.89 94.6971 78.89 99.1482C78.89 101.039 79.54 102.777 80.64 104.152L78.3 106.482C77.9 106.875 77.9 107.513 78.3 107.907C78.69 108.3 79.33 108.3 79.73 107.907L82.08 105.563C83.4501 106.596 85.1501 107.209 86.9901 107.209C91.4702 107.209 95.0902 103.6 95.0902 99.1482C95.0902 97.2881 94.4602 95.5741 93.3902 94.2101L95.9702 91.6421V93.4841C95.9702 94.0411 96.4302 94.4921 96.9902 94.4921C97.5502 94.4921 98.0002 94.0411 98.0002 93.4841Z" fill="white"/>
</g>
<defs>
<filter id="filter0_d_503:10693" x="2.99384" y="0.685791" width="117.79" height="139.125" filterUnits="userSpaceOnUse" color-interpolation-filters="sRGB">
<feFlood flood-opacity="0" result="BackgroundImageFix"/>
<feColorMatrix in="SourceAlpha" type="matrix" values="0 0 0 0 0 0 0 0 0 0 0 0 0 0 0 0 0 0 127 0" result="hardAlpha"/>
<feOffset dy="11"/>
<feGaussianBlur stdDeviation="11"/>
<feColorMatrix type="matrix" values="0 0 0 0 0.397708 0 0 0 0 0.47749 0 0 0 0 0.575 0 0 0 0.18 0"/>
<feBlend mode="normal" in2="BackgroundImageFix" result="effect1_dropShadow_503:10693"/>
<feBlend mode="normal" in="SourceGraphic" in2="effect1_dropShadow_503:10693" result="shape"/>
</filter>
<filter id="filter1_d_503:10693" x="61.0566" y="76.4517" width="53.5655" height="53.5483" filterUnits="userSpaceOnUse" color-interpolation-filters="sRGB">
<feFlood flood-opacity="0" result="BackgroundImageFix"/>
<feColorMatrix in="SourceAlpha" type="matrix" values="0 0 0 0 0 0 0 0 0 0 0 0 0 0 0 0 0 0 127 0" result="hardAlpha"/>
<feOffset dy="5"/>
<feGaussianBlur stdDeviation="4"/>
<feColorMatrix type="matrix" values="0 0 0 0 0.1125 0 0 0 0 0.295916 0 0 0 0 1 0 0 0 0.22 0"/>
<feBlend mode="normal" in2="BackgroundImageFix" result="effect1_dropShadow_503:10693"/>
<feBlend mode="normal" in="SourceGraphic" in2="effect1_dropShadow_503:10693" result="shape"/>
</filter>
<linearGradient id="paint0_linear_503:10693" x1="11.1906" y1="63.0151" x2="113.952" y2="63.0151" gradientUnits="userSpaceOnUse">
<stop stop-color="#FFA666"/>
<stop offset="1" stop-color="#F58636"/>
</linearGradient>
<linearGradient id="paint1_linear_503:10693" x1="0.623401" y1="82.8983" x2="10.7548" y2="82.8983" gradientUnits="userSpaceOnUse">
<stop stop-color="#FFA666"/>
<stop offset="1" stop-color="#F58636"/>
</linearGradient>
<linearGradient id="paint2_linear_503:10693" x1="92.6839" y1="9.8607" x2="107.854" y2="9.8607" gradientUnits="userSpaceOnUse">
<stop stop-color="#FFA666"/>
<stop offset="1" stop-color="#F58636"/>
</linearGradient>
<linearGradient id="paint3_linear_503:10693" x1="99.7323" y1="3.71965" x2="108.433" y2="3.71965" gradientUnits="userSpaceOnUse">
<stop stop-color="#83B9FF"/>
<stop offset="1" stop-color="#5AA2FF"/>
</linearGradient>
<linearGradient id="paint4_linear_503:10693" x1="69.003" y1="98.2547" x2="106.612" y2="98.2547" gradientUnits="userSpaceOnUse">
<stop stop-color="#83B9FF"/>
<stop offset="1" stop-color="#5AA2FF"/>
</linearGradient>
</defs>
</svg>
