<svg width="121" height="96" viewBox="0 0 121 96" fill="none" xmlns="http://www.w3.org/2000/svg">
<path d="M62.9228 94.6667C89.0022 94.6667 110.144 73.4748 110.144 47.3333C110.144 21.1919 89.0022 0 62.9228 0C36.8434 0 15.7019 21.1919 15.7019 47.3333C15.7019 73.4748 36.8434 94.6667 62.9228 94.6667Z" fill="url(#paint0_linear_699:10597)"/>
<path d="M83.0652 94.8571C76.3194 95.0476 68.1484 94.8571 62.4476 94.7619C56.7469 94.8571 48.5759 95.0476 41.8301 94.8571C48.4809 91.0476 50.8562 83.9047 51.2363 79.238H73.6591C74.1341 83.9047 76.4144 91.0476 83.0652 94.8571Z" fill="url(#paint1_linear_699:10597)"/>
<path d="M42.4953 96H82.4953C83.0654 96 83.5405 95.5238 83.5405 94.9524C83.5405 94.381 83.0654 93.9048 82.4953 93.9048H42.4953C41.9253 93.9048 41.4502 94.381 41.4502 94.9524C41.4502 95.5238 41.9253 96 42.4953 96Z" fill="#EBF0F6"/>
<path d="M104.918 19.8095V78.4762C104.918 79.9047 103.778 80.9524 102.448 80.9524H22.8277C21.4026 80.9524 20.3574 79.8095 20.3574 78.4762V19.8095C20.3574 18.3809 21.4976 17.3333 22.8277 17.3333H102.448C103.778 17.2381 104.918 18.3809 104.918 19.8095Z" fill="#F5F8FF"/>
<path d="M104.918 19.8095V70.2857H20.3574V19.8095C20.3574 18.3809 21.4976 17.3333 22.8277 17.3333H102.448C103.778 17.2381 104.918 18.3809 104.918 19.8095Z" fill="#172D45"/>
<path d="M101.688 20.4762H23.208V67.5238H101.688V20.4762Z" fill="white"/>
<path d="M27.8633 25.8096C28.5455 25.8096 29.0985 25.2553 29.0985 24.5715C29.0985 23.8877 28.5455 23.3334 27.8633 23.3334C27.1812 23.3334 26.6282 23.8877 26.6282 24.5715C26.6282 25.2553 27.1812 25.8096 27.8633 25.8096Z" fill="#FD724F"/>
<path d="M31.8538 25.8096C32.536 25.8096 33.089 25.2553 33.089 24.5715C33.089 23.8877 32.536 23.3334 31.8538 23.3334C31.1716 23.3334 30.6187 23.8877 30.6187 24.5715C30.6187 25.2553 31.1716 25.8096 31.8538 25.8096Z" fill="#FFCB00"/>
<path d="M35.8445 25.8096C36.5267 25.8096 37.0797 25.2553 37.0797 24.5715C37.0797 23.8877 36.5267 23.3334 35.8445 23.3334C35.1624 23.3334 34.6094 23.8877 34.6094 24.5715C34.6094 25.2553 35.1624 25.8096 35.8445 25.8096Z" fill="#7ED171"/>
<path d="M101.688 28.6666H40.1201H27.5786H23.208V67.5238H40.1201V29.2381H101.688V28.6666Z" fill="#E6EDF5"/>
<path d="M31.8539 37.0477C33.0084 37.0477 33.9442 36.1096 33.9442 34.9524C33.9442 33.7952 33.0084 32.8572 31.8539 32.8572C30.6995 32.8572 29.7637 33.7952 29.7637 34.9524C29.7637 36.1096 30.6995 37.0477 31.8539 37.0477Z" fill="white"/>
<path d="M37.5545 40.1905H26.0581C25.773 40.1905 25.583 40.0001 25.583 39.7143C25.583 39.4286 25.773 39.2382 26.0581 39.2382H37.5545C37.8395 39.2382 38.0296 39.4286 38.0296 39.7143C38.1246 39.9048 37.8395 40.1905 37.5545 40.1905Z" fill="white"/>
<path d="M37.5545 43.1428H26.0581C25.773 43.1428 25.583 42.9523 25.583 42.6666C25.583 42.3809 25.773 42.1904 26.0581 42.1904H37.5545C37.8395 42.1904 38.0296 42.3809 38.0296 42.6666C38.1246 42.8571 37.8395 43.1428 37.5545 43.1428Z" fill="white"/>
<path d="M37.5545 46.0953H26.0581C25.773 46.0953 25.583 45.9048 25.583 45.6191C25.583 45.3334 25.773 45.1429 26.0581 45.1429H37.5545C37.8395 45.1429 38.0296 45.3334 38.0296 45.6191C38.1246 45.8096 37.8395 46.0953 37.5545 46.0953Z" fill="white"/>
<path d="M37.5545 49.0476H26.0581C25.773 49.0476 25.583 48.8571 25.583 48.5714C25.583 48.2857 25.773 48.0952 26.0581 48.0952H37.5545C37.8395 48.0952 38.0296 48.2857 38.0296 48.5714C38.1246 48.7619 37.8395 49.0476 37.5545 49.0476Z" fill="white"/>
<path d="M37.5545 52H26.0581C25.773 52 25.583 51.8095 25.583 51.5238C25.583 51.2381 25.773 51.0476 26.0581 51.0476H37.5545C37.8395 51.0476 38.0296 51.2381 38.0296 51.5238C38.1246 51.7143 37.8395 52 37.5545 52Z" fill="white"/>
<path d="M32.0438 54.9524H25.9631C25.773 54.9524 25.583 54.7619 25.583 54.5715V54.2857C25.583 54.0953 25.773 53.9048 25.9631 53.9048H32.0438C32.2338 53.9048 32.4239 54.0953 32.4239 54.2857V54.5715C32.3288 54.7619 32.2338 54.9524 32.0438 54.9524Z" fill="white"/>
<path d="M62.4477 78C63.6021 78 64.5379 77.062 64.5379 75.9048C64.5379 74.7476 63.6021 73.8096 62.4477 73.8096C61.2933 73.8096 60.3574 74.7476 60.3574 75.9048C60.3574 77.062 61.2933 78 62.4477 78Z" fill="#CED7E2"/>
<path d="M120.5 16.5714C120.5 17.5238 120.405 18.3809 120.215 19.3333C120.215 19.4285 120.215 19.4285 120.215 19.5238C119.265 23.5238 116.319 26.8571 112.614 28.2857C112.424 28.3809 112.329 28.3809 112.139 28.4761C110.904 28.9523 109.574 29.1428 108.148 29.1428C101.308 29.1428 95.7019 23.5238 95.7019 16.6666C95.7019 9.80948 101.308 4.19043 108.148 4.19043C114.989 4.19043 120.5 9.71424 120.5 16.5714Z" fill="url(#paint2_linear_699:10597)"/>
<path d="M49.716 50.4762H45.3455V61.0476H49.716V50.4762Z" fill="#E6EDF5"/>
<path d="M60.4523 45.619H56.0818V61.0476H60.4523V45.619Z" fill="#E6EDF5"/>
<path d="M71.1889 50.4762H66.8184V61.0476H71.1889V50.4762Z" fill="#E6EDF5"/>
<path d="M81.9252 38.1904H77.5547V61.0476H81.9252V38.1904Z" fill="#E6EDF5"/>
<path d="M92.6616 45.3334H88.291V61.0477H92.6616V45.3334Z" fill="#E6EDF5"/>
<path d="M49.716 58.6667H45.3455V61.0477H49.716V58.6667Z" fill="#CED7E2"/>
<path d="M60.4523 57.6191H56.0818V61.0477H60.4523V57.6191Z" fill="#CED7E2"/>
<path d="M71.1889 58.6667H66.8184V61.0477H71.1889V58.6667Z" fill="#CED7E2"/>
<path d="M81.9252 55.9048H77.5547V61.0476H81.9252V55.9048Z" fill="#CED7E2"/>
<path d="M92.6616 57.5238H88.291V61.0476H92.6616V57.5238Z" fill="#CED7E2"/>
<g filter="url(#filter0_d_699:10597)">
<path d="M47.9109 59.4286C46.0106 59.4286 44.3954 58.8572 43.4453 58.5715C42.6852 58.2857 42.3052 57.5238 42.4952 56.7619C42.7802 56 43.5403 55.6191 44.3004 55.8095C46.8657 56.6667 49.9061 57.3334 52.5665 54.381L53.3266 53.5238C56.747 49.8095 58.7422 47.6191 65.013 51.0476C70.0486 53.9048 71.8539 52.8572 73.8491 49.6191C74.6092 48.2857 75.1793 46.8572 75.7494 45.5238C76.7945 42.8572 77.8396 40.0953 80.69 40.4762H80.88C83.6353 40.7619 86.9608 41.1429 91.1413 35.3334C91.7113 34.4762 92.2814 33.9048 92.7565 33.4286C93.3265 32.8572 94.2767 32.9524 94.7517 33.5238C95.3218 34.0953 95.2268 35.0476 94.6567 35.5238C94.2767 35.8095 93.8966 36.381 93.4216 37.0476C88.3859 44.0953 83.5403 43.6191 80.595 43.3334H80.4049C79.7399 43.2381 79.1698 44.4762 78.4097 46.5715C77.8396 48 77.2695 49.6191 76.3194 51.1429C73.2791 56.1905 69.5736 56.8572 63.6828 53.6191C59.4073 51.2381 58.8372 51.9048 55.5118 55.5238L54.6567 56.4762C52.4714 58.8572 50.0011 59.4286 47.9109 59.4286Z" fill="url(#paint3_linear_699:10597)"/>
</g>
<path d="M51.2362 36.0952H45.4405C44.9655 36.0952 44.6804 35.7143 44.6804 35.3333C44.6804 34.8571 45.0605 34.5714 45.4405 34.5714H51.2362C51.7113 34.5714 51.9963 34.9524 51.9963 35.3333C51.9963 35.8095 51.6163 36.0952 51.2362 36.0952Z" fill="#E6EDF5"/>
<path d="M56.4619 39.8096H45.4405C44.9655 39.8096 44.6804 39.4286 44.6804 39.0477C44.6804 38.5715 45.0605 38.2858 45.4405 38.2858H56.3669C56.8419 38.2858 57.127 38.6667 57.127 39.0477C57.222 39.4286 56.8419 39.8096 56.4619 39.8096Z" fill="#E6EDF5"/>
<path d="M28.3385 64.5714C28.3385 66 28.1485 67.3333 27.7684 68.5714C26.3432 73.4286 22.3527 77.1428 17.3171 78.2857C16.367 78.4762 15.4169 78.5714 14.3717 78.5714C6.77078 78.5714 0.5 72.2857 0.5 64.5714C0.5 56.8571 6.77078 50.5714 14.4667 50.5714C22.1627 50.5714 28.3385 56.8571 28.3385 64.5714Z" fill="url(#paint4_linear_699:10597)"/>
<path d="M17.2724 64.1858H18.6026C18.8876 64.1858 19.0776 64.3763 19.0776 64.662V69.4239C19.0776 69.7096 18.8876 69.9001 18.6026 69.9001H17.2724C16.9874 69.9001 16.7974 69.7096 16.7974 69.4239V64.662C16.7974 64.3763 16.9874 64.1858 17.2724 64.1858Z" fill="white"/>
<path d="M13.2819 66.5667H14.6121C14.8971 66.5667 15.0872 66.7571 15.0872 67.0428V69.4238C15.0872 69.7095 14.8971 69.9 14.6121 69.9H13.2819C12.9969 69.9 12.8069 69.7095 12.8069 69.4238V67.0428C12.8069 66.7571 12.9969 66.5667 13.2819 66.5667Z" fill="white"/>
<path d="M9.29155 68.4714H10.6217C10.9067 68.4714 11.0968 68.6619 11.0968 68.9476V69.4238C11.0968 69.7095 10.9067 69.9 10.6217 69.9H9.29155C9.00651 69.9 8.81649 69.7095 8.81649 69.4238V68.9476C8.72148 68.6619 9.00651 68.4714 9.29155 68.4714Z" fill="white"/>
<path d="M18.6977 59.5191C18.8877 59.5191 19.0777 59.7095 19.0777 59.9V62.3762C19.0777 62.4714 18.9827 62.5667 18.8877 62.5667H18.1276C18.0326 62.5667 17.9376 62.4714 17.9376 62.3762V61.4238C15.3723 63.9 12.3319 65.9 9.00647 67.3286C8.91146 67.3286 8.91147 67.3286 8.81645 67.3286L8.72144 67.2334V66.3762C8.72144 66.281 8.81645 66.1857 8.91146 66.1857C11.9518 64.8524 14.8022 62.9476 17.1775 60.5667H16.1324C16.0374 60.5667 15.9423 60.4714 15.9423 60.3762V59.6143C15.9423 59.5191 16.0374 59.4238 16.1324 59.4238L18.6977 59.5191Z" fill="white"/>
<path d="M112.854 17.0019H108.484C108.294 17.0019 108.104 16.8115 108.104 16.621V12.24C108.104 11.8591 107.819 11.6686 107.534 11.5734H107.439C104.493 11.9543 102.498 14.7162 102.878 17.6686C103.258 20.621 106.014 22.621 108.959 22.24C111.334 21.9543 113.234 20.0496 113.519 17.6686C113.519 17.3829 113.234 17.0019 112.854 17.0019C112.949 17.0019 112.854 17.0019 112.854 17.0019Z" fill="white"/>
<path d="M109.244 11.0971V15.3829C109.244 15.6686 109.434 15.859 109.719 15.859H113.994C114.28 15.859 114.47 15.6686 114.47 15.3829C114.28 13.0019 112.189 10.7162 109.719 10.6209C109.434 10.5257 109.244 10.7162 109.244 11.0971C109.244 11.0019 109.244 11.0971 109.244 11.0971Z" fill="white"/>
<path d="M15.2268 94.762H112.329" stroke="#DDE7F3" stroke-width="2" stroke-miterlimit="10" stroke-linecap="round" stroke-linejoin="round"/>
<defs>
<filter id="filter0_d_699:10597" x="34.4468" y="30.0447" width="68.688" height="42.3839" filterUnits="userSpaceOnUse" color-interpolation-filters="sRGB">
<feFlood flood-opacity="0" result="BackgroundImageFix"/>
<feColorMatrix in="SourceAlpha" type="matrix" values="0 0 0 0 0 0 0 0 0 0 0 0 0 0 0 0 0 0 127 0" result="hardAlpha"/>
<feOffset dy="5"/>
<feGaussianBlur stdDeviation="4"/>
<feColorMatrix type="matrix" values="0 0 0 0 0.1125 0 0 0 0 0.295916 0 0 0 0 1 0 0 0 0.22 0"/>
<feBlend mode="normal" in2="BackgroundImageFix" result="effect1_dropShadow_699:10597"/>
<feBlend mode="normal" in="SourceGraphic" in2="effect1_dropShadow_699:10597" result="shape"/>
</filter>
<linearGradient id="paint0_linear_699:10597" x1="16.8574" y1="48.7589" x2="111.727" y2="48.7589" gradientUnits="userSpaceOnUse">
<stop stop-color="#FFA666"/>
<stop offset="1" stop-color="#F58636"/>
</linearGradient>
<linearGradient id="paint1_linear_699:10597" x1="62.4453" y1="94.4339" x2="62.4453" y2="80.4358" gradientUnits="userSpaceOnUse">
<stop stop-color="#F5F8FF"/>
<stop offset="0.9913" stop-color="#C4D3E9"/>
</linearGradient>
<linearGradient id="paint2_linear_699:10597" x1="95.6665" y1="16.6859" x2="120.493" y2="16.6859" gradientUnits="userSpaceOnUse">
<stop stop-color="#83B9FF"/>
<stop offset="1" stop-color="#5AA2FF"/>
</linearGradient>
<linearGradient id="paint3_linear_699:10597" x1="42.4356" y1="46.3374" x2="95.0545" y2="46.3374" gradientUnits="userSpaceOnUse">
<stop stop-color="#83A6FF"/>
<stop offset="1" stop-color="#5A78FF"/>
</linearGradient>
<linearGradient id="paint4_linear_699:10597" x1="0.840612" y1="64.9931" x2="28.8052" y2="64.9931" gradientUnits="userSpaceOnUse">
<stop stop-color="#FFAA6D"/>
<stop offset="1" stop-color="#FF7919"/>
</linearGradient>
</defs>
</svg>
