<svg width="124" height="144" viewBox="0 0 124 144" fill="none" xmlns="http://www.w3.org/2000/svg">
<path d="M60.807 116.657C90.6109 116.657 114.772 92.5575 114.772 62.8287C114.772 33.0999 90.6109 9 60.807 9C31.0032 9 6.84241 33.0999 6.84241 62.8287C6.84241 92.5575 31.0032 116.657 60.807 116.657Z" fill="url(#paint0_linear_503:10458)"/>
<path d="M7.75962 31.2891C9.18535 30.8269 9.96547 29.2993 9.50207 27.8772C9.03867 26.455 7.50723 25.6769 6.08151 26.1391C4.65578 26.6014 3.87566 28.1289 4.33906 29.5511C4.80246 30.9732 6.3339 31.7514 7.75962 31.2891Z" fill="#EAEEF9"/>
<path d="M13.6852 22.4546C14.6547 22.1403 15.1852 21.1016 14.87 20.1345C14.5549 19.1675 13.5136 18.6383 12.5441 18.9526C11.5746 19.2669 11.0441 20.3057 11.3592 21.2727C11.6743 22.2398 12.7157 22.7689 13.6852 22.4546Z" fill="#EAEEF9"/>
<path d="M120.454 49.3193C122.136 47.7859 122.254 45.1826 120.717 43.5047C119.179 41.8267 116.569 41.7095 114.887 43.2429C113.205 44.7763 113.088 47.3796 114.625 49.0576C116.162 50.7355 118.772 50.8527 120.454 49.3193Z" fill="#EAEEF9"/>
<path d="M120.839 30.9479C121.547 30.3022 121.597 29.2061 120.95 28.4996C120.302 27.7931 119.204 27.7438 118.495 28.3894C117.787 29.035 117.737 30.1312 118.385 30.8377C119.032 31.5442 120.131 31.5935 120.839 30.9479Z" fill="#EAEEF9"/>
<path d="M98.5705 15.715C99.53 15.715 100.308 14.9392 100.308 13.9821C100.308 13.0251 99.53 12.2492 98.5705 12.2492C97.6111 12.2492 96.8333 13.0251 96.8333 13.9821C96.8333 14.9392 97.6111 15.715 98.5705 15.715Z" fill="url(#paint1_linear_503:10458)"/>
<path d="M11.4886 90.2305C12.4481 90.2305 13.2259 89.4546 13.2259 88.4975C13.2259 87.5405 12.4481 86.7646 11.4886 86.7646C10.5292 86.7646 9.75134 87.5405 9.75134 88.4975C9.75134 89.4546 10.5292 90.2305 11.4886 90.2305Z" fill="url(#paint2_linear_503:10458)"/>
<g filter="url(#filter0_d_503:10458)">
<path d="M99.6562 35.9684L100.525 106.585C100.525 108.968 98.5704 110.917 96.1817 110.917H27.2329C24.8441 110.917 22.8896 108.968 22.8896 106.585V15.8233C22.8896 13.4405 24.8441 11.491 27.2329 11.491H77.18L99.6562 35.9684Z" fill="white"/>
</g>
<path d="M87.7124 79.7247H46.4517C45.9088 79.7247 45.4745 79.1831 45.4745 78.5333C45.4745 77.8835 45.9088 77.3419 46.4517 77.3419H87.7124C88.2553 77.3419 88.6896 77.8835 88.6896 78.5333C88.6896 79.1831 88.2553 79.7247 87.7124 79.7247Z" fill="#E3EAF2"/>
<path d="M41.3483 79.7247H34.0734C33.5305 79.7247 33.0962 79.1831 33.0962 78.5333C33.0962 77.8835 33.5305 77.3419 34.0734 77.3419H41.3483C41.8912 77.3419 42.3256 77.8835 42.3256 78.5333C42.3256 79.1831 41.8912 79.7247 41.3483 79.7247Z" fill="#CED7E2"/>
<path d="M87.6037 71.06H69.1449C68.602 71.06 68.1677 70.5185 68.1677 69.8686C68.1677 69.2188 68.602 68.6772 69.1449 68.6772H87.6037C88.1466 68.6772 88.5809 69.2188 88.5809 69.8686C88.5809 70.5185 88.1466 71.06 87.6037 71.06Z" fill="#CED7E2"/>
<path d="M61.3271 71.06H34.3991C33.8562 71.06 33.4219 70.5185 33.4219 69.8686C33.4219 69.2188 33.8562 68.6772 34.3991 68.6772H61.3271C61.87 68.6772 62.3044 69.2188 62.3044 69.8686C62.4129 70.5185 61.87 71.06 61.3271 71.06Z" fill="#E3EAF2"/>
<path d="M80.9803 44.958H88.3638C88.9067 44.958 89.341 44.4164 89.341 43.7666C89.341 43.1167 88.9067 42.5752 88.3638 42.5752H80.9803C80.4374 42.5752 80.0031 43.1167 80.0031 43.7666C80.0031 44.5247 80.4374 44.958 80.9803 44.958Z" fill="#E3EAF2"/>
<path d="M87.9294 62.2872H80.7631C80.2202 62.2872 79.7859 61.7456 79.7859 61.0958C79.7859 60.446 80.2202 59.9044 80.7631 59.9044H87.9294C88.4723 59.9044 88.9067 60.446 88.9067 61.0958C88.9067 61.7456 88.4723 62.2872 87.9294 62.2872Z" fill="#E3EAF2"/>
<path d="M74.1396 62.2872H54.9208C54.3779 62.2872 53.9436 61.7456 53.9436 61.0958C53.9436 60.446 54.3779 59.9044 54.9208 59.9044H74.2482C74.7911 59.9044 75.2254 60.446 75.2254 61.0958C75.2254 61.7456 74.7911 62.2872 74.1396 62.2872Z" fill="#CED7E2"/>
<path fill-rule="evenodd" clip-rule="evenodd" d="M39.125 45.8571C36.8425 45.8571 35 47.7757 35 50.1429C35 52.51 36.8425 54.4286 39.125 54.4286H41.875C42.6312 54.4286 43.25 55.0686 43.25 55.8571C43.25 56.6457 42.6312 57.2857 41.875 57.2857H37.0625C36.3062 57.2857 35.6875 57.9257 35.6875 58.7143C35.6875 59.5029 36.3062 60.1429 37.0625 60.1429H39.125V61.5714C39.125 62.36 39.7438 63 40.5 63C41.2562 63 41.875 62.36 41.875 61.5714V60.1429C44.1575 60.1429 46 58.2243 46 55.8571C46 53.49 44.1575 51.5714 41.875 51.5714H39.125C38.3688 51.5714 37.75 50.9314 37.75 50.1429C37.75 49.3543 38.3688 48.7143 39.125 48.7143H43.9375C44.6938 48.7143 45.3125 48.0743 45.3125 47.2857C45.3125 46.4971 44.6938 45.8571 43.9375 45.8571H41.875V44.4286C41.875 43.64 41.2562 43 40.5 43C39.7438 43 39.125 43.64 39.125 44.4286V45.8571Z" fill="url(#paint3_linear_503:10458)"/>
<path d="M56.441 96.8372H53.9437C53.4008 96.8372 52.9664 96.2957 52.9664 95.6458C52.9664 94.996 53.4008 94.4545 53.9437 94.4545H56.441C56.9839 94.4545 57.4182 94.996 57.4182 95.6458C57.4182 96.404 56.9839 96.8372 56.441 96.8372Z" fill="#CED7E2"/>
<path d="M49.4918 96.8372H34.8334C34.2905 96.8372 33.8562 96.2957 33.8562 95.6458C33.8562 94.996 34.2905 94.4545 34.8334 94.4545H49.4918C50.0347 94.4545 50.4691 94.996 50.4691 95.6458C50.4691 96.404 50.0347 96.8372 49.4918 96.8372Z" fill="#E3EAF2"/>
<path d="M88.2553 53.6226H73.814C73.2711 53.6226 72.8368 53.0811 72.8368 52.4312C72.8368 51.7814 73.2711 51.2399 73.814 51.2399H88.3638C88.9067 51.2399 89.3411 51.7814 89.3411 52.4312C89.3411 53.0811 88.9067 53.6226 88.2553 53.6226Z" fill="#CED7E2"/>
<path d="M54.8123 44.958H74.3568C74.8997 44.958 75.3341 44.4164 75.3341 43.7666C75.3341 43.1167 74.8997 42.5752 74.3568 42.5752H54.8123C54.2694 42.5752 53.8351 43.1167 53.8351 43.7666C53.8351 44.5247 54.2694 44.958 54.8123 44.958Z" fill="#CED7E2"/>
<path d="M67.7335 53.6226H54.7038C54.1609 53.6226 53.7266 53.0811 53.7266 52.4312C53.7266 51.7814 54.1609 51.2399 54.7038 51.2399H67.7335C68.2764 51.2399 68.7107 51.7814 68.7107 52.4312C68.8193 53.0811 68.385 53.6226 67.7335 53.6226Z" fill="#E3EAF2"/>
<path d="M68.4936 26.3292H35.485C34.725 26.3292 34.0735 25.6793 34.0735 24.9212C34.0735 24.163 34.725 23.5132 35.485 23.5132H68.4936C69.2537 23.5132 69.9051 24.163 69.9051 24.9212C69.9051 25.6793 69.2537 26.3292 68.4936 26.3292Z" fill="#CED7E2"/>
<path d="M48.189 34.2357H35.485C34.725 34.2357 34.0735 33.5858 34.0735 32.8277C34.0735 32.0695 34.725 31.4197 35.485 31.4197H48.0804C48.8405 31.4197 49.492 32.0695 49.492 32.8277C49.492 33.5858 48.8405 34.2357 48.189 34.2357Z" fill="#CED7E2"/>
<path d="M77.18 11.491V30.9863C77.18 33.694 79.5688 35.9684 82.2833 35.9684H99.6562" fill="#EAEFF4"/>
<path d="M109.987 105.296C107.815 115.91 97.2827 122.842 86.6418 120.567C76.0008 118.401 69.0516 107.896 71.3318 97.2814C73.612 86.6673 84.0357 79.7355 94.6766 82.01C98.477 82.7681 101.951 84.6094 104.666 87.4254C109.335 92.0826 111.29 98.7976 109.987 105.296Z" fill="url(#paint4_linear_503:10458)"/>
<mask id="mask0_503:10458" style="mask-type:alpha" maskUnits="userSpaceOnUse" x="82" y="91" width="18" height="20">
<path fill-rule="evenodd" clip-rule="evenodd" d="M82 91H100V111H82V91Z" fill="white"/>
</mask>
<g mask="url(#mask0_503:10458)">
<path fill-rule="evenodd" clip-rule="evenodd" d="M88 104C87.45 104 87 104.448 87 105C87 105.552 87.45 106 88 106H94C94.55 106 95 105.552 95 105C95 104.448 94.55 104 94 104H88ZM87 101C87 100.448 87.45 99.9998 88 99.9998H94C94.55 99.9998 95 100.448 95 101C95 101.552 94.55 102 94 102H88C87.45 102 87 101.552 87 101ZM88 95.9998C87.45 95.9998 87 96.4478 87 96.9998C87 97.5518 87.45 97.9998 88 97.9998H93C93.55 97.9998 94 97.5518 94 96.9998C94 96.4478 93.55 95.9998 93 95.9998H88ZM94.8 93.3468L96.09 94.8458L97.75 96.7158C97.91 96.8988 98 97.1348 98 97.3788V101V108C98 108.552 97.55 109 97 109H85C84.45 109 84 108.552 84 108V93.9998C84 93.4478 84.45 92.9998 85 92.9998H91H94.04C94.33 92.9998 94.61 93.1268 94.8 93.3468ZM85 111H97C98.66 111 100 109.657 100 108V101V97.3788C100 96.6458 99.73 95.9378 99.25 95.3888L97.6 93.5298L96.31 92.0418C95.74 91.3798 94.91 90.9998 94.04 90.9998H91H85C83.34 90.9998 82 92.3428 82 93.9998V108C82 109.657 83.34 111 85 111Z" fill="white"/>
</g>
<defs>
<filter id="filter0_d_503:10458" x="0.889648" y="0.490967" width="121.635" height="143.426" filterUnits="userSpaceOnUse" color-interpolation-filters="sRGB">
<feFlood flood-opacity="0" result="BackgroundImageFix"/>
<feColorMatrix in="SourceAlpha" type="matrix" values="0 0 0 0 0 0 0 0 0 0 0 0 0 0 0 0 0 0 127 0" result="hardAlpha"/>
<feOffset dy="11"/>
<feGaussianBlur stdDeviation="11"/>
<feColorMatrix type="matrix" values="0 0 0 0 0.397708 0 0 0 0 0.47749 0 0 0 0 0.575 0 0 0 0.18 0"/>
<feBlend mode="normal" in2="BackgroundImageFix" result="effect1_dropShadow_503:10458"/>
<feBlend mode="normal" in="SourceGraphic" in2="effect1_dropShadow_503:10458" result="shape"/>
</filter>
<linearGradient id="paint0_linear_503:10458" x1="8.16295" y1="64.4499" x2="116.581" y2="64.4499" gradientUnits="userSpaceOnUse">
<stop stop-color="#FFA666"/>
<stop offset="1" stop-color="#F58636"/>
</linearGradient>
<linearGradient id="paint1_linear_503:10458" x1="96.8758" y1="14.0343" x2="100.366" y2="14.0343" gradientUnits="userSpaceOnUse">
<stop stop-color="#FFA666"/>
<stop offset="1" stop-color="#F58636"/>
</linearGradient>
<linearGradient id="paint2_linear_503:10458" x1="9.79386" y1="88.5497" x2="13.2842" y2="88.5497" gradientUnits="userSpaceOnUse">
<stop stop-color="#FFA666"/>
<stop offset="1" stop-color="#F58636"/>
</linearGradient>
<linearGradient id="paint3_linear_503:10458" x1="35.1346" y1="53.3012" x2="46.1844" y2="53.3012" gradientUnits="userSpaceOnUse">
<stop stop-color="#FFA666"/>
<stop offset="1" stop-color="#F58636"/>
</linearGradient>
<linearGradient id="paint4_linear_503:10458" x1="70.8418" y1="101.319" x2="110.371" y2="101.319" gradientUnits="userSpaceOnUse">
<stop stop-color="#83B9FF"/>
<stop offset="1" stop-color="#5AA2FF"/>
</linearGradient>
</defs>
</svg>
