<svg width="123" height="145" viewBox="0 0 123 145" fill="none" xmlns="http://www.w3.org/2000/svg">
<path d="M6.13226 19.6074C7.62306 19.1201 8.43879 17.5094 7.95424 16.0099C7.46969 14.5105 5.86835 13.69 4.37755 14.1774C2.88675 14.6647 2.07103 16.2754 2.55558 17.7749C3.04013 19.2743 4.64146 20.0948 6.13226 19.6074Z" fill="#EAEEF9"/>
<path d="M12.3283 10.2925C13.3421 9.96111 13.8967 8.86587 13.5673 7.84622C13.2378 6.82658 12.1488 6.26866 11.1351 6.60007C10.1214 6.93148 9.56667 8.02673 9.89616 9.04637C10.2257 10.066 11.3146 10.6239 12.3283 10.2925Z" fill="#EAEEF9"/>
<path d="M105.378 20.092C107.137 18.4752 107.26 15.7303 105.653 13.9611C104.045 12.1919 101.316 12.0684 99.5572 13.6851C97.7982 15.3019 97.6754 18.0468 99.2828 19.816C100.89 21.5852 103.619 21.7087 105.378 20.092Z" fill="#EAEEF9"/>
<path d="M119.159 12.1801C119.899 11.4993 119.951 10.3436 119.274 9.59869C118.598 8.85377 117.449 8.80174 116.708 9.48248C115.967 10.1632 115.916 11.319 116.592 12.0639C117.269 12.8088 118.418 12.8608 119.159 12.1801Z" fill="#EAEEF9"/>
<path d="M11.1196 113.62C11.8602 112.939 11.9119 111.783 11.2351 111.038C10.5583 110.293 9.40926 110.241 8.66864 110.922C7.92802 111.603 7.8763 112.758 8.5531 113.503C9.22991 114.248 10.379 114.3 11.1196 113.62Z" fill="#EAEEF9"/>
<path d="M56.9277 119.657C88.0918 119.657 113.355 94.2469 113.355 62.9015C113.355 31.556 88.0918 6.14546 56.9277 6.14546C25.7635 6.14546 0.5 31.556 0.5 62.9015C0.5 94.2469 25.7635 119.657 56.9277 119.657Z" fill="url(#paint0_linear_503:10887)"/>
<path d="M22.1856 55.7071L14.8057 24.1887C14.238 21.7905 15.714 19.5066 17.9847 18.9356L66.6919 7.28748L94.2813 26.13L111.539 95.4477C112.107 97.8458 110.631 100.13 108.36 100.701L41.1462 116.688C38.7619 117.259 36.4912 115.775 35.9235 113.491L21.6179 53.3089" fill="white"/>
<g filter="url(#filter0_d_503:10887)">
<path d="M100.526 107.21C100.526 109.608 98.5956 111.55 96.2113 111.55H27.1811C24.7968 111.55 22.8667 109.608 22.8667 107.21V15.3955C22.8667 12.9974 24.7968 11.056 27.1811 11.056H77.2507L99.7309 35.8368L100.185 77.4046L100.526 107.21Z" fill="white"/>
</g>
<path d="M87.8096 85.2842H46.3688C45.6876 85.2842 45.1199 84.7132 45.1199 84.028C45.1199 83.3428 45.6876 82.7719 46.3688 82.7719H87.8096C88.4908 82.7719 89.0585 83.3428 89.0585 84.028C88.945 84.7132 88.4908 85.2842 87.8096 85.2842Z" fill="#E3EAF2"/>
<path d="M41.2596 85.2842H33.9933C33.3121 85.2842 32.7444 84.7132 32.7444 84.028C32.7444 83.3428 33.3121 82.7719 33.9933 82.7719H41.2596C41.9408 82.7719 42.5085 83.3428 42.5085 84.028C42.5085 84.7132 41.9408 85.2842 41.2596 85.2842Z" fill="url(#paint1_linear_503:10887)"/>
<path d="M87.696 73.9786H69.1896C68.5084 73.9786 67.9407 73.4077 67.9407 72.7225C67.9407 72.0373 68.5084 71.4663 69.1896 71.4663H87.696C88.3773 71.4663 88.9449 72.0373 88.9449 72.7225C88.8314 73.5219 88.3773 73.9786 87.696 73.9786Z" fill="#E3EAF2"/>
<path d="M61.3556 73.9786H34.3339C33.6526 73.9786 33.085 73.4077 33.085 72.7225C33.085 72.0373 33.6526 71.4663 34.3339 71.4663H61.3556C62.0368 71.4663 62.6045 72.0373 62.6045 72.7225C62.6045 73.5219 62.0368 73.9786 61.3556 73.9786Z" fill="#E3EAF2"/>
<path d="M88.0367 62.7874H80.8839C80.2027 62.7874 79.635 62.2164 79.635 61.5312C79.635 60.846 80.2027 60.275 80.8839 60.275H88.0367C88.7179 60.275 89.2856 60.846 89.2856 61.5312C89.2856 62.2164 88.7179 62.7874 88.0367 62.7874Z" fill="url(#paint2_linear_503:10887)"/>
<path d="M74.1852 62.7874H34.6744C33.9932 62.7874 33.4255 62.2164 33.4255 61.5312C33.4255 60.846 33.9932 60.275 34.6744 60.275H74.1852C74.8664 60.275 75.4341 60.846 75.4341 61.5312C75.4341 62.2164 74.8664 62.7874 74.1852 62.7874Z" fill="#E3EAF2"/>
<path d="M56.4735 97.6174H53.9757C53.2945 97.6174 52.7268 97.0465 52.7268 96.3613C52.7268 95.6761 53.2945 95.1051 53.9757 95.1051H56.4735C57.1547 95.1051 57.7224 95.6761 57.7224 96.3613C57.6089 97.0465 57.0412 97.6174 56.4735 97.6174Z" fill="#E3EAF2"/>
<path d="M49.4342 97.6174H34.6744C33.9932 97.6174 33.4255 97.0465 33.4255 96.3613C33.4255 95.6761 33.9932 95.1051 34.6744 95.1051H49.3207C50.0019 95.1051 50.5696 95.6761 50.5696 96.3613C50.6831 97.0465 50.1154 97.6174 49.4342 97.6174Z" fill="#E3EAF2"/>
<path d="M88.3771 51.596H62.9449C62.2637 51.596 61.696 51.025 61.696 50.3398C61.696 49.6546 62.2637 49.0836 62.9449 49.0836H88.3771C89.0584 49.0836 89.626 49.6546 89.626 50.3398C89.626 51.025 89.0584 51.596 88.3771 51.596Z" fill="#E3EAF2"/>
<path d="M54.7706 51.596H35.0153C34.334 51.596 33.7664 51.025 33.7664 50.3398C33.7664 49.6546 34.334 49.0836 35.0153 49.0836H54.6571C55.3383 49.0836 55.906 49.6546 55.906 50.3398C55.906 51.025 55.4518 51.596 54.7706 51.596Z" fill="#E3EAF2"/>
<path d="M68.6218 26.2443H35.4691C34.5609 26.2443 33.8796 25.5591 33.8796 24.6455C33.8796 23.7319 34.5609 23.0468 35.4691 23.0468H68.6218C69.5301 23.0468 70.2113 23.7319 70.2113 24.6455C70.2113 25.4449 69.4166 26.2443 68.6218 26.2443Z" fill="#1C3754"/>
<path d="M48.0717 34.238H35.4691C34.5609 34.238 33.8796 33.5529 33.8796 32.6393C33.8796 31.7257 34.5609 31.0405 35.4691 31.0405H48.1852C49.0935 31.0405 49.7748 31.7257 49.7748 32.6393C49.6612 33.4387 48.98 34.238 48.0717 34.238Z" fill="#1C3754"/>
<path d="M77.2506 11.056V30.6979C77.2506 33.4387 79.6349 35.7226 82.3598 35.7226H99.7309" fill="#EAEEF9"/>
<g filter="url(#filter1_d_503:10887)">
<path d="M114.264 97.8458C114.264 100.587 113.81 103.099 112.788 105.497C110.517 111.435 105.635 116.003 99.6175 118.059C97.5738 118.744 95.4166 119.087 93.1459 119.087C81.4516 119.087 72.0281 109.608 72.0281 97.8458C72.0281 86.0835 81.4516 76.6052 93.1459 76.6052C104.84 76.6052 114.264 86.1977 114.264 97.8458Z" fill="url(#paint3_linear_503:10887)"/>
</g>
<path fill-rule="evenodd" clip-rule="evenodd" d="M84.5998 102.646C84.5998 101.996 85.1398 101.469 85.7998 101.469H90.5998C91.2598 101.469 91.7998 101.996 91.7998 102.646C91.7998 103.296 91.2598 103.822 90.5998 103.822H85.7998C85.1398 103.822 84.5998 103.296 84.5998 102.646ZM99.5638 92.054L99.1558 91.1828L98.6038 89.9768C98.3278 89.384 97.6198 89.1212 97.0078 89.3888L90.9958 92.054H99.5638ZM102.6 96.7616H83.3998V95.5844C83.3998 94.9352 83.9398 94.4084 84.5998 94.4084H101.4C102.06 94.4084 102.6 94.9352 102.6 95.5844V96.7616ZM83.3998 99.116V105C83.3998 105.65 83.9398 106.177 84.5998 106.177H101.4C102.06 106.177 102.6 105.65 102.6 105V99.116H83.3998ZM102.24 92.15C103.824 92.5196 105 93.9176 105 95.5844V105C105 106.95 103.392 108.53 101.4 108.53H84.5998C82.6078 108.53 80.9998 106.95 80.9998 105V97.9388V95.5844C80.9998 93.6356 82.6078 92.054 84.5998 92.054H85.1758L96.0238 87.2444C97.8358 86.4416 99.9718 87.23 100.788 89.0072L101.34 90.2132L102.12 91.8896L102.24 92.15Z" fill="white"/>
<defs>
<filter id="filter0_d_503:10887" x="0.866699" y="0.0560303" width="121.659" height="144.494" filterUnits="userSpaceOnUse" color-interpolation-filters="sRGB">
<feFlood flood-opacity="0" result="BackgroundImageFix"/>
<feColorMatrix in="SourceAlpha" type="matrix" values="0 0 0 0 0 0 0 0 0 0 0 0 0 0 0 0 0 0 127 0" result="hardAlpha"/>
<feOffset dy="11"/>
<feGaussianBlur stdDeviation="11"/>
<feColorMatrix type="matrix" values="0 0 0 0 0.397708 0 0 0 0 0.47749 0 0 0 0 0.575 0 0 0 0.18 0"/>
<feBlend mode="normal" in2="BackgroundImageFix" result="effect1_dropShadow_503:10887"/>
<feBlend mode="normal" in="SourceGraphic" in2="effect1_dropShadow_503:10887" result="shape"/>
</filter>
<filter id="filter1_d_503:10887" x="64.0281" y="73.6052" width="58.2356" height="58.4814" filterUnits="userSpaceOnUse" color-interpolation-filters="sRGB">
<feFlood flood-opacity="0" result="BackgroundImageFix"/>
<feColorMatrix in="SourceAlpha" type="matrix" values="0 0 0 0 0 0 0 0 0 0 0 0 0 0 0 0 0 0 127 0" result="hardAlpha"/>
<feOffset dy="5"/>
<feGaussianBlur stdDeviation="4"/>
<feColorMatrix type="matrix" values="0 0 0 0 0.1125 0 0 0 0 0.295916 0 0 0 0 1 0 0 0 0.22 0"/>
<feBlend mode="normal" in2="BackgroundImageFix" result="effect1_dropShadow_503:10887"/>
<feBlend mode="normal" in="SourceGraphic" in2="effect1_dropShadow_503:10887" result="shape"/>
</filter>
<linearGradient id="paint0_linear_503:10887" x1="1.88082" y1="64.6108" x2="115.247" y2="64.6108" gradientUnits="userSpaceOnUse">
<stop stop-color="#FFA666"/>
<stop offset="1" stop-color="#F58636"/>
</linearGradient>
<linearGradient id="paint1_linear_503:10887" x1="32.8639" y1="84.0659" x2="42.6722" y2="84.0659" gradientUnits="userSpaceOnUse">
<stop stop-color="#FFA666"/>
<stop offset="1" stop-color="#F58636"/>
</linearGradient>
<linearGradient id="paint2_linear_503:10887" x1="79.7531" y1="61.569" x2="89.4474" y2="61.569" gradientUnits="userSpaceOnUse">
<stop stop-color="#FFA666"/>
<stop offset="1" stop-color="#F58636"/>
</linearGradient>
<linearGradient id="paint3_linear_503:10887" x1="71.9678" y1="97.8786" x2="114.252" y2="97.8786" gradientUnits="userSpaceOnUse">
<stop stop-color="#83B9FF"/>
<stop offset="1" stop-color="#5AA2FF"/>
</linearGradient>
</defs>
</svg>
