<svg width="121" height="99" viewBox="0 0 121 99" fill="none" xmlns="http://www.w3.org/2000/svg">
<path d="M107.722 50.1049C107.722 61.1995 104.005 71.4106 97.8412 79.6579C94.4172 84.0762 90.3083 88.0035 85.6124 91.0472C77.9817 96.0545 68.8835 99 59.1004 99C32.1971 99 10.4788 77.1052 10.4788 50.2031C10.4788 23.2027 32.2949 1.40613 59.1004 1.40613C68.8835 1.40613 77.9817 4.35162 85.6124 9.26076C90.3083 12.3044 94.4172 16.2318 97.8412 20.65C104.102 28.7992 107.722 39.0102 107.722 50.1049Z" fill="url(#paint0_linear_503:10397)"/>
<path d="M19.1702 11.6993C20.4547 11.2803 21.1576 9.89547 20.7401 8.60628C20.3226 7.31708 18.9428 6.61166 17.6582 7.03068C16.3736 7.44971 15.6707 8.83449 16.0883 10.1237C16.5058 11.4129 17.8856 12.1183 19.1702 11.6993Z" fill="#EAEEF9"/>
<path d="M24.509 3.69053C25.3825 3.4056 25.8604 2.46396 25.5765 1.58731C25.2926 0.710656 24.3543 0.230968 23.4808 0.515894C22.6073 0.800821 22.1293 1.74247 22.4133 2.61912C22.6972 3.49577 23.6355 3.97546 24.509 3.69053Z" fill="#EAEEF9"/>
<path d="M2.16312 56.585C3.08163 56.585 3.82623 55.8378 3.82623 54.9159C3.82623 53.9941 3.08163 53.2468 2.16312 53.2468C1.2446 53.2468 0.5 53.9941 0.5 54.9159C0.5 55.8378 1.2446 56.585 2.16312 56.585Z" fill="url(#paint1_linear_503:10397)"/>
<path d="M117.756 35.8854C119.271 34.4954 119.377 32.1354 117.992 30.6143C116.607 29.0932 114.256 28.987 112.74 30.377C111.224 31.7671 111.118 34.127 112.503 35.6481C113.888 37.1692 116.24 37.2755 117.756 35.8854Z" fill="#EAEEF9"/>
<path d="M117.016 19.5701C117.88 19.5701 118.581 18.8667 118.581 17.9992C118.581 17.1316 117.88 16.4282 117.016 16.4282C116.151 16.4282 115.451 17.1316 115.451 17.9992C115.451 18.8667 116.151 19.5701 117.016 19.5701Z" fill="url(#paint2_linear_503:10397)"/>
<path d="M11.3594 93.4036H112.125" stroke="#DDE7F3" stroke-width="2" stroke-miterlimit="10" stroke-linecap="round" stroke-linejoin="round"/>
<path d="M92.5582 8.96625V90.3599C92.5582 91.8327 91.3843 93.109 89.819 93.109H29.849C28.3815 93.109 27.1097 91.9308 27.1097 90.3599V8.96625C27.1097 7.4935 28.3815 6.31531 29.849 6.31531H89.9168C91.3842 6.31531 92.5582 7.4935 92.5582 8.96625Z" fill="#CED7E2"/>
<path d="M92.5581 14.8572V90.3599C92.5581 91.8326 91.3842 93.109 89.8189 93.109H35.0339L30.2402 88.298L84.7317 13.4826L89.4276 11.7153L92.5581 14.8572Z" fill="#BCC4CF"/>
<path d="M90.1125 12.9918H30.7295V88.5927C30.7295 89.1818 31.2186 89.5745 31.7078 89.5745H90.1125V12.9918Z" fill="#A6AFBA"/>
<path d="M88.6449 11.6172H31.1207C30.6316 11.6172 30.2402 12.0099 30.2402 12.5008V87.2181C30.2402 87.709 30.6316 88.1017 31.1207 88.1017H88.6449C89.1341 88.1017 89.5254 87.709 89.5254 87.2181V12.599C89.6232 12.1081 89.2319 11.6172 88.6449 11.6172Z" fill="#E3EAF2"/>
<g filter="url(#filter0_d_503:10397)">
<path d="M89.5255 11.7153C89.5255 11.7153 89.4277 16.2317 88.0581 44.803C88.0581 44.9994 88.0581 45.1957 88.0581 45.3921C86.3949 73.4724 61.4482 79.3634 58.4155 79.6579C57.0459 79.7561 54.4044 79.9525 49.6108 80.0507C43.7409 80.247 34.7405 80.3452 20.7508 80.5416C20.2617 80.5416 19.9682 80.0507 20.1638 79.6579C29.9469 60.1195 30.0447 11.8135 30.0447 11.8135H89.5255V11.7153Z" fill="white"/>
</g>
<path d="M78.8621 26.1483H40.0235C39.73 26.1483 39.4365 25.8537 39.4365 25.5592C39.4365 25.2646 39.73 24.9701 40.0235 24.9701H78.8621C79.1556 24.9701 79.4491 25.2646 79.4491 25.5592C79.4491 25.8537 79.1556 26.1483 78.8621 26.1483Z" fill="#CED7E2"/>
<path d="M78.6665 29.6828H63.2093C62.9158 29.6828 62.6223 29.3883 62.6223 29.0937C62.6223 28.7992 62.9158 28.5046 63.2093 28.5046H78.6665C78.96 28.5046 79.2535 28.7992 79.2535 29.0937C79.2535 29.3883 78.96 29.6828 78.6665 29.6828Z" fill="#CED7E2"/>
<path d="M58.9048 29.6828H39.73C39.4366 29.6828 39.1431 29.3883 39.1431 29.0937C39.1431 28.7992 39.4366 28.5046 39.73 28.5046H58.9048C59.1983 28.5046 59.4918 28.7992 59.4918 29.0937C59.4918 29.3883 59.2961 29.6828 58.9048 29.6828Z" fill="#E3EAF2"/>
<path d="M53.0348 33.1192H39.5342C39.2408 33.1192 38.9473 32.8247 38.9473 32.5301C38.9473 32.2356 39.2408 31.941 39.5342 31.941H53.1327C53.4262 31.941 53.7196 32.2356 53.7196 32.5301C53.7196 32.8247 53.4262 33.1192 53.0348 33.1192Z" fill="#CED7E2"/>
<path d="M77.5901 41.8575H56.0674C55.774 41.8575 55.4805 41.563 55.4805 41.2684C55.4805 40.9739 55.774 40.6793 56.0674 40.6793H77.5901C77.8836 40.6793 78.1771 40.9739 78.1771 41.2684C78.1771 41.563 77.8836 41.8575 77.5901 41.8575Z" fill="#CED7E2"/>
<path d="M51.6653 41.8575H38.9473C38.6538 41.8575 38.3604 41.563 38.3604 41.2684C38.3604 40.9739 38.6538 40.6793 38.9473 40.6793H51.6653C51.9588 40.6793 52.2523 40.9739 52.2523 41.2684C52.2523 41.563 51.9588 41.8575 51.6653 41.8575Z" fill="#E3EAF2"/>
<path d="M77.3947 45.2939H68.2965C68.003 45.2939 67.7095 44.9994 67.7095 44.7048C67.7095 44.4103 68.003 44.1157 68.2965 44.1157H77.3947C77.6882 44.1157 77.9817 44.4103 77.9817 44.7048C77.9817 44.9994 77.6882 45.2939 77.3947 45.2939Z" fill="#CED7E2"/>
<path d="M63.307 45.2939H38.4581C38.1646 45.2939 37.8711 44.9994 37.8711 44.7048C37.8711 44.4103 38.1646 44.1157 38.4581 44.1157H63.307C63.6005 44.1157 63.894 44.4103 63.894 44.7048C63.894 44.9994 63.6005 45.2939 63.307 45.2939Z" fill="#E3EAF2"/>
<path d="M61.3505 48.8286H37.9691C37.6756 48.8286 37.3821 48.534 37.3821 48.2395C37.3821 47.9449 37.6756 47.6504 37.9691 47.6504H61.3505C61.644 47.6504 61.9375 47.9449 61.9375 48.2395C61.9375 48.534 61.644 48.8286 61.3505 48.8286Z" fill="#E3EAF2"/>
<path d="M75.34 57.7632H49.9041C49.6106 57.7632 49.3171 57.4686 49.3171 57.1741C49.3171 56.8795 49.6106 56.585 49.9041 56.585H75.34C75.6335 56.585 75.927 56.8795 75.927 57.1741C75.927 57.4686 75.6335 57.7632 75.34 57.7632Z" fill="#E3EAF2"/>
<path d="M45.8934 57.7632H36.4039C36.1104 57.7632 35.8169 57.4686 35.8169 57.1741C35.8169 56.8795 36.1104 56.585 36.4039 56.585H45.8934C46.1869 56.585 46.4804 56.8795 46.4804 57.1741C46.4804 57.4686 46.2847 57.7632 45.8934 57.7632Z" fill="#CED7E2"/>
<path d="M75.0468 61.2978H56.4591C56.1656 61.2978 55.8721 61.0033 55.8721 60.7087C55.8721 60.4142 56.1656 60.1196 56.4591 60.1196H75.1446C75.4381 60.1196 75.7316 60.4142 75.7316 60.7087C75.7316 61.0033 75.4381 61.2978 75.0468 61.2978Z" fill="#CED7E2"/>
<path d="M52.9369 61.2978H36.0123C35.7188 61.2978 35.4253 61.0033 35.4253 60.7087C35.4253 60.4142 35.7188 60.1196 36.0123 60.1196H52.9369C53.2304 60.1196 53.5239 60.4142 53.5239 60.7087C53.5239 61.0033 53.2304 61.2978 52.9369 61.2978Z" fill="#E3EAF2"/>
<path d="M47.067 64.7342H35.2296C34.9361 64.7342 34.6426 64.4397 34.6426 64.1451C34.6426 63.8506 34.9361 63.556 35.2296 63.556H47.067C47.3605 63.556 47.654 63.8506 47.654 64.1451C47.654 64.4397 47.3605 64.7342 47.067 64.7342Z" fill="#E3EAF2"/>
<path d="M87.9605 45.3921C86.2974 73.4724 61.3506 79.3634 58.3179 79.6579C56.9483 79.7561 54.3069 79.9525 49.5132 80.0507C61.9376 74.2579 68.6879 63.9487 68.4923 55.8977C74.5577 56.2904 84.9278 55.7995 87.9605 45.3921Z" fill="#EAEEF9"/>
<path d="M73.1879 6.11885H63.7962C63.7962 5.92248 63.894 5.8243 63.894 5.62793C63.894 3.76246 62.3287 2.19153 60.4699 2.19153C58.6111 2.19153 57.0459 3.76246 57.0459 5.62793C57.0459 5.8243 57.0459 6.02066 57.1437 6.11885H47.752C47.2628 6.11885 46.7737 6.51158 46.7737 7.10068V10.1443C46.7737 12.4026 48.6325 14.268 50.8826 14.268H70.0573C72.3074 14.268 74.1662 12.4026 74.1662 10.1443V7.10068C74.1662 6.51158 73.677 6.11885 73.1879 6.11885Z" fill="#1C3754"/>
<path d="M72.6009 5.52986H63.2092C63.2092 5.33349 63.3071 5.23531 63.3071 5.03894C63.3071 3.17347 61.7418 1.60254 59.883 1.60254C58.0242 1.60254 56.459 3.17347 56.459 5.03894C56.459 5.23531 56.4589 5.43167 56.5568 5.52986H47.1651C46.6759 5.52986 46.1868 5.92259 46.1868 6.51169V9.55536C46.1868 11.8136 48.0455 13.679 50.2956 13.679H69.4704C71.7205 13.679 73.5793 11.8136 73.5793 9.55536V6.51169C73.5793 5.92259 73.0901 5.52986 72.6009 5.52986Z" fill="url(#paint3_linear_503:10397)"/>
<path d="M59.8832 6.60987C60.7476 6.60987 61.4484 5.90654 61.4484 5.03894C61.4484 4.17135 60.7476 3.46802 59.8832 3.46802C59.0187 3.46802 58.3179 4.17135 58.3179 5.03894C58.3179 5.90654 59.0187 6.60987 59.8832 6.60987Z" fill="#EAEEF9"/>
<path d="M106.073 75.5443C105.975 76.2316 105.877 76.919 105.779 77.6062C105.779 77.7044 105.681 77.8024 105.681 77.9006C105.681 77.9988 105.584 78.0969 105.584 78.2932C105.29 79.6678 104.801 80.9441 104.214 82.1223C102.453 85.4605 99.8114 88.1117 96.583 89.7808C96.1917 89.9772 95.8004 90.1737 95.4091 90.37C94.4308 90.7628 93.5503 91.0572 92.4742 91.2536C92.1807 91.3518 91.985 91.3515 91.6915 91.4496C89.5393 91.8424 87.2893 91.8428 85.0392 91.3519C75.5497 89.3882 69.4841 80.0606 71.4407 70.5369C73.3973 61.0131 82.6911 54.9259 92.1807 56.8895C95.5069 57.5768 98.6375 59.2458 100.985 61.7004C104.703 65.3332 106.464 70.4388 106.073 75.5443Z" fill="url(#paint4_linear_503:10397)"/>
<mask id="mask0_503:10397" style="mask-type:alpha" maskUnits="userSpaceOnUse" x="80" y="66" width="17" height="16">
<path fill-rule="evenodd" clip-rule="evenodd" d="M80.5 66H96.5V81.9998H80.5V66Z" fill="white"/>
</mask>
<g mask="url(#mask0_503:10397)">
<path fill-rule="evenodd" clip-rule="evenodd" d="M87.7 69.9998C86.372 69.9998 85.3 71.0742 85.3 72.3998C85.3 73.7254 86.372 74.7998 87.7 74.7998H89.3C89.74 74.7998 90.1 75.1582 90.1 75.5998C90.1 76.0414 89.74 76.3998 89.3 76.3998H86.5C86.06 76.3998 85.7 76.7582 85.7 77.1998C85.7 77.6414 86.06 77.9998 86.5 77.9998H87.7V78.7998C87.7 79.2414 88.06 79.5998 88.5 79.5998C88.94 79.5998 89.3 79.2414 89.3 78.7998V77.9998C90.628 77.9998 91.7 76.9254 91.7 75.5998C91.7 74.2742 90.628 73.1998 89.3 73.1998H87.7C87.26 73.1998 86.9 72.8414 86.9 72.3998C86.9 71.9582 87.26 71.5998 87.7 71.5998H90.5C90.94 71.5998 91.3 71.2414 91.3 70.7998C91.3 70.3582 90.94 69.9998 90.5 69.9998H89.3V69.1998C89.3 68.7582 88.94 68.3998 88.5 68.3998C88.06 68.3998 87.7 68.7582 87.7 69.1998V69.9998ZM82.1 68.3998C82.1 67.9582 82.46 67.5998 82.9 67.5998H94.1C94.54 67.5998 94.9 67.9582 94.9 68.3998V79.5998C94.9 80.0414 94.54 80.3998 94.1 80.3998H82.9C82.46 80.3998 82.1 80.0414 82.1 79.5998V68.3998ZM94.1 65.9998H82.9C81.572 65.9998 80.5 67.0742 80.5 68.3998V79.5998C80.5 80.9254 81.572 81.9998 82.9 81.9998H94.1C95.428 81.9998 96.5 80.9254 96.5 79.5998V68.3998C96.5 67.0742 95.428 65.9998 94.1 65.9998Z" fill="white"/>
</g>
<defs>
<filter id="filter0_d_503:10397" x="16.1025" y="11.7153" width="77.423" height="77.8262" filterUnits="userSpaceOnUse" color-interpolation-filters="sRGB">
<feFlood flood-opacity="0" result="BackgroundImageFix"/>
<feColorMatrix in="SourceAlpha" type="matrix" values="0 0 0 0 0 0 0 0 0 0 0 0 0 0 0 0 0 0 127 0" result="hardAlpha"/>
<feOffset dy="5"/>
<feGaussianBlur stdDeviation="2"/>
<feColorMatrix type="matrix" values="0 0 0 0 0.397708 0 0 0 0 0.47749 0 0 0 0 0.575 0 0 0 0.18 0"/>
<feBlend mode="normal" in2="BackgroundImageFix" result="effect1_dropShadow_503:10397"/>
<feBlend mode="normal" in="SourceGraphic" in2="effect1_dropShadow_503:10397" result="shape"/>
</filter>
<linearGradient id="paint0_linear_503:10397" x1="11.6686" y1="51.6727" x2="109.352" y2="51.6727" gradientUnits="userSpaceOnUse">
<stop stop-color="#FFA666"/>
<stop offset="1" stop-color="#F58636"/>
</linearGradient>
<linearGradient id="paint1_linear_503:10397" x1="0.5" y1="54.9213" x2="3.73368" y2="54.9213" gradientUnits="userSpaceOnUse">
<stop stop-color="#83A6FF"/>
<stop offset="1" stop-color="#5A78FF"/>
</linearGradient>
<linearGradient id="paint2_linear_503:10397" x1="115.489" y1="18.0465" x2="118.634" y2="18.0465" gradientUnits="userSpaceOnUse">
<stop stop-color="#FFA666"/>
<stop offset="1" stop-color="#F58636"/>
</linearGradient>
<linearGradient id="paint3_linear_503:10397" x1="46.1256" y1="7.63418" x2="73.578" y2="7.63418" gradientUnits="userSpaceOnUse">
<stop stop-color="#83A6FF"/>
<stop offset="1" stop-color="#5A78FF"/>
</linearGradient>
<linearGradient id="paint4_linear_503:10397" x1="71.0239" y1="74.1544" x2="106.117" y2="74.1544" gradientUnits="userSpaceOnUse">
<stop stop-color="#83B9FF"/>
<stop offset="1" stop-color="#5AA2FF"/>
</linearGradient>
</defs>
</svg>
