<svg width="121" height="97" viewBox="0 0 121 97" fill="none" xmlns="http://www.w3.org/2000/svg">
<path d="M103.09 45.4774C103.09 55.1261 99.863 64.0063 94.5127 71.1788C91.5403 75.0212 87.9734 78.4367 83.897 81.0837C77.2728 85.4384 69.3747 88 60.8821 88C37.5276 88 18.6741 68.9588 18.6741 45.5628C18.6741 22.0814 37.6125 3.1255 60.8821 3.1255C69.3747 3.1255 77.2728 5.68711 83.897 9.95645C87.9734 12.6034 91.5403 16.0189 94.5127 19.8613C99.948 26.9484 103.09 35.8287 103.09 45.4774Z" fill="url(#paint0_linear_503:10745)"/>
<path d="M26.2053 11.9963C27.3204 11.6319 27.9306 10.4276 27.5682 9.30645C27.2057 8.18527 26.0079 7.57179 24.8928 7.93619C23.7776 8.3006 23.1675 9.5049 23.5299 10.6261C23.8924 11.7473 25.0902 12.3607 26.2053 11.9963Z" fill="#EAEEF9"/>
<path d="M30.8399 5.03146C31.5982 4.78367 32.0131 3.96475 31.7666 3.20235C31.5201 2.43996 30.7056 2.02278 29.9473 2.27057C29.1891 2.51836 28.7741 3.33728 29.0206 4.09968C29.2671 4.86208 30.0816 5.27925 30.8399 5.03146Z" fill="#EAEEF9"/>
<path d="M102.635 17.4222C103.951 16.2133 104.042 14.161 102.84 12.8381C101.638 11.5153 99.5965 11.4229 98.2807 12.6318C96.965 13.8406 96.8731 15.893 98.0755 17.2159C99.2779 18.5387 101.319 18.6311 102.635 17.4222Z" fill="#EAEEF9"/>
<path d="M102.936 2.93864C103.49 2.42964 103.529 1.5655 103.022 1.00851C102.516 0.451528 101.657 0.412625 101.103 0.921621C100.549 1.43062 100.51 2.29476 101.016 2.85175C101.523 3.40873 102.382 3.44764 102.936 2.93864Z" fill="#EAEEF9"/>
<path d="M19.4384 83.1329H106.912" stroke="#DDE7F3" stroke-width="2" stroke-miterlimit="10" stroke-linecap="round" stroke-linejoin="round"/>
<path d="M87.6337 7.30934C88.9076 7.30934 90.0117 8.33398 90.0117 9.70017V80.4859C90.0117 81.7667 88.9925 82.8767 87.6337 82.8767H35.4894C34.2155 82.8767 33.1115 81.8521 33.1115 80.4859V9.70017C33.1115 8.41937 34.1306 7.30934 35.4894 7.30934H87.6337Z" fill="#CED7E2"/>
<path d="M90.0117 14.738V80.4005C90.0117 81.6813 88.9926 82.7913 87.6338 82.7913H39.9905L35.8291 78.6074L83.1327 13.5426L87.2091 12.0056L90.0117 14.738Z" fill="#BCC4CF"/>
<path d="M87.8036 13.2011H36.2537V78.9489C36.2537 79.4613 36.6783 79.8028 37.1029 79.8028H87.8036V13.2011Z" fill="#A6AFBA"/>
<path d="M87.379 12.7741C87.379 12.3472 87.0393 12.0056 86.6147 12.0056H36.5934C36.1688 12.0056 35.8291 12.3472 35.8291 12.7741V77.7535C35.8291 78.1804 36.1688 78.522 36.5934 78.522H86.5297C86.9544 78.522 87.2941 78.1804 87.2941 77.7535V12.7741H87.379Z" fill="#DFE7F0"/>
<g filter="url(#filter0_d_503:10745)">
<path d="M87.3789 12.7741C87.3789 12.3472 87.0392 12.0056 86.6146 12.0056H36.5933C36.1687 12.0056 35.7441 12.3472 35.829 12.7741C36.4235 38.6463 36.6782 67.934 33.7908 75.5334L81.6889 74.8503C84.6613 61.7008 86.8693 38.0486 87.3789 12.7741Z" fill="#EDF4FA"/>
</g>
<g filter="url(#filter1_d_503:10745)">
<path d="M31.7526 78.0098C31.8375 80.8275 29.5445 83.2184 26.742 83.3038H25.3832L21.6464 83.3891C16.0413 83.4745 11.3704 79.0344 11.2006 73.3989C11.0307 67.7633 15.5318 63.0671 21.1369 62.8963C26.742 62.7255 31.4129 67.251 31.5827 72.8866L31.6677 75.0212L31.7526 78.0098Z" fill="url(#paint1_linear_503:10745)"/>
</g>
<path fill-rule="evenodd" clip-rule="evenodd" d="M23.2039 73.8464C23.3909 73.6099 23.3579 73.2639 23.1214 73.0725C22.8849 72.8811 22.5384 72.9174 22.3459 73.1534L20.9764 74.8474L20.4374 74.2369C20.2394 74.0086 19.8874 73.9861 19.6619 74.1868C19.4309 74.3876 19.4089 74.7352 19.6124 74.9629L20.5804 76.0629C20.6849 76.185 20.8444 76.2532 21.0039 76.2499C21.1634 76.2466 21.3174 76.1718 21.4219 76.0464L23.2039 73.8464ZM20.3001 70.2H19.7501V69.65C19.7501 69.3464 19.9976 69.1 20.3001 69.1H22.5001C22.8026 69.1 23.0501 69.3464 23.0501 69.65V70.2H22.5001H21.9501H20.8501H20.3001ZM20.3001 68C19.5796 68 18.9691 68.4593 18.7436 69.1H18.6501C17.7371 69.1 17.0001 69.8387 17.0001 70.75V77.35C17.0001 78.2614 17.7371 79 18.6501 79H24.1501C25.0631 79 25.8001 78.2614 25.8001 77.35V70.75C25.8001 69.8387 25.0631 69.1 24.1501 69.1H24.0566C23.8311 68.4593 23.2206 68 22.5001 68H20.3001ZM24.1503 70.1999C24.1503 70.8077 23.6553 71.2999 23.0503 71.2999H19.7503C19.1453 71.2999 18.6503 70.8077 18.6503 70.1999C18.3478 70.1999 18.1003 70.4463 18.1003 70.7499V77.3499C18.1003 77.6535 18.3478 77.8999 18.6503 77.8999H24.1503C24.4528 77.8999 24.7003 77.6535 24.7003 77.3499V70.7499C24.7003 70.4463 24.4528 70.1999 24.1503 70.1999Z" fill="white"/>
<g filter="url(#filter2_d_503:10745)">
<path d="M87.294 12.0911C87.294 12.0911 87.209 16.0189 86.0201 40.8664C86.0201 41.0372 86.0201 41.208 86.0201 41.3788C84.5763 65.7994 62.9203 70.9226 60.2876 71.1788C59.0986 71.2642 56.8056 71.4349 52.6443 71.5203C47.5487 71.6911 39.7356 71.7765 27.5912 71.9473C27.1666 71.9473 26.9118 71.5203 27.0816 71.1788C35.5742 54.1868 35.6591 12.1765 35.6591 12.1765H87.294V12.0911Z" fill="white"/>
</g>
<path d="M75.4044 55.9799H50.691C50.5212 55.9799 50.3513 55.7237 50.3513 55.2968C50.3513 54.9552 50.5212 54.6137 50.691 54.6137H75.4893C75.6592 54.6137 75.829 54.8698 75.829 55.2968C75.829 55.6383 75.6592 55.9799 75.4044 55.9799Z" fill="#CED7E2"/>
<path d="M62.7505 59.8223H50.5212C50.3514 59.8223 50.1815 59.5661 50.1815 59.1392C50.1815 58.7976 50.3514 58.4561 50.5212 58.4561H62.7505C62.9204 58.4561 63.0902 58.7122 63.0902 59.1392C63.0902 59.4807 62.9204 59.8223 62.7505 59.8223Z" fill="#E3EAF2"/>
<path d="M79.3961 24.7283H54.5978C54.4279 24.7283 54.2581 24.4721 54.2581 24.0452C54.2581 23.7036 54.4279 23.3621 54.5978 23.3621H79.3961C79.5659 23.3621 79.7358 23.6182 79.7358 24.0452C79.7358 24.4721 79.5659 24.7283 79.3961 24.7283Z" fill="#CED7E2"/>
<path d="M79.226 28.5708H69.3746C69.2048 28.5708 69.0349 28.3146 69.0349 27.8877C69.0349 27.5462 69.2048 27.2046 69.3746 27.2046H79.226C79.3958 27.2046 79.5657 27.4608 79.5657 27.8877C79.5657 28.3146 79.3958 28.5708 79.226 28.5708Z" fill="#CED7E2"/>
<path d="M66.6569 28.5708H54.4276C54.2577 28.5708 54.0879 28.3146 54.0879 27.8877C54.0879 27.5462 54.2577 27.2046 54.4276 27.2046H66.6569C66.8267 27.2046 66.9966 27.4608 66.9966 27.8877C66.9966 28.3146 66.8267 28.5708 66.6569 28.5708Z" fill="#E3EAF2"/>
<path d="M85.9352 41.2934C84.4915 65.714 62.8355 70.8372 60.2028 71.0934C59.0138 71.1787 56.7208 71.3495 52.5594 71.4349C63.345 66.3971 69.12 57.4315 69.035 50.4297C74.3004 50.8567 83.3025 50.4297 85.9352 41.2934Z" fill="#EAEEF9"/>
<path d="M44.4065 28.8269C44.2367 28.8269 44.0668 28.7415 43.897 28.5707L41.4341 26.1799C41.1793 25.9237 41.1793 25.4114 41.4341 25.1552C41.6889 24.8991 42.1985 24.8991 42.4532 25.1552L44.4065 27.1191L48.398 23.106C48.6528 22.8498 49.1624 22.8498 49.4171 23.106C49.6719 23.3621 49.6719 23.8744 49.4171 24.1306L44.9161 28.6561C44.7462 28.7415 44.5764 28.8269 44.4065 28.8269Z" fill="url(#paint2_linear_503:10745)"/>
<path d="M78.2919 40.0126H53.4936C53.3238 40.0126 53.1539 39.7564 53.1539 39.3295C53.1539 38.9879 53.3238 38.6464 53.4936 38.6464H78.2919C78.4618 38.6464 78.6316 38.9025 78.6316 39.3295C78.6316 39.671 78.4618 40.0126 78.2919 40.0126Z" fill="#CED7E2"/>
<path d="M65.5531 43.855H53.3238C53.154 43.855 52.9841 43.5988 52.9841 43.1719C52.9841 42.8303 53.154 42.4888 53.3238 42.4888H65.5531C65.723 42.4888 65.8928 42.7449 65.8928 43.1719C65.9778 43.5134 65.8079 43.855 65.5531 43.855Z" fill="#E3EAF2"/>
<path d="M43.3024 44.1112C43.1326 44.1112 42.9627 44.0258 42.7929 43.855L40.415 41.4642C40.1602 41.208 40.1602 40.6957 40.415 40.4395C40.6697 40.1834 41.1793 40.1834 41.4341 40.4395L43.3874 42.4034L47.3789 38.3903C47.6336 38.1341 48.1432 38.1341 48.398 38.3903C48.6528 38.6464 48.6528 39.1587 48.398 39.4149L43.812 43.855C43.7271 44.0258 43.5572 44.1112 43.3024 44.1112Z" fill="url(#paint3_linear_503:10745)"/>
<path d="M73.7059 7.48018C73.7059 7.39479 73.7059 7.39479 73.7059 7.48018L73.1964 6.96786C73.1964 6.96786 72.9416 7.05325 72.7717 7.22402H65.0435C65.0435 7.05325 65.0435 6.88247 65.0435 6.7117C65.0435 5.08935 63.6847 3.72316 62.0711 3.72316C60.4575 3.72316 59.0987 5.08935 59.0987 6.7117C59.0987 6.88247 59.0987 7.05325 59.1836 7.13863H51.0308C50.6061 7.13863 50.1815 7.48018 50.1815 7.9925V10.6395C50.1815 12.6034 51.5403 13.7988 53.4936 13.7988H70.1391C72.0923 13.7988 73.8758 12.6034 73.8758 10.6395V7.9925C73.9607 7.82173 73.8758 7.65096 73.7059 7.48018Z" fill="#1C3754"/>
<path d="M73.4512 7.48017V10.1272C73.4512 10.2979 73.4512 10.4687 73.4512 10.6395C73.1965 12.3472 71.7527 13.7134 69.9693 13.7134H53.2389C51.4555 13.7134 50.0117 12.3472 49.757 10.6395C49.757 10.4687 49.757 10.2979 49.757 10.1272V7.48017C49.757 7.05324 50.0967 6.6263 50.6062 6.6263H58.7591C58.7591 6.45553 58.7591 6.37014 58.7591 6.19937C58.7591 4.57702 60.1179 3.21083 61.7315 3.21083C63.3451 3.21083 64.7039 4.57702 64.7039 6.19937C64.7039 6.37014 64.7039 6.45553 64.7039 6.6263H72.8567C73.1115 6.71169 73.4512 7.05324 73.4512 7.48017Z" fill="#2D5887"/>
<path d="M61.5617 7.56552C62.3121 7.56552 62.9205 6.95386 62.9205 6.19933C62.9205 5.44481 62.3121 4.83315 61.5617 4.83315C60.8112 4.83315 60.2029 5.44481 60.2029 6.19933C60.2029 6.95386 60.8112 7.56552 61.5617 7.56552Z" fill="#EAEEF9"/>
<path d="M73.3663 10.6395C73.1115 12.3473 71.6678 13.7135 69.8843 13.7135H53.2389C51.4555 13.7135 50.0117 12.3473 49.757 10.6395H73.3663Z" fill="#316094"/>
<path opacity="0.5" d="M66.9118 9.44409H56.0413C55.7866 9.44409 55.6167 9.27332 55.6167 9.01716C55.6167 8.761 55.7866 8.59023 56.0413 8.59023H66.9118C67.1666 8.59023 67.3364 8.761 67.3364 9.01716C67.3364 9.27332 67.1666 9.44409 66.9118 9.44409Z" fill="#1C3754"/>
<path d="M10.7761 36.2556C10.7761 36.2556 2.36845 38.3903 4.91622 40.098C7.46399 41.7204 13.4937 44.5382 19.1837 42.6596C24.8738 40.7811 19.1837 38.1341 19.2687 38.1341C19.3536 38.1341 10.7761 36.2556 10.7761 36.2556Z" fill="#CED7E2"/>
<path d="M0.5 35.5725C3.55732 36.5118 12.9841 34.9748 19.0138 31.047C23.7696 36.9387 25.5531 38.4757 27.2516 38.6464C24.6189 41.2934 15.8716 45.5628 10.9459 40.0126C5.17091 43.6843 0.5 35.5725 0.5 35.5725Z" fill="#DFE7F0"/>
<path d="M93.8333 65.1163C97.0604 65.2871 105.808 61.3593 110.564 56.0653C116.678 60.5908 118.716 61.6155 120.5 61.3593C118.547 64.604 112.602 71.6911 104.194 72.2034C98.0795 68.6172 93.8333 65.1163 93.8333 65.1163Z" fill="#DFE7F0"/>
<path d="M42.9628 58.9685C44.0885 58.9685 45.001 58.051 45.001 56.9192C45.001 55.7874 44.0885 54.8699 42.9628 54.8699C41.8371 54.8699 40.9246 55.7874 40.9246 56.9192C40.9246 58.051 41.8371 58.9685 42.9628 58.9685Z" fill="url(#paint4_linear_503:10745)"/>
<path d="M90.0115 16.275H86.5295V18.5805H90.0115V16.275Z" fill="url(#paint5_linear_503:10745)"/>
<path d="M76.7796 20.8607L74.8579 22.7928L76.2391 24.1814L78.1608 22.2494L76.7796 20.8607Z" fill="url(#paint6_linear_503:10745)"/>
<path d="M98.9687 22.0901L100.89 24.0221L102.151 22.7542L100.23 20.8222L98.9687 22.0901Z" fill="url(#paint7_linear_503:10745)"/>
<path d="M88.5677 52.2229C97.8545 52.2229 105.383 44.6535 105.383 35.3163C105.383 25.979 97.8545 18.4097 88.5677 18.4097C79.2809 18.4097 71.7524 25.979 71.7524 35.3163C71.7524 44.6535 79.2809 52.2229 88.5677 52.2229Z" fill="url(#paint8_linear_503:10745)"/>
<path d="M73.7907 36.2557C73.3661 36.2557 73.0264 35.9141 73.0264 35.4872C73.0264 35.4018 73.0264 35.3164 73.0264 35.231C73.0264 27.29 78.8862 20.6299 86.6994 19.6052C87.124 19.5198 87.4637 19.8614 87.5487 20.2883C87.6336 20.7153 87.2939 21.0568 86.8693 21.1422C79.8204 21.9961 74.4701 28.1439 74.4701 35.231C74.4701 35.3164 74.4701 35.4018 74.4701 35.4018C74.4701 35.9141 74.1304 36.2557 73.7907 36.2557Z" fill="url(#paint9_linear_503:10745)"/>
<path d="M88.6528 50.9421C86.9543 50.9421 85.3407 50.6859 83.7271 50.1736C83.3024 50.0028 83.1326 49.6613 83.2175 49.2343C83.3874 48.8074 83.7271 48.6366 84.1517 48.722C85.5954 49.2343 87.0392 49.4051 88.5678 49.4051C95.6167 49.4051 101.646 44.1111 102.581 37.024C102.665 36.5971 103.005 36.3409 103.43 36.4263C103.854 36.5117 104.109 36.8532 104.024 37.2802C103.515 41.0372 101.731 44.4527 98.8438 47.0143C96.1262 49.5759 92.3895 50.9421 88.6528 50.9421Z" fill="url(#paint10_linear_503:10745)"/>
<path d="M101.816 35.3162C101.561 42.4887 95.7015 48.2096 88.5677 48.2096C81.3491 48.2096 75.4892 42.4887 75.3193 35.3162C75.5741 28.1437 81.434 22.4228 88.5677 22.4228C95.7864 22.3374 101.646 28.1437 101.816 35.3162Z" fill="white"/>
<path d="M99.8626 35.8286H97.7395C97.3998 35.8286 97.145 35.5724 97.145 35.2309C97.145 34.8894 97.3998 34.6332 97.7395 34.6332H99.8626C100.202 34.6332 100.457 34.8894 100.457 35.2309C100.457 35.5724 100.202 35.8286 99.8626 35.8286Z" fill="#DAE1ED"/>
<path d="M78.8014 35.8286H76.6782C76.3385 35.8286 76.0837 35.5724 76.0837 35.2309C76.0837 34.8894 76.3385 34.6332 76.6782 34.6332H78.8014C79.1411 34.6332 79.3958 34.8894 79.3958 35.2309C79.3958 35.5724 79.1411 35.8286 78.8014 35.8286Z" fill="#DAE1ED"/>
<path d="M88.228 47.5266C87.8883 47.5266 87.6335 47.2705 87.6335 46.9289V44.7943C87.6335 44.4527 87.8883 44.1965 88.228 44.1965C88.5677 44.1965 88.8225 44.4527 88.8225 44.7943V46.9289C88.8225 47.2705 88.5677 47.5266 88.228 47.5266Z" fill="#DAE1ED"/>
<path d="M88.228 26.3506C87.8883 26.3506 87.6335 26.0944 87.6335 25.7529V23.6182C87.6335 23.2767 87.8883 23.0205 88.228 23.0205C88.5677 23.0205 88.8225 23.2767 88.8225 23.6182V25.7529C88.8225 26.0944 88.5677 26.3506 88.228 26.3506Z" fill="#DAE1ED"/>
<path d="M88.3979 36.9387C89.4766 36.9387 90.3512 36.0594 90.3512 34.9748C90.3512 33.8901 89.4766 33.0109 88.3979 33.0109C87.3191 33.0109 86.4446 33.8901 86.4446 34.9748C86.4446 36.0594 87.3191 36.9387 88.3979 36.9387Z" fill="#DAE1ED"/>
<path d="M96.2111 26.6069C95.9563 26.3507 95.6166 26.4361 95.3619 26.6069L88.398 33.9501H88.313C87.8035 33.9501 87.3788 34.3771 87.3788 34.8894C87.3788 34.9748 87.3788 34.9748 87.3788 34.9748L86.2748 36.1702C86.02 36.4264 86.105 36.7679 86.2748 37.0241C86.3597 37.1095 86.5296 37.1948 86.6994 37.1948C86.8693 37.1948 87.0391 37.1095 87.1241 37.0241L88.2281 35.8287H88.313C88.8226 35.8287 89.2472 35.4017 89.2472 34.8894C89.2472 34.804 89.2472 34.804 89.2472 34.7186L96.2111 27.3754C96.4659 27.2046 96.4659 26.863 96.2111 26.6069Z" fill="url(#paint11_linear_503:10745)"/>
<path d="M96.0413 26.863L86.6146 36.7679C86.5296 36.7679 86.5296 36.7679 86.4447 36.7679C86.3598 36.6825 86.3598 36.5117 86.5296 36.341L95.6167 26.7776C95.7016 26.6069 95.9564 26.6069 96.0413 26.7776C96.0413 26.7776 96.0413 26.7776 96.0413 26.863Z" fill="url(#paint12_linear_503:10745)"/>
<path d="M91.7099 13.0304V15.2504C91.7099 16.1043 91.0305 16.7874 90.1813 16.7874H86.4446C85.5953 16.7874 84.9159 16.1043 84.9159 15.2504V13.0304C84.9159 12.1765 85.5953 11.4934 86.4446 11.4934H90.1813C91.0305 11.4934 91.7099 12.1765 91.7099 13.0304Z" fill="#172D45"/>
<path d="M77.1028 21.0566L75.0646 23.1059C74.64 23.5328 73.8756 23.5328 73.3661 23.1059L72.1771 21.9105C71.7525 21.4836 71.7525 20.7151 72.1771 20.2028L74.2153 18.1535C74.64 17.7265 75.4043 17.7265 75.9138 18.1535L77.1028 19.3489C77.5274 19.8612 77.5274 20.6297 77.1028 21.0566Z" fill="#172D45"/>
<path d="M99.8629 21.0566L101.901 23.1059C102.326 23.5328 103.09 23.5328 103.6 23.1059L104.789 21.9105C105.213 21.4836 105.213 20.7151 104.789 20.2028L102.75 18.1535C102.326 17.7265 101.561 17.7265 101.052 18.1535L99.8629 19.3489C99.4383 19.8612 99.4383 20.6297 99.8629 21.0566Z" fill="#172D45"/>
<path d="M88.3979 35.1455C88.4917 35.1455 88.5677 35.0691 88.5677 34.9747C88.5677 34.8804 88.4917 34.804 88.3979 34.804C88.3041 34.804 88.228 34.8804 88.228 34.9747C88.228 35.0691 88.3041 35.1455 88.3979 35.1455Z" fill="#1C3754"/>
<defs>
<filter id="filter0_d_503:10745" x="30.7908" y="12.0056" width="59.5881" height="69.5278" filterUnits="userSpaceOnUse" color-interpolation-filters="sRGB">
<feFlood flood-opacity="0" result="BackgroundImageFix"/>
<feColorMatrix in="SourceAlpha" type="matrix" values="0 0 0 0 0 0 0 0 0 0 0 0 0 0 0 0 0 0 127 0" result="hardAlpha"/>
<feOffset dy="3"/>
<feGaussianBlur stdDeviation="1.5"/>
<feColorMatrix type="matrix" values="0 0 0 0 0.397708 0 0 0 0 0.47749 0 0 0 0 0.575 0 0 0 0.18 0"/>
<feBlend mode="normal" in2="BackgroundImageFix" result="effect1_dropShadow_503:10745"/>
<feBlend mode="normal" in="SourceGraphic" in2="effect1_dropShadow_503:10745" result="shape"/>
</filter>
<filter id="filter1_d_503:10745" x="3.19592" y="59.8916" width="36.559" height="36.4987" filterUnits="userSpaceOnUse" color-interpolation-filters="sRGB">
<feFlood flood-opacity="0" result="BackgroundImageFix"/>
<feColorMatrix in="SourceAlpha" type="matrix" values="0 0 0 0 0 0 0 0 0 0 0 0 0 0 0 0 0 0 127 0" result="hardAlpha"/>
<feOffset dy="5"/>
<feGaussianBlur stdDeviation="4"/>
<feColorMatrix type="matrix" values="0 0 0 0 0.1125 0 0 0 0 0.295916 0 0 0 0 1 0 0 0 0.22 0"/>
<feBlend mode="normal" in2="BackgroundImageFix" result="effect1_dropShadow_503:10745"/>
<feBlend mode="normal" in="SourceGraphic" in2="effect1_dropShadow_503:10745" result="shape"/>
</filter>
<filter id="filter2_d_503:10745" x="23.0284" y="12.0911" width="68.2655" height="68.8562" filterUnits="userSpaceOnUse" color-interpolation-filters="sRGB">
<feFlood flood-opacity="0" result="BackgroundImageFix"/>
<feColorMatrix in="SourceAlpha" type="matrix" values="0 0 0 0 0 0 0 0 0 0 0 0 0 0 0 0 0 0 127 0" result="hardAlpha"/>
<feOffset dy="5"/>
<feGaussianBlur stdDeviation="2"/>
<feColorMatrix type="matrix" values="0 0 0 0 0.397708 0 0 0 0 0.47749 0 0 0 0 0.575 0 0 0 0.18 0"/>
<feBlend mode="normal" in2="BackgroundImageFix" result="effect1_dropShadow_503:10745"/>
<feBlend mode="normal" in="SourceGraphic" in2="effect1_dropShadow_503:10745" result="shape"/>
</filter>
<linearGradient id="paint0_linear_503:10745" x1="19.7069" y1="46.8409" x2="104.505" y2="46.8409" gradientUnits="userSpaceOnUse">
<stop stop-color="#FFA666"/>
<stop offset="1" stop-color="#F58636"/>
</linearGradient>
<linearGradient id="paint1_linear_503:10745" x1="11.1666" y1="73.1568" x2="31.7493" y2="73.1568" gradientUnits="userSpaceOnUse">
<stop stop-color="#83B9FF"/>
<stop offset="1" stop-color="#5AA2FF"/>
</linearGradient>
<linearGradient id="paint2_linear_503:10745" x1="41.2311" y1="25.8749" x2="49.606" y2="25.8749" gradientUnits="userSpaceOnUse">
<stop stop-color="#83B9FF"/>
<stop offset="1" stop-color="#5AA2FF"/>
</linearGradient>
<linearGradient id="paint3_linear_503:10745" x1="40.2119" y1="41.1592" x2="48.5868" y2="41.1592" gradientUnits="userSpaceOnUse">
<stop stop-color="#83B9FF"/>
<stop offset="1" stop-color="#5AA2FF"/>
</linearGradient>
<linearGradient id="paint4_linear_503:10745" x1="40.9744" y1="56.9809" x2="45.0693" y2="56.9809" gradientUnits="userSpaceOnUse">
<stop stop-color="#FFA666"/>
<stop offset="1" stop-color="#F58636"/>
</linearGradient>
<linearGradient id="paint5_linear_503:10745" x1="86.5246" y1="17.4295" x2="90.0106" y2="17.4295" gradientUnits="userSpaceOnUse">
<stop stop-color="#83B9FF"/>
<stop offset="1" stop-color="#5AA2FF"/>
</linearGradient>
<linearGradient id="paint6_linear_503:10745" x1="75.5468" y1="23.4909" x2="77.4811" y2="21.5671" gradientUnits="userSpaceOnUse">
<stop stop-color="#83B9FF"/>
<stop offset="1" stop-color="#5AA2FF"/>
</linearGradient>
<linearGradient id="paint7_linear_503:10745" x1="101.525" y1="23.3899" x2="99.5904" y2="21.4661" gradientUnits="userSpaceOnUse">
<stop stop-color="#83B9FF"/>
<stop offset="1" stop-color="#5AA2FF"/>
</linearGradient>
<linearGradient id="paint8_linear_503:10745" x1="71.7044" y1="35.3423" x2="105.374" y2="35.3423" gradientUnits="userSpaceOnUse">
<stop stop-color="#83B9FF"/>
<stop offset="1" stop-color="#5AA2FF"/>
</linearGradient>
<linearGradient id="paint9_linear_503:10745" x1="73.0056" y1="27.9367" x2="87.5578" y2="27.9367" gradientUnits="userSpaceOnUse">
<stop stop-color="#83B9FF"/>
<stop offset="1" stop-color="#5AA2FF"/>
</linearGradient>
<linearGradient id="paint10_linear_503:10745" x1="83.1665" y1="43.6872" x2="104.035" y2="43.6872" gradientUnits="userSpaceOnUse">
<stop stop-color="#83B9FF"/>
<stop offset="1" stop-color="#5AA2FF"/>
</linearGradient>
<linearGradient id="paint11_linear_503:10745" x1="86.2399" y1="31.9819" x2="96.5747" y2="31.9819" gradientUnits="userSpaceOnUse">
<stop stop-color="#FFA666"/>
<stop offset="1" stop-color="#F58636"/>
</linearGradient>
<linearGradient id="paint12_linear_503:10745" x1="86.507" y1="31.8611" x2="96.2031" y2="31.8611" gradientUnits="userSpaceOnUse">
<stop stop-color="#FFA666"/>
<stop offset="1" stop-color="#F58636"/>
</linearGradient>
</defs>
</svg>
