<svg width="117" height="145" viewBox="0 0 117 145" fill="none" xmlns="http://www.w3.org/2000/svg">
<path d="M9.37241 20.8451C10.9255 20.3403 11.7753 18.6721 11.2705 17.119C10.7657 15.5659 9.09748 14.7161 7.5444 15.2209C5.99132 15.7257 5.14151 17.3939 5.64631 18.947C6.1511 20.5001 7.81933 21.3499 9.37241 20.8451Z" fill="#EAEEF9"/>
<path d="M15.8273 11.1972C16.8834 10.8539 17.4612 9.71954 17.118 8.66344C16.7747 7.60735 15.6403 7.02948 14.5842 7.37274C13.5281 7.716 12.9503 8.8504 13.2935 9.90649C13.6368 10.9626 14.7712 11.5404 15.8273 11.1972Z" fill="#EAEEF9"/>
<path d="M107.526 11.9374C108.297 11.2323 108.351 10.0353 107.646 9.26374C106.941 8.49218 105.744 8.4383 104.973 9.14338C104.201 9.84846 104.147 11.0455 104.852 11.8171C105.557 12.5886 106.754 12.6425 107.526 11.9374Z" fill="#EAEEF9"/>
<path d="M13.8758 108.683C14.6473 107.978 14.7012 106.781 13.9961 106.009C13.291 105.238 12.094 105.184 11.3224 105.889C10.5509 106.594 10.497 107.791 11.2021 108.563C11.9072 109.334 13.1042 109.388 13.8758 108.683Z" fill="#EAEEF9"/>
<path d="M113.5 38.6033V83.1947C113.5 83.9044 113.5 84.4957 113.382 85.2054C112.79 90.2914 109.833 94.7861 105.339 97.3882L66.7796 119.625C63.1129 121.754 58.7366 122.345 54.715 121.281C53.1774 120.926 51.7581 120.334 50.457 119.625L11.7796 97.2699C8.82258 95.614 6.57527 93.1302 5.15591 90.1732C4.0914 88.0441 3.5 85.5603 3.5 83.0764V38.6033C3.5 36.2377 3.97312 33.9904 4.91935 31.8613C6.33871 28.7861 8.58602 26.1839 11.6613 24.4097L50.3387 2.17316C54.1237 0.0441277 58.3817 -0.54727 62.5215 0.517246C63.9409 0.872085 65.3602 1.46348 66.7796 2.17316L105.339 24.4097C108.769 26.4205 111.253 29.4957 112.554 33.1624C113.263 34.8183 113.5 36.7108 113.5 38.6033Z" fill="url(#paint0_linear_699:10739)"/>
<path d="M58.6182 22.399L67.9623 3.11938" stroke="url(#paint1_linear_699:10739)" stroke-width="2" stroke-miterlimit="10" stroke-linecap="round" stroke-linejoin="round"/>
<g filter="url(#filter0_d_699:10739)">
<path d="M94.3388 15.7753V107.087C94.3388 109.689 92.2098 111.818 89.6076 111.818H27.6291C25.027 111.818 22.8979 109.689 22.8979 107.087V15.7753C22.8979 13.1731 25.027 11.0441 27.6291 11.0441H89.6076C92.2098 11.0441 94.3388 13.1731 94.3388 15.7753Z" fill="white"/>
</g>
<path d="M27.2743 53.3882H25.027V55.6355H27.2743V53.3882Z" fill="#EAEEF9"/>
<path d="M27.2743 48.8936H25.027V51.1409H27.2743V48.8936Z" fill="#EAEEF9"/>
<path d="M27.2743 44.3989H25.027V46.6462H27.2743V44.3989Z" fill="#EAEEF9"/>
<path d="M27.2743 40.0225H25.027V42.2698H27.2743V40.0225Z" fill="url(#paint2_linear_699:10739)"/>
<path d="M27.2743 31.0332H25.027V33.2805H27.2743V31.0332Z" fill="#F3F5FA"/>
<path d="M31.8871 57.7644H29.6398V60.0117H31.8871V57.7644Z" fill="#EAEEF9"/>
<path d="M31.8871 53.3882H29.6398V55.6355H31.8871V53.3882Z" fill="#EAEEF9"/>
<path d="M31.8871 40.0225H29.6398V42.2698H31.8871V40.0225Z" fill="#EAEEF9"/>
<path d="M31.8871 22.1624H29.6398V24.4097H31.8871V22.1624Z" fill="url(#paint3_linear_699:10739)"/>
<path d="M36.4999 57.7644H34.2526V60.0117H36.4999V57.7644Z" fill="#EAEEF9"/>
<path d="M36.4999 48.8936H34.2526V51.1409H36.4999V48.8936Z" fill="#EAEEF9"/>
<path d="M36.4999 44.3989H34.2526V46.6462H36.4999V44.3989Z" fill="#EAEEF9"/>
<path d="M36.4999 40.0225H34.2526V42.2698H36.4999V40.0225Z" fill="url(#paint4_linear_699:10739)"/>
<path d="M36.4999 35.5278H34.2526V37.7751H36.4999V35.5278Z" fill="#F3F5FA"/>
<path d="M36.4999 31.0332H34.2526V33.2805H36.4999V31.0332Z" fill="#EAEEF9"/>
<path d="M36.4999 22.1624H34.2526V24.4097H36.4999V22.1624Z" fill="#EAEEF9"/>
<path d="M36.4999 17.6677H34.2526V19.915H36.4999V17.6677Z" fill="#F3F5FA"/>
<path d="M41.1129 53.3882H38.8656V55.6355H41.1129V53.3882Z" fill="#EAEEF9"/>
<path d="M41.1129 48.8936H38.8656V51.1409H41.1129V48.8936Z" fill="#EAEEF9"/>
<path d="M41.1129 35.5278H38.8656V37.7751H41.1129V35.5278Z" fill="#F3F5FA"/>
<path d="M41.1129 26.657H38.8656V28.9043H41.1129V26.657Z" fill="#EAEEF9"/>
<path d="M45.7258 57.7644H43.4785V60.0117H45.7258V57.7644Z" fill="#EAEEF9"/>
<path d="M45.7258 53.3882H43.4785V55.6355H45.7258V53.3882Z" fill="#EAEEF9"/>
<path d="M45.7258 40.0225H43.4785V42.2698H45.7258V40.0225Z" fill="#EAEEF9"/>
<path d="M45.7258 35.5278H43.4785V37.7751H45.7258V35.5278Z" fill="url(#paint5_linear_699:10739)"/>
<path d="M45.7258 31.0332H43.4785V33.2805H45.7258V31.0332Z" fill="#F3F5FA"/>
<path d="M50.3387 57.7644H48.0914V60.0117H50.3387V57.7644Z" fill="#EAEEF9"/>
<path d="M50.3387 53.3882H48.0914V55.6355H50.3387V53.3882Z" fill="#EAEEF9"/>
<path d="M50.3387 48.8936H48.0914V51.1409H50.3387V48.8936Z" fill="#EAEEF9"/>
<path d="M50.3387 44.3989H48.0914V46.6462H50.3387V44.3989Z" fill="#EAEEF9"/>
<path d="M50.3387 40.0225H48.0914V42.2698H50.3387V40.0225Z" fill="#EAEEF9"/>
<path d="M50.3387 35.5278H48.0914V37.7751H50.3387V35.5278Z" fill="#EAEEF9"/>
<path d="M50.3387 22.1624H48.0914V24.4097H50.3387V22.1624Z" fill="#EAEEF9"/>
<path d="M54.9515 57.7644H52.7042V60.0117H54.9515V57.7644Z" fill="#EAEEF9"/>
<path d="M54.9515 53.3882H52.7042V55.6355H54.9515V53.3882Z" fill="#EAEEF9"/>
<path d="M54.9515 48.8936H52.7042V51.1409H54.9515V48.8936Z" fill="#EAEEF9"/>
<path d="M54.9515 40.0225H52.7042V42.2698H54.9515V40.0225Z" fill="#EAEEF9"/>
<path d="M54.9515 35.5278H52.7042V37.7751H54.9515V35.5278Z" fill="#F3F5FA"/>
<path d="M59.5646 57.7644H57.3173V60.0117H59.5646V57.7644Z" fill="url(#paint6_linear_699:10739)"/>
<path d="M59.5646 53.3882H57.3173V55.6355H59.5646V53.3882Z" fill="#EAEEF9"/>
<path d="M59.5646 48.8936H57.3173V51.1409H59.5646V48.8936Z" fill="#EAEEF9"/>
<path d="M59.5646 44.3989H57.3173V46.6462H59.5646V44.3989Z" fill="#F3F5FA"/>
<path d="M59.5646 40.0225H57.3173V42.2698H59.5646V40.0225Z" fill="#EAEEF9"/>
<path d="M59.5646 31.0332H57.3173V33.2805H59.5646V31.0332Z" fill="#EAEEF9"/>
<path d="M64.2956 57.7644H62.0483V60.0117H64.2956V57.7644Z" fill="#EAEEF9"/>
<path d="M64.2956 53.3882H62.0483V55.6355H64.2956V53.3882Z" fill="#EAEEF9"/>
<path d="M64.2956 48.8936H62.0483V51.1409H64.2956V48.8936Z" fill="url(#paint7_linear_699:10739)"/>
<path d="M64.2956 44.3989H62.0483V46.6462H64.2956V44.3989Z" fill="#EAEEF9"/>
<path d="M64.2956 40.0225H62.0483V42.2698H64.2956V40.0225Z" fill="#EAEEF9"/>
<path d="M64.2956 35.5278H62.0483V37.7751H64.2956V35.5278Z" fill="#EAEEF9"/>
<path d="M68.9086 57.7644H66.6613V60.0117H68.9086V57.7644Z" fill="#EAEEF9"/>
<path d="M68.9086 53.3882H66.6613V55.6355H68.9086V53.3882Z" fill="#EAEEF9"/>
<path d="M68.9086 48.8936H66.6613V51.1409H68.9086V48.8936Z" fill="#EAEEF9"/>
<path d="M68.9086 40.0225H66.6613V42.2698H68.9086V40.0225Z" fill="#F3F5FA"/>
<path d="M68.9086 31.0332H66.6613V33.2805H68.9086V31.0332Z" fill="#EAEEF9"/>
<path d="M68.9086 17.6677H66.6613V19.915H68.9086V17.6677Z" fill="#F3F5FA"/>
<path d="M73.5215 53.3882H71.2742V55.6355H73.5215V53.3882Z" fill="#EAEEF9"/>
<path d="M73.5215 48.8936H71.2742V51.1409H73.5215V48.8936Z" fill="#F3F5FA"/>
<path d="M73.5215 44.3989H71.2742V46.6462H73.5215V44.3989Z" fill="#EAEEF9"/>
<path d="M73.5215 26.657H71.2742V28.9043H73.5215V26.657Z" fill="#EAEEF9"/>
<path d="M78.1344 57.7644H75.8871V60.0117H78.1344V57.7644Z" fill="#EAEEF9"/>
<path d="M78.1344 48.8936H75.8871V51.1409H78.1344V48.8936Z" fill="#EAEEF9"/>
<path d="M78.1344 44.3989H75.8871V46.6462H78.1344V44.3989Z" fill="url(#paint8_linear_699:10739)"/>
<path d="M78.1344 40.0225H75.8871V42.2698H78.1344V40.0225Z" fill="#EAEEF9"/>
<path d="M78.1344 35.5278H75.8871V37.7751H78.1344V35.5278Z" fill="#F3F5FA"/>
<path d="M78.1344 31.0332H75.8871V33.2805H78.1344V31.0332Z" fill="url(#paint9_linear_699:10739)"/>
<path d="M82.7472 57.7644H80.4999V60.0117H82.7472V57.7644Z" fill="#EAEEF9"/>
<path d="M82.7472 44.3989H80.4999V46.6462H82.7472V44.3989Z" fill="#F3F5FA"/>
<path d="M82.7472 35.5278H80.4999V37.7751H82.7472V35.5278Z" fill="#EAEEF9"/>
<path d="M87.3602 57.7644H85.1129V60.0117H87.3602V57.7644Z" fill="#EAEEF9"/>
<path d="M87.3602 53.3882H85.1129V55.6355H87.3602V53.3882Z" fill="#EAEEF9"/>
<path d="M87.3602 48.8936H85.1129V51.1409H87.3602V48.8936Z" fill="#EAEEF9"/>
<path d="M87.3602 44.3989H85.1129V46.6462H87.3602V44.3989Z" fill="#EAEEF9"/>
<path d="M87.3602 40.0225H85.1129V42.2698H87.3602V40.0225Z" fill="#F3F5FA"/>
<path d="M87.3602 26.657H85.1129V28.9043H87.3602V26.657Z" fill="#EAEEF9"/>
<path d="M91.9731 57.7644H89.7258V60.0117H91.9731V57.7644Z" fill="#EAEEF9"/>
<path d="M91.9731 48.8936H89.7258V51.1409H91.9731V48.8936Z" fill="#EAEEF9"/>
<path d="M91.9731 44.3989H89.7258V46.6462H91.9731V44.3989Z" fill="#F3F5FA"/>
<path d="M89.8069 73.4678L92.0542 73.4678L92.0542 71.2205L89.8069 71.2205L89.8069 73.4678Z" fill="#EAEEF9"/>
<path d="M89.8069 68.9392L92.0542 68.9392L92.0542 66.6919L89.8069 66.6919L89.8069 68.9392Z" fill="#EAEEF9"/>
<path d="M89.8069 64.5288L92.0542 64.5288L92.0542 62.2815L89.8069 62.2815L89.8069 64.5288Z" fill="#EAEEF9"/>
<path d="M85.1655 77.8782L87.4128 77.8782L87.4128 75.6309L85.1655 75.6309L85.1655 77.8782Z" fill="#EAEEF9"/>
<path d="M85.1655 73.4678L87.4128 73.4678L87.4128 71.2205L85.1655 71.2205L85.1655 73.4678Z" fill="#EAEEF9"/>
<path d="M85.1655 64.5288L87.4128 64.5288L87.4128 62.2815L85.1655 62.2815L85.1655 64.5288Z" fill="#EAEEF9"/>
<path d="M80.5243 77.8782L82.7716 77.8782L82.7716 75.6309L80.5243 75.6309L80.5243 77.8782Z" fill="#EAEEF9"/>
<path d="M80.5243 73.4678L82.7716 73.4678L82.7716 71.2205L80.5243 71.2205L80.5243 73.4678Z" fill="#EAEEF9"/>
<path d="M80.5243 68.9392L82.7716 68.9392L82.7716 66.6919L80.5243 66.6919L80.5243 68.9392Z" fill="#EAEEF9"/>
<path d="M80.5243 64.5288L82.7716 64.5288L82.7716 62.2815L80.5243 62.2815L80.5243 64.5288Z" fill="#EAEEF9"/>
<path d="M75.8829 77.8782L78.1302 77.8782L78.1302 75.6309L75.8829 75.6309L75.8829 77.8782Z" fill="#EAEEF9"/>
<path d="M75.8829 73.4678L78.1302 73.4678L78.1302 71.2205L75.8829 71.2205L75.8829 73.4678Z" fill="#EAEEF9"/>
<path d="M75.8829 68.9392L78.1302 68.9392L78.1302 66.6919L75.8829 66.6919L75.8829 68.9392Z" fill="#EAEEF9"/>
<path d="M75.8829 64.5288L78.1302 64.5288L78.1302 62.2815L75.8829 62.2815L75.8829 64.5288Z" fill="#EAEEF9"/>
<path d="M71.2416 77.8782L73.4889 77.8782L73.4889 75.6309L71.2416 75.6309L71.2416 77.8782Z" fill="#EAEEF9"/>
<path d="M71.2416 73.4678L73.4889 73.4678L73.4889 71.2205L71.2416 71.2205L71.2416 73.4678Z" fill="#EAEEF9"/>
<path d="M71.2416 68.9392L73.4889 68.9392L73.4889 66.6919L71.2416 66.6919L71.2416 68.9392Z" fill="#EAEEF9"/>
<path d="M66.6002 77.8782L68.8475 77.8782L68.8475 75.6309L66.6002 75.6309L66.6002 77.8782Z" fill="#EAEEF9"/>
<path d="M66.6002 73.4678L68.8475 73.4678L68.8475 71.2205L66.6002 71.2205L66.6002 73.4678Z" fill="#EAEEF9"/>
<path d="M66.6002 68.9392L68.8475 68.9392L68.8475 66.6919L66.6002 66.6919L66.6002 68.9392Z" fill="#EAEEF9"/>
<path d="M66.6002 64.5288L68.8475 64.5288L68.8475 62.2815L66.6002 62.2815L66.6002 64.5288Z" fill="#EAEEF9"/>
<path d="M61.959 77.8782L64.2063 77.8782L64.2063 75.6309L61.959 75.6309L61.959 77.8782Z" fill="#EAEEF9"/>
<path d="M61.959 73.4678L64.2063 73.4678L64.2063 71.2205L61.959 71.2205L61.959 73.4678Z" fill="#EAEEF9"/>
<path d="M61.959 68.9392L64.2063 68.9392L64.2063 66.6919L61.959 66.6919L61.959 68.9392Z" fill="#EAEEF9"/>
<path d="M57.3173 77.8721H59.6829V75.6248H57.3173V77.8721Z" fill="url(#paint10_linear_699:10739)"/>
<path d="M57.4359 73.4678L59.6832 73.4678L59.6832 71.2205L57.4359 71.2205L57.4359 73.4678Z" fill="#EAEEF9"/>
<path d="M57.4359 68.9392L59.6832 68.9392L59.6832 66.6919L57.4359 66.6919L57.4359 68.9392Z" fill="#EAEEF9"/>
<path d="M57.4359 64.5288L59.6832 64.5288L59.6832 62.2815L57.4359 62.2815L57.4359 64.5288Z" fill="#F3F5FA"/>
<path d="M52.7946 77.8782L55.0419 77.8782L55.0419 75.6309L52.7946 75.6309L52.7946 77.8782Z" fill="#EAEEF9"/>
<path d="M52.7946 73.4678L55.0419 73.4678L55.0419 71.2205L52.7946 71.2205L52.7946 73.4678Z" fill="#EAEEF9"/>
<path d="M52.7042 69.001H54.9515V66.7537H52.7042V69.001Z" fill="url(#paint11_linear_699:10739)"/>
<path d="M52.7946 64.5288L55.0419 64.5288L55.0419 62.2815L52.7946 62.2815L52.7946 64.5288Z" fill="#EAEEF9"/>
<path d="M48.1533 77.8782L50.4006 77.8782L50.4006 75.6309L48.1533 75.6309L48.1533 77.8782Z" fill="#EAEEF9"/>
<path d="M48.1533 73.4678L50.4006 73.4678L50.4006 71.2205L48.1533 71.2205L48.1533 73.4678Z" fill="#EAEEF9"/>
<path d="M48.1533 68.9392L50.4006 68.9392L50.4006 66.6919L48.1533 66.6919L48.1533 68.9392Z" fill="#EAEEF9"/>
<path d="M43.5118 73.4678L45.7592 73.4678L45.7592 71.2205L43.5118 71.2205L43.5118 73.4678Z" fill="#EAEEF9"/>
<path d="M43.5118 68.9392L45.7592 68.9392L45.7592 66.6919L43.5118 66.6919L43.5118 68.9392Z" fill="#F3F5FA"/>
<path d="M43.5118 64.5288L45.7592 64.5288L45.7592 62.2815L43.5118 62.2815L43.5118 64.5288Z" fill="#EAEEF9"/>
<path d="M38.8707 77.8782L41.118 77.8782L41.118 75.6309L38.8707 75.6309L38.8707 77.8782Z" fill="#EAEEF9"/>
<path d="M38.8707 68.9392L41.118 68.9392L41.118 66.6919L38.8707 66.6919L38.8707 68.9392Z" fill="#EAEEF9"/>
<path d="M38.8656 64.5063H41.1129V62.259H38.8656V64.5063Z" fill="url(#paint12_linear_699:10739)"/>
<path d="M34.2294 77.8782L36.4767 77.8782L36.4767 75.6309L34.2294 75.6309L34.2294 77.8782Z" fill="#EAEEF9"/>
<path d="M34.2294 64.5288L36.4767 64.5288L36.4767 62.2815L34.2294 62.2815L34.2294 64.5288Z" fill="#F3F5FA"/>
<path d="M29.588 77.8782L31.8353 77.8782L31.8353 75.6309L29.588 75.6309L29.588 77.8782Z" fill="#EAEEF9"/>
<path d="M29.588 73.4678L31.8353 73.4678L31.8353 71.2205L29.588 71.2205L29.588 73.4678Z" fill="#EAEEF9"/>
<path d="M29.588 68.9392L31.8353 68.9392L31.8353 66.6919L29.588 66.6919L29.588 68.9392Z" fill="#EAEEF9"/>
<path d="M24.9468 77.8782L27.1941 77.8782L27.1941 75.6309L24.9468 75.6309L24.9468 77.8782Z" fill="#EAEEF9"/>
<path d="M24.9468 68.9392L27.1941 68.9392L27.1941 66.6919L24.9468 66.6919L24.9468 68.9392Z" fill="#EAEEF9"/>
<path d="M24.9468 64.5288L27.1941 64.5288L27.1941 62.2815L24.9468 62.2815L24.9468 64.5288Z" fill="#F3F5FA"/>
<path d="M58.6183 27.0119C61.3619 27.0119 63.586 24.7878 63.586 22.0442C63.586 19.3006 61.3619 17.0764 58.6183 17.0764C55.8746 17.0764 53.6505 19.3006 53.6505 22.0442C53.6505 24.7878 55.8746 27.0119 58.6183 27.0119Z" fill="#EAEEF9"/>
<path d="M58.3817 22.399L49.1559 3.11938" stroke="url(#paint13_linear_699:10739)" stroke-width="2" stroke-miterlimit="10" stroke-linecap="round" stroke-linejoin="round"/>
<path d="M94.3388 78.1086V107.087C94.3388 109.689 92.2098 111.818 89.6076 111.818H27.6291C25.027 111.818 22.8979 109.689 22.8979 107.087V78.1086H94.3388Z" fill="white"/>
<path d="M67.8441 89.2269H49.3925C48.4463 89.2269 47.7366 88.5172 47.7366 87.571C47.7366 86.6247 48.4463 85.915 49.3925 85.915H67.8441C68.7903 85.915 69.5 86.6247 69.5 87.571C69.5 88.5172 68.7903 89.2269 67.8441 89.2269Z" fill="url(#paint14_linear_699:10739)"/>
<path d="M75.2957 96.5602H41.8225C40.8763 96.5602 40.1666 95.8506 40.1666 94.9043C40.1666 93.9581 40.8763 93.2484 41.8225 93.2484H75.2957C76.2419 93.2484 76.9516 93.9581 76.9516 94.9043C76.9516 95.8506 76.2419 96.5602 75.2957 96.5602Z" fill="#E3EAF2"/>
<path d="M65.1237 104.012H51.9947C51.4033 104.012 50.9302 103.539 50.9302 102.947V101.764C50.9302 101.173 51.4033 100.7 51.9947 100.7H65.1237C65.7151 100.7 66.1882 101.173 66.1882 101.764V102.947C66.1882 103.539 65.7151 104.012 65.1237 104.012Z" fill="#E3EAF2"/>
<path d="M109.53 94.1793C109.53 98.2544 107.767 101.889 105.012 104.422C102.478 106.735 99.1722 108.167 95.5359 108.167C92.5607 108.167 89.8058 107.286 87.602 105.744C83.9656 103.211 81.5414 99.0253 81.5414 94.2895C81.5414 86.5799 87.8224 80.3021 95.5359 80.3021C103.249 80.3021 109.53 86.4698 109.53 94.1793Z" fill="#E9F0F8"/>
<path d="M105.343 105.303C105.233 104.973 105.233 104.642 105.123 104.312C105.123 104.202 105.012 104.092 104.902 103.871C104.351 102.77 103.47 101.669 102.258 101.008C101.707 100.677 101.045 100.567 100.274 100.567C100.054 100.567 99.8333 100.567 99.7231 100.567C98.511 100.567 98.4008 100.347 98.4008 100.347V98.3646C99.062 97.8139 99.6129 97.2632 100.054 96.6024C100.494 95.9416 100.825 95.2808 101.045 94.5098C101.817 94.2895 102.368 93.6287 102.258 92.8577C102.258 92.5273 102.037 92.1969 102.037 91.8665C102.037 91.6462 102.037 91.5361 102.037 91.3158C102.037 91.2057 102.037 91.0956 102.037 90.9854C102.037 90.8753 102.037 90.7652 102.037 90.655C101.927 90.1043 101.817 89.4435 101.376 88.6726C100.384 86.8002 98.4008 85.5887 96.1969 85.5887C95.7562 85.5887 95.3154 85.5887 94.8746 85.6989C94.1033 85.9192 93.3319 86.2496 92.6708 86.6901C92.5606 86.8002 92.4504 86.9104 92.3402 87.0205C92.3402 87.0205 92.23 87.0205 92.23 87.1307C91.5688 87.7915 91.0179 88.5624 90.6873 89.5537C90.3567 90.4347 90.3567 91.426 90.4669 92.4172C90.4669 92.4172 90.4669 92.4172 90.4669 92.5273C90.4669 92.5273 90.4669 92.5273 90.4669 92.6375C90.4669 92.8578 90.5771 92.7476 90.4669 92.9679L90.3567 93.078C90.2465 93.2983 90.1363 93.7388 90.2465 94.1794C90.5771 95.0605 91.1281 94.9503 91.679 95.3909C91.679 95.3909 91.5688 95.3909 91.5688 95.501L90.9077 95.7213C88.1529 96.6024 87.2713 98.9153 88.3732 100.347C88.814 100.898 89.4752 101.338 90.5771 101.559C90.2465 101.559 90.0261 101.779 89.9159 101.889C88.7038 102.88 87.9325 104.312 87.7121 105.744C87.6019 106.184 88.0427 106.515 88.3732 106.515H104.572C105.123 106.184 105.453 105.744 105.343 105.303ZM92.6708 97.2632C92.781 97.4835 93.0013 97.7038 93.2217 97.924C93.3319 98.0342 93.5523 98.2544 93.7727 98.3646C93.8829 98.4747 93.9931 98.5849 94.1033 98.5849C94.1033 98.5849 94.1033 98.5848 94.2135 98.695C94.2135 98.695 94.3237 98.695 94.3237 98.8051V99.9065C94.3237 99.9065 94.3237 99.9065 94.2135 99.7964C94.1033 99.6862 93.9931 99.5761 93.8829 99.5761C93.6625 99.4659 93.5523 99.3558 93.3319 99.2457C93.2217 99.2457 93.2217 99.1355 93.1115 99.1355C92.5606 98.8051 92.0096 98.4747 92.0096 98.0342C92.1198 97.8139 92.3402 97.5936 92.6708 97.2632Z" fill="white"/>
<path d="M105.012 104.312C102.478 106.625 99.1722 108.057 95.5358 108.057C92.5606 108.057 89.8058 107.175 87.6019 105.634C87.6019 105.523 87.6019 105.523 87.6019 105.413C87.8223 103.982 88.5937 102.55 89.8058 101.559C90.0262 101.448 90.2466 101.228 90.4669 101.228C89.4752 101.008 88.7039 100.567 88.2631 100.017H91.5689C92.4504 101.338 93.9931 102.109 95.7562 102.109C97.1887 102.109 98.511 101.559 99.3926 100.567C99.5028 100.567 99.613 100.567 99.7231 100.567C99.8333 100.567 100.054 100.567 100.274 100.567C101.045 100.567 101.707 100.788 102.258 101.008C103.47 101.559 104.351 102.66 104.902 103.871C104.902 104.092 105.012 104.202 105.012 104.312Z" fill="url(#paint15_linear_699:10739)"/>
<path d="M98.4009 98.3645V100.237L93.0015 100.457L93.332 99.2456C93.4422 99.2456 93.4422 99.3557 93.5524 99.3557C93.7728 99.4659 93.883 99.576 94.1034 99.6861C94.2136 99.7963 94.3238 99.7963 94.434 99.9064C94.434 99.9064 94.434 99.9064 94.5442 100.017V98.805C94.5442 98.805 94.434 98.8051 94.434 98.6949C95.3155 99.1355 96.6378 99.4659 98.4009 98.3645Z" fill="url(#paint16_linear_699:10739)"/>
<path d="M101.927 90.9853C100.825 91.3157 99.7232 91.536 98.6213 91.4259C96.8582 91.3157 95.0951 90.5448 93.7728 89.3333C93.332 90.6549 92.2301 91.6462 90.9078 92.1968C90.6874 92.307 90.5772 92.307 90.3568 92.4171C90.3568 92.4171 90.3568 92.4171 90.3568 92.307C90.2466 91.3157 90.3568 90.4347 90.5772 89.4434C90.9078 88.5623 91.4588 87.6812 92.1199 87.0204C92.1199 87.0204 92.2301 87.0204 92.2301 86.9103C92.3403 86.8001 92.4505 86.69 92.5607 86.5799C93.2218 86.1393 93.9932 85.8089 94.7645 85.5887C95.2053 85.4785 95.6461 85.4785 96.0869 85.4785C98.2907 85.4785 100.274 86.69 101.266 88.5623C101.597 89.3333 101.817 89.884 101.927 90.4347C101.927 90.6549 101.927 90.7651 101.927 90.9853Z" fill="#1C3754"/>
<path d="M95.0951 103.651C94.6543 104.202 93.7728 104.312 93.0014 104.202C93.7728 103.431 93.332 100.898 90.5772 101.228C86.7204 100.457 87.1612 96.6023 90.9078 95.3908L91.5689 95.1705L91.6791 95.2807C92.0097 96.0516 92.3403 96.7124 92.781 97.2631C91.2383 98.5848 93.332 98.9152 94.4339 99.9064C95.2053 100.457 95.9766 102.55 95.0951 103.651Z" fill="#1C3754"/>
<path d="M109.53 94.1793C109.53 98.2544 107.767 101.889 105.012 104.422C102.478 106.735 99.1722 108.167 95.5359 108.167C92.5607 108.167 89.8058 107.286 87.602 105.744C83.9656 103.211 81.5414 99.0253 81.5414 94.2895C81.5414 86.5799 87.8224 80.3021 95.5359 80.3021C103.249 80.3021 109.53 86.4698 109.53 94.1793Z" stroke="white" stroke-width="1.492" stroke-miterlimit="10" stroke-linecap="round" stroke-linejoin="round"/>
<path d="M43.5248 32.5029C43.5248 37.4591 41.5413 41.9747 38.4559 45.2788C38.2355 45.6092 37.905 45.8294 37.5744 46.1598C34.2686 49.2437 29.8609 51.116 25.0124 51.116C21.1557 51.116 17.5193 49.9045 14.4339 47.8119C13.5523 47.2612 12.781 46.4903 12.0096 45.8294C8.59366 42.4152 6.5 37.7895 6.5 32.6131C6.5 22.2602 14.7645 14 25.0124 14C35.2603 14 43.5248 22.2602 43.5248 32.5029Z" fill="#E9F0F8"/>
<path d="M43.5248 32.5029C43.5248 37.8996 41.2108 42.7456 37.5744 46.0497C34.2686 49.1335 29.8609 51.0059 25.0124 51.0059C21.1557 51.0059 17.5193 49.7944 14.4339 47.7018C9.5854 44.3977 6.5 38.7807 6.5 32.5029C6.5 22.2602 14.7645 14 25.0124 14C35.2603 14 43.5248 22.2602 43.5248 32.5029Z" fill="#E9F0F8"/>
<path d="M38.4559 45.2787C38.2355 45.6091 37.905 45.8294 37.5744 46.1598C34.2686 49.2436 29.8609 51.1159 25.0124 51.1159C21.1557 51.1159 17.5193 49.9044 14.4339 47.8118C13.5523 47.2611 12.781 46.4902 12.0096 45.8294C12.4504 45.2787 13.1116 44.9483 14.5441 44.3976L15.095 44.1773C16.197 43.7368 17.7397 43.1861 19.7231 42.305C20.0537 42.1949 20.2741 41.9746 20.4945 41.7543C20.6047 41.6442 20.7149 41.5341 20.7149 41.3138C20.8251 41.0935 20.9353 40.7631 20.9353 40.5428V36.7982C20.8251 36.688 20.8251 36.688 20.7149 36.5779C20.3843 36.1374 20.1639 35.5867 20.1639 34.9259L19.8333 34.8157C18.8416 35.036 18.9518 34.0448 18.7314 32.0623C18.6212 31.1812 18.7314 31.0711 19.1722 30.961L19.5028 30.5204C18.8416 28.8684 18.511 27.5467 18.511 26.4454C18.511 24.573 19.2824 23.3615 20.3843 22.8109C19.7231 21.1588 19.7231 20.7183 19.7231 20.7183C19.7231 20.7183 23.5799 21.3791 25.0124 21.1588C26.6653 20.8284 29.3099 21.2689 30.3017 23.4717C31.9546 24.1325 32.5055 25.1237 32.7259 26.2251C32.9463 27.9873 31.9546 29.9697 31.7342 30.6305V30.7407C31.9546 30.8508 32.0647 31.0711 31.9546 31.842C31.7342 33.7144 31.7342 34.8157 30.8526 34.5955L29.9711 36.0272C29.9711 36.2475 29.9711 36.2475 29.8609 36.3576C29.8609 36.688 29.8609 37.2387 29.8609 40.3226C29.8609 40.653 29.9711 41.0935 30.1915 41.3138C30.3017 41.4239 30.3017 41.5341 30.4119 41.5341C30.6322 41.7543 30.8526 41.9746 31.073 42.0847C33.2769 42.9658 34.9298 43.6266 36.0317 44.0672C37.2438 44.5077 37.905 44.8381 38.4559 45.2787Z" fill="white"/>
<path d="M38.4559 45.2786C38.2355 45.609 37.905 45.8293 37.5744 46.1597C34.2686 49.2436 29.8609 51.1159 25.0124 51.1159C21.1557 51.1159 17.5193 49.9044 14.4339 47.8118C13.5523 47.2611 12.781 46.4901 12.0096 45.8293C12.4504 45.2786 13.1116 44.9482 14.5441 44.3975L15.095 44.1773C16.197 43.7367 17.7397 43.186 19.7231 42.305C20.0537 42.1948 20.2741 41.9745 20.4945 41.7543C21.5964 43.2962 23.3595 44.2874 25.4532 44.2874C27.4366 44.2874 29.1997 43.2962 30.3017 41.8644C30.522 42.0847 30.7424 42.305 30.9628 42.4151C33.1667 43.2962 34.8196 43.957 35.9215 44.3975C37.2438 44.5077 37.905 44.8381 38.4559 45.2786Z" fill="url(#paint17_linear_699:10739)"/>
<path d="M31.624 30.6305C31.7342 30.19 31.5138 29.5292 31.2934 29.1988C31.2934 29.0886 31.1832 29.0886 31.1832 28.9785C30.4119 27.4366 28.759 26.8859 27.2163 26.7758C23.1391 26.5555 22.8085 27.3264 21.4862 26.2251C21.927 26.7758 21.927 27.767 21.2658 28.8684C20.8251 29.6393 20.0537 30.0799 19.2824 30.3001C17.4091 26.1149 18.4008 23.4717 20.1639 22.5906C19.7231 21.1588 19.7231 20.7183 19.7231 20.7183C19.7231 20.7183 23.5799 21.3791 25.0124 21.1588C26.6653 20.8284 29.3099 21.2689 30.3017 23.4717C31.9546 24.1325 32.5055 25.1237 32.7259 26.2251C32.8361 27.9873 31.8444 29.8596 31.624 30.6305Z" fill="#1C3754"/>
<path d="M20.9354 40.3225V36.5779C20.8252 36.4677 20.8252 36.4677 20.715 36.3576V36.1373C20.9354 36.4677 21.1557 36.7981 21.4863 37.0184L24.4615 39.111C25.1227 39.6617 26.1144 39.6617 26.8858 39.111L29.6406 36.688C29.7508 36.5779 29.861 36.4677 29.9712 36.4677C29.9712 36.7981 29.9712 37.3488 29.9712 40.4327C29.9712 40.6529 29.9712 40.7631 30.0814 40.9833H21.0455C20.9354 40.7631 20.9354 40.5428 20.9354 40.3225Z" fill="url(#paint18_linear_699:10739)"/>
<path d="M43.5248 32.5029C43.5248 37.8996 41.2108 42.7456 37.5744 46.0497C34.2686 49.1335 29.8609 51.0059 25.0124 51.0059C21.1557 51.0059 17.5193 49.7944 14.4339 47.7018C9.5854 44.3977 6.5 38.7807 6.5 32.5029C6.5 22.2602 14.7645 14 25.0124 14C35.2603 14 43.5248 22.2602 43.5248 32.5029Z" stroke="white" stroke-width="1.9345" stroke-miterlimit="10" stroke-linecap="round" stroke-linejoin="round"/>
<defs>
<filter id="filter0_d_699:10739" x="0.897949" y="0.0440674" width="115.441" height="144.774" filterUnits="userSpaceOnUse" color-interpolation-filters="sRGB">
<feFlood flood-opacity="0" result="BackgroundImageFix"/>
<feColorMatrix in="SourceAlpha" type="matrix" values="0 0 0 0 0 0 0 0 0 0 0 0 0 0 0 0 0 0 127 0" result="hardAlpha"/>
<feOffset dy="11"/>
<feGaussianBlur stdDeviation="11"/>
<feColorMatrix type="matrix" values="0 0 0 0 0.397708 0 0 0 0 0.47749 0 0 0 0 0.575 0 0 0 0.18 0"/>
<feBlend mode="normal" in2="BackgroundImageFix" result="effect1_dropShadow_699:10739"/>
<feBlend mode="normal" in="SourceGraphic" in2="effect1_dropShadow_699:10739" result="shape"/>
</filter>
<linearGradient id="paint0_linear_699:10739" x1="4.84588" y1="62.7331" x2="115.344" y2="62.7331" gradientUnits="userSpaceOnUse">
<stop stop-color="#FFA666"/>
<stop offset="1" stop-color="#F58636"/>
</linearGradient>
<linearGradient id="paint1_linear_699:10739" x1="58.6048" y1="12.774" x2="67.9597" y2="12.774" gradientUnits="userSpaceOnUse">
<stop stop-color="#83B9FF"/>
<stop offset="1" stop-color="#5AA2FF"/>
</linearGradient>
<linearGradient id="paint2_linear_699:10739" x1="25.0545" y1="41.18" x2="27.312" y2="41.18" gradientUnits="userSpaceOnUse">
<stop stop-color="#FFA666"/>
<stop offset="1" stop-color="#F58636"/>
</linearGradient>
<linearGradient id="paint3_linear_699:10739" x1="29.6673" y1="23.3199" x2="31.9248" y2="23.3199" gradientUnits="userSpaceOnUse">
<stop stop-color="#FFA666"/>
<stop offset="1" stop-color="#F58636"/>
</linearGradient>
<linearGradient id="paint4_linear_699:10739" x1="34.2494" y1="41.1478" x2="36.4993" y2="41.1478" gradientUnits="userSpaceOnUse">
<stop stop-color="#83B9FF"/>
<stop offset="1" stop-color="#5AA2FF"/>
</linearGradient>
<linearGradient id="paint5_linear_699:10739" x1="43.506" y1="36.6853" x2="45.7635" y2="36.6853" gradientUnits="userSpaceOnUse">
<stop stop-color="#FFA666"/>
<stop offset="1" stop-color="#F58636"/>
</linearGradient>
<linearGradient id="paint6_linear_699:10739" x1="57.3141" y1="58.8898" x2="59.564" y2="58.8898" gradientUnits="userSpaceOnUse">
<stop stop-color="#83B9FF"/>
<stop offset="1" stop-color="#5AA2FF"/>
</linearGradient>
<linearGradient id="paint7_linear_699:10739" x1="62.0758" y1="50.0511" x2="64.3333" y2="50.0511" gradientUnits="userSpaceOnUse">
<stop stop-color="#FFA666"/>
<stop offset="1" stop-color="#F58636"/>
</linearGradient>
<linearGradient id="paint8_linear_699:10739" x1="75.9146" y1="45.5564" x2="78.1721" y2="45.5564" gradientUnits="userSpaceOnUse">
<stop stop-color="#FFA666"/>
<stop offset="1" stop-color="#F58636"/>
</linearGradient>
<linearGradient id="paint9_linear_699:10739" x1="75.8839" y1="32.1586" x2="78.1338" y2="32.1586" gradientUnits="userSpaceOnUse">
<stop stop-color="#83B9FF"/>
<stop offset="1" stop-color="#5AA2FF"/>
</linearGradient>
<linearGradient id="paint10_linear_699:10739" x1="57.3139" y1="76.7501" x2="59.6822" y2="76.7501" gradientUnits="userSpaceOnUse">
<stop stop-color="#83B9FF"/>
<stop offset="1" stop-color="#5AA2FF"/>
</linearGradient>
<linearGradient id="paint11_linear_699:10739" x1="52.7317" y1="67.9112" x2="54.9892" y2="67.9112" gradientUnits="userSpaceOnUse">
<stop stop-color="#FFA666"/>
<stop offset="1" stop-color="#F58636"/>
</linearGradient>
<linearGradient id="paint12_linear_699:10739" x1="38.8931" y1="63.4165" x2="41.1506" y2="63.4165" gradientUnits="userSpaceOnUse">
<stop stop-color="#FFA666"/>
<stop offset="1" stop-color="#F58636"/>
</linearGradient>
<linearGradient id="paint13_linear_699:10739" x1="49.1427" y1="12.774" x2="58.3792" y2="12.774" gradientUnits="userSpaceOnUse">
<stop stop-color="#83B9FF"/>
<stop offset="1" stop-color="#5AA2FF"/>
</linearGradient>
<linearGradient id="paint14_linear_699:10739" x1="47.7055" y1="87.5735" x2="69.4941" y2="87.5735" gradientUnits="userSpaceOnUse">
<stop stop-color="#83B9FF"/>
<stop offset="1" stop-color="#5AA2FF"/>
</linearGradient>
<linearGradient id="paint15_linear_699:10739" x1="87.815" y1="104.158" x2="105.304" y2="104.158" gradientUnits="userSpaceOnUse">
<stop stop-color="#FFA666"/>
<stop offset="1" stop-color="#F58636"/>
</linearGradient>
<linearGradient id="paint16_linear_699:10739" x1="95.7161" y1="100.215" x2="95.7161" y2="99.3737" gradientUnits="userSpaceOnUse">
<stop stop-color="white"/>
<stop offset="0.9913" stop-color="#E6EDF7"/>
</linearGradient>
<linearGradient id="paint17_linear_699:10739" x1="11.9719" y1="46.4423" x2="38.4488" y2="46.4423" gradientUnits="userSpaceOnUse">
<stop stop-color="#83B9FF"/>
<stop offset="1" stop-color="#5AA2FF"/>
</linearGradient>
<linearGradient id="paint18_linear_699:10739" x1="25.3834" y1="40.905" x2="25.3834" y2="38.2936" gradientUnits="userSpaceOnUse">
<stop stop-color="white"/>
<stop offset="0.9913" stop-color="#E6EDF7"/>
</linearGradient>
</defs>
</svg>
