<svg width="123" height="115" viewBox="0 0 123 115" fill="none" xmlns="http://www.w3.org/2000/svg">
<path d="M65.5552 111.034C95.7974 111.034 120.314 86.4017 120.314 56.0168C120.314 25.6318 95.7974 1 65.5552 1C35.313 1 10.7969 25.6318 10.7969 56.0168C10.7969 86.4017 35.313 111.034 65.5552 111.034Z" fill="url(#paint0_linear_503:10932)"/>
<path d="M8.88281 113.449H121.5" stroke="#EBF0F6" stroke-width="2" stroke-miterlimit="10" stroke-linecap="round" stroke-linejoin="round"/>
<path d="M89.7643 112.568C81.3897 112.788 71.3621 112.568 64.3098 112.458C57.2574 112.678 47.2299 112.788 38.8552 112.568C47.1197 107.832 49.9847 99.1316 50.4255 93.4045H78.0839C78.6349 99.1316 81.4999 107.832 89.7643 112.568Z" fill="url(#paint1_linear_503:10932)"/>
<path d="M39.7369 114H88.8829C89.5441 114 90.2052 113.449 90.2052 112.678C90.2052 112.018 89.6542 111.357 88.8829 111.357H39.7369C39.0757 111.357 38.4146 111.907 38.4146 112.678C38.4146 113.449 38.9655 114 39.7369 114Z" fill="#EBF0F6"/>
<path d="M116.652 20.4941V92.4133C116.652 94.1754 115.219 95.4971 113.566 95.4971H15.6047C13.9518 95.4971 12.5193 94.0653 12.5193 92.4133V20.4941C12.5193 18.8421 13.9518 17.4103 15.6047 17.4103H113.566C115.219 17.4103 116.652 18.732 116.652 20.4941Z" fill="#F5F8FF"/>
<path d="M116.652 20.4941V82.501H12.5193V20.4941C12.5193 18.8421 13.9518 17.4103 15.6047 17.4103H113.566C115.219 17.4103 116.652 18.732 116.652 20.4941Z" fill="#172D45"/>
<path d="M112.574 21.2651H15.9351V78.9766H112.574V21.2651Z" fill="white"/>
<path d="M64.3098 91.8625C65.7096 91.8625 66.8443 90.7284 66.8443 89.3294C66.8443 87.9304 65.7096 86.7963 64.3098 86.7963C62.9101 86.7963 61.7754 87.9304 61.7754 89.3294C61.7754 90.7284 62.9101 91.8625 64.3098 91.8625Z" fill="#DBDFE6"/>
<path d="M20.343 70.1657H18.1392V72.3684H20.343V70.1657Z" fill="#EAEEF9"/>
<path d="M20.343 65.7602H18.1392V67.963H20.343V65.7602Z" fill="#EAEEF9"/>
<path d="M20.343 61.4649H18.1392V63.6676H20.343V61.4649Z" fill="#EAEEF9"/>
<path d="M20.343 57.1696H18.1392V59.3723H20.343V57.1696Z" fill="url(#paint2_linear_503:10932)"/>
<path d="M20.343 52.7641H18.1392V54.9669H20.343V52.7641Z" fill="#EAEEF9"/>
<path d="M20.343 48.4688H18.1392V50.6715H20.343V48.4688Z" fill="#F3F5FA"/>
<path d="M24.8611 74.461H22.6572V76.6637H24.8611V74.461Z" fill="#EAEEF9"/>
<path d="M24.8611 70.1657H22.6572V72.3684H24.8611V70.1657Z" fill="#EAEEF9"/>
<path d="M24.8611 61.4649H22.6572V63.6676H24.8611V61.4649Z" fill="#EAEEF9"/>
<path d="M24.8611 57.1696H22.6572V59.3723H24.8611V57.1696Z" fill="#EAEEF9"/>
<path d="M24.8611 52.7641H22.6572V54.9669H24.8611V52.7641Z" fill="#EAEEF9"/>
<path d="M24.8611 48.4688H22.6572V50.6715H24.8611V48.4688Z" fill="#EAEEF9"/>
<path d="M24.8611 44.1735H22.6572V46.3762H24.8611V44.1735Z" fill="#EAEEF9"/>
<path d="M24.8611 39.768H22.6572V41.9707H24.8611V39.768Z" fill="url(#paint3_linear_503:10932)"/>
<path d="M29.3787 74.461H27.1748V76.6637H29.3787V74.461Z" fill="#EAEEF9"/>
<path d="M29.3787 70.1657H27.1748V72.3684H29.3787V70.1657Z" fill="#EAEEF9"/>
<path d="M29.3787 65.7602H27.1748V67.963H29.3787V65.7602Z" fill="#EAEEF9"/>
<path d="M29.3787 61.4649H27.1748V63.6676H29.3787V61.4649Z" fill="#EAEEF9"/>
<path d="M29.3787 57.1696H27.1748V59.3723H29.3787V57.1696Z" fill="url(#paint4_linear_503:10932)"/>
<path d="M29.3787 52.7641H27.1748V54.9669H29.3787V52.7641Z" fill="#F3F5FA"/>
<path d="M29.3787 48.4688H27.1748V50.6715H29.3787V48.4688Z" fill="#EAEEF9"/>
<path d="M29.3787 44.1735H27.1748V46.3762H29.3787V44.1735Z" fill="#F3F5FA"/>
<path d="M29.3787 39.768H27.1748V41.9707H29.3787V39.768Z" fill="#EAEEF9"/>
<path d="M29.3789 35.4727H27.175V37.6754H29.3789V35.4727Z" fill="#F3F5FA"/>
<path d="M33.7864 74.461H31.5825V76.6637H33.7864V74.461Z" fill="#EAEEF9"/>
<path d="M33.7864 70.1657H31.5825V72.3684H33.7864V70.1657Z" fill="#EAEEF9"/>
<path d="M33.7864 65.7602H31.5825V67.963H33.7864V65.7602Z" fill="#EAEEF9"/>
<path d="M33.7864 61.4649H31.5825V63.6676H33.7864V61.4649Z" fill="#EAEEF9"/>
<path d="M33.7864 57.1696H31.5825V59.3723H33.7864V57.1696Z" fill="#EAEEF9"/>
<path d="M33.7864 52.7641H31.5825V54.9669H33.7864V52.7641Z" fill="#F3F5FA"/>
<path d="M33.7864 48.4688H31.5825V50.6715H33.7864V48.4688Z" fill="#EAEEF9"/>
<path d="M33.7864 44.1735H31.5825V46.3762H33.7864V44.1735Z" fill="#EAEEF9"/>
<path d="M38.3044 74.461H36.1006V76.6637H38.3044V74.461Z" fill="#EAEEF9"/>
<path d="M38.3044 70.1657H36.1006V72.3684H38.3044V70.1657Z" fill="#EAEEF9"/>
<path d="M38.3044 65.7602H36.1006V67.963H38.3044V65.7602Z" fill="#EAEEF9"/>
<path d="M38.3044 57.1696H36.1006V59.3723H38.3044V57.1696Z" fill="#EAEEF9"/>
<path d="M38.3044 52.7641H36.1006V54.9669H38.3044V52.7641Z" fill="url(#paint5_linear_503:10932)"/>
<path d="M38.3044 48.4688H36.1006V50.6715H38.3044V48.4688Z" fill="#F3F5FA"/>
<path d="M42.8225 74.461H40.6187V76.6637H42.8225V74.461Z" fill="#EAEEF9"/>
<path d="M42.8225 70.1657H40.6187V72.3684H42.8225V70.1657Z" fill="#EAEEF9"/>
<path d="M42.8225 65.7602H40.6187V67.963H42.8225V65.7602Z" fill="#EAEEF9"/>
<path d="M42.8225 61.4649H40.6187V63.6676H42.8225V61.4649Z" fill="#EAEEF9"/>
<path d="M42.8225 57.1696H40.6187V59.3723H42.8225V57.1696Z" fill="#EAEEF9"/>
<path d="M42.8225 52.7641H40.6187V54.9669H42.8225V52.7641Z" fill="#EAEEF9"/>
<path d="M42.8225 48.4688H40.6187V50.6715H42.8225V48.4688Z" fill="#F3F5FA"/>
<path d="M42.8225 44.1735H40.6187V46.3762H42.8225V44.1735Z" fill="#EAEEF9"/>
<path d="M42.8225 39.768H40.6187V41.9707H42.8225V39.768Z" fill="#EAEEF9"/>
<path d="M47.3403 74.461H45.1365V76.6637H47.3403V74.461Z" fill="#EAEEF9"/>
<path d="M47.3403 70.1657H45.1365V72.3684H47.3403V70.1657Z" fill="#EAEEF9"/>
<path d="M47.3403 65.7602H45.1365V67.963H47.3403V65.7602Z" fill="#EAEEF9"/>
<path d="M47.3403 57.1696H45.1365V59.3723H47.3403V57.1696Z" fill="#EAEEF9"/>
<path d="M47.3403 52.7641H45.1365V54.9669H47.3403V52.7641Z" fill="#F3F5FA"/>
<path d="M51.8582 74.461H49.6543V76.6637H51.8582V74.461Z" fill="url(#paint6_linear_503:10932)"/>
<path d="M51.8582 70.1657H49.6543V72.3684H51.8582V70.1657Z" fill="#EAEEF9"/>
<path d="M51.8582 65.7602H49.6543V67.963H51.8582V65.7602Z" fill="#EAEEF9"/>
<path d="M51.8582 61.4649H49.6543V63.6676H51.8582V61.4649Z" fill="#F3F5FA"/>
<path d="M51.8582 57.1696H49.6543V59.3723H51.8582V57.1696Z" fill="#EAEEF9"/>
<path d="M51.8582 48.4688H49.6543V50.6715H51.8582V48.4688Z" fill="#EAEEF9"/>
<path d="M51.8582 44.1735H49.6543V46.3762H51.8582V44.1735Z" fill="#F3F5FA"/>
<path d="M56.3762 74.461H54.1724V76.6637H56.3762V74.461Z" fill="#EAEEF9"/>
<path d="M56.3762 70.1657H54.1724V72.3684H56.3762V70.1657Z" fill="#EAEEF9"/>
<path d="M56.3762 65.7602H54.1724V67.963H56.3762V65.7602Z" fill="url(#paint7_linear_503:10932)"/>
<path d="M56.3762 61.4649H54.1724V63.6676H56.3762V61.4649Z" fill="#EAEEF9"/>
<path d="M56.3762 57.1696H54.1724V59.3723H56.3762V57.1696Z" fill="#EAEEF9"/>
<path d="M56.3762 52.7641H54.1724V54.9669H56.3762V52.7641Z" fill="#EAEEF9"/>
<path d="M56.3762 48.4688H54.1724V50.6715H56.3762V48.4688Z" fill="#F3F5FA"/>
<path d="M56.3762 39.768H54.1724V41.9707H56.3762V39.768Z" fill="#EAEEF9"/>
<path d="M56.3762 35.4727H54.1724V37.6754H56.3762V35.4727Z" fill="#F3F5FA"/>
<path d="M88.0017 70.1657H85.7979V72.3684H88.0017V70.1657Z" fill="#EAEEF9"/>
<path d="M88.0017 61.4649H85.7979V63.6676H88.0017V61.4649Z" fill="#EAEEF9"/>
<path d="M88.0017 57.1696H85.7979V59.3723H88.0017V57.1696Z" fill="#EAEEF9"/>
<path d="M88.0017 52.7641H85.7979V54.9669H88.0017V52.7641Z" fill="#F3F5FA"/>
<path d="M88.0017 48.4688H85.7979V50.6715H88.0017V48.4688Z" fill="#EAEEF9"/>
<path d="M88.0017 44.1735H85.7979V46.3762H88.0017V44.1735Z" fill="#EAEEF9"/>
<path d="M92.5193 74.461H90.3154V76.6637H92.5193V74.461Z" fill="#EAEEF9"/>
<path d="M92.5193 70.1657H90.3154V72.3684H92.5193V70.1657Z" fill="#EAEEF9"/>
<path d="M92.5193 65.7602H90.3154V67.963H92.5193V65.7602Z" fill="#EAEEF9"/>
<path d="M92.5193 61.4649H90.3154V63.6676H92.5193V61.4649Z" fill="#EAEEF9"/>
<path d="M92.5193 57.1696H90.3154V59.3723H92.5193V57.1696Z" fill="#EAEEF9"/>
<path d="M92.5193 52.7641H90.3154V54.9669H92.5193V52.7641Z" fill="url(#paint8_linear_503:10932)"/>
<path d="M92.5193 48.4688H90.3154V50.6715H92.5193V48.4688Z" fill="#F3F5FA"/>
<path d="M97.0374 74.461H94.8335V76.6637H97.0374V74.461Z" fill="#EAEEF9"/>
<path d="M97.0374 70.1657H94.8335V72.3684H97.0374V70.1657Z" fill="#EAEEF9"/>
<path d="M97.0374 65.7602H94.8335V67.963H97.0374V65.7602Z" fill="#EAEEF9"/>
<path d="M97.0374 61.4649H94.8335V63.6676H97.0374V61.4649Z" fill="#EAEEF9"/>
<path d="M97.0374 57.1696H94.8335V59.3723H97.0374V57.1696Z" fill="#EAEEF9"/>
<path d="M97.0374 52.7641H94.8335V54.9669H97.0374V52.7641Z" fill="#EAEEF9"/>
<path d="M97.0374 48.4688H94.8335V50.6715H97.0374V48.4688Z" fill="#F3F5FA"/>
<path d="M97.0374 44.1735H94.8335V46.3762H97.0374V44.1735Z" fill="#EAEEF9"/>
<path d="M97.0374 39.768H94.8335V41.9707H97.0374V39.768Z" fill="#EAEEF9"/>
<path d="M101.445 74.461H99.2412V76.6637H101.445V74.461Z" fill="#EAEEF9"/>
<path d="M101.445 70.1657H99.2412V72.3684H101.445V70.1657Z" fill="#EAEEF9"/>
<path d="M101.445 65.7602H99.2412V67.963H101.445V65.7602Z" fill="#EAEEF9"/>
<path d="M101.445 61.4649H99.2412V63.6676H101.445V61.4649Z" fill="#EAEEF9"/>
<path d="M101.445 57.1696H99.2412V59.3723H101.445V57.1696Z" fill="#EAEEF9"/>
<path d="M105.963 74.461H103.759V76.6637H105.963V74.461Z" fill="url(#paint9_linear_503:10932)"/>
<path d="M105.963 70.1657H103.759V72.3684H105.963V70.1657Z" fill="#EAEEF9"/>
<path d="M105.963 65.7602H103.759V67.963H105.963V65.7602Z" fill="#EAEEF9"/>
<path d="M105.963 61.4649H103.759V63.6676H105.963V61.4649Z" fill="#F3F5FA"/>
<path d="M105.963 57.1696H103.759V59.3723H105.963V57.1696Z" fill="#EAEEF9"/>
<path d="M105.963 52.7641H103.759V54.9669H105.963V52.7641Z" fill="url(#paint10_linear_503:10932)"/>
<path d="M105.963 48.4688H103.759V50.6715H105.963V48.4688Z" fill="#EAEEF9"/>
<path d="M105.963 44.1735H103.759V46.3762H105.963V44.1735Z" fill="#F3F5FA"/>
<path d="M110.481 74.461H108.277V76.6637H110.481V74.461Z" fill="#EAEEF9"/>
<path d="M110.481 70.1657H108.277V72.3684H110.481V70.1657Z" fill="#EAEEF9"/>
<path d="M110.481 65.7602H108.277V67.963H110.481V65.7602Z" fill="url(#paint11_linear_503:10932)"/>
<path d="M110.481 61.4649H108.277V63.6676H110.481V61.4649Z" fill="#EAEEF9"/>
<path d="M110.481 57.1696H108.277V59.3723H110.481V57.1696Z" fill="#EAEEF9"/>
<path d="M110.481 52.7641H108.277V54.9669H110.481V52.7641Z" fill="#EAEEF9"/>
<path d="M110.481 48.4688H108.277V50.6715H110.481V48.4688Z" fill="#F3F5FA"/>
<path d="M110.481 39.768H108.277V41.9707H110.481V39.768Z" fill="#EAEEF9"/>
<path d="M110.481 35.4727H108.277V37.6754H110.481V35.4727Z" fill="#F3F5FA"/>
<path d="M60.8943 74.461H58.6904V76.6637H60.8943V74.461Z" fill="#EAEEF9"/>
<path d="M60.8943 70.1657H58.6904V72.3684H60.8943V70.1657Z" fill="#EAEEF9"/>
<path d="M60.8943 65.7602H58.6904V67.963H60.8943V65.7602Z" fill="#EAEEF9"/>
<path d="M60.8943 57.1696H58.6904V59.3723H60.8943V57.1696Z" fill="#F3F5FA"/>
<path d="M60.8943 48.4688H58.6904V50.6715H60.8943V48.4688Z" fill="#EAEEF9"/>
<path d="M60.8943 44.1735H58.6904V46.3762H60.8943V44.1735Z" fill="#F3F5FA"/>
<path d="M60.8943 39.768H58.6904V41.9707H60.8943V39.768Z" fill="#EAEEF9"/>
<path d="M60.894 35.4727H58.6902V37.6754H60.894V35.4727Z" fill="#F3F5FA"/>
<path d="M65.4119 70.1657H63.208V72.3684H65.4119V70.1657Z" fill="#EAEEF9"/>
<path d="M65.4119 65.7602H63.208V67.963H65.4119V65.7602Z" fill="#F3F5FA"/>
<path d="M65.4119 61.4649H63.208V63.6676H65.4119V61.4649Z" fill="#EAEEF9"/>
<path d="M65.4119 57.1696H63.208V59.3723H65.4119V57.1696Z" fill="#EAEEF9"/>
<path d="M65.4119 52.7641H63.208V54.9669H65.4119V52.7641Z" fill="url(#paint12_linear_503:10932)"/>
<path d="M65.4119 48.4688H63.208V50.6715H65.4119V48.4688Z" fill="#EAEEF9"/>
<path d="M65.4119 44.1735H63.208V46.3762H65.4119V44.1735Z" fill="#EAEEF9"/>
<path d="M69.9299 74.461H67.7261V76.6637H69.9299V74.461Z" fill="#EAEEF9"/>
<path d="M69.9299 65.7602H67.7261V67.963H69.9299V65.7602Z" fill="#EAEEF9"/>
<path d="M69.9299 61.4649H67.7261V63.6676H69.9299V61.4649Z" fill="url(#paint13_linear_503:10932)"/>
<path d="M69.9299 57.1696H67.7261V59.3723H69.9299V57.1696Z" fill="#EAEEF9"/>
<path d="M69.9299 52.7641H67.7261V54.9669H69.9299V52.7641Z" fill="#F3F5FA"/>
<path d="M69.9299 48.4688H67.7261V50.6715H69.9299V48.4688Z" fill="url(#paint14_linear_503:10932)"/>
<path d="M74.4478 74.461H72.2439V76.6637H74.4478V74.461Z" fill="#EAEEF9"/>
<path d="M74.4478 61.4649H72.2439V63.6676H74.4478V61.4649Z" fill="#F3F5FA"/>
<path d="M74.4478 57.1696H72.2439V59.3723H74.4478V57.1696Z" fill="#EAEEF9"/>
<path d="M74.4478 52.7641H72.2439V54.9669H74.4478V52.7641Z" fill="#EAEEF9"/>
<path d="M78.9656 74.461H76.7617V76.6637H78.9656V74.461Z" fill="#EAEEF9"/>
<path d="M78.9656 70.1657H76.7617V72.3684H78.9656V70.1657Z" fill="#EAEEF9"/>
<path d="M78.9656 65.7602H76.7617V67.963H78.9656V65.7602Z" fill="#EAEEF9"/>
<path d="M78.9656 61.4649H76.7617V63.6676H78.9656V61.4649Z" fill="#EAEEF9"/>
<path d="M78.9656 57.1696H76.7617V59.3723H78.9656V57.1696Z" fill="#F3F5FA"/>
<path d="M78.9656 52.7641H76.7617V54.9669H78.9656V52.7641Z" fill="#EAEEF9"/>
<path d="M78.9656 48.4688H76.7617V50.6715H78.9656V48.4688Z" fill="url(#paint15_linear_503:10932)"/>
<path d="M78.9656 44.1735H76.7617V46.3762H78.9656V44.1735Z" fill="#EAEEF9"/>
<path d="M83.3733 74.461H81.1694V76.6637H83.3733V74.461Z" fill="#EAEEF9"/>
<path d="M83.3733 65.7602H81.1694V67.963H83.3733V65.7602Z" fill="#EAEEF9"/>
<path d="M83.3733 61.4649H81.1694V63.6676H83.3733V61.4649Z" fill="#F3F5FA"/>
<path d="M82.6019 70.0555H47.1198C45.7975 70.0555 44.6956 68.9542 44.6956 67.6325V31.5078C44.6956 30.1861 45.7975 29.0848 47.1198 29.0848H82.6019C83.9242 29.0848 85.0262 30.1861 85.0262 31.5078V67.6325C85.0262 68.9542 83.9242 70.0555 82.6019 70.0555Z" fill="#1C3754"/>
<path d="M64.6404 42.8518C66.7705 42.8518 68.4972 41.126 68.4972 38.997C68.4972 36.8681 66.7705 35.1423 64.6404 35.1423C62.5104 35.1423 60.7837 36.8681 60.7837 38.997C60.7837 41.126 62.5104 42.8518 64.6404 42.8518Z" fill="#2D5887"/>
<path d="M78.4148 49.7904H50.7564C50.4258 49.7904 50.0952 49.46 50.0952 49.1296V46.1559C50.0952 45.8255 50.4258 45.4951 50.7564 45.4951H78.4148C78.7454 45.4951 79.0759 45.8255 79.0759 46.1559V49.1296C79.0759 49.46 78.7454 49.7904 78.4148 49.7904Z" fill="#2D5887"/>
<path d="M78.4148 57.1696H50.7564C50.4258 57.1696 50.0952 56.8392 50.0952 56.5088V53.5351C50.0952 53.2047 50.4258 52.8743 50.7564 52.8743H78.4148C78.7454 52.8743 79.0759 53.2047 79.0759 53.5351V56.5088C79.0759 56.8392 78.7454 57.1696 78.4148 57.1696Z" fill="#2D5887"/>
<path d="M78.5249 59.3723H68.8279C68.4973 59.3723 68.1667 59.5926 68.1667 60.0331V62.4561C68.1667 62.7865 68.3871 63.117 68.8279 63.117H78.5249C78.8555 63.117 79.186 62.8967 79.186 62.4561V60.0331C79.0758 59.7027 78.8555 59.3723 78.5249 59.3723Z" fill="url(#paint16_linear_503:10932)"/>
<path d="M76.2107 60.8041H71.0316C70.8112 60.8041 70.5908 61.0245 70.5908 61.2449C70.5908 61.4652 70.8112 61.6856 71.0316 61.6856H76.2107C76.431 61.6856 76.6514 61.4652 76.6514 61.2449C76.6514 60.9143 76.431 60.8041 76.2107 60.8041Z" fill="white"/>
<path d="M65.7423 54.7466H52.5191C52.2988 54.7466 52.0784 54.9669 52.0784 55.1873C52.0784 55.4077 52.2988 55.6281 52.5191 55.6281H65.7423C65.9627 55.6281 66.1831 55.4077 66.1831 55.1873C66.0729 54.8567 65.9627 54.7466 65.7423 54.7466Z" fill="#6A99CC"/>
<path d="M65.7423 47.1471H52.5191C52.2988 47.1471 52.0784 47.3675 52.0784 47.5879C52.0784 47.8083 52.2988 48.0287 52.5191 48.0287H65.7423C65.9627 48.0287 66.1831 47.8083 66.1831 47.5879C66.0729 47.3675 65.9627 47.1471 65.7423 47.1471Z" fill="#6A99CC"/>
<path d="M104.53 81.1794C104.53 85.2544 102.767 88.8889 100.013 91.422C97.4782 93.7349 94.1724 95.1667 90.536 95.1667C87.5608 95.1667 84.806 94.2856 82.6021 92.7437C78.9657 90.2105 76.5415 86.0254 76.5415 81.2895C76.5415 73.5799 82.8225 67.3022 90.536 67.3022C98.2495 67.3022 104.53 73.4698 104.53 81.1794Z" fill="#E9F0F8"/>
<path d="M100.343 92.3032C100.233 91.9728 100.233 91.6424 100.123 91.312C100.123 91.2019 100.013 91.0917 99.9024 90.8715C99.3515 89.7701 98.4699 88.6687 97.2578 88.0079C96.7068 87.6775 96.0457 87.5674 95.2743 87.5674C95.0539 87.5674 94.8335 87.5674 94.7234 87.5674C93.5112 87.5674 93.401 87.3471 93.401 87.3471V85.3646C94.0622 84.814 94.6132 84.2633 95.0539 83.6025C95.4947 82.9416 95.8253 82.2808 96.0457 81.5099C96.817 81.2896 97.368 80.6288 97.2578 79.8578C97.2578 79.5274 97.0374 79.197 97.0374 78.8666C97.0374 78.6463 97.0374 78.5362 97.0374 78.3159C97.0374 78.2058 97.0374 78.0956 97.0374 77.9855C97.0374 77.8754 97.0374 77.7652 97.0374 77.6551C96.9272 77.1044 96.817 76.4436 96.3762 75.6726C95.3845 73.8003 93.401 72.5888 91.1972 72.5888C90.7564 72.5888 90.3156 72.5888 89.8749 72.6989C89.1035 72.9192 88.3322 73.2496 87.671 73.6902C87.5608 73.8003 87.4506 73.9104 87.3404 74.0206C87.3404 74.0206 87.2302 74.0206 87.2302 74.1307C86.5691 74.7915 86.0181 75.5625 85.6875 76.5537C85.357 77.4348 85.357 78.426 85.4671 79.4173C85.4671 79.4173 85.4671 79.4173 85.4671 79.5274C85.4671 79.5274 85.4671 79.5274 85.4671 79.6375C85.4671 79.8578 85.5773 79.7477 85.4671 79.9679L85.357 80.0781C85.2468 80.2984 85.1366 80.7389 85.2468 81.1795C85.5773 82.0605 86.1283 81.9504 86.6793 82.391C86.6793 82.391 86.5691 82.391 86.5691 82.5011L85.9079 82.7214C83.1531 83.6024 82.2716 85.9153 83.3735 87.3471C83.8143 87.8978 84.4754 88.3383 85.5773 88.5586C85.2468 88.5586 85.0264 88.7789 84.9162 88.889C83.7041 89.8802 82.9327 91.312 82.7123 92.7438C82.6021 93.1843 83.0429 93.5147 83.3735 93.5147H99.5718C100.123 93.1843 100.453 92.7438 100.343 92.3032ZM87.671 84.2633C87.7812 84.4835 88.0016 84.7038 88.222 84.9241C88.3322 85.0342 88.5525 85.2545 88.7729 85.3646C88.8831 85.4748 88.9933 85.5849 89.1035 85.5849C89.1035 85.5849 89.1035 85.5849 89.2137 85.695C89.2137 85.695 89.3239 85.695 89.3239 85.8052V86.9065C89.3239 86.9065 89.3239 86.9065 89.2137 86.7964C89.1035 86.6863 88.9933 86.5761 88.8831 86.5761C88.6627 86.466 88.5526 86.3559 88.3322 86.2457C88.222 86.2457 88.222 86.1356 88.1118 86.1356C87.5608 85.8052 87.0099 85.4748 87.0099 85.0342C87.12 84.814 87.3404 84.5937 87.671 84.2633Z" fill="white"/>
<path d="M100.013 91.3119C97.4781 93.6248 94.1723 95.0566 90.5359 95.0566C87.5607 95.0566 84.8059 94.1755 82.6021 92.6336C82.6021 92.5234 82.6021 92.5234 82.6021 92.4133C82.8224 90.9815 83.5938 89.5497 84.8059 88.5585C85.0263 88.4484 85.2467 88.2281 85.4671 88.2281C84.4753 88.0078 83.704 87.5673 83.2632 87.0166H86.569C87.4505 88.3382 88.9932 89.1092 90.7563 89.1092C92.1888 89.1092 93.5112 88.5585 94.3927 87.5673C94.5029 87.5673 94.6131 87.5673 94.7233 87.5673C94.8335 87.5673 95.0538 87.5673 95.2742 87.5673C96.0456 87.5673 96.7067 87.7876 97.2577 88.0078C98.4698 88.5585 99.3514 89.6599 99.9023 90.8714C99.9023 91.0917 100.013 91.2018 100.013 91.3119Z" fill="url(#paint17_linear_503:10932)"/>
<path d="M93.4009 85.3646V87.2369L88.0015 87.4572L88.332 86.2457C88.4422 86.2457 88.4422 86.3558 88.5524 86.3558C88.7728 86.4659 88.883 86.5761 89.1034 86.6862C89.2136 86.7963 89.3238 86.7963 89.434 86.9065C89.434 86.9065 89.434 86.9065 89.5442 87.0166V85.8051C89.5442 85.8051 89.434 85.8051 89.434 85.695C90.3155 86.1355 91.6378 86.4659 93.4009 85.3646Z" fill="url(#paint18_linear_503:10932)"/>
<path d="M96.9272 77.9854C95.8253 78.3158 94.7233 78.5361 93.6214 78.4259C91.8583 78.3158 90.0952 77.5449 88.7729 76.3334C88.3322 77.655 87.2302 78.6462 85.9079 79.1969C85.6875 79.307 85.5773 79.307 85.3569 79.4172C85.3569 79.4172 85.3569 79.4172 85.3569 79.307C85.2468 78.3158 85.357 77.4347 85.5773 76.4435C85.9079 75.5624 86.4589 74.6813 87.12 74.0205C87.12 74.0205 87.2302 74.0205 87.2302 73.9103C87.3404 73.8002 87.4506 73.6901 87.5608 73.5799C88.222 73.1394 88.9933 72.809 89.7647 72.5887C90.2054 72.4786 90.6462 72.4786 91.087 72.4786C93.2908 72.4786 95.2743 73.6901 96.266 75.5624C96.5966 76.3333 96.817 76.884 96.9272 77.4347C96.9272 77.655 96.9272 77.7651 96.9272 77.9854Z" fill="#1C3754"/>
<path d="M90.0952 90.6511C89.6544 91.2018 88.7729 91.3119 88.0015 91.2018C88.7729 90.4308 88.3321 87.8977 85.5773 88.2281C81.7206 87.4571 82.1613 83.6024 85.9079 82.3909L86.569 82.1706L86.6792 82.2807C87.0098 83.0517 87.3404 83.7125 87.7812 84.2632C86.2385 85.5848 88.3321 85.9152 89.4341 86.9065C90.2054 87.4571 90.9768 89.5497 90.0952 90.6511Z" fill="#1C3754"/>
<path d="M104.53 81.1794C104.53 85.2544 102.767 88.8889 100.013 91.422C97.4782 93.7349 94.1724 95.1667 90.536 95.1667C87.5608 95.1667 84.806 94.2856 82.6021 92.7437C78.9657 90.2105 76.5415 86.0254 76.5415 81.2895C76.5415 73.5799 82.8225 67.3022 90.536 67.3022C98.2495 67.3022 104.53 73.4698 104.53 81.1794Z" stroke="white" stroke-width="1.492" stroke-miterlimit="10" stroke-linecap="round" stroke-linejoin="round"/>
<path d="M38.5248 19.5029C38.5248 24.4591 36.5413 28.9747 33.4559 32.2788C33.2355 32.6092 32.905 32.8294 32.5744 33.1598C29.2686 36.2437 24.8609 38.116 20.0124 38.116C16.1557 38.116 12.5193 36.9045 9.43389 34.8119C8.55234 34.2612 7.78099 33.4903 7.00964 32.8294C3.59366 29.4152 1.5 24.7895 1.5 19.6131C1.5 9.26023 9.76447 1 20.0124 1C30.2603 1 38.5248 9.26023 38.5248 19.5029Z" fill="#E9F0F8"/>
<path d="M38.5248 19.5029C38.5248 24.8996 36.2108 29.7456 32.5744 33.0497C29.2686 36.1335 24.8609 38.0059 20.0124 38.0059C16.1557 38.0059 12.5193 36.7944 9.43389 34.7018C4.5854 31.3977 1.5 25.7807 1.5 19.5029C1.5 9.26023 9.76447 1 20.0124 1C30.2603 1 38.5248 9.26023 38.5248 19.5029Z" fill="#E9F0F8"/>
<path d="M33.4561 32.2787C33.2357 32.6091 32.9051 32.8294 32.5745 33.1598C29.2687 36.2436 24.861 38.116 20.0125 38.116C16.1558 38.116 12.5194 36.9045 9.43401 34.8119C8.55247 34.2612 7.78112 33.4902 7.00977 32.8294C7.45054 32.2787 8.11169 31.9483 9.5442 31.3976L10.0952 31.1774C11.1971 30.7368 12.7398 30.1861 14.7233 29.305C15.0538 29.1949 15.2742 28.9746 15.4946 28.7544C15.6048 28.6442 15.715 28.5341 15.715 28.3138C15.8252 28.0935 15.9354 27.7631 15.9354 27.5429V23.7982C15.8252 23.6881 15.8252 23.6881 15.715 23.5779C15.3844 23.1374 15.164 22.5867 15.164 21.9259L14.8335 21.8158C13.8417 22.036 13.9519 21.0448 13.7315 19.0623C13.6213 18.1813 13.7315 18.0711 14.1723 17.961L14.5029 17.5204C13.8417 15.8684 13.5111 14.5468 13.5111 13.4454C13.5111 11.5731 14.2825 10.3616 15.3844 9.81089C14.7233 8.15884 14.7233 7.71829 14.7233 7.71829C14.7233 7.71829 18.58 8.37911 20.0125 8.15884C21.6654 7.82843 24.31 8.26898 25.3018 10.4717C26.9547 11.1325 27.5056 12.1238 27.726 13.2251C27.9464 14.9873 26.9547 16.9698 26.7343 17.6306V17.7407C26.9547 17.8508 27.0649 18.0711 26.9547 18.8421C26.7343 20.7144 26.7343 21.8158 25.8527 21.5955L24.9712 23.0273C24.9712 23.2475 24.9712 23.2475 24.861 23.3577C24.861 23.6881 24.861 24.2388 24.861 27.3226C24.861 27.653 24.9712 28.0935 25.1916 28.3138C25.3018 28.4239 25.3018 28.5341 25.412 28.5341C25.6324 28.7544 25.8527 28.9746 26.0731 29.0848C28.277 29.9659 29.9299 30.6267 31.0318 31.0672C32.2439 31.5078 32.9051 31.8382 33.4561 32.2787Z" fill="white"/>
<path d="M33.4561 32.2787C33.2357 32.6091 32.9051 32.8294 32.5745 33.1598C29.2687 36.2436 24.861 38.1159 20.0125 38.1159C16.1558 38.1159 12.5194 36.9044 9.43401 34.8119C8.55247 34.2612 7.78112 33.4902 7.00977 32.8294C7.45054 32.2787 8.11169 31.9483 9.5442 31.3976L10.0952 31.1773C11.1971 30.7368 12.7398 30.1861 14.7233 29.305C15.0538 29.1949 15.2742 28.9746 15.4946 28.7543C16.5965 30.2963 18.3596 31.2875 20.4533 31.2875C22.4368 31.2875 24.1999 30.2963 25.3018 28.8645C25.5222 29.0848 25.7426 29.305 25.9629 29.4152C28.1668 30.2963 29.8197 30.9571 30.9216 31.3976C32.2439 31.5078 32.9051 31.8382 33.4561 32.2787Z" fill="url(#paint19_linear_503:10932)"/>
<path d="M26.6241 17.6306C26.7343 17.19 26.5139 16.5292 26.2935 16.1988C26.2935 16.0887 26.1833 16.0887 26.1833 15.9785C25.412 14.4366 23.7591 13.8859 22.2164 13.7758C18.1392 13.5555 17.8087 14.3265 16.4863 13.2251C16.9271 13.7758 16.9271 14.767 16.266 15.8684C15.8252 16.6393 15.0538 17.0799 14.2825 17.3002C12.4092 13.115 13.4009 10.4717 15.164 9.59061C14.7233 8.15884 14.7233 7.71829 14.7233 7.71829C14.7233 7.71829 18.58 8.37911 20.0125 8.15884C21.6654 7.82843 24.31 8.26898 25.3018 10.4717C26.9547 11.1325 27.5056 12.1238 27.726 13.2251C27.8362 14.9873 26.8445 16.8596 26.6241 17.6306Z" fill="#1C3754"/>
<path d="M15.9355 27.3226V23.5779C15.8253 23.4678 15.8253 23.4678 15.7151 23.3576V23.1374C15.9355 23.4678 16.1559 23.7982 16.4864 24.0185L19.4616 26.1111C20.1228 26.6617 21.1145 26.6617 21.8859 26.1111L24.6407 23.6881C24.7509 23.5779 24.8611 23.4678 24.9713 23.4678C24.9713 23.7982 24.9713 24.3489 24.9713 27.4327C24.9713 27.653 24.9713 27.7631 25.0815 27.9834H16.0457C15.9355 27.7631 15.9355 27.5428 15.9355 27.3226Z" fill="url(#paint20_linear_503:10932)"/>
<path d="M38.5248 19.5029C38.5248 24.8996 36.2108 29.7456 32.5744 33.0497C29.2686 36.1335 24.8609 38.0059 20.0124 38.0059C16.1557 38.0059 12.5193 36.7944 9.43389 34.7018C4.5854 31.3977 1.5 25.7807 1.5 19.5029C1.5 9.26023 9.76447 1 20.0124 1C30.2603 1 38.5248 9.26023 38.5248 19.5029Z" stroke="white" stroke-width="1.9345" stroke-miterlimit="10" stroke-linecap="round" stroke-linejoin="round"/>
<defs>
<linearGradient id="paint0_linear_503:10932" x1="12.1368" y1="57.6737" x2="122.15" y2="57.6737" gradientUnits="userSpaceOnUse">
<stop stop-color="#FFA666"/>
<stop offset="1" stop-color="#F58636"/>
</linearGradient>
<linearGradient id="paint1_linear_503:10932" x1="64.3068" y1="112.068" x2="64.3068" y2="94.8757" gradientUnits="userSpaceOnUse">
<stop stop-color="#F5F8FF"/>
<stop offset="0.9913" stop-color="#C4D3E9"/>
</linearGradient>
<linearGradient id="paint2_linear_503:10932" x1="18.1661" y1="58.3041" x2="20.38" y2="58.3041" gradientUnits="userSpaceOnUse">
<stop stop-color="#FFA666"/>
<stop offset="1" stop-color="#F58636"/>
</linearGradient>
<linearGradient id="paint3_linear_503:10932" x1="22.6842" y1="40.9025" x2="24.898" y2="40.9025" gradientUnits="userSpaceOnUse">
<stop stop-color="#FFA666"/>
<stop offset="1" stop-color="#F58636"/>
</linearGradient>
<linearGradient id="paint4_linear_503:10932" x1="27.1717" y1="58.2726" x2="29.3781" y2="58.2726" gradientUnits="userSpaceOnUse">
<stop stop-color="#83B9FF"/>
<stop offset="1" stop-color="#5AA2FF"/>
</linearGradient>
<linearGradient id="paint5_linear_503:10932" x1="36.1276" y1="53.8987" x2="38.3414" y2="53.8987" gradientUnits="userSpaceOnUse">
<stop stop-color="#FFA666"/>
<stop offset="1" stop-color="#F58636"/>
</linearGradient>
<linearGradient id="paint6_linear_503:10932" x1="49.6512" y1="75.5641" x2="51.8576" y2="75.5641" gradientUnits="userSpaceOnUse">
<stop stop-color="#83B9FF"/>
<stop offset="1" stop-color="#5AA2FF"/>
</linearGradient>
<linearGradient id="paint7_linear_503:10932" x1="54.1993" y1="66.8948" x2="56.4132" y2="66.8948" gradientUnits="userSpaceOnUse">
<stop stop-color="#FFA666"/>
<stop offset="1" stop-color="#F58636"/>
</linearGradient>
<linearGradient id="paint8_linear_503:10932" x1="90.3424" y1="53.8987" x2="92.5562" y2="53.8987" gradientUnits="userSpaceOnUse">
<stop stop-color="#FFA666"/>
<stop offset="1" stop-color="#F58636"/>
</linearGradient>
<linearGradient id="paint9_linear_503:10932" x1="103.756" y1="75.5641" x2="105.962" y2="75.5641" gradientUnits="userSpaceOnUse">
<stop stop-color="#83B9FF"/>
<stop offset="1" stop-color="#5AA2FF"/>
</linearGradient>
<linearGradient id="paint10_linear_503:10932" x1="103.756" y1="53.8672" x2="105.962" y2="53.8672" gradientUnits="userSpaceOnUse">
<stop stop-color="#83B9FF"/>
<stop offset="1" stop-color="#5AA2FF"/>
</linearGradient>
<linearGradient id="paint11_linear_503:10932" x1="108.304" y1="66.8948" x2="110.518" y2="66.8948" gradientUnits="userSpaceOnUse">
<stop stop-color="#FFA666"/>
<stop offset="1" stop-color="#F58636"/>
</linearGradient>
<linearGradient id="paint12_linear_503:10932" x1="63.2049" y1="53.8672" x2="65.4113" y2="53.8672" gradientUnits="userSpaceOnUse">
<stop stop-color="#83B9FF"/>
<stop offset="1" stop-color="#5AA2FF"/>
</linearGradient>
<linearGradient id="paint13_linear_503:10932" x1="67.753" y1="62.5994" x2="69.9669" y2="62.5994" gradientUnits="userSpaceOnUse">
<stop stop-color="#FFA666"/>
<stop offset="1" stop-color="#F58636"/>
</linearGradient>
<linearGradient id="paint14_linear_503:10932" x1="67.7229" y1="49.5718" x2="69.9293" y2="49.5718" gradientUnits="userSpaceOnUse">
<stop stop-color="#83B9FF"/>
<stop offset="1" stop-color="#5AA2FF"/>
</linearGradient>
<linearGradient id="paint15_linear_503:10932" x1="76.7887" y1="49.6033" x2="79.0025" y2="49.6033" gradientUnits="userSpaceOnUse">
<stop stop-color="#FFA666"/>
<stop offset="1" stop-color="#F58636"/>
</linearGradient>
<linearGradient id="paint16_linear_503:10932" x1="68.3016" y1="61.301" x2="79.3708" y2="61.301" gradientUnits="userSpaceOnUse">
<stop stop-color="#FFA666"/>
<stop offset="1" stop-color="#F58636"/>
</linearGradient>
<linearGradient id="paint17_linear_503:10932" x1="82.8151" y1="91.1577" x2="100.304" y2="91.1577" gradientUnits="userSpaceOnUse">
<stop stop-color="#FFA666"/>
<stop offset="1" stop-color="#F58636"/>
</linearGradient>
<linearGradient id="paint18_linear_503:10932" x1="90.7161" y1="87.2146" x2="90.7161" y2="86.3737" gradientUnits="userSpaceOnUse">
<stop stop-color="white"/>
<stop offset="0.9913" stop-color="#E6EDF7"/>
</linearGradient>
<linearGradient id="paint19_linear_503:10932" x1="6.97202" y1="33.4424" x2="33.4489" y2="33.4424" gradientUnits="userSpaceOnUse">
<stop stop-color="#83B9FF"/>
<stop offset="1" stop-color="#5AA2FF"/>
</linearGradient>
<linearGradient id="paint20_linear_503:10932" x1="20.3835" y1="27.9051" x2="20.3835" y2="25.2936" gradientUnits="userSpaceOnUse">
<stop stop-color="white"/>
<stop offset="0.9913" stop-color="#E6EDF7"/>
</linearGradient>
</defs>
</svg>
