<?xml version="1.0" standalone="no"?>
<!DOCTYPE svg PUBLIC "-//W3C//DTD SVG 20010904//EN"
 "http://www.w3.org/TR/2001/REC-SVG-20010904/DTD/svg10.dtd">
<svg version="1.0" xmlns="http://www.w3.org/2000/svg"
 width="90.000000pt" height="90.000000pt" viewBox="0 0 90.000000 90.000000"
 preserveAspectRatio="xMidYMid meet">
<metadata>
Created by potrace 1.16, written by Peter Selinger 2001-2019
</metadata>
<g transform="translate(0.000000,90.000000) scale(0.100000,-0.100000)"
fill="#000000" stroke="none">
<path d="M289 820 c-20 -10 -44 -31 -53 -45 -25 -37 -236 -611 -236 -641 0
-14 11 -36 25 -49 23 -24 30 -25 145 -25 131 0 163 8 218 55 44 37 55 60 163
349 51 137 101 258 111 268 22 22 56 23 86 2 33 -23 30 5 -5 47 -44 52 -74 59
-255 59 -140 -1 -168 -4 -199 -20z"/>
<path d="M666 698 c-8 -13 -46 -111 -84 -218 -39 -107 -73 -203 -77 -212 -7
-17 6 -18 178 -18 199 0 217 4 217 53 0 29 -129 377 -148 400 -22 25 -68 22
-86 -5z"/>
</g>
</svg>
