<svg xmlns="http://www.w3.org/2000/svg" xmlns:xlink="http://www.w3.org/1999/xlink" width="48" height="48" viewBox="0 0 48 48">
    <defs>
        <linearGradient id="pwgoxqdy5a" x1="50%" x2="50%" y1="99.999%" y2="0%">
            <stop offset="0%" stop-color="#EF5921"/>
            <stop offset="100%" stop-color="#F6911D"/>
        </linearGradient>
        <linearGradient id="5n6okuqmic" x1="50%" x2="50%" y1="100%" y2=".001%">
            <stop offset="0%" stop-color="#1E64FF"/>
            <stop offset="99.96%" stop-color="#00CCF0"/>
        </linearGradient>
        <linearGradient id="wlsuq5zlgd" x1="50%" x2="50%" y1="100%" y2=".001%">
            <stop offset="0%" stop-color="#1E64FF"/>
            <stop offset="99.96%" stop-color="#00CCF0"/>
        </linearGradient>
        <linearGradient id="kikj9goyue" x1="50%" x2="50%" y1="99.999%" y2="0%">
            <stop offset="0%" stop-color="#EF5921"/>
            <stop offset="100%" stop-color="#F6911D"/>
        </linearGradient>
        <linearGradient id="o2lgwg0a0f" x1="50%" x2="50%" y1="99.999%" y2="0%">
            <stop offset="0%" stop-color="#EF5921"/>
            <stop offset="100%" stop-color="#F6911D"/>
        </linearGradient>
        <linearGradient id="321sta8l6h" x1="50%" x2="50%" y1="99.999%" y2="0%">
            <stop offset="0%" stop-color="#EF5921"/>
            <stop offset="100%" stop-color="#F6911D"/>
        </linearGradient>
        <linearGradient id="dd7v1ut0li" x1="50%" x2="50%" y1="100%" y2=".001%">
            <stop offset="0%" stop-color="#1E64FF"/>
            <stop offset="99.96%" stop-color="#00CCF0"/>
        </linearGradient>
        <linearGradient id="r7gnm8f5wj" x1="50%" x2="50%" y1="100%" y2=".001%">
            <stop offset="0%" stop-color="#1E64FF"/>
            <stop offset="99.96%" stop-color="#00CCF0"/>
        </linearGradient>
        <linearGradient id="gtebb591jk" x1="50%" x2="50%" y1="99.999%" y2="0%">
            <stop offset="0%" stop-color="#EF5921"/>
            <stop offset="100%" stop-color="#F6911D"/>
        </linearGradient>
        <linearGradient id="f3uxci32xl" x1="50%" x2="50%" y1="99.999%" y2="0%">
            <stop offset="0%" stop-color="#EF5921"/>
            <stop offset="100%" stop-color="#F6911D"/>
        </linearGradient>
        <path id="g4r2kko6rb" d="M46.629 47.02c-.392-1.371-.784-2.938-1.176-4.31-1.371-2.155-2.84-4.212-4.898-5.681-.098-.098-.196-.098-.196-.196h-.098c-3.037-1.568-6.073-3.037-9.11-4.506-.294-.098-.49-.294-.49-.49-.392-.196-.685-.294-.685-.294l-2.156-7.347h.294l-6.073-.784-8.033 1.764-1.861 6.17s-.588.099-2.155.687c-.49.49-1.078.98-1.665 1.469 0 .49-.294.882-.784.98-2.939.783-3.723 3.918-4.212 6.66-.294 1.96-.392 4.115-.784 6.172h44.082v-.294z"/>
        <path id="hu7ddr8z7g" d="M25.861 27.527c-.098 0-.098.097-.196.097-2.253 1.764-5.387 1.764-7.543-.097-.881-.784-1.665-1.764-2.449-3.135-1.567-3.33-1.469-7.641-1.077-10.58.196-1.371.686-2.743 1.371-3.918.196-.392.588-.588.98-.588 1.567-.098 3.624 0 5.877.196 1.47.098 2.94.294 4.31.588.099.098.295.196.393.294 1.371 1.077 1.959 4.506 2.057 7.738.294 3.625-.98 7.151-3.723 9.405z"/>
        <path id="zkt8kolw3m" d="M3.429 47.02c.587-2.155 1.175-4.31 1.469-5.975.49-2.645.98-5.878.98-7.739-.196.098-.392.196-.49.196C1.568 35.069.392 41.927 0 47.02h3.429zm43.591 0c-.196-1.371-.49-2.84-.783-4.212-.588-2.449-2.253-4.506-4.408-5.681l-1.176-.588c-.588.685-1.763 3.037-2.449 10.481h8.816z"/>
    </defs>
    <g fill="none" fill-rule="evenodd">
        <g>
            <g>
                <g>
                    <g>
                        <g>
                            <g>
                                <g transform="translate(-168 -295) translate(0 -145) translate(0 160) translate(20 20) translate(118 260) translate(30)">
                                    <use fill="url(#pwgoxqdy5a)" xlink:href="#g4r2kko6rb"/>
                                    <use fill="#FFF" fill-opacity=".3" xlink:href="#g4r2kko6rb"/>
                                </g>
                                <path fill="url(#5n6okuqmic)" d="M47.02 47.02c-.196-1.469-.49-2.84-.881-4.31-.588-2.449-2.253-4.506-4.408-5.583-.882-.392-1.666-.882-2.45-1.274-3.428-1.665-6.465-3.82-9.208-6.465l-1.175 2.743c-4.702 8.326-12.343 9.796-12.343 9.796-1.96-3.429-1.96-12.441-1.96-12.441l.099-.098-3.429 1.47-6.073 2.644C1.567 35.069.392 41.927 0 47.02h47.02z" transform="translate(-168 -295) translate(0 -145) translate(0 160) translate(20 20) translate(118 260) translate(30)"/>
                                <path fill="url(#wlsuq5zlgd)" d="M35.755 17.045c-2.645 2.253-3.428 2.547-3.428 2.547s-21.845.98-22.923-5.486c-.49-2.743 1.96-4.016 4.898-4.604.98-.098 4.31-.49 8.62 0 4.507.294 9.209 1.763 9.405 1.861 0 0 6.073 3.527 3.428 5.682z" opacity=".2" transform="translate(-168 -295) translate(0 -145) translate(0 160) translate(20 20) translate(118 260) translate(30)"/>
                                <path fill="url(#kikj9goyue)" d="M19.298 47.02c.294-.783.588-1.665.882-2.155-.196.294-.49.98-.588 2.155h.294c.49-1.273 1.763-3.82 4.016-5.975 3.037-2.939 3.82-3.33 4.604-4.506.784-1.176 4.996-4.604 3.527-10.384-1.568-5.877-2.057-6.367-2.057-6.367l-2.45-.588.196 4.506s-.783 3.625-1.469 6.76c-.392 2.154-1.567 4.016-3.233 5.387-1.665 1.371-4.212 5.192-6.073 10.971h2.351v.196z" transform="translate(-168 -295) translate(0 -145) translate(0 160) translate(20 20) translate(118 260) translate(30)"/>
                                <g transform="translate(-168 -295) translate(0 -145) translate(0 160) translate(20 20) translate(118 260) translate(30)">
                                    <use fill="url(#o2lgwg0a0f)" xlink:href="#hu7ddr8z7g"/>
                                    <use fill="#FFF" fill-opacity=".6" xlink:href="#hu7ddr8z7g"/>
                                </g>
                                <path fill="url(#321sta8l6h)" d="M16.653 9.306c-5.486 2.253-5.78 11.56-5.192 16.457.588 4.996-.881 6.661-.881 6.661C7.15 36.54 6.66 44.376 6.563 47.02h5.094c.392-.881.882-1.86 1.176-2.84 1.371-3.723 3.134-7.25 5.094-10.678.685-1.273 1.077-2.84.097-4.604-2.546-4.114-3.036-9.894-3.134-13.616 0-2.155.783-4.31 1.959-6.074l-.196.098z" transform="translate(-168 -295) translate(0 -145) translate(0 160) translate(20 20) translate(118 260) translate(30)"/>
                                <path fill="url(#dd7v1ut0li)" d="M32.327 11.363s-.098 0-.294-.098c-1.176-.392-5.192-1.47-9.013-1.665-2.547-.294-4.8-.294-6.367-.196-1.175.098-1.96.196-2.351.196v-.098C14.4 8.62 15.478.784 19.69.196 24.196-.392 30.17.588 30.955 3.82c.686 3.135 1.372 7.543 1.372 7.543z" opacity=".1" transform="translate(-168 -295) translate(0 -145) translate(0 160) translate(20 20) translate(118 260) translate(30)"/>
                                <path fill="url(#r7gnm8f5wj)" d="M32.327 11.363s-.098 0-.294-.098c-2.155-.98-4.702-1.959-7.543-2.449-4.114-.685-6.563-.098-7.935.49-1.175.098-1.96.196-2.35.196v-.098c1.077-1.665 3.036-3.233 7.934-3.33 5.29 0 9.992 5.093 10.188 5.29z" transform="translate(-168 -295) translate(0 -145) translate(0 160) translate(20 20) translate(118 260) translate(30)"/>
                                <path fill="url(#gtebb591jk)" d="M32.816 17.927c-.49-2.156-1.175-5.976-5.192-7.74-.195 0-.293-.097-.49-.097-.49-.098-1.077-.196-1.665-.294 1.568.392 2.351 1.96 2.94 3.428.587 1.568.783 3.233.783 4.898.196 5.682-.196 11.364-2.253 16.556L22.335 47.02h.196l1.86-3.918c0 .098-.391 1.96-.88 3.918h8.522c.196-4.016.685-11.265.685-12.93 0 0 1.47 1.47-.294 6.367.196-.392 1.666-3.135 1.078-5.975-.588-3.037.882-7.74-.686-16.555z" transform="translate(-168 -295) translate(0 -145) translate(0 160) translate(20 20) translate(118 260) translate(30)"/>
                                <g transform="translate(-168 -295) translate(0 -145) translate(0 160) translate(20 20) translate(118 260) translate(30)">
                                    <use fill="url(#f3uxci32xl)" xlink:href="#zkt8kolw3m"/>
                                    <use fill="#FFF" fill-opacity=".3" xlink:href="#zkt8kolw3m"/>
                                </g>
                                <path fill="#E8EAE9" fill-rule="nonzero" d="M32.327 11.363c-.098 0-4.8-1.567-9.405-1.861-2.84-.294-5.093-.294-6.66-.196h-.099.098c1.372-.49 3.135-1.077 6.661-.686 2.547.098 6.27 1.274 9.405 2.743z" transform="translate(-168 -295) translate(0 -145) translate(0 160) translate(20 20) translate(118 260) translate(30)"/>
                            </g>
                        </g>
                    </g>
                </g>
            </g>
        </g>
    </g>
</svg>
