<svg class="svg-icon" style="width: 1em;height: 1em;vertical-align: middle;fill: currentColor;overflow: hidden;" viewBox="0 0 1024 1024" version="1.1" xmlns="http://www.w3.org/2000/svg"><path d="M707.7888 453.8368c-9.8304 0-19.456 0.6144-28.8768 1.6384-2.2528 0.2048-4.7104 0.6144-6.9632 0.8192-0.6144 0-1.4336 0.2048-2.048 0.2048-1.8432 0.2048-3.4816 0.6144-5.3248 0.8192-0.6144 0-1.2288 0.2048-1.8432 0.2048-2.2528 0.4096-4.3008 0.8192-6.5536 1.2288-0.6144 0.2048-1.2288 0.2048-1.8432 0.4096-1.6384 0.4096-3.2768 0.8192-4.9152 1.024-0.6144 0.2048-1.4336 0.4096-2.048 0.4096-2.048 0.6144-4.3008 1.024-6.3488 1.6384-0.4096 0-0.6144 0.2048-1.024 0.2048-1.8432 0.6144-3.8912 1.024-5.7344 1.6384-0.6144 0.2048-1.4336 0.4096-2.048 0.6144-1.6384 0.4096-3.2768 1.024-4.9152 1.6384-0.6144 0.2048-1.024 0.4096-1.6384 0.6144-2.048 0.6144-4.096 1.4336-6.144 2.2528l-1.8432 0.6144c-1.4336 0.6144-3.072 1.2288-4.5056 1.8432-0.6144 0.2048-1.4336 0.6144-2.048 0.8192-2.048 0.8192-3.8912 1.6384-5.9392 2.4576l-1.2288 0.6144c-1.6384 0.6144-3.072 1.4336-4.7104 2.2528-0.8192 0.4096-1.6384 0.8192-2.2528 1.024-0.4096 0.2048-1.024 0.4096-1.4336 0.6144s-1.024 0.4096-1.4336 0.8192l-4.9152 2.4576c-0.8192 0.4096-1.8432 1.024-2.6624 1.4336-1.4336 0.8192-3.072 1.6384-4.5056 2.4576-1.024 0.6144-1.8432 1.024-2.8672 1.6384-1.4336 0.8192-3.072 1.8432-4.5056 2.6624-0.8192 0.6144-1.6384 1.024-2.4576 1.6384l-6.7584 4.3008c-2.4576 1.6384-4.7104 3.2768-7.168 4.9152-0.8192 0.6144-1.4336 1.024-2.2528 1.6384l-4.9152 3.6864c-0.8192 0.6144-1.4336 1.2288-2.2528 1.6384-2.048 1.6384-3.8912 3.072-5.7344 4.7104-0.2048 0.2048-0.6144 0.4096-0.8192 0.8192-2.2528 1.8432-4.3008 3.8912-6.5536 5.7344l-1.8432 1.8432c-1.4336 1.4336-2.8672 2.8672-4.3008 4.096l-2.2528 2.2528-3.6864 3.6864c-2.8672 3.072-5.7344 6.144-8.6016 9.4208-2.048 2.2528-4.096 4.7104-5.9392 7.168-2.048 2.4576-3.8912 4.9152-5.7344 7.5776-31.3344 42.1888-49.7664 94.6176-49.7664 151.1424 0 140.4928 113.8688 254.1568 254.1568 254.1568 59.8016 0 114.8928-20.6848 158.3104-55.296 22.528-18.0224 41.984-39.7312 57.344-64.1024 24.576-39.1168 38.5024-85.1968 38.5024-134.7584 0-139.4688-113.8688-253.3376-254.1568-253.3376z m184.32 294.0928c-6.5536 30.3104-20.48 57.9584-39.7312 80.896-34.6112 41.3696-86.6304 67.7888-144.7936 67.7888-104.0384 0-188.6208-84.5824-188.6208-188.6208 0-55.7056 24.3712-105.8816 62.8736-140.4928 22.3232-20.0704 49.3568-34.816 79.4624-42.3936 14.9504-3.6864 30.3104-5.7344 46.4896-5.7344 104.0384 0 188.6208 84.5824 188.6208 188.6208 0 13.7216-1.4336 27.0336-4.3008 39.936z"  /><path d="M421.0688 496.0256c-75.1616-24.7808-129.6384-95.8464-129.6384-179.2 0-104.0384 84.5824-188.6208 188.6208-188.6208s188.6208 84.5824 188.6208 188.6208c0 29.9008-6.9632 57.9584-19.2512 83.1488 18.8416-3.2768 38.2976-5.12 58.1632-5.12 4.9152 0 9.6256 0 14.336 0.2048 7.9872-24.576 12.288-50.9952 12.288-78.2336 0-140.288-113.8688-254.1568-254.1568-254.1568s-253.952 113.664-253.952 254.1568c0 84.3776 41.1648 159.3344 104.448 205.4144C190.0544 579.9936 86.016 707.7888 62.0544 862.4128h66.3552c13.5168-74.3424 49.3568-142.7456 104.0384-197.4272 50.5856-50.5856 113.0496-84.992 181.0432-100.5568 1.6384-0.4096 3.072-0.6144 4.7104-1.024 10.24-18.0224 22.1184-35.0208 35.4304-50.5856 2.4576-2.8672 4.7104-5.5296 7.168-8.192-13.7216-1.6384-27.0336-4.5056-39.7312-8.6016zM510.3616 673.3824h394.6496v62.0544H510.3616z"  /></svg>