<svg width="20" height="20" viewBox="0 0 20 20" fill="none" xmlns="http://www.w3.org/2000/svg">
<path fill-rule="evenodd" clip-rule="evenodd" d="M10.9999 2.47235C12.4457 2.88474 13.4999 4.16828 13.4999 5.68775C13.4998 7.21046 12.4409 8.49613 10.9904 8.90554C10.997 8.95003 11.0004 8.9955 11.0004 9.04173L10.9999 18.6251C10.9999 19.1543 10.5522 19.5834 9.99988 19.5834C9.4476 19.5833 8.9999 19.1542 8.99993 18.625L9.0004 9.04164C9.00041 8.99554 9.00381 8.9502 9.01038 8.90584C7.55917 8.49672 6.49978 7.21062 6.49986 5.68743C6.49993 4.16801 7.55422 2.8846 8.99994 2.4723L9 1.37497C9.00003 0.845701 9.44776 0.416661 10 0.416687C10.5523 0.416713 11 0.845794 11 1.37507L10.9999 2.47235ZM8.49986 5.68752C8.4999 4.89361 9.1715 4.25005 9.99993 4.25009C10.8284 4.25013 11.4999 4.89375 11.4999 5.68766C11.4998 6.48157 10.8282 7.12513 9.99978 7.12509C9.17136 7.12505 8.49982 6.48143 8.49986 5.68752ZM13 14.3128C12.9999 15.8322 14.0542 17.1158 15.4999 17.5282L15.4999 18.6254C15.4998 19.1547 15.9475 19.5838 16.4998 19.5838C17.0521 19.5838 17.4998 19.1548 17.4999 18.6255L17.4999 17.5282C18.9456 17.1159 19.9999 15.8325 20 14.3131C20.0001 12.7899 18.9407 11.5038 17.4895 11.0947C17.496 11.0503 17.4995 11.005 17.4995 10.9589L17.4999 1.37554C17.5 0.846262 17.0523 0.417181 16.5 0.417156C15.9477 0.417131 15.5 0.846171 15.4999 1.37544L15.4995 10.9588C15.4994 11.005 15.5029 11.0505 15.5095 11.095C14.0589 11.5044 13.0001 12.7901 13 14.3128ZM18 14.313C18 15.1069 17.3284 15.7505 16.4999 15.7504C15.6715 15.7504 15 15.1068 15 14.3129C15 13.5189 15.6716 12.8754 16.5001 12.8754C17.3285 12.8755 18 13.5191 18 14.313ZM2.50011 17.528C1.05424 17.1156 -7.60948e-05 15.832 4.11925e-09 14.3124C7.62031e-05 12.7896 1.059 11.5039 2.50963 11.0945C2.50305 11.0501 2.49964 11.0047 2.49965 10.9585L2.50012 1.37521C2.50015 0.845937 2.94789 0.416897 3.50017 0.416922C4.05246 0.416947 4.50015 0.846028 4.50012 1.3753L4.49965 10.9586C4.49965 11.0047 4.49625 11.05 4.4897 11.0943C5.9409 11.5034 7.00027 12.7896 7.0002 14.3128C7.00012 15.8322 5.94584 17.1156 4.50011 17.528L4.50005 18.6253C4.50003 19.1546 4.05229 19.5836 3.5 19.5836C2.94772 19.5836 2.50003 19.1545 2.50005 18.6252L2.50011 17.528ZM3.50003 15.7502C4.32851 15.7502 5.00016 15.1066 5.0002 14.3127C5.00024 13.5187 4.32865 12.875 3.50017 12.875C2.67169 12.875 2.00004 13.5186 2 14.3125C1.99996 15.1065 2.67155 15.7501 3.50003 15.7502Z" fill="currentColor"/>
</svg>
