<svg width="18" height="20" viewBox="0 0 18 20" fill="none" xmlns="http://www.w3.org/2000/svg">
<path fill-rule="evenodd" clip-rule="evenodd" d="M4 1.37496C4 0.845686 4.44772 0.416626 5 0.416626C5.55228 0.416626 6 0.845686 6 1.37496V2.33329H12V1.37496C12 0.845686 12.4477 0.416626 13 0.416626C13.5523 0.416626 14 0.845686 14 1.37496V2.33329H15C16.6569 2.33329 18 3.62047 18 5.20829V7.12496V16.7083C18 18.2961 16.6569 19.5833 15 19.5833H3C1.34315 19.5833 0 18.2961 0 16.7083V7.12496V5.20829C0 3.62048 1.34315 2.33329 3 2.33329H4V1.37496ZM13 4.24996H5H3C2.44772 4.24996 2 4.67902 2 5.20829V6.16663H16V5.20829C16 4.67902 15.5523 4.24996 15 4.24996H13ZM2 8.08329V16.7083C2 17.2376 2.44772 17.6666 3 17.6666H15C15.5523 17.6666 16 17.2376 16 16.7083V8.08329L2 8.08329ZM9.29289 9.32232C9.68342 8.94806 10.3166 8.94806 10.7071 9.32232L12.7071 11.239C13.0976 11.6132 13.0976 12.22 12.7071 12.5943L8.70711 16.4276C8.51957 16.6073 8.26522 16.7083 8 16.7083H6C5.44772 16.7083 5 16.2792 5 15.75V13.8333C5 13.5791 5.10536 13.3354 5.29289 13.1556L9.29289 9.32232ZM7 14.2302V14.7916H7.58579L10.5858 11.9166L10 11.3552L7 14.2302Z" fill="currentColor"/>
</svg>
