<svg xmlns="http://www.w3.org/2000/svg"
  xmlns:xlink="http://www.w3.org/1999/xlink" width="48" height="48" viewBox="0 0 48 48">
  <defs>
    <linearGradient id="irxz8s0oja" x1="50%" x2="50%" y1="100%" y2=".001%">
      <stop offset="0%" stop-color="#1E64FF"/>
      <stop offset="99.96%" stop-color="#00CCF0"/>
    </linearGradient>
    <linearGradient id="rqwp3chk2b" x1="50%" x2="50%" y1="99.999%" y2="0%">
      <stop offset="0%" stop-color="#EF5921"/>
      <stop offset="100%" stop-color="#F6911D"/>
    </linearGradient>
    <linearGradient id="i8lk2ozc4d" x1="50%" x2="50%" y1="99.999%" y2="0%">
      <stop offset="0%" stop-color="#EF5921"/>
      <stop offset="100%" stop-color="#F6911D"/>
    </linearGradient>
    <path id="rigs3faz1c" d="M2.6 19.5h-.8v-2.3h.8c.6 0 1.2.5 1.2 1.2 0 .5-.5 1.1-1.2 1.1z"/>
  </defs>
  <g fill="none" fill-rule="evenodd">
    <g>
      <g>
        <g>
          <g>
            <g>
              <g transform="translate(-50 -398) translate(0 198) translate(0 180) translate(20 20) translate(30) translate(0 8)">
                <path fill="url(#irxz8s0oja)" d="M32.7.8c1 0 1.9.7 2 1.7l1.2 8.2h11l-.001 12.4H47c.6 0 1 .4 1 1v.7c0 .6-.4 1-1 1h-.101l.001.1H1.8l-.001-.1H1c-.6 0-1-.4-1-1v-.7c0-.6.4-1 1-1h.799l.001-5.7c0-3.621 2.874-6.572 6.465-6.696L8.5 10.7h.3c.7 0 1.3-.4 1.7-1l4.4-7.9c.3-.6 1-1 1.7-1z"/>
                <g>
                  <use fill="url(#rqwp3chk2b)" xlink:href="#rigs3faz1c"/>
                  <use fill="#FFF" fill-opacity=".6" xlink:href="#rigs3faz1c"/>
                </g>
                <path fill="#FFF" d="M22.1 10h11.6L33 4.5c-.1-1-1-1.7-2-1.7h-8.9V10zm-1.4-7.2h-2.9c-.7 0-1.4.4-1.7 1L12.5 10h8.2V2.8z"/>
                <circle cx="37.6" cy="26.5" r="5.7" fill="url(#i8lk2ozc4d)"/>
                <circle cx="37.6" cy="26.5" r="2.7" fill="#FFF"/>
                <circle cx="10.4" cy="26.5" r="5.7" fill="url(#i8lk2ozc4d)"/>
                <circle cx="10.4" cy="26.5" r="2.7" fill="#FFF"/>
              </g>
            </g>
          </g>
        </g>
      </g>
    </g>
  </g>
</svg>
