<svg width="80" height="80" viewBox="0 0 80 80" fill="none" xmlns="http://www.w3.org/2000/svg">
<g id="Icons=Cash Journals">
<path id="Exclude" fill-rule="evenodd" clip-rule="evenodd" d="M72 19.552V13.688C72 10.448 69.32 7.82 66 7.82C62.68 7.82 60 10.448 60 13.688V19.552H72ZM64 0.14V0H10C4.48 0 0 4.376 0 9.776V40V70.224C0 75.624 4.48 80 10 80H50.52C55.76 80 60 75.856 60 70.744V27.376H75.8C78.12 27.376 80 25.536 80 23.272V13.688C80 6.128 73.72 0 66 0C65.32 0 64.64 0.048 64 0.14ZM10 7.82C8.88 7.82 8 8.696 8 9.776V40V70.224C8 71.304 8.88 72.18 10 72.18H50.52C51.36 72.18 52 71.536 52 70.744V13.688C52 11.588 52.48 9.6 53.36 7.82H10ZM33.5 19.4286C33.5 17.536 31.925 16 30 16C28.075 16 26.5 17.536 26.5 19.4286V22.8571C20.69 22.8571 16 27.4617 16 33.1429C16 38.824 20.69 43.4286 26.5 43.4286H33.5C35.425 43.4286 37 44.9646 37 46.8571C37 48.7497 35.425 50.2857 33.5 50.2857H21.25C19.325 50.2857 17.75 51.8217 17.75 53.7143C17.75 55.6069 19.325 57.1429 21.25 57.1429H26.5V60.5714C26.5 62.464 28.075 64 30 64C31.925 64 33.5 62.464 33.5 60.5714V57.1429C39.31 57.1429 44 52.5383 44 46.8571C44 41.176 39.31 36.5714 33.5 36.5714H26.5C24.575 36.5714 23 35.0354 23 33.1429C23 31.2503 24.575 29.7143 26.5 29.7143H38.75C40.675 29.7143 42.25 28.1783 42.25 26.2857C42.25 24.3931 40.675 22.8571 38.75 22.8571H33.5V19.4286Z" fill="currentColor"/>
</g>
</svg>
