<svg width="80" height="80" viewBox="0 0 80 80" fill="none" xmlns="http://www.w3.org/2000/svg">
<g id="Icons=Clients">
<path id="Fill 4" fill-rule="evenodd" clip-rule="evenodd" d="M28 32C23.6 32 20 28.42 20 24C20 19.58 23.6 16 28 16C32.4 16 36 19.58 36 24C36 28.42 32.4 32 28 32ZM52 44C56.4 44 60 40.42 60 36C60 31.58 56.4 28 52 28C47.6 28 44 31.58 44 36C44 40.42 47.6 44 52 44ZM28 40C21.36 40 16 45.372 16 52V56.572V68C16 70.208 14.2 72 12 72C9.8 72 8 70.208 8 68V56.572V52C8 45.104 11.48 39.024 16.8 35.428C13.84 32.524 12 28.476 12 24C12 15.164 19.16 8 28 8C36.244 8 43 14.212 43.884 22.2C46.28 20.8 49.04 20 52 20C60.84 20 68 27.164 68 36C68 39.692 66.756 43.088 64.64 45.796C69.04 48.236 72 52.912 72 58.284V68C72 70.208 70.2 72 68 72C65.8 72 64 70.208 64 68V58.284C64 54.816 61.2 52 57.72 52H52H48V56.572V68C48 70.208 46.2 72 44 72C41.8 72 40 70.208 40 68V56.572V52C40 45.372 34.64 40 28 40Z" fill="currentColor"/>
</g>
</svg>
