<?xml version="1.0" standalone="no"?>
<!DOCTYPE svg PUBLIC "-//W3C//DTD SVG 20010904//EN"
 "http://www.w3.org/TR/2001/REC-SVG-20010904/DTD/svg10.dtd">
<svg version="1.0" xmlns="http://www.w3.org/2000/svg"
 width="72.000000pt" height="85.000000pt" viewBox="0 0 72.000000 85.000000"
 preserveAspectRatio="xMidYMid meet">

<g transform="translate(0.000000,85.000000) scale(0.100000,-0.100000)"
fill="#000000" stroke="none">
<path d="M186 172 c8 -19 13 -36 12 -38 -17 -16 -83 -64 -89 -64 -4 0 -14 28
-21 62 -13 58 -17 63 -42 65 -20 1 -26 -2 -23 -12 3 -7 11 -40 18 -74 6 -33
17 -68 24 -77 20 -27 59 -19 117 25 l55 41 123 0 123 0 52 -39 c58 -44 70 -48
102 -37 24 8 26 14 43 91 6 28 13 58 16 68 5 15 1 18 -22 15 -25 -3 -29 -9
-41 -62 -7 -33 -15 -62 -18 -64 -4 -4 -95 58 -95 65 0 2 7 17 15 33 l15 29
-30 -2 c-19 -1 -32 -9 -36 -19 -5 -16 -20 -18 -124 -18 -108 0 -119 2 -125 19
-3 11 -18 21 -35 23 l-29 4 15 -34z"/>
<path d="M287 29 c-33 -19 -6 -29 79 -29 83 0 103 9 65 30 -25 13 -121 13
-144 -1z"/>
</g>
</svg>
