<?xml version="1.0" encoding="UTF-8"?>
<!DOCTYPE svg PUBLIC "-//W3C//DTD SVG 1.1//EN" "http://www.w3.org/Graphics/SVG/1.1/DTD/svg11.dtd">
<!-- Creator: CorelDRAW 2020 (64-Bit) -->
<svg xmlns="http://www.w3.org/2000/svg" xml:space="preserve" width="155px" height="200px" version="1.1" style="shape-rendering:geometricPrecision; text-rendering:geometricPrecision; image-rendering:optimizeQuality; fill-rule:evenodd; clip-rule:evenodd"
viewBox="0 0 37.33 48.07"
 xmlns:xlink="http://www.w3.org/1999/xlink"
 xmlns:xodm="http://www.corel.com/coreldraw/odm/2003">
 <defs>
  <style type="text/css">
   <![CDATA[
    .str1 {stroke:#177BFC;stroke-width:2.41;stroke-miterlimit:22.9256}
    .str0 {stroke:#F3781F;stroke-width:2.41;stroke-miterlimit:22.9256}
    .fil0 {fill:none}
   ]]>
  </style>
 </defs>
 <g id="Layer_x0020_1">
  <metadata id="CorelCorpID_0Corel-Layer"/>
  <path class="fil0 str0" d="M9.19 16.61l4.71 4.58 -1.05 6.55c0.64,-0.22 5.57,-3.05 5.84,-3.07 0.15,-0.01 3.77,1.9 4.42,2.23 0.44,0.22 1.02,0.59 1.48,0.75l-1.14 -6.52 4.09 -4.04c0.15,-0.15 0.49,-0.43 0.57,-0.61 -0.2,-0.1 -5.19,-0.76 -6.19,-0.88 -0.46,-0.06 -0.37,-0.13 -0.56,-0.5 -0.68,-1.39 -2.22,-4.26 -2.73,-5.46l-0.12 0.15c-0.03,0.05 -0.06,0.12 -0.08,0.17l-2.49 5.14c-0.31,0.65 -0.04,0.46 -1.37,0.66 -0.85,0.13 -5.14,0.74 -5.38,0.85z"/>
  <circle class="fil0 str1" cx="18.67" cy="18.67" r="17.46"/>
  <path class="fil0 str1" d="M7.59 32.59c6.9,4.41 13.98,4.37 21.22,0.27l0.08 13.41 -10.62 -4.37 -10.6 4.37 -0.08 -13.68z"/>
 </g>
</svg>
