<?xml version="1.0" standalone="no"?>
<!DOCTYPE svg PUBLIC "-//W3C//DTD SVG 20010904//EN"
 "http://www.w3.org/TR/2001/REC-SVG-20010904/DTD/svg10.dtd">
<svg version="1.0" xmlns="http://www.w3.org/2000/svg"
 width="90.000000pt" height="72.000000pt" viewBox="0 0 90.000000 72.000000"
 preserveAspectRatio="xMidYMid meet">

<g transform="translate(0.000000,72.000000) scale(0.100000,-0.100000)"
fill="#000000" stroke="none">
<path d="M340 178 c0 -4 18 -11 40 -14 l40 -7 0 -48 0 -49 -43 0 c-55 0 -87
-21 -68 -44 18 -22 262 -24 280 -2 19 23 -13 46 -65 46 l-44 0 0 49 0 48 39 7
c78 12 48 23 -64 22 -63 0 -115 -3 -115 -8z"/>
</g>
</svg>
