<svg width="14" height="21" viewBox="0 0 14 21" fill="none" xmlns="http://www.w3.org/2000/svg">
<path fill-rule="evenodd" clip-rule="evenodd" d="M0 2.5C0 1.39543 0.89543 0.5 2 0.5H12C13.1046 0.5 14 1.39543 14 2.5V18.5C14 19.6046 13.1046 20.5 12 20.5H2C0.89543 20.5 0 19.6046 0 18.5V17.9835V13.6V3.22318V2.5ZM12 18.5H5.87192L7.78783 17.6789C8.5232 17.3637 8.99999 16.6407 8.99999 15.8406V6.08032C8.99999 5.36261 8.61542 4.69992 7.99227 4.34384L4.76556 2.5L12 2.5L12 18.5ZM2 13.6V3.22318L6.99999 6.08032L6.99999 15.8406L2 17.9835V13.6ZM5 9.5C4.44772 9.5 4 9.94772 4 10.5C4 11.0523 4.44772 11.5 5 11.5C5.55228 11.5 6 11.0523 6 10.5C6 9.94772 5.55228 9.5 5 9.5Z" fill="currentColor"/>
</svg>
