<?xml version="1.0" standalone="no"?>
<!DOCTYPE svg PUBLIC "-//W3C//DTD SVG 20010904//EN"
 "http://www.w3.org/TR/2001/REC-SVG-20010904/DTD/svg10.dtd">
<svg version="1.0" xmlns="http://www.w3.org/2000/svg"
 width="60.000000pt" height="60.000000pt" viewBox="0 0 60.000000 60.000000"
 preserveAspectRatio="xMidYMid meet">

<g transform="translate(0.000000,60.000000) scale(0.100000,-0.100000)"
fill="#000000" stroke="none">
<path d="M230 587 c-14 -7 -31 -27 -39 -45 -14 -31 -16 -32 -77 -32 -69 0 -97
-17 -74 -45 7 -8 21 -15 31 -15 17 0 18 -14 21 -200 4 -262 -10 -245 208 -245
218 0 204 -17 208 245 3 186 4 200 21 200 10 0 24 7 31 15 23 28 -5 45 -74 45
-61 0 -63 1 -77 32 -17 40 -50 58 -109 58 -25 0 -56 -6 -70 -13z m128 -64 c3
-10 -13 -13 -57 -13 -57 0 -71 6 -54 24 12 12 106 2 111 -11z m90 -265 l-3
-193 -145 0 -145 0 -3 193 -2 192 150 0 150 0 -2 -192z"/>
<path d="M220 345 c-11 -13 -9 -21 9 -45 l22 -30 -23 -30 c-21 -28 -21 -31 -5
-47 16 -16 19 -16 47 5 l30 23 30 -23 c28 -21 31 -21 47 -5 16 16 16 19 -5 47
l-23 30 23 30 c21 28 21 31 5 47 -16 16 -19 16 -47 -6 l-31 -22 -26 20 c-31
25 -37 26 -53 6z"/>
</g>
</svg>
