<svg xmlns="http://www.w3.org/2000/svg" xmlns:xlink="http://www.w3.org/1999/xlink" width="48" height="48" viewBox="0 0 48 48">
    <defs>
        <linearGradient id="xit3jhasma" x1="50%" x2="50%" y1="100%" y2=".001%">
            <stop offset="0%" stop-color="#1E64FF"/>
            <stop offset="99.96%" stop-color="#00CCF0"/>
        </linearGradient>
        <linearGradient id="qqrtvql6qb" x1="50%" x2="50%" y1="99.999%" y2="0%">
            <stop offset="0%" stop-color="#EF5921"/>
            <stop offset="100%" stop-color="#F6911D"/>
        </linearGradient>
        <linearGradient id="ccxirvrbuc" x1="50%" x2="50%" y1="99.999%" y2="0%">
            <stop offset="0%" stop-color="#EF5921"/>
            <stop offset="100%" stop-color="#F6911D"/>
        </linearGradient>
        <linearGradient id="9jltyhvyte" x1="50%" x2="50%" y1="99.999%" y2="0%">
            <stop offset="0%" stop-color="#EF5921"/>
            <stop offset="100%" stop-color="#F6911D"/>
        </linearGradient>
        <path id="lmq264v1kd" d="M1.9 25.3H1v-2.8h.9c.6 0 1 .4 1 1v.8c0 .6-.4 1-1 1z"/>
    </defs>
    <g fill="none" fill-rule="evenodd">
        <g>
            <g>
                <g>
                    <g>
                        <g>
                            <g>
                                <g transform="translate(-168 -528) translate(0 198) translate(0 180) translate(20 20) translate(118 130) translate(30) translate(0 6)">
                                    <path fill="#FFD15C" fill-rule="nonzero" d="M46 23.1v5.3c0 1.1-.9 2-2 2H3c-1.1 0-2-.9-2-2V20c0-.9.2-1.7.6-2.5l2.6-4.7c1.4-2.5 3.9-4 6.7-4h5.8v14.3H46z"/>
                                    <path fill="url(#xit3jhasma)" d="M1 30.4c-.6 0-1-.5-1-1v-1.3c0-.6.4-1 1-1V20c0-.9.2-1.7.6-2.5l2.6-4.7c1.4-2.5 3.9-4 6.7-4h5.8v14.3H46v4c.6 0 1 .4 1 1v1.3c0 .5-.4 1-1 1H1z"/>
                                    <path fill="#FFF" fill-rule="nonzero" d="M14.2 18.6v-7.2H11c-1.9 0-3.6 1-4.5 2.6L4 18.6h10.2z"/>
                                    <path fill="url(#qqrtvql6qb)" d="M46 .2H18.7c-1.1 0-2 .9-2 2V23H46c1.1 0 2-.9 2-2V2.2c0-1.1-.9-2-2-2z"/>
                                    <g>
                                        <use fill="url(#ccxirvrbuc)" xlink:href="#lmq264v1kd"/>
                                        <use fill="#FFF" fill-opacity=".6" xlink:href="#lmq264v1kd"/>
                                    </g>
                                    <circle cx="37.5" cy="30.4" r="5.4" fill="url(#9jltyhvyte)"/>
                                    <circle cx="37.5" cy="30.4" r="2.3" fill="#FFF" fill-rule="nonzero"/>
                                    <circle cx="9.9" cy="30.4" r="5.4" fill="url(#9jltyhvyte)"/>
                                    <circle cx="9.9" cy="30.4" r="2.3" fill="#FFF" fill-rule="nonzero"/>
                                </g>
                            </g>
                        </g>
                    </g>
                </g>
            </g>
        </g>
    </g>
</svg>
