<svg xmlns="http://www.w3.org/2000/svg" width="48" height="48" viewBox="0 0 48 48">
    <defs>
        <linearGradient id="5cyefkktma" x1="50%" x2="50%" y1="100%" y2=".001%">
            <stop offset="0%" stop-color="#1E64FF"/>
            <stop offset="99.96%" stop-color="#00CCF0"/>
        </linearGradient>
        <linearGradient id="0uckfguhnb" x1="50%" x2="50%" y1="100%" y2=".001%">
            <stop offset="0%" stop-color="#1E64FF"/>
            <stop offset="99.96%" stop-color="#00CCF0"/>
        </linearGradient>
        <linearGradient id="53brs3dtkc" x1="50%" x2="50%" y1="100%" y2=".001%">
            <stop offset="0%" stop-color="#1E64FF"/>
            <stop offset="99.96%" stop-color="#00CCF0"/>
        </linearGradient>
        <linearGradient id="xswgqrv7bd" x1="50%" x2="50%" y1="100%" y2=".001%">
            <stop offset="0%" stop-color="#1E64FF"/>
            <stop offset="99.96%" stop-color="#00CCF0"/>
        </linearGradient>
        <linearGradient id="gy2bhemsbe" x1="50%" x2="50%" y1="99.999%" y2="0%">
            <stop offset="0%" stop-color="#EF5921"/>
            <stop offset="100%" stop-color="#F6911D"/>
        </linearGradient>
        <linearGradient id="38tyi2f7af" x1="50%" x2="50%" y1="100%" y2=".001%">
            <stop offset="0%" stop-color="#1E64FF"/>
            <stop offset="99.96%" stop-color="#00CCF0"/>
        </linearGradient>
    </defs>
    <g fill="none" fill-rule="evenodd">
        <g>
            <g>
                <g>
                    <g>
                        <g>
                            <g>
                                <g>
                                    <path fill="url(#5cyefkktma)" d="M1.6 46.2C.7 43.8.2 39 4.7 30.5c2.1-4 3.4-8.3 3.9-12.8.2-1.4.3-3 .3-4.6h10s-.1 9.1 3.9 15.5c4.1 7.5 3 14.1 2.1 17.3-.4 1.2-1.5 2.1-2.8 2.1H4.2C3 48 2 47.3 1.6 46.2z" opacity=".2" transform="translate(-168 -398) translate(0 198) translate(0 180) translate(20 20) translate(123) translate(25) translate(11)"/>
                                    <path fill="url(#0uckfguhnb)" d="M21.3 29.7v6.2H7v-6.2c5.5 1.6 9.5-5.2 14.3 0z" transform="translate(-168 -398) translate(0 198) translate(0 180) translate(20 20) translate(123) translate(25) translate(11)"/>
                                    <path fill="url(#53brs3dtkc)" d="M7 29.7c-.2.5-.5 1-.8 1.6-4.3 8.1-3.7 12.4-3 14.2.2.4.6.7 1 .7h17.9c.5 0 .9-.3 1-.8.9-3 1.7-8.9-1.9-15.7-6 4.5-9.3-7.3-14.2 0z" transform="translate(-168 -398) translate(0 198) translate(0 180) translate(20 20) translate(123) translate(25) translate(11)"/>
                                    <path fill="url(#xswgqrv7bd)" d="M3.2 13.6s1.7-3.7 1.5-7.4c0-.3 0-.6.2-.9.3-.5 1-1.1 2.7-.7l5.5 1.3-.7 1.9H6.5s-.5 3.6-3.3 5.8z" transform="translate(-168 -398) translate(0 198) translate(0 180) translate(20 20) translate(123) translate(25) translate(11)"/>
                                    <path fill="url(#gy2bhemsbe)" d="M17.6 9.8v3.3h-7.4V9.8h7.4zM17.4 0c.6 0 1.1.2 1.5.6l2.2 2.2c.7.7.6 1.8-.2 2.3l-2.7 1.7c-1 .7-1.6 1.8-1.6 3h-5.8c0-.8-.2-1.6-.6-2.2-.356-.622-.87-1.086-1.47-1.463L8.5 6c-1.7-.8-3.4-1.5-5.2-2h-.1V0h14.2z" transform="translate(-168 -398) translate(0 198) translate(0 180) translate(20 20) translate(123) translate(25) translate(11)"/>
                                    <path fill="url(#38tyi2f7af)" d="M3.2 4L0.3 3.3 0.3 0.6 3.2 0z" transform="translate(-168 -398) translate(0 198) translate(0 180) translate(20 20) translate(123) translate(25) translate(11)"/>
                                </g>
                            </g>
                        </g>
                    </g>
                </g>
            </g>
        </g>
    </g>
</svg>
