<svg width="16" height="20" viewBox="0 0 16 20" fill="none" xmlns="http://www.w3.org/2000/svg">
<path fill-rule="evenodd" clip-rule="evenodd" d="M9 2.36536L8 2.36303H7H2.5C2.22386 2.36303 2 2.57622 2 2.8392V15.2235V15.6838V16.7058V17.0379C2 17.5039 2.63021 17.6925 2.91011 17.3103L3.10959 17.0379L3.72346 16.1997L4 15.8221L4.07396 15.7211C4.43412 15.2293 5.17616 15.173 5.61352 15.6043L7.61164 17.5749C7.81876 17.7791 8.16636 17.7664 8.35648 17.5477L9.99227 15.6656C10.3944 15.203 11.1403 15.2059 11.5383 15.6718L12 16.2122L12.2155 16.4644L12.8554 17.2134L13.1122 17.5139C13.4092 17.8615 14 17.6615 14 17.2134V16.8259V15.8604V15.5352V2.85204C14 2.58951 13.7769 2.37651 13.5012 2.37587L9 2.36536ZM13.5061 0.47116L8.0049 0.458313H8H2.5C1.11929 0.458313 0 1.52428 0 2.8392V17.0379C0 19.3678 3.15102 20.311 4.55055 18.3999L5.01912 17.7601L6.17295 18.898C7.20855 19.9193 8.94658 19.8559 9.89716 18.7622L10.756 17.7741L11.5608 18.7161C13.0458 20.4541 16 19.4541 16 17.2134V2.85204C16 1.53939 14.8844 0.474378 13.5061 0.47116ZM8.99976 5.22009C8.99976 4.69412 8.55204 4.26774 7.99976 4.26774C7.44747 4.26774 6.99976 4.69412 6.99976 5.22009V5.55943C5.86915 5.71332 5 6.63928 5 7.75856C5 8.98551 6.0444 9.98015 7.33273 9.98015H8.6691C8.85286 9.98015 9.00183 10.122 9.00183 10.297C9.00183 10.472 8.85286 10.6139 8.6691 10.6139H6.33349C5.7812 10.6139 5.33349 11.0403 5.33349 11.5663C5.33349 12.0922 5.7812 12.5186 6.33349 12.5186H6.99976V12.8355C6.99976 13.3615 7.44747 13.7879 7.99976 13.7879C8.55204 13.7879 8.99976 13.3615 8.99976 12.8355V12.4965C10.1315 12.3435 11.0018 11.4171 11.0018 10.297C11.0018 9.07008 9.95743 8.07544 8.6691 8.07544H7.33273C7.14897 8.07544 7 7.93357 7 7.75856C7 7.58356 7.14897 7.44168 7.33273 7.44168H9.66834C10.2206 7.44168 10.6683 7.0153 10.6683 6.48933C10.6683 5.96336 10.2206 5.53697 9.66834 5.53697H8.99976V5.22009Z" fill="currentColor"/>
</svg>
