<svg xmlns="http://www.w3.org/2000/svg" width="48" height="48" viewBox="0 0 48 48">
    <defs>
        <linearGradient id="e4uxgb0nya" x1="50%" x2="50%" y1="99.999%" y2="0%">
            <stop offset="0%" stop-color="#EF5921"/>
            <stop offset="100%" stop-color="#F6911D"/>
        </linearGradient>
        <linearGradient id="0645ymg68b" x1="50%" x2="50%" y1="100%" y2=".001%">
            <stop offset="0%" stop-color="#1E64FF"/>
            <stop offset="99.96%" stop-color="#00CCF0"/>
        </linearGradient>
    </defs>
    <g fill="none" fill-rule="evenodd">
        <g>
            <g>
                <g>
                    <g>
                        <g>
                            <g>
                                <path fill="url(#e4uxgb0nya)" d="M30.838 25.318l2.024-4.833-2.922-2.753c.074-.826.078-1.637.006-2.448l2.949-2.743-1.982-4.843-4.026.113c-.517-.629-1.089-1.205-1.721-1.741l.151-4.012L20.485.033l-2.754 2.923c-.824-.075-1.637-.079-2.447-.007L12.541 0 7.698 1.982 7.815 6c-.628.517-1.218 1.094-1.744 1.73l-4.013-.153L.032 12.41l2.924 2.754c-.084.821-.083 1.646-.012 2.457L0 20.355l1.983 4.842 4.025-.113c.518.629 1.089 1.205 1.721 1.741l-.152 4.013 4.832 2.025 2.755-2.923c.825.074 1.637.078 2.448.006l2.742 2.95 4.842-1.983-.111-4.026c.628-.518 1.204-1.09 1.74-1.722l4.013.153zm-17.08-2.451c-3.543-1.485-5.214-5.566-3.729-9.109 1.485-3.543 5.566-5.214 9.109-3.73 3.543 1.485 5.215 5.566 3.729 9.11-1.484 3.543-5.566 5.214-9.109 3.729" transform="translate(-50 -295) translate(0 -145) translate(0 160) translate(20 20) translate(9 260) translate(21)"/>
                                <path fill="url(#0645ymg68b)" d="M38.185 24.715l.982 2.621c.551.174 1.073.39 1.575.655l2.56-1.157 2.578 2.579-1.156 2.559c.264.502.48 1.025.654 1.576l2.622.983v3.653l-2.623.983c-.174.551-.389 1.074-.654 1.575l1.156 2.559-2.578 2.58-2.56-1.158c-.502.265-1.024.481-1.575.656L38.184 48H34.53l-.982-2.621c-.551-.175-1.074-.391-1.576-.656l-2.559 1.158-2.579-2.58 1.157-2.552c-.265-.502-.488-1.031-.655-1.582l-2.622-.983v-3.653l2.622-.983c.167-.551.389-1.081.655-1.583l-1.157-2.552 2.579-2.579 2.559 1.157c.502-.265 1.025-.481 1.576-.655l.982-2.621h3.655zm-1.828 5.937c-3.149 0-5.706 2.556-5.706 5.705 0 3.15 2.557 5.706 5.706 5.706 3.15 0 5.706-2.556 5.706-5.706 0-3.149-2.557-5.705-5.706-5.705zm0 3.215c1.374 0 2.489 1.116 2.489 2.49s-1.115 2.49-2.489 2.49c-1.374 0-2.49-1.116-2.49-2.49s1.116-2.49 2.49-2.49z" transform="translate(-50 -295) translate(0 -145) translate(0 160) translate(20 20) translate(9 260) translate(21)"/>
                            </g>
                        </g>
                    </g>
                </g>
            </g>
        </g>
    </g>
</svg>
