<svg xmlns="http://www.w3.org/2000/svg" width="48" height="48" viewBox="0 0 48 48">
    <defs>
        <linearGradient id="t6ubvzlq8a" x1="50%" x2="50%" y1="99.999%" y2="0%">
            <stop offset="0%" stop-color="#EF5921"/>
            <stop offset="100%" stop-color="#F6911D"/>
        </linearGradient>
        <linearGradient id="qvqdpyebib" x1="50%" x2="50%" y1="100%" y2=".001%">
            <stop offset="0%" stop-color="#1E64FF"/>
            <stop offset="99.96%" stop-color="#00CCF0"/>
        </linearGradient>
    </defs>
    <g fill="none" fill-rule="evenodd">
        <g>
            <g>
                <g>
                    <g>
                        <g>
                            <g>
                                <g>
                                    <path fill="#FF7058" fill-rule="nonzero" d="M1.75 18.833c-.25-.416-.417-.833-.667-1.25.25.417.417.834.667 1.25z" transform="translate(-50 -528) translate(0 198) translate(0 180) translate(20 20) translate(9 130) translate(21) translate(4 6)"/>
                                    <path fill="url(#t6ubvzlq8a)" d="M.583 16.25H8.25c.417 0 .833.25 1.083.583l2.834 4.417 4.75-9.667c.25-.5.833-.833 1.333-.75.583.084 1 .5 1.083 1.084l1.917 11.75 4.583-17.25c.167-.5.584-.917 1.084-1 .5-.084 1.083.25 1.333.666L33.5 16.25h5.917l-.5 1.25C39.583 16 40 14.5 40 13.083 40 5.833 34.667 0 28.167 0 25 0 22.083 1.333 20 3.583 17.917 1.333 15 0 11.833 0 5.333 0 0 5.833 0 13.083 0 14.5.417 16 1.083 17.5l-.5-1.25z" transform="translate(-50 -528) translate(0 198) translate(0 180) translate(20 20) translate(9 130) translate(21) translate(4 6)"/>
                                    <path fill="url(#qvqdpyebib)" d="M38.25 18.833c.25-.416.417-.833.583-1.25-.166.417-.333.834-.583 1.25zm-5.5 0c-.5 0-.917-.25-1.167-.666L27.5 10.333 22.25 30.25c-.167.583-.667 1-1.25 1h-.083c-.584 0-1.084-.5-1.25-1.083l-2.25-13.75L13.5 24.5c-.167.417-.583.667-1.083.75-.5 0-.917-.167-1.167-.583L7.5 18.833H1.75C6.667 27.667 20 36.667 20 36.667s13.417-8.917 18.25-17.834h-5.5z" transform="translate(-50 -528) translate(0 198) translate(0 180) translate(20 20) translate(9 130) translate(21) translate(4 6)"/>
                                </g>
                            </g>
                        </g>
                    </g>
                </g>
            </g>
        </g>
    </g>
</svg>
