<svg width="80" height="80" viewBox="0 0 80 80" fill="none" xmlns="http://www.w3.org/2000/svg">
<g id="Icons=Invoices">
<g id="Group 3">
<mask id="mask0_12:163" style="mask-type:alpha" maskUnits="userSpaceOnUse" x="4" y="0" width="72" height="80">
<path id="Clip 2" fill-rule="evenodd" clip-rule="evenodd" d="M4 0H76V79.9992H4V0Z" fill="white"/>
</mask>
<g mask="url(#mask0_12:163)">
<path id="Fill 1" fill-rule="evenodd" clip-rule="evenodd" d="M28 51.9992C25.8 51.9992 24 53.7912 24 55.9992C24 58.2072 25.8 59.9992 28 59.9992H52C54.2 59.9992 56 58.2072 56 55.9992C56 53.7912 54.2 51.9992 52 51.9992H28ZM24 39.9992C24 37.7912 25.8 35.9992 28 35.9992H52C54.2 35.9992 56 37.7912 56 39.9992C56 42.2072 54.2 43.9992 52 43.9992H28C25.8 43.9992 24 42.2072 24 39.9992ZM28 19.9992C25.8 19.9992 24 21.7912 24 23.9992C24 26.2072 25.8 27.9992 28 27.9992H48C50.2 27.9992 52 26.2072 52 23.9992C52 21.7912 50.2 19.9992 48 19.9992H28ZM55.2 9.38721L60.36 15.3832L67 22.8632C67.64 23.5952 68 24.5392 68 25.5152V39.9992V67.9992C68 70.2072 66.2 71.9992 64 71.9992H16C13.8 71.9992 12 70.2072 12 67.9992V11.9992C12 9.79121 13.8 7.99921 16 7.99921H40H52.16C53.32 7.99921 54.44 8.50721 55.2 9.38721ZM16 79.9992H64C70.64 79.9992 76 74.6272 76 67.9992V39.9992V25.5152C76 22.5832 74.92 19.7512 73 17.5552L66.4 10.1192L61.24 4.16721C58.96 1.51921 55.64 -0.000793457 52.16 -0.000793457H40H16C9.36 -0.000793457 4 5.37121 4 11.9992V67.9992C4 74.6272 9.36 79.9992 16 79.9992Z" fill="currentColor"/>
</g>
</g>
</g>
</svg>
