<svg width="80" height="80" viewBox="0 0 80 80" fill="none" xmlns="http://www.w3.org/2000/svg">
<g id="Icons=Signout">
<g id="Interface 12 - 24px">
<path id="Shape" fill-rule="evenodd" clip-rule="evenodd" d="M61.0103 58.634C59.5556 60.2964 57.0285 60.4652 55.366 59.0104C53.7035 57.5556 53.535 55.0284 54.9897 53.366L63.1849 44H24C21.7908 44 20 42.2092 20 40C20 37.7908 21.7908 36 24 36H63.1849L54.9897 26.634C53.535 24.9715 53.7035 22.4444 55.366 20.9897C57.0285 19.535 59.5556 19.7034 61.0103 21.366L75.0103 37.366C76.3299 38.874 76.3299 41.126 75.0103 42.634L61.0103 58.634ZM24 8C26.2092 8 28 6.20912 28 4C28 1.79088 26.2092 0 24 0L12 0C7.58161 0 4.00002 3.58172 4.00002 8V72C4.00002 76.4184 7.58161 80 12 80H24C26.2092 80 28 78.2092 28 76C28 73.7908 26.2092 72 24 72H12L12 8H24Z" fill="currentColor"/>
</g>
</g>
</svg>
