<svg width="20" height="20" viewBox="0 0 20 20" fill="none" xmlns="http://www.w3.org/2000/svg">
<path fill-rule="evenodd" clip-rule="evenodd" d="M13.3354 1.25982C13.404 0.735391 13.9257 0.360963 14.5007 0.423511L14.3765 1.37307C14.5007 0.423511 14.5014 0.423588 14.5021 0.423667L14.5036 0.423831L14.5067 0.424184L14.5136 0.424989L14.5301 0.427028C14.5421 0.428588 14.5564 0.430565 14.5729 0.433046C14.6058 0.438005 14.6473 0.444988 14.6964 0.45469C14.7946 0.474073 14.9239 0.504449 15.0765 0.551513C15.3814 0.645607 15.7821 0.80737 16.2107 1.08305C17.0856 1.64583 18.0043 2.63708 18.5003 4.32537C18.6502 4.83552 18.3183 5.35989 17.7589 5.49658C17.1996 5.63327 16.6246 5.33053 16.4748 4.82038C16.1024 3.55282 15.4656 2.94417 15.0021 2.64601C14.7614 2.49121 14.5472 2.40725 14.4045 2.36323C14.3332 2.34124 14.2806 2.32946 14.2527 2.32396C14.2432 2.32208 14.2366 2.32095 14.2333 2.3204C13.6683 2.24956 13.2676 1.77845 13.3354 1.25982ZM7.75597 1.01079C6.63729 1.28417 5.97341 2.33291 6.27316 3.35321L6.36576 3.66839C4.22893 5.00596 3.14097 7.47223 3.84995 9.88545L4.8268 13.2104L3.79219 15.6651C3.50918 16.3366 3.66322 17.0961 4.19085 17.6308C4.71847 18.1655 5.53045 18.385 6.29231 18.1988L11.3585 16.9607L13.3841 16.4657C13.534 16.9758 13.2022 17.5008 12.6429 17.6375C12.0835 17.7742 11.5084 17.4708 11.3585 16.9607L9.33316 17.4563C9.78278 18.9867 11.5076 19.895 13.1856 19.4849C14.8636 19.0748 15.8595 17.5017 15.4098 15.9713L18.4457 15.2287C19.2075 15.0425 19.7904 14.4822 19.9542 13.7785C20.118 13.0748 19.835 12.3468 19.2218 11.8944L16.9802 10.2404L16.0033 6.91538C15.2944 4.50237 13.0005 2.86274 10.4169 2.67857L10.3243 2.36318C10.0245 1.34289 8.87466 0.737398 7.75597 1.01079ZM17.9029 13.3813L15.6612 11.7273C15.3167 11.4731 15.0693 11.1258 14.9546 10.7354L13.9777 7.41039C13.3782 5.3698 11.0785 4.15883 8.84113 4.7056C6.60376 5.25238 5.27601 7.34985 5.87551 9.39044L6.85235 12.7154C6.96706 13.1059 6.94319 13.5194 6.78417 13.8967L5.74957 16.3514L17.9029 13.3813ZM1.59637 3.57743C2.06004 3.26105 2.71714 3.34739 3.06403 3.77029C3.40708 4.18851 3.31828 4.77926 2.86781 5.09827C2.86526 5.10024 2.86021 5.1042 2.85298 5.11018C2.83186 5.12766 2.79272 5.16187 2.74305 5.21342C2.64363 5.31659 2.5041 5.48702 2.38056 5.73082C2.14259 6.2004 1.92479 7.0179 2.29718 8.28547C2.44706 8.79562 2.11512 9.31998 1.55578 9.45668C0.996435 9.59337 0.4215 9.29063 0.271625 8.78048C-0.224375 7.09219 0.0278543 5.81477 0.477021 4.92841C0.697044 4.49423 0.955353 4.17142 1.16788 3.95086C1.27418 3.84054 1.36955 3.75525 1.44394 3.6937C1.48117 3.66289 1.51328 3.63792 1.53905 3.61862C1.55193 3.60897 1.56325 3.60073 1.57285 3.59387L1.58595 3.58462L1.5915 3.58077L1.59402 3.57904L1.59522 3.57822C1.5958 3.57782 1.59637 3.57743 2.22447 4.34315L1.59637 3.57743Z" fill="currentColor"/>
</svg>
