<?xml version="1.0" encoding="UTF-8"?>
<!DOCTYPE svg PUBLIC "-//W3C//DTD SVG 1.1//EN" "http://www.w3.org/Graphics/SVG/1.1/DTD/svg11.dtd">
<!-- Creator: CorelDRAW 2020 (64-Bit) -->
<svg xmlns="http://www.w3.org/2000/svg" xml:space="preserve" width="509px" height="442px" version="1.1" style="shape-rendering:geometricPrecision; text-rendering:geometricPrecision; image-rendering:optimizeQuality; fill-rule:evenodd; clip-rule:evenodd"
viewBox="0 0 1009.55 876.6"
 xmlns:xlink="http://www.w3.org/1999/xlink"
 xmlns:xodm="http://www.corel.com/coreldraw/odm/2003">
 <defs>
  <style type="text/css">
   <![CDATA[
    .str0 {stroke:currentColor;stroke-width:32.74;stroke-miterlimit:22.9256}
    .fil1 {fill:none}
    .fil0 {fill:currentColor}
   ]]>
  </style>
 </defs>
 <g id="Layer_x0020_1">
  <metadata id="CorelCorpID_0Corel-Layer"/>
  <g id="_1636474923936">
   <path class="fil0" d="M916.29 593.33l-99.22 0c2.16,-9.3 11.65,-25.05 15.88,-35.72 12.62,-31.81 24.32,-66.3 27.46,-101.52 2.31,-25.88 -17.78,-19.53 101.52,-19.53 0,45.41 -21.08,120.09 -45.64,156.77zm-331.99 -593.33l27.54 0c75.23,2.6 149.6,26.44 217.14,71.44 11.03,7.35 19.57,13.9 29.78,21.81l26.28 23.33c52.97,53.29 93.54,118.05 111.83,191.78 11.04,44.54 12.53,62.4 12.68,96.2l0 25.5 0 2.53c0,82.91 -37.25,170.33 -83.61,231.91 -22.62,30.05 -48.17,55.57 -78.53,78.23 -17.67,13.18 -80.59,54.52 -101.78,54.99 0,-54.43 -4.7,-46.43 17.86,-57.55 19.73,-9.72 41.14,-23.8 58.42,-36.83 18.47,-13.93 50.35,-44.05 62.63,-62.39l-99.22 0c-4.54,8.58 -29.44,44.89 -39.69,47.63 0,-151.97 0.81,-71.88 19.93,-101.12 13.24,-20.26 30.61,-62.5 37.39,-83.66 4.74,-14.83 12.13,-48.96 12.13,-67.24l-69.45 0 0 -45.64 67.47 0c0,-46.82 -26.77,-102.61 -48.3,-142.2 -3.5,-6.44 -7.4,-9.63 -9.25,-16.55l-134.94 0 0 85.33 -47.62 0 0 -85.33 -134.94 0 -22.53 40.97c-7.42,14.51 -12.01,30.88 -19.14,44.36l-47.63 0c1.65,-19.78 27.03,-68.9 35.72,-85.33l-107.15 0c-0.94,4.03 -31.67,60.47 -33.74,85.33l-49.61 0c1.86,-3.88 4.38,-14.18 5.52,-18.29 18.48,-66.66 67.75,-150.26 121.77,-193.75 4.62,-3.71 6.83,-6.53 11.6,-10.23 17.7,-13.71 33.63,-26.11 53.7,-37.59 63.22,-36.16 130.54,-55.34 197.74,-57.64zm224.83 232.17l107.16 0c1.38,5.17 22.36,42.94 30.49,70.72 7.31,25.04 15.15,57.03 15.15,88.03l-101.21 0c0,-51.1 -29.29,-116.6 -51.59,-158.75zm-188.52 -150.81c11.55,7.73 54.27,49.73 65.97,63.02l35.24 42.15 -101.21 0 0 -105.17zm-47.62 0l0 105.17 -101.2 0c7.94,-11.86 38.74,-45.7 48.12,-55.07 12.91,-12.9 38.58,-40.39 53.08,-50.1zm89.3 -27.78c17.74,0.39 53.82,12.8 68.6,18.71 21.85,8.73 40.49,18.07 59.54,29.75 17.69,10.84 36.86,24.31 50.92,38.38 9.93,9.95 9.65,5.21 22.2,21.46 7.25,9.4 14.03,14.27 20.99,24.65l-105.18 0c-6.58,-12.44 -17.19,-24.33 -26.05,-35.46 -4.57,-5.73 -9.12,-12.31 -14.11,-17.64l-29.82 -31.69c-5.91,-6.13 -8.38,-10.5 -14.84,-16.92 -10.13,-10.08 -24.92,-20.29 -32.25,-31.24zm-248.05 132.95l-105.17 0c8.55,-12.77 30.32,-33.19 42.15,-45.16 25.2,-25.49 76.16,-55.4 110.05,-68.54 15.51,-6.02 51.53,-18.84 70.05,-19.25l-90.16 96.37c-8.68,11.1 -20.69,24.81 -26.92,36.58z"/>
   <path class="fil0" d="M378.52 726.28c0,35.33 28.27,61.52 53.58,61.52 41.58,0 36.4,-9 55.56,-21.83 19.17,12.83 13.98,21.83 55.56,21.83 37.55,0 78.17,-58.92 35.29,-102.75 -18.74,-19.15 -48.47,-24.16 -71.71,-11.07 -8.71,4.91 -13.98,11.8 -21.12,16.58 -2.07,-7.73 -10.52,-12.35 -17.5,-16.23 -39.99,-22.24 -89.66,8.24 -89.66,51.95z"/>
  </g>
  <rect class="fil1 str0" x="16.37" y="419.69" width="635" height="440.53" rx="51.49" ry="35.72"/>
  <rect class="fil0" x="16.37" y="500.06" width="633.02" height="117.08"/>
 </g>
</svg>
