<svg width="20" height="16" viewBox="0 0 20 16" fill="none" xmlns="http://www.w3.org/2000/svg">
<path fill-rule="evenodd" clip-rule="evenodd" d="M18 7.04165C19.1046 7.04165 20 6.18353 20 5.12498V2.24998C20 1.19143 19.1046 0.333313 18 0.333313L16 0.333314L14 0.333314L6 0.333315L2 0.333314C0.895431 0.333314 -1.19209e-07 1.19143 0 2.24998L2.38419e-07 5.12498C3.57628e-07 6.18353 0.895432 7.04165 2 7.04165L4 7.04165L4 12.7916C4 14.3795 5.34315 15.6666 7 15.6666L13 15.6666C14.6569 15.6666 16 14.3795 16 12.7916L16 7.04165H18ZM4 2.24998L2 2.24998L2 5.12498L4 5.12498L4 2.24998ZM14 2.24998V4.16665V12.7916C14 13.3209 13.5523 13.75 13 13.75L9 13.75L9 2.24998H12L14 2.24998ZM7 2.24998L7 13.75C6.44772 13.75 6 13.3209 6 12.7916L6 4.16665V2.24998H7ZM16 2.24998V5.12498H18V2.24998L16 2.24998ZM12 11.8333C11.4477 11.8333 11 11.4043 11 10.875V7.04165C11 6.51238 11.4477 6.08331 12 6.08331C12.5523 6.08331 13 6.51237 13 7.04165V10.875C13 11.4043 12.5523 11.8333 12 11.8333Z" fill="currentColor"/>
</svg>
