<?xml version="1.0" encoding="iso-8859-1"?>
<!-- Uploaded to: SVG Repo, www.svgrepo.com, Generator: SVG Repo Mixer Tools -->
<!DOCTYPE svg PUBLIC "-//W3C//DTD SVG 1.1//EN" "http://www.w3.org/Graphics/SVG/1.1/DTD/svg11.dtd">
<svg fill="#000000" version="1.1" id="Capa_1" xmlns="http://www.w3.org/2000/svg" xmlns:xlink="http://www.w3.org/1999/xlink" 
	 width="800px" height="800px" viewBox="0 0 246.384 246.384"
	 xml:space="preserve">
<g>
	<path d="M204.282,99.954c-2.17,0-4.291,0.272-6.372,0.665l-0.065-0.236l-52.239,12.395l-5.071-15.583l7.838-24.102L127.85,58.194
		l-7.82-24.086H94.688L74.18,19.204L53.676,34.108H28.333l-7.826,24.086L0,73.092l7.832,24.102L0,121.283l20.507,14.89l7.826,24.098
		h25.349l20.504,14.907l13.491-9.812c3.269,8.435,9.753,14.776,18.238,17.555l6.948,30.476c1.052,4.623,3.839,8.547,7.849,11.065
		c2.858,1.797,6.097,2.719,9.383,2.719c1.324,0,2.651-0.142,3.972-0.449c9.528-2.163,15.505-11.691,13.3-21.361l-3.429-13.453
		l48.173,11.159c3.854,1.454,7.944,2.258,12.177,2.258c23.205,0,42.096-23.643,42.096-52.7
		C246.384,123.588,227.499,99.954,204.282,99.954z M57.627,148.189H37.14l-6.328-19.482l-16.564-12.037l6.324-19.481l-6.324-19.485
		l16.564-12.031l6.328-19.479h20.487l16.565-12.038L90.76,46.193h20.481l6.324,19.479l16.568,12.031l-6.324,19.485l5.976,18.388
		l-24.122,5.713c-12.022,2.701-24.101,13.293-24.343,30.837l-11.127,8.086L57.627,148.189z M97.38,152.658
		c0-11.958,8.05-17.999,15.01-19.565l59.554-14.124c-6.076,9.135-9.753,20.886-9.753,33.689c0,12.613,3.57,24.187,9.493,33.277
		l-59.561-13.784C103.033,170.425,97.38,162.948,97.38,152.658z M135.616,208.23c0.686,3.015-1.217,6.029-4.231,6.727
		c-1.454,0.331-2.953,0.071-4.218-0.721c-1.273-0.805-2.157-2.045-2.488-3.512l-5.595-24.541l11.591,2.678L135.616,208.23z
		 M204.282,193.252c-0.893,0-1.773-0.089-2.654-0.189l0.047-0.188l-6.324-1.467c-12.188-5.154-21.06-20.569-21.06-38.75
		c0-22.379,13.458-40.593,29.991-40.593c16.532,0,29.991,18.214,29.991,40.593C234.279,175.042,220.826,193.252,204.282,193.252z
		 M214.153,152.492c0.188,10.828-4.067,19.683-9.511,19.789c-5.438,0.083-9.989-8.617-10.196-19.458
		c-0.184-10.841,4.078-19.694,9.517-19.777C209.418,132.945,213.97,141.652,214.153,152.492z M47.75,97.374
		c1.386,1.188,2.081,3.118,2.081,5.763s-1.046,4.764-3.142,6.325c-2.092,1.569-4.92,2.344-8.491,2.344
		c-3.582,0-6.381-0.831-8.402-2.482c-2.009-1.652-3.091-4.02-3.23-7.069h5.701c0.06,1.501,0.606,2.65,1.641,3.46
		c1.022,0.819,2.45,1.218,4.291,1.218c1.895,0,3.366-0.307,4.418-0.914c1.052-0.605,1.593-1.448,1.593-2.529
		c0-1.073-0.381-1.854-1.144-2.361c-0.745-0.497-2.344-1.017-4.776-1.561c-4.492-1.005-7.495-2.09-9.008-3.251
		c-1.501-1.156-2.258-2.961-2.258-5.423c0-2.749,0.999-4.92,2.985-6.537c1.992-1.617,4.679-2.415,8.068-2.415
		c3.171,0,5.757,0.842,7.74,2.506c1.992,1.664,3.1,3.922,3.319,6.759h-5.763c-0.109-1.354-0.688-2.415-1.773-3.201
		c-1.079-0.792-2.483-1.186-4.206-1.186c-1.507,0-2.684,0.331-3.529,0.99c-0.848,0.656-1.271,1.587-1.271,2.767
		c0,0.848,0.44,1.501,1.33,1.956c0.872,0.473,2.725,1.017,5.568,1.641C43.604,95.098,46.364,96.171,47.75,97.374z M63.594,82.709
		h-3.425l-10.016,28.321h3.068h3.044l1.853-5.751H68.86l1.912,5.751h3.136h3.142L67.034,82.709H63.594z M59.752,100.394
		l3.765-11.372l3.759,11.372H59.752z M98.881,111.031H78.879V82.709h2.953h2.958v23.297h14.085v2.506L98.881,111.031L98.881,111.031
		z M122.519,111.031h-21.507V82.709h20.839v2.506v2.53h-14.925v6.002h13.849v2.423v2.444h-13.849v7.38h15.586v2.506L122.519,111.031
		L122.519,111.031z"/>
</g>
</svg>