<?xml version="1.0" standalone="no"?>
<!DOCTYPE svg PUBLIC "-//W3C//DTD SVG 20010904//EN"
 "http://www.w3.org/TR/2001/REC-SVG-20010904/DTD/svg10.dtd">
<svg version="1.0" xmlns="http://www.w3.org/2000/svg"
 width="78.000000pt" height="66.000000pt" viewBox="0 0 78.000000 66.000000"
 preserveAspectRatio="xMidYMid meet">

<g transform="translate(0.000000,66.000000) scale(0.100000,-0.100000)"
fill="#000000" stroke="none">
<path d="M393 167 c-7 -11 -301 -108 -325 -107 -5 0 -8 25 -8 55 0 55 0 55
-30 53 -29 -2 -30 -3 -30 -56 0 -29 5 -62 10 -72 22 -42 40 -41 206 10 87 28
162 50 167 50 4 0 7 -11 7 -25 0 -14 11 -37 25 -50 21 -22 33 -25 95 -25 62 0
74 3 95 25 21 20 25 33 25 88 l0 64 -42 -4 c-73 -6 -165 -6 -176 1 -6 4 -14 0
-19 -7z m177 -57 l0 -50 -61 0 -60 0 3 32 c3 30 8 34 58 50 30 9 56 17 58 17
1 1 2 -21 2 -49z"/>
</g>
</svg>
