<svg width="18" height="20" viewBox="0 0 18 20" fill="none" xmlns="http://www.w3.org/2000/svg">
<path fill-rule="evenodd" clip-rule="evenodd" d="M5.99977 2.44963C5.44749 2.44963 4.99977 2.02057 4.99977 1.49129C4.99977 0.962019 5.44749 0.532959 5.99977 0.532959H10.2424C10.7947 0.532959 11.2424 0.962019 11.2424 1.49129C11.2424 2.02057 10.7947 2.44963 10.2424 2.44963H9.12109L9.12109 4.25003C9.12109 4.27503 9.12009 4.2998 9.11813 4.32432C10.5329 4.51392 11.829 5.05812 12.9056 5.86016L13.2929 5.48905C13.6834 5.1148 14.3166 5.1148 14.7071 5.48905C15.0976 5.8633 15.0976 6.47008 14.7071 6.84434L14.3199 7.21545C15.2038 8.30516 15.7876 9.62955 15.9523 11.0746L17 11.0746C17.5523 11.0746 18 11.5037 18 12.0329C18 12.5622 17.5523 12.9913 17 12.9913L15.922 12.9913C15.3768 16.7167 12.0377 19.5834 8 19.5834C3.58172 19.5834 0 16.1509 0 11.9167C0 7.9668 3.11691 4.71456 7.1222 4.29565C7.12147 4.28053 7.12109 4.26532 7.12109 4.25003L7.12109 2.44963H5.99977ZM14 11.9167C14 15.0923 11.3137 17.6667 8 17.6667C4.68629 17.6667 2 15.0923 2 11.9167C2 8.74106 4.68629 6.16669 8 6.16669C11.3137 6.16669 14 8.74106 14 11.9167ZM5.29289 9.32238C5.68342 8.94813 6.31658 8.94813 6.70711 9.32238L8.70711 11.239C9.09763 11.6133 9.09763 12.2201 8.70711 12.5943C8.31658 12.9686 7.68342 12.9686 7.29289 12.5943L5.29289 10.6777C4.90237 10.3034 4.90237 9.69663 5.29289 9.32238Z" fill="currentColor"/>
</svg>
