<svg width="80" height="80" viewBox="0 0 80 80" fill="none" xmlns="http://www.w3.org/2000/svg">
<g id="Icons=Sales">
<path id="Fill 1" fill-rule="evenodd" clip-rule="evenodd" d="M36 19.9992C29.36 19.9992 24 25.3712 24 31.9992C24 38.6272 29.36 43.9992 36 43.9992H44C46.2 43.9992 48 45.7912 48 47.9992C48 50.2072 46.2 51.9992 44 51.9992H30C27.8 51.9992 26 53.7912 26 55.9992C26 58.2072 27.8 59.9992 30 59.9992H36V63.9992C36 66.2072 37.8 67.9992 40 67.9992C42.2 67.9992 44 66.2072 44 63.9992V59.9992C50.64 59.9992 56 54.6272 56 47.9992C56 41.3712 50.64 35.9992 44 35.9992H36C33.8 35.9992 32 34.2072 32 31.9992C32 29.7912 33.8 27.9992 36 27.9992H50C52.2 27.9992 54 26.2072 54 23.9992C54 21.7912 52.2 19.9992 50 19.9992H44V15.9992C44 13.7912 42.2 11.9992 40 11.9992C37.8 11.9992 36 13.7912 36 15.9992V19.9992ZM8 11.9992C8 9.79121 9.8 7.99921 12 7.99921H68C70.2 7.99921 72 9.79121 72 11.9992V67.9992C72 70.2072 70.2 71.9992 68 71.9992H12C9.8 71.9992 8 70.2072 8 67.9992V11.9992ZM68 -0.000793457H12C5.36 -0.000793457 0 5.37121 0 11.9992V67.9992C0 74.6272 5.36 79.9992 12 79.9992H68C74.64 79.9992 80 74.6272 80 67.9992V11.9992C80 5.37121 74.64 -0.000793457 68 -0.000793457Z" fill="currentColor"/>
</g>
</svg>
