<svg width="20" height="20" viewBox="0 0 20 20" fill="none" xmlns="http://www.w3.org/2000/svg">
<path fill-rule="evenodd" clip-rule="evenodd" d="M0.0454844 7.19494L0.733584 3.32471C0.971696 1.98544 2.09943 0.967012 3.48734 0.837878L7.86748 0.430342C8.78613 0.34487 9.69593 0.663756 10.3485 1.29992L19.0941 9.82617C20.302 11.0038 20.302 12.9131 19.0941 14.0907L14.366 18.7001C13.1581 19.8778 11.1997 19.8778 9.99179 18.7001L0.905976 9.84221C0.194639 9.14872 -0.126324 8.16128 0.0454844 7.19494ZM3.68324 2.8391C3.22061 2.88215 2.8447 3.22162 2.76533 3.66805L2.07723 7.53828C2.01996 7.86039 2.12694 8.18954 2.36406 8.4207L11.4499 17.2786C11.8525 17.6712 12.5053 17.6712 12.908 17.2786L17.636 12.6692C18.0386 12.2766 18.0386 11.6402 17.636 11.2477L8.89038 2.72142C8.67287 2.50937 8.3696 2.40308 8.06339 2.43157L3.68324 2.8391ZM6.76607 5.1736C7.19313 5.58995 7.19313 6.26499 6.76607 6.68134C6.339 7.09769 5.6466 7.09769 5.21954 6.68134C4.79248 6.26499 4.79248 5.58995 5.21954 5.1736C5.6466 4.75725 6.339 4.75725 6.76607 5.1736Z" fill="currentColor"/>
</svg>
