<svg width="80" height="80" viewBox="0 0 80 80" fill="none" xmlns="http://www.w3.org/2000/svg">
<g id="Icons=Setting">
<path id="Shape" fill-rule="evenodd" clip-rule="evenodd" d="M40 7.99999L65.6136 20.5948L72.0004 49.1656L54.1804 71.982H25.8198L8.00007 49.1656L14.3865 20.5948L40 7.99999ZM36.47 0.82095C38.696 -0.27365 41.304 -0.27365 43.5304 0.82095L69.144 13.4158C71.3192 14.4855 72.8924 16.4839 73.4212 18.8496L79.8076 47.4204C80.3296 49.7564 79.7784 52.2032 78.3052 54.09L60.4852 76.906C58.9692 78.8472 56.6436 79.982 54.1804 79.982H25.8198C23.3567 79.982 21.031 78.8472 19.5149 76.906L1.69515 54.09C0.221786 52.2032 -0.329414 49.7564 0.192746 47.4204L6.57923 18.8496C7.10803 16.4839 8.68107 14.4855 10.8564 13.4158L36.47 0.82095ZM24.0027 42C24.0027 33.1636 31.1661 26 40.0028 26C48.8392 26 56.0028 33.1636 56.0028 42C56.0028 50.8364 48.8392 58 40.0028 58C31.1661 58 24.0027 50.8364 24.0027 42ZM40.0028 34C35.5844 34 32.0028 37.5816 32.0028 42C32.0028 46.4184 35.5844 50 40.0028 50C44.4212 50 48.0028 46.4184 48.0028 42C48.0028 37.5816 44.4212 34 40.0028 34Z" fill="currentColor"/>
</g>
</svg>
