<?xml version="1.0" standalone="no"?>
<!DOCTYPE svg PUBLIC "-//W3C//DTD SVG 20010904//EN"
 "http://www.w3.org/TR/2001/REC-SVG-20010904/DTD/svg10.dtd">
<svg version="1.0" xmlns="http://www.w3.org/2000/svg"
 width="60.000000pt" height="60.000000pt" viewBox="0 0 60.000000 60.000000"
 preserveAspectRatio="xMidYMid meet">
<metadata>
Created by potrace 1.16, written by Peter Selinger 2001-2019
</metadata>
<g transform="translate(0.000000,60.000000) scale(0.100000,-0.100000)"
fill="#000000" stroke="none">
<path d="M124 506 c-29 -29 -34 -41 -34 -83 0 -27 7 -58 15 -70 13 -19 13 -23
1 -30 -33 -18 -46 -66 -46 -165 l0 -98 29 0 29 0 4 90 c4 77 7 93 28 115 32
34 88 34 120 0 21 -22 24 -38 28 -115 l4 -90 29 0 29 0 0 76 0 77 46 -6 c25
-2 51 -10 57 -16 6 -6 13 -38 15 -71 4 -58 5 -60 33 -60 l29 0 0 74 c0 57 -4
79 -19 97 -15 19 -17 34 -13 86 5 61 4 63 -32 99 -34 34 -39 36 -91 32 -41 -2
-55 0 -55 11 0 7 -15 28 -34 47 -30 30 -40 34 -86 34 -46 0 -56 -4 -86 -34z"/>
</g>
</svg>
