<?xml version="1.0" standalone="no"?>
<!DOCTYPE svg PUBLIC "-//W3C//DTD SVG 20010904//EN"
 "http://www.w3.org/TR/2001/REC-SVG-20010904/DTD/svg10.dtd">
<svg version="1.0" xmlns="http://www.w3.org/2000/svg"
 width="64.000000pt" height="64.000000pt" viewBox="0 0 64.000000 64.000000"
 preserveAspectRatio="xMidYMid meet">
<metadata>
Created by potrace 1.16, written by Peter Selinger 2001-2019
</metadata>
<g transform="translate(0.000000,64.000000) scale(0.100000,-0.100000)"
fill="#000000" stroke="none">
<path d="M52 587 c-21 -23 -22 -30 -22 -268 0 -244 0 -246 23 -267 23 -21 31
-22 268 -22 305 0 289 -9 289 154 0 106 0 107 -22 104 -22 -3 -23 -9 -28 -103
l-5 -100 -235 0 -235 0 0 235 0 235 115 5 c107 5 115 6 115 25 0 19 -8 20
-120 23 -116 2 -122 2 -143 -21z"/>
<path d="M406 574 c-3 -9 -6 -29 -6 -45 0 -29 0 -29 -63 -29 -124 0 -180 -63
-175 -200 3 -68 5 -75 25 -78 14 -2 23 3 27 16 4 10 20 31 36 47 25 24 41 30
90 33 l60 4 0 -34 c0 -37 15 -58 40 -58 9 0 56 38 104 83 107 101 107 101 -3
204 -78 74 -122 92 -135 57z m31 -160 l-14 -39 -70 -6 c-45 -3 -82 -13 -106
-27 -33 -19 -37 -20 -37 -4 0 26 35 79 66 98 25 17 166 36 172 23 1 -3 -4 -23
-11 -45z"/>
</g>
</svg>
