<?xml version="1.0" standalone="no"?>
<!DOCTYPE svg PUBLIC "-//W3C//DTD SVG 20010904//EN"
 "http://www.w3.org/TR/2001/REC-SVG-20010904/DTD/svg10.dtd">
<svg version="1.0" xmlns="http://www.w3.org/2000/svg"
 width="86.000000pt" height="86.000000pt" viewBox="0 0 86.000000 86.000000"
 preserveAspectRatio="xMidYMid meet">

<g transform="translate(0.000000,86.000000) scale(0.100000,-0.100000)"
fill="#000000" stroke="none">
<path d="M435 240 c-11 -4 -25 -6 -30 -3 -6 2 -33 -19 -60 -47 -66 -67 -90
-67 -162 1 -35 33 -59 49 -69 45 -9 -3 -21 -6 -27 -6 -6 0 0 -11 13 -25 l23
-25 -63 -66 c-58 -61 -62 -67 -46 -82 15 -15 21 -12 81 48 l65 64 22 -21 c61
-58 117 -48 198 32 50 49 58 54 70 41 18 -22 50 -20 50 3 0 18 -30 52 -30 35
0 -5 -4 -4 -8 2 -4 7 -15 8 -27 4z"/>
</g>
</svg>
