<?xml version="1.0" encoding="UTF-8"?>
<!DOCTYPE svg PUBLIC "-//W3C//DTD SVG 1.1//EN" "http://www.w3.org/Graphics/SVG/1.1/DTD/svg11.dtd">
<!-- Creator: CorelDRAW 2020 (64-Bit) -->
<svg xmlns="http://www.w3.org/2000/svg" xml:space="preserve" width="58px" height="63px" version="1.1" style="shape-rendering:geometricPrecision; text-rendering:geometricPrecision; image-rendering:optimizeQuality; fill-rule:evenodd; clip-rule:evenodd"
viewBox="0 0 0.54 0.59"
 xmlns:xlink="http://www.w3.org/1999/xlink"
 xmlns:xodm="http://www.corel.com/coreldraw/odm/2003">
 <defs>
  <style type="text/css">
   <![CDATA[
    .str0 {stroke:#7E7E7E;stroke-width:0.02;stroke-miterlimit:22.9256}
    .fil0 {fill:#7E7E7E}
    .fil1 {fill:#7E7E7E}
   ]]>
  </style>
 </defs>
 <g id="Layer_x0020_1">
  <metadata id="CorelCorpID_0Corel-Layer"/>
  <g id="_2954138398112">
   <path class="fil0 str0" d="M0.31 0.14c-0.01,-0.03 0.01,-0.06 0.02,-0.07 0.02,-0.02 0.04,-0.04 0.07,-0.04 0.09,-0.01 0.15,0.09 0.09,0.17 -0.01,0.01 -0.02,0.02 -0.03,0.02 -0.01,0.01 -0.03,0.01 -0.04,0.02 -0.06,0 -0.11,-0.04 -0.11,-0.1zm-0.08 -0.01c-0.01,0.02 -0.04,0.01 -0.04,-0.01 0.01,0 0.03,0.01 0.03,-0.01 -0.01,0 -0.02,0 -0.02,-0.01 0,0 0,0 0,0 0.02,-0.01 0.05,0.01 0.03,0.03zm-0.05 -0.03l-0.04 -0.02 0.04 -0.03c0.01,-0.01 0.02,-0.02 0.04,-0.02 0.02,0.01 0.04,0.03 0.05,0.04l0.03 0.02c0,0.01 -0.01,0.02 -0.01,0.03 0,0.01 0,0.02 0,0.03 0.01,0.05 0.04,0.08 0.08,0.09 0.01,0.01 0.02,0.01 0.02,0.01 0.01,0.01 0,0.03 0,0.04l0 0.12c0,0.01 0.01,0.1 0,0.11 0,0.01 0,0.02 -0.01,0.02 -0.02,0.02 -0.04,0.02 -0.06,0.02l-0.23 0c-0.07,0 -0.06,-0.05 -0.06,-0.1l0 -0.23c0,-0.02 0,-0.05 0.02,-0.06 0,0 0,-0.01 0.01,-0.01 0,0 0,-0.01 0.01,-0.01l0.04 -0.04c0,0 0.01,-0.01 0.02,-0.02l0.04 0.02c0,0.02 0.01,0.04 0.03,0.05 0.05,0.01 0.07,-0.05 0.03,-0.07 -0.03,-0.02 -0.05,0 -0.05,0.01zm-0.06 -0.03c-0.01,0 -0.05,-0.02 -0.06,-0.02 -0.01,0 -0.02,-0.01 -0.03,-0.01 0,0.01 0,0.01 0,0.02 0.01,0 0.01,0 0.01,0 0.01,0 0.02,0.01 0.03,0.01 0,0 0.03,0.01 0.04,0.02l-0.06 0.06c-0.01,0 -0.02,0.01 -0.02,0.02 -0.02,0.02 -0.02,0.04 -0.02,0.07 0,0.02 0,0.05 0,0.08 0,0.05 0,0.11 0,0.16 0,0.03 0,0.05 0.02,0.07 0.01,0.01 0.03,0.03 0.05,0.03 0.06,0 0.11,0 0.17,0 0.01,0 0.1,0 0.11,-0.01 0.02,0 0.04,-0.02 0.05,-0.04 0,-0.01 0,-0.02 0,-0.03l0 -0.25c0.05,0 0.08,-0.02 0.1,-0.06 0.03,-0.04 0.02,-0.08 0,-0.12 -0.05,-0.08 -0.16,-0.07 -0.2,0.01l-0.04 -0.03c0,0 0,-0.01 0,-0.01 -0.02,-0.01 -0.03,-0.02 -0.05,-0.03 -0.04,0 -0.05,0.02 -0.07,0.04l-0.03 0.02z"/>
   <path class="fil0 str0" d="M0.34 0.48c-0.01,0.02 -0.03,0.02 -0.05,0.02l-0.17 0c-0.03,0 -0.03,-0.01 -0.03,-0.03 0,-0.03 0,-0.17 0,-0.18 0,-0.02 0.02,-0.01 0.04,-0.01l0.18 0c0.02,0 0.03,0 0.03,0.02 0,0.02 0,0.18 0,0.18zm-0.27 0c0,0.02 0.02,0.03 0.04,0.03 0.02,0 0.04,0 0.06,0 0.05,0 0.09,0 0.14,0 0.05,0 0.04,-0.04 0.04,-0.08 0,-0.03 0.01,-0.12 0,-0.14 0,-0.02 -0.01,-0.03 -0.03,-0.03 -0.02,0 -0.05,0 -0.07,0 -0.04,0 -0.09,0 -0.13,0 -0.06,0 -0.05,0.03 -0.05,0.09 0,0.02 0,0.11 0,0.13z"/>
   <path class="fil1 str0" d="M0.38 0.18l0 0c0,-0.01 0.01,-0.03 0,-0.04 0,0 -0.02,-0.01 -0.02,-0.02 0.01,0 0.03,0 0.04,-0.01 0,0 0,-0.02 0.01,-0.02 0.01,0 0.01,0.02 0.01,0.02 0.01,0.01 0.03,0.01 0.04,0.01 0,0.01 -0.02,0.02 -0.02,0.02 -0.01,0.01 0.01,0.04 0,0.04 -0.01,0 -0.02,-0.01 -0.03,-0.01 -0.01,0 -0.02,0.01 -0.03,0.01zm0 -0.08c-0.01,0 -0.02,0 -0.03,0.01 -0.01,0.01 0,0.03 0.01,0.04 0.01,0 0.01,0 0.01,0.01 -0.01,0.01 -0.01,0.02 0,0.03 0.01,0.01 0.02,0.01 0.03,0 0.01,-0.01 0.01,-0.01 0.03,0 0.01,0.01 0.02,0.01 0.02,0 0.01,-0.01 0.01,-0.03 0,-0.04 0.01,0 0.03,-0.01 0.02,-0.03 0,-0.02 -0.03,-0.01 -0.03,-0.02 -0.01,-0.01 -0.01,-0.03 -0.03,-0.03 -0.02,0 -0.02,0.02 -0.03,0.03z"/>
   <path class="fil1 str0" d="M0.13 0.34c0.01,0.01 0.01,0.01 0.02,0.01 0.04,0 0.09,0 0.14,0 0,0 0.01,-0.01 0.01,-0.02 -0.01,-0.01 -0.03,0 -0.04,0l-0.12 0c-0.01,0 -0.01,0 -0.01,0.01z"/>
   <path class="fil1 str0" d="M0.15 0.44l0.11 0c0.02,0 0.04,0.01 0.04,-0.01 -0.01,-0.01 -0.01,0 -0.02,0 -0.01,0 -0.02,0 -0.03,0l-0.09 0c-0.02,0 -0.03,-0.01 -0.03,0.01 0.01,0 0.01,0 0.02,0z"/>
   <path class="fil1 str0" d="M0.15 0.39l0.14 0c0,0 0.01,0 0.01,-0.01 0,-0.01 -0.02,0 -0.04,0l-0.12 0c-0.01,0 -0.02,0 -0.01,0.01 0,0.01 0.01,0 0.02,0z"/>
  </g>
 </g>
</svg>
