<svg width="20" height="20" viewBox="0 0 20 20" fill="none" xmlns="http://www.w3.org/2000/svg">
<path fill-rule="evenodd" clip-rule="evenodd" d="M5 3.29169C5 2.76241 5.44771 2.33335 6 2.33335H9.66667H14C14.5523 2.33335 15 2.76241 15 3.29169V5.20835V7.12502V8.89243L10.6139 12.1617C10.2528 12.4308 9.74717 12.4308 9.38606 12.1617L5 8.89243V7.12502V5.20835V3.29169ZM3 5.20835V3.29169C3 1.70387 4.34314 0.416687 6 0.416687H9.66667H14C15.6569 0.416687 17 1.70387 17 3.29169V5.20835C18.6569 5.20835 20 6.49554 20 8.08335V16.7084C20 18.2962 18.6569 19.5834 17 19.5834H3C1.34315 19.5834 0 18.2962 0 16.7084V8.08335C0 6.49553 1.34315 5.20835 3 5.20835ZM17 7.12502V7.40169L17.3087 7.17156C17.2115 7.14135 17.1077 7.12502 17 7.12502ZM3 7.12502C2.89226 7.12502 2.7885 7.14135 2.69127 7.17156L3 7.40169V7.12502ZM2 14.6623V9.08447L5.61261 11.7772L2 14.6623ZM3 17.6667C2.58966 17.6667 2.23705 17.4298 2.0829 17.091L7.22853 12.9817L8.15818 13.6746C9.24151 14.4821 10.7585 14.4821 11.8418 13.6746L12.7715 12.9817L17.9171 17.091C17.763 17.4298 17.4103 17.6667 17 17.6667H3ZM18 9.08447V14.6623L14.3874 11.7772L18 9.08447Z" fill="currentColor"/>
</svg>
