<svg width="16" height="20" viewBox="0 0 16 20" fill="none" xmlns="http://www.w3.org/2000/svg">
<path fill-rule="evenodd" clip-rule="evenodd" d="M12 3.57629L12.129 3.45789L12.7764 2.86368L13.1545 2.51663C13.4726 2.22467 14 2.44115 14 2.86368V3.36595V4.2259V4.39725V15.5015V15.8294V16.8029V17.1936C14 17.6454 13.4092 17.8471 13.1122 17.4966L12.8554 17.1936L12.2155 16.4384L12 16.1841L11.5383 15.6392C11.1403 15.1696 10.3944 15.1665 9.99227 15.633L8.35648 17.5306C8.16636 17.7512 7.81876 17.764 7.61164 17.558L5.61352 15.5712C5.17616 15.1363 4.43412 15.1931 4.07396 15.6889L4 15.7908L3.72346 16.1715L3.10959 17.0166L2.91011 17.2913C2.63021 17.6766 2 17.4865 2 17.0166V16.6818V15.6514V15.1872V4.49671V4.28665V3.39024V2.92385C2 2.49276 2.54581 2.28011 2.85864 2.58932L3.19708 2.92385L3.84757 3.56683L4 3.7175L4.34505 4.05856C4.71314 4.42241 5.31247 4.44857 5.71342 4.1183L7.66113 2.51395C7.85416 2.35495 8.14075 2.36042 8.32705 2.52667L10.0788 4.08986C10.4666 4.43586 11.0679 4.4318 11.4506 4.0806L12 3.57629ZM16 17.1936V2.86368C16 0.751041 13.363 -0.331385 11.7725 1.12841L10.7499 2.06703L9.68855 1.11992C8.75704 0.288689 7.32411 0.261337 6.35893 1.05636L5.12465 2.07305L4.2932 1.2512C2.72907 -0.294871 0 0.768395 0 2.92385V17.0166C0 19.3658 3.15102 20.3167 4.55055 18.3899L5.01912 17.7447L6.17295 18.892C7.20855 19.9218 8.94658 19.8579 9.89716 18.7552L10.756 17.7589L11.5608 18.7086C13.0458 20.461 16 19.4528 16 17.1936ZM6.04051 13.1418C5.64998 13.5168 5.01682 13.5168 4.62629 13.1418C4.23577 12.7668 4.23577 12.1588 4.62629 11.7839L9.95952 6.66283C10.35 6.28785 10.9832 6.28785 11.3737 6.66283C11.7643 7.03782 11.7643 7.64579 11.3737 8.02078L6.04051 13.1418ZM4 7.3418C4 6.63474 4.59694 6.06155 5.33331 6.06155C6.06967 6.06155 6.66661 6.63474 6.66661 7.3418C6.66661 8.04887 6.06967 8.62206 5.33331 8.62206C4.59694 8.62206 4 8.04887 4 7.3418ZM10.6666 11.1826C9.93026 11.1826 9.33332 11.7558 9.33332 12.4628C9.33332 13.1699 9.93026 13.7431 10.6666 13.7431C11.403 13.7431 11.9999 13.1699 11.9999 12.4628C11.9999 11.7558 11.403 11.1826 10.6666 11.1826Z" fill="currentColor"/>
</svg>
