<svg width="22" height="26" viewBox="0 0 22 26" fill="none" xmlns="http://www.w3.org/2000/svg">
<path d="M17.403 24.2198C15.9641 24.2198 15.6272 21.5395 14.2164 21.4478C12.6933 21.3526 11.9669 24.2692 10.4332 24.1704C8.96978 24.0893 8.54864 21.3984 7.24313 21.4478C5.99376 21.4972 5.59368 23.9976 4.05303 24.0188C3.51782 24.0112 3.00276 23.8124 2.60012 23.458C2.41264 23.286 2.26257 23.0769 2.1593 22.8439C2.05603 22.6108 2.00179 22.3589 2 22.1038V3.91644C2.02011 3.3891 2.24756 2.89132 2.63245 2.5323C3.01734 2.17329 3.52823 1.98237 4.05303 2.00143H17.9435C18.4689 1.98141 18.9807 2.1719 19.3663 2.53102C19.752 2.89013 19.9799 3.38847 20 3.91644V22.1038C19.7614 23.9447 17.9435 24.2198 17.403 24.2198Z" stroke="#177BFC" stroke-width="2.2" stroke-miterlimit="10"/>
<path fill-rule="evenodd" clip-rule="evenodd" d="M10.1387 8.06739C9.46875 8.09219 8.83447 8.37707 8.36923 8.86214C7.90399 9.3472 7.64404 9.99465 7.64404 10.6684C7.64404 11.3421 7.90399 11.9895 8.36923 12.4746C8.83447 12.9596 9.46875 13.2445 10.1387 13.2693H11.8618C11.9796 13.2618 12.0977 13.2785 12.2087 13.3186C12.3198 13.3587 12.4215 13.4213 12.5076 13.5024C12.5936 13.5835 12.6622 13.6816 12.7091 13.7904C12.756 13.8992 12.7802 14.0165 12.7802 14.1351C12.7802 14.2537 12.756 14.371 12.7091 14.4799C12.6622 14.5887 12.5936 14.6867 12.5076 14.7678C12.4215 14.849 12.3198 14.9115 12.2087 14.9516C12.0977 14.9917 11.9796 15.0085 11.8618 15.0009H8.84371C8.72594 14.9934 8.60788 15.0102 8.49682 15.0503C8.38576 15.0903 8.28406 15.1529 8.198 15.234C8.11194 15.3152 8.04335 15.4132 7.99645 15.522C7.94956 15.6308 7.92537 15.7482 7.92537 15.8667C7.92537 15.9853 7.94956 16.1027 7.99645 16.2115C8.04335 16.3203 8.11194 16.4183 8.198 16.4995C8.28406 16.5806 8.38576 16.6431 8.49682 16.6832C8.60788 16.7233 8.72594 16.7401 8.84371 16.7326H10.1387V17.6001C10.1312 17.7185 10.1479 17.8371 10.1878 17.9487C10.2277 18.0603 10.2899 18.1625 10.3707 18.249C10.4514 18.3355 10.5489 18.4044 10.6572 18.4516C10.7655 18.4987 10.8823 18.523 11.0003 18.523C11.1183 18.523 11.235 18.4987 11.3433 18.4516C11.4516 18.4044 11.5491 18.3355 11.6299 18.249C11.7106 18.1625 11.7729 18.0603 11.8128 17.9487C11.8527 17.8371 11.8694 17.7185 11.8618 17.6001V16.7326C12.5492 16.7326 13.2084 16.4582 13.6945 15.9697C14.1805 15.4813 14.4536 14.8188 14.4536 14.1281C14.4536 13.4373 14.1805 12.7749 13.6945 12.2864C13.2084 11.798 12.5492 11.5236 11.8618 11.5236H10.1387C10.0209 11.5311 9.90287 11.5144 9.79181 11.4743C9.68075 11.4342 9.57905 11.3716 9.49299 11.2905C9.40693 11.2093 9.33833 11.1113 9.29144 11.0025C9.24455 10.8937 9.22036 10.7764 9.22036 10.6578C9.22036 10.5392 9.24455 10.4219 9.29144 10.313C9.33833 10.2042 9.40693 10.1062 9.49299 10.0251C9.57905 9.94392 9.68075 9.88138 9.79181 9.84128C9.90287 9.80119 10.0209 9.78441 10.1387 9.79196H13.1568C13.3858 9.79196 13.6054 9.70056 13.7673 9.53786C13.9292 9.37515 14.0202 9.15448 14.0202 8.92439C14.0202 8.69429 13.9292 8.47362 13.7673 8.31092C13.6054 8.14822 13.3858 8.05681 13.1568 8.05681H11.8618V7.20335C11.8694 7.085 11.8527 6.96636 11.8128 6.85475C11.7729 6.74315 11.7106 6.64095 11.6299 6.55446C11.5491 6.46798 11.4516 6.39904 11.3433 6.35192C11.235 6.3048 11.1183 6.28049 11.0003 6.28049C10.8823 6.28049 10.7655 6.3048 10.6572 6.35192C10.5489 6.39904 10.4514 6.46798 10.3707 6.55446C10.2899 6.64095 10.2277 6.74315 10.1878 6.85475C10.1479 6.96636 10.1312 7.085 10.1387 7.20335V8.06739Z" fill="#177BFC"/>
</svg>
