<svg width="20" height="25" viewBox="0 0 20 25" fill="none" xmlns="http://www.w3.org/2000/svg">
<path d="M16.403 23.2198C14.9641 23.2198 14.6272 20.5395 13.2164 20.4478C11.6933 20.3526 10.9669 23.2692 9.43322 23.1704C7.96978 23.0893 7.54864 20.3984 6.24313 20.4478C4.99376 20.4972 4.59368 22.9976 3.05303 23.0188C2.51782 23.0112 2.00276 22.8124 1.60012 22.458C1.41264 22.286 1.26257 22.0769 1.1593 21.8439C1.05603 21.6108 1.00179 21.3589 1 21.1038V2.91644C1.02011 2.3891 1.24756 1.89132 1.63245 1.5323C2.01734 1.17329 2.52823 0.982366 3.05303 1.00143H16.9435C17.4689 0.981409 17.9807 1.1719 18.3663 1.53102C18.752 1.89013 18.9799 2.38847 19 2.91644V21.1038C18.7614 22.9447 16.9435 23.2198 16.403 23.2198Z" stroke="#010101" stroke-opacity="0.7" stroke-width="2" stroke-miterlimit="10"/>
<path fill-rule="evenodd" clip-rule="evenodd" d="M9.1387 7.06739C8.46875 7.09219 7.83447 7.37707 7.36923 7.86214C6.90399 8.3472 6.64404 8.99465 6.64404 9.66835C6.64404 10.3421 6.90399 10.9895 7.36923 11.4746C7.83447 11.9596 8.46875 12.2445 9.1387 12.2693H10.8618C10.9796 12.2618 11.0977 12.2785 11.2087 12.3186C11.3198 12.3587 11.4215 12.4213 11.5076 12.5024C11.5936 12.5835 11.6622 12.6816 11.7091 12.7904C11.756 12.8992 11.7802 13.0165 11.7802 13.1351C11.7802 13.2537 11.756 13.371 11.7091 13.4799C11.6622 13.5887 11.5936 13.6867 11.5076 13.7678C11.4215 13.849 11.3198 13.9115 11.2087 13.9516C11.0977 13.9917 10.9796 14.0085 10.8618 14.0009H7.84371C7.72594 13.9934 7.60788 14.0102 7.49682 14.0503C7.38576 14.0903 7.28406 14.1529 7.198 14.234C7.11194 14.3152 7.04335 14.4132 6.99645 14.522C6.94956 14.6308 6.92537 14.7482 6.92537 14.8667C6.92537 14.9853 6.94956 15.1027 6.99645 15.2115C7.04335 15.3203 7.11194 15.4183 7.198 15.4995C7.28406 15.5806 7.38576 15.6431 7.49682 15.6832C7.60788 15.7233 7.72594 15.7401 7.84371 15.7326H9.1387V16.6001C9.13118 16.7185 9.14788 16.8371 9.18778 16.9487C9.22767 17.0603 9.28991 17.1625 9.37066 17.249C9.4514 17.3355 9.54893 17.4044 9.65722 17.4516C9.76551 17.4987 9.88226 17.523 10.0003 17.523C10.1183 17.523 10.235 17.4987 10.3433 17.4516C10.4516 17.4044 10.5491 17.3355 10.6299 17.249C10.7106 17.1625 10.7729 17.0603 10.8128 16.9487C10.8527 16.8371 10.8694 16.7185 10.8618 16.6001V15.7326C11.5492 15.7326 12.2084 15.4582 12.6945 14.9697C13.1805 14.4813 13.4536 13.8188 13.4536 13.1281C13.4536 12.4373 13.1805 11.7749 12.6945 11.2864C12.2084 10.798 11.5492 10.5236 10.8618 10.5236H9.1387C9.02093 10.5311 8.90287 10.5144 8.79181 10.4743C8.68075 10.4342 8.57905 10.3716 8.49299 10.2905C8.40693 10.2093 8.33833 10.1113 8.29144 10.0025C8.24455 9.89369 8.22036 9.77636 8.22036 9.65777C8.22036 9.53918 8.24455 9.42186 8.29144 9.31303C8.33833 9.20421 8.40693 9.1062 8.49299 9.02506C8.57905 8.94392 8.68075 8.88138 8.79181 8.84128C8.90287 8.80119 9.02093 8.78441 9.1387 8.79196H12.1568C12.3858 8.79196 12.6054 8.70056 12.7673 8.53786C12.9292 8.37515 13.0202 8.15448 13.0202 7.92439C13.0202 7.69429 12.9292 7.47362 12.7673 7.31092C12.6054 7.14822 12.3858 7.05681 12.1568 7.05681H10.8618V6.20335C10.8694 6.085 10.8527 5.96636 10.8128 5.85475C10.7729 5.74315 10.7106 5.64095 10.6299 5.55446C10.5491 5.46798 10.4516 5.39904 10.3433 5.35192C10.235 5.3048 10.1183 5.28049 10.0003 5.28049C9.88226 5.28049 9.76551 5.3048 9.65722 5.35192C9.54893 5.39904 9.4514 5.46798 9.37066 5.55446C9.28991 5.64095 9.22767 5.74315 9.18778 5.85475C9.14788 5.96636 9.13118 6.085 9.1387 6.20335V7.06739Z" fill="black" fill-opacity="0.7"/>
</svg>
