<svg width="48" height="40" viewBox="0 0 48 40" fill="none" xmlns="http://www.w3.org/2000/svg">
<path opacity="0.1" d="M9.20347 36.2936C4.60817 33.9219 -0.283588 30.4828 0.0128822 26.8955C0.279705 23.2786 5.76441 19.543 9.20347 15.5703C12.6129 11.5976 13.9766 7.38774 17.3268 4.3341C20.6472 1.28045 25.9541 -0.616959 31.2312 0.18351C36.5084 0.954334 41.7559 4.42304 44.8392 9.34445C47.8929 14.2955 48.8119 20.64 46.8256 25.5614C44.8392 30.4828 39.9771 33.9812 35.3818 36.3529C30.8162 38.7247 26.547 40.0292 22.2778 39.9995C18.0383 39.9995 13.7691 38.695 9.20347 36.2936Z" fill="url(#paint0_linear_1_4797)"/>
<path opacity="0.2" d="M35 29C35 29.7911 34.7654 30.5645 34.3259 31.2223C33.8864 31.8801 33.2616 32.3928 32.5307 32.6955C31.7998 32.9983 30.9956 33.0775 30.2196 32.9231C29.4437 32.7688 28.731 32.3878 28.1716 31.8284C27.6122 31.269 27.2312 30.5563 27.0769 29.7804C26.9225 29.0044 27.0017 28.2002 27.3045 27.4693C27.6072 26.7384 28.1199 26.1137 28.7777 25.6741C29.4355 25.2346 30.2089 25 31 25C32.0609 25 33.0783 25.4214 33.8284 26.1716C34.5786 26.9217 35 27.9391 35 29ZM31 15C31.7911 15 32.5645 14.7654 33.2223 14.3259C33.8801 13.8864 34.3928 13.2616 34.6955 12.5307C34.9983 11.7998 35.0775 10.9956 34.9231 10.2196C34.7688 9.44372 34.3878 8.73098 33.8284 8.17157C33.269 7.61216 32.5563 7.2312 31.7804 7.07686C31.0044 6.92252 30.2002 7.00173 29.4693 7.30448C28.7384 7.60723 28.1136 8.11992 27.6741 8.77772C27.2346 9.43552 27 10.2089 27 11C27 12.0609 27.4214 13.0783 28.1716 13.8284C28.9217 14.5786 29.9391 15 31 15Z" fill="url(#paint1_linear_1_4797)"/>
<path d="M31.0001 24C30.333 23.9998 29.6726 24.1334 29.0581 24.393C28.4436 24.6526 27.8875 25.0328 27.4226 25.5112L21.6601 21.8075C22.1133 20.6451 22.1133 19.3549 21.6601 18.1925L27.4226 14.4887C28.2881 15.3754 29.4521 15.9091 30.6888 15.9863C31.9255 16.0635 33.1468 15.6788 34.1159 14.9067C35.085 14.1346 35.733 13.0302 35.9341 11.8075C36.1352 10.5848 35.8751 9.33103 35.2043 8.28921C34.5335 7.24739 33.4998 6.49176 32.3035 6.16881C31.1073 5.84586 29.8337 5.97861 28.7297 6.54132C27.6258 7.10402 26.7701 8.0566 26.3286 9.21436C25.887 10.3721 25.8911 11.6526 26.3401 12.8075L20.5776 16.5112C19.8836 15.7988 18.993 15.3096 18.0196 15.1059C17.0462 14.9023 16.0341 14.9936 15.1128 15.3681C14.1916 15.7427 13.4029 16.3834 12.8477 17.2085C12.2924 18.0336 11.9958 19.0055 11.9958 20C11.9958 20.9945 12.2924 21.9664 12.8477 22.7915C13.4029 23.6166 14.1916 24.2573 15.1128 24.6319C16.0341 25.0064 17.0462 25.0977 18.0196 24.8941C18.993 24.6904 19.8836 24.2012 20.5776 23.4887L26.3401 27.1925C25.954 28.1882 25.8969 29.2813 26.1771 30.3117C26.4572 31.3422 27.0599 32.2559 27.8969 32.9191C28.734 33.5822 29.7613 33.96 30.8285 33.997C31.8958 34.034 32.9468 33.7284 33.8278 33.1249C34.7088 32.5213 35.3734 31.6516 35.7243 30.643C36.0752 29.6344 36.0939 28.54 35.7779 27.52C35.4618 26.4999 34.8274 25.6079 33.9676 24.9745C33.1079 24.3411 32.0679 23.9996 31.0001 24ZM31.0001 8C31.5934 8 32.1734 8.17595 32.6668 8.50559C33.1601 8.83523 33.5446 9.30377 33.7717 9.85195C33.9988 10.4001 34.0582 11.0033 33.9424 11.5853C33.8267 12.1672 33.5409 12.7018 33.1214 13.1213C32.7018 13.5409 32.1673 13.8266 31.5853 13.9424C31.0034 14.0581 30.4002 13.9987 29.852 13.7716C29.3038 13.5446 28.8353 13.1601 28.5056 12.6667C28.176 12.1734 28.0001 11.5933 28.0001 11C28.0001 10.2043 28.3161 9.44129 28.8787 8.87868C29.4413 8.31607 30.2044 8 31.0001 8ZM17.0001 23C16.4067 23 15.8267 22.8241 15.3333 22.4944C14.84 22.1648 14.4555 21.6962 14.2284 21.148C14.0014 20.5999 13.9419 19.9967 14.0577 19.4147C14.1735 18.8328 14.4592 18.2982 14.8787 17.8787C15.2983 17.4591 15.8328 17.1734 16.4148 17.0576C16.9967 16.9419 17.5999 17.0013 18.1481 17.2284C18.6963 17.4554 19.1648 17.8399 19.4945 18.3333C19.8241 18.8266 20.0001 19.4067 20.0001 20C20.0001 20.7956 19.684 21.5587 19.1214 22.1213C18.5588 22.6839 17.7957 23 17.0001 23ZM31.0001 32C30.4067 32 29.8267 31.8241 29.3333 31.4944C28.84 31.1648 28.4555 30.6962 28.2284 30.148C28.0014 29.5999 27.9419 28.9967 28.0577 28.4147C28.1735 27.8328 28.4592 27.2982 28.8787 26.8787C29.2983 26.4591 29.8328 26.1734 30.4148 26.0576C30.9967 25.9419 31.5999 26.0013 32.1481 26.2284C32.6963 26.4554 33.1648 26.8399 33.4945 27.3333C33.8241 27.8266 34.0001 28.4067 34.0001 29C34.0001 29.7956 33.684 30.5587 33.1214 31.1213C32.5588 31.6839 31.7957 32 31.0001 32Z" fill="url(#paint2_linear_1_4797)"/>
<defs>
<linearGradient id="paint0_linear_1_4797" x1="47.2914" y1="19.3976" x2="-0.8026" y2="19.3976" gradientUnits="userSpaceOnUse">
<stop stop-color="#FFA666"/>
<stop offset="1" stop-color="#F58636"/>
</linearGradient>
<linearGradient id="paint1_linear_1_4797" x1="27.0979" y1="20.3915" x2="35.1341" y2="20.3915" gradientUnits="userSpaceOnUse">
<stop stop-color="#FFA666"/>
<stop offset="1" stop-color="#F58636"/>
</linearGradient>
<linearGradient id="paint2_linear_1_4797" x1="23.999" y1="33.9996" x2="23.999" y2="5.99588" gradientUnits="userSpaceOnUse">
<stop stop-color="#EF5921"/>
<stop offset="1" stop-color="#F6911D"/>
</linearGradient>
</defs>
</svg>
